<?xml version="1.0" standalone="no"?><!DOCTYPE svg PUBLIC "-//W3C//DTD SVG 1.1//EN" "http://www.w3.org/Graphics/SVG/1.1/DTD/svg11.dtd"><svg t="1602474986279" class="icon" viewBox="0 0 1025 1024" version="1.1" xmlns="http://www.w3.org/2000/svg" p-id="1080" xmlns:xlink="http://www.w3.org/1999/xlink" width="200.1953125" height="200"><defs><style type="text/css"></style></defs><path d="M512.355131 512.638492m-511.361507 0a511.361508 511.361508 0 1 0 1022.723015 0 511.361508 511.361508 0 1 0-1022.723015 0Z" fill="#DFDAE0" p-id="1081"></path><path d="M500.862267 514.057365c0 178.210337-21.566856 280.79479-247.876957 280.79479-237.093529 0-247.876957-102.584453-247.876957-280.79479S116.064152 191.26396 252.98531 191.26396s247.876957 144.583068 247.876957 322.793405z" fill="#C7D3B6" p-id="1082"></path><path d="M431.763196 413.033671c0 90.240266-81.159485 142.312872-181.048081 142.312872S69.525147 503.415824 69.525147 413.033671s81.159485-163.454067 181.04808-163.454067S431.763196 322.793404 431.763196 413.033671z" fill="#AFBC9B" p-id="1083"></path><path d="M430.911872 406.648746c0 89.105168-80.024387 140.468339-178.777885 140.468339s-178.777886-51.36317-178.777886-140.468339 80.024387-161.325759 178.777886-161.325759 178.777886 72.078703 178.777885 161.325759z" fill="#F7F4EB" p-id="1084"></path><path d="M252.133987 245.1811c-60.160177 0-113.509769 26.95857-145.860053 68.105861 12.627962 10.783428 52.214494 37.600111 92.368574-10.215879 58.457531 39.444645 93.645559 23.978939 109.253153 4.256616 27.526119 25.539698 84.139116 19.154773 95.773867 13.621173-31.640848-45.545795-87.686296-75.767771-151.535541-75.767771z" fill="#D3BB90" p-id="1085"></path><path d="M166.311139 398.131898a18.161381 16.742523 87.089 1 0 33.441838-1.700528 18.161381 16.742523 87.089 1 0-33.441838 1.700528Z" fill="#635C5B" p-id="1086"></path><path d="M183.749398 405.04783a5.107889 4.824117 87.089 1 0 9.635784-0.489982 5.107889 4.824117 87.089 1 0-9.635784 0.489982Z" fill="#D6D1D0" p-id="1087"></path><path d="M191.898882 397.592051a1.844534 1.702647 59.342 1 0 2.929322-1.736401 1.844534 1.702647 59.342 1 0-2.929322 1.736401Z" fill="#D6D1D0" p-id="1088"></path><path d="M303.371547 393.731738a18.161381 16.742523 87.089 1 0 33.441838-1.700528 18.161381 16.742523 87.089 1 0-33.441838 1.700528Z" fill="#635C5B" p-id="1089"></path><path d="M318.256472 400.788025a5.107889 4.824117 87.089 1 0 9.635784-0.489983 5.107889 4.824117 87.089 1 0-9.635784 0.489983Z" fill="#D6D1D0" p-id="1090"></path><path d="M326.46395 393.426192a1.844534 1.702647 59.342 1 0 2.929323-1.736401 1.844534 1.702647 59.342 1 0-2.929323 1.736401Z" fill="#D6D1D0" p-id="1091"></path><path d="M134.389269 474.699572a24.972149 19.438548 38.287 1 0 24.088286-30.515293 24.972149 19.438548 38.287 1 0-24.088286 30.515293Z" fill="#DDBFC6" p-id="1092"></path><path d="M341.754601 474.8858a19.438548 24.972149 51.711 1 0 39.201047-30.946903 19.438548 24.972149 51.711 1 0-39.201047 30.946903Z" fill="#DDBFC6" p-id="1093"></path><path d="M476.173893 665.734793c-66.686989 3.689067-167.001247-3.54718-209.993072-81.017597-3.972842-7.094361-14.046834-7.094361-18.161563-0.141888-44.26881 77.754191-159.055563 93.929334-218.648192 86.693086-5.675488-0.709436-10.073992 4.682278-8.371346 10.215879 24.120826 73.355688 83.855342 113.367881 231.843703 113.367882 144.866842 0 205.878343-41.998614 230.992379-119.04337 1.844534-5.10794-2.128308-10.357766-7.661909-10.073992z" fill="#EDEDED" p-id="1094"></path><path d="M289.166549 586.136068l-9.506443 9.222668c-1.560759 1.560759-2.270195 3.689067-1.844534 5.817376l2.270195 13.053623c0.851323 5.249827-4.682278 9.364556-9.506443 6.810586l-11.634751-6.243037c-1.844534-0.99321-4.114729-0.99321-6.10115 0l-11.776639 6.10115c-4.824165 2.55397-10.357766-1.560759-9.364556-6.810586l2.270196-13.053623c0.425662-2.128308-0.283774-4.256616-1.844534-5.817376l-9.506443-9.222669c-3.830955-3.830955-1.702647-10.357766 3.689067-11.067202l13.053624-1.844534c2.128308-0.283774 3.972842-1.560759 4.966052-3.54718l5.817376-11.776639c2.412083-4.824165 9.222669-4.824165 11.634751 0l5.817376 11.918526c0.99321 1.986421 2.837744 3.263406 4.824165 3.54718l13.053623 1.986421c5.391714 0.567549 7.520022 7.094361 3.689068 10.925316z" fill="#EFE4AB" p-id="1095"></path><path d="M332.584035 580.602466a30.931412 27.384232 0 1 0 61.862824 0 30.931412 27.384232 0 1 0-61.862824 0Z" fill="#D6DDCC" p-id="1096"></path><path d="M23.128029 562.724678a26.816683 23.553277 0 1 0 53.633365 0 26.816683 23.553277 0 1 0-53.633365 0Z" fill="#D6DDCC" p-id="1097"></path><path d="M436.729248 471.916863a26.816683 23.553277 0 1 0 53.633366 0 26.816683 23.553277 0 1 0-53.633366 0Z" fill="#AFBC9B" p-id="1098"></path><path d="M433.182068 613.520299a26.816683 23.553277 0 1 0 53.633365 0 26.816683 23.553277 0 1 0-53.633365 0Z" fill="#AFBC9B" p-id="1099"></path><path d="M114.077731 619.053901a26.816683 23.553277 0 1 0 53.633365 0 26.816683 23.553277 0 1 0-53.633365 0Z" fill="#AFBC9B" p-id="1100"></path><path d="M219.783703 193.534155a26.816683 23.553277 0 1 0 53.633365 0 26.816683 23.553277 0 1 0-53.633365 0Z" fill="#AFBC9B" p-id="1101"></path><path d="M90.098792 251.424137a26.816683 23.553277 0 1 0 53.633366 0 26.816683 23.553277 0 1 0-53.633366 0Z" fill="#D6DDCC" p-id="1102"></path><path d="M0.000413 446.519052a26.816683 23.553277 0 1 0 53.633366 0 26.816683 23.553277 0 1 0-53.633366 0Z" fill="#AFBC9B" p-id="1103"></path><path d="M254.120408 630.26299s-5.391714 88.53762-57.606208 118.05016c22.843841-2.837744 20.85742-2.837744 20.85742-2.837745l14.188721 8.513233s30.363863-78.889289 27.526119-118.333934c-4.682278-2.837744-4.966052-5.391714-4.966052-5.391714zM267.599693 636.647915s4.966052 70.943605 53.633365 94.638769c-21.141194-2.270195-19.438548-2.270195-19.438547-2.270195l-13.195511 6.810586s-28.235555-63.139809-25.681585-94.780657c4.398504-2.412083 4.682278-4.398504 4.682278-4.398503z" fill="#EFE4AB" p-id="1104"></path><path d="M1024.993624 511.21962c0 178.210337-21.566856 280.79479-247.876957 280.79479-237.093529 0-247.876957-102.584453-247.876958-280.79479s110.955799-322.793404 247.876958-322.793404 247.876957 144.583068 247.876957 322.793404z" fill="#F2E5C0" p-id="1105"></path><path d="M954.47568 408.777054c0 90.240266-81.159485 142.312872-181.048081 142.312873s-181.048081-51.930719-181.048081-142.312873 81.159485-163.454067 181.048081-163.454067 181.048081 73.213801 181.048081 163.454067z" fill="#BFA773" p-id="1106"></path><path d="M955.043229 403.811002c0 89.105168-80.024387 140.468339-178.777886 140.468338s-178.777886-51.36317-178.777885-140.468338 80.024387-161.325759 178.777885-161.325759 178.777886 72.22059 178.777886 161.325759z" fill="#F7F4EB" p-id="1107"></path><path d="M690.435943 395.293616a18.161381 16.742523 87.089 1 0 33.441839-1.700527 18.161381 16.742523 87.089 1 0-33.441839 1.700527Z" fill="#635C5B" p-id="1108"></path><path d="M707.874206 402.209693a5.107889 4.824117 87.089 1 0 9.635784-0.489983 5.107889 4.824117 87.089 1 0-9.635784 0.489983Z" fill="#D6D1D0" p-id="1109"></path><path d="M716.086987 394.870526a1.844534 1.702647 59.342 1 0 2.929323-1.736401 1.844534 1.702647 59.342 1 0-2.929323 1.736401Z" fill="#D6D1D0" p-id="1110"></path><path d="M827.496279 390.893458a18.161381 16.742523 87.089 1 0 33.441839-1.700527 18.161381 16.742523 87.089 1 0-33.441839 1.700527Z" fill="#635C5B" p-id="1111"></path><path d="M842.381064 397.949893a5.107889 4.824117 87.089 1 0 9.635784-0.489983 5.107889 4.824117 87.089 1 0-9.635784 0.489983Z" fill="#D6D1D0" p-id="1112"></path><path d="M850.579705 390.582612a1.844534 1.702647 59.342 1 0 2.929323-1.736401 1.844534 1.702647 59.342 1 0-2.929323 1.736401Z" fill="#D6D1D0" p-id="1113"></path><path d="M658.481954 471.855814a24.972149 19.438548 38.287 1 0 24.088286-30.515292 24.972149 19.438548 38.287 1 0-24.088286 30.515292Z" fill="#DDBFC6" p-id="1114"></path><path d="M865.76686 472.153434a19.438548 24.972149 51.711 1 0 39.201048-30.946903 19.438548 24.972149 51.711 1 0-39.201048 30.946903Z" fill="#DDBFC6" p-id="1115"></path><path d="M1000.305249 662.897049c-66.686989 3.689067-167.001247-3.54718-209.993072-81.017598-3.972842-7.094361-14.046834-7.094361-18.161563-0.141887-44.26881 77.754191-159.055563 93.929334-218.648192 86.693086-5.675488-0.709436-10.073992 4.682278-8.371345 10.215879 24.120826 73.355688 83.855342 113.367881 231.843702 113.367881 144.866842 0 205.878343-41.998614 230.992379-119.043369 1.844534-5.10794-2.128308-10.357766-7.661909-10.073992z" fill="#EDEDED" p-id="1116"></path><path d="M814.007341 586.136068l-9.506443 9.222668c-1.560759 1.560759-2.270195 3.689067-1.844534 5.817376l2.270196 13.053623c0.851323 5.249827-4.682278 9.364556-9.506443 6.810586l-11.634752-6.243037c-1.844534-0.99321-4.114729-0.99321-6.10115 0l-11.776638 6.10115c-4.824165 2.55397-10.357766-1.560759-9.364556-6.810586l2.270195-13.053623c0.425662-2.128308-0.283774-4.256616-1.844533-5.817376l-9.506443-9.222669c-3.830955-3.830955-1.702647-10.357766 3.689067-11.067202l13.053623-1.844534c2.128308-0.283774 3.972842-1.560759 4.966053-3.54718l5.817375-11.776639c2.412083-4.824165 9.222669-4.824165 11.634752 0l5.817375 11.918526c0.99321 1.986421 2.837744 3.263406 4.824165 3.54718l13.053624 1.986421c5.391714 0.567549 7.520022 7.094361 3.689067 10.925316z" fill="#C7D3B6" p-id="1117"></path><path d="M856.715392 577.764722a30.931412 27.384232 0 1 0 61.862824 0 30.931412 27.384232 0 1 0-61.862824 0Z" fill="#F9F0DC" p-id="1118"></path><path d="M547.259385 559.886934a26.816683 23.553277 0 1 0 53.633366 0 26.816683 23.553277 0 1 0-53.633366 0Z" fill="#F9F0DC" p-id="1119"></path><path d="M960.860604 469.079119a26.816683 23.553277 0 1 0 53.633366 0 26.816683 23.553277 0 1 0-53.633366 0Z" fill="#F2DCA7" p-id="1120"></path><path d="M957.313424 610.682555a26.816683 23.553277 0 1 0 53.633366 0 26.816683 23.553277 0 1 0-53.633366 0Z" fill="#F2DCA7" p-id="1121"></path><path d="M638.209087 616.216156a26.816683 23.553277 0 1 0 53.633366 0 26.816683 23.553277 0 1 0-53.633366 0Z" fill="#F2DCA7" p-id="1122"></path><path d="M743.915059 190.838298a26.816683 23.553277 0 1 0 53.633366 0 26.816683 23.553277 0 1 0-53.633366 0Z" fill="#F2DCA7" p-id="1123"></path><path d="M614.230149 248.586393a26.816683 23.553277 0 1 0 53.633365 0 26.816683 23.553277 0 1 0-53.633365 0Z" fill="#F9F0DC" p-id="1124"></path><path d="M523.989883 443.681308a26.816683 23.553277 0 1 0 53.633365 0 26.816683 23.553277 0 1 0-53.633365 0Z" fill="#F2DCA7" p-id="1125"></path><path d="M862.532767 262.349453l-31.924622-12.486075c-17.168353-4.966052-35.329915-7.661909-54.342802-7.661909-72.22059 0-134.509076 38.735209-162.602743 94.354995 14.75627 11.634751 38.877096 20.573646 71.085492 0.851323 43.275599-26.532908 59.876403-58.599418 69.524734-83.004018 22.985728 46.113343 75.200222 110.955799 179.629208 73.071913-16.458916-27.384232-41.289178-50.086185-71.369267-65.126229z" fill="#D3BB90" p-id="1126"></path><path d="M758.671329 730.009699c-2.270195 0-4.256616-1.844534-4.256616-4.256616v-79.598725c0-2.270195 1.844534-4.256616 4.256616-4.256617 2.270195 0 4.256616 1.844534 4.256616 4.256617v79.598725c0 2.412083-1.986421 4.256616-4.256616 4.256616zM780.52196 710.287377c-2.270195 0-4.256616-1.844534-4.256617-4.256616v-79.598726c0-2.270195 1.844534-4.256616 4.256617-4.256616 2.270195 0 4.256616 1.844534 4.256616 4.256616v79.598726c0 2.412083-1.986421 4.256616-4.256616 4.256616zM800.953718 753.279202c-2.270195 0-4.256616-1.844534-4.256616-4.256616v-90.807815c0-2.270195 1.844534-4.256616 4.256616-4.256617 2.270195 0 4.256616 1.844534 4.256616 4.256617v90.807815c0 2.412083-1.986421 4.256616-4.256616 4.256616z" fill="#C7D3B6" p-id="1127"></path><path d="M512.638906 218.931966l-20.006097 9.648331c-1.986421 0.99321-3.54718 2.979631-3.830955 5.249826l-3.405293 21.992518c-0.851323 5.675488-7.803797 7.945684-11.776638 3.689067l-15.465706-16.033254c-1.560759-1.702647-3.830955-2.412083-6.10115-1.986421l-21.992518 3.54718c-5.675488 0.99321-9.932105-5.10794-7.236248-10.073992l10.499654-19.580435c1.135098-1.986421 1.135098-4.398504 0-6.384925l-10.215879-19.864209c-2.695857-5.10794 1.702647-11.067202 7.378135-9.932105l21.992517 3.972842c2.270195 0.425662 4.540391-0.283774 6.10115-1.986421l15.607594-15.891367c3.972842-4.114729 11.067202-1.702647 11.776638 3.972841l2.979632 22.134405c0.283774 2.270195 1.702647 4.256616 3.689067 5.249827l19.86421 10.073992c5.391714 2.412083 5.249827 9.790218 0.141887 12.2023zM792.582373 861.964805l-12.202301 5.817376c-1.276985 0.567549-2.128308 1.844534-2.270195 3.121519l-1.986421 13.337397c-0.567549 3.405293-4.824165 4.824165-7.236248 2.270196L759.522652 876.862962c-0.99321-0.99321-2.412083-1.418872-3.689067-1.276984l-13.337398 2.128308c-3.405293 0.567549-5.959263-3.121519-4.398503-6.10115l6.384924-11.918526c0.709436-1.276985 0.709436-2.695857 0-3.972842l-6.243037-12.060413c-1.560759-3.121519 0.99321-6.668699 4.540391-6.10115l13.337397 2.412083c1.418872 0.283774 2.695857-0.141887 3.689068-1.135098l9.506443-9.64833c2.412083-2.412083 6.668699-1.135098 7.094361 2.412082l1.844533 13.337398c0.141887 1.418872 0.99321 2.55397 2.270196 3.121519l12.060413 6.10115c3.263406 1.844534 3.263406 6.243037 0 7.803796zM360.393929 868.065955l-13.621173 6.668699c-1.418872 0.709436-2.412083 1.986421-2.553969 3.547181l-2.270196 15.040044c-0.567549 3.830955-5.391714 5.391714-8.087571 2.55397l-10.499653-10.925316c-1.135098-1.135098-2.695857-1.702647-4.11473-1.418872l-15.040044 2.412083c-3.830955 0.567549-6.810586-3.405293-4.966052-6.952473l7.236247-13.479285c0.709436-1.418872 0.709436-2.979631 0-4.398504l-6.952473-13.479285c-1.844534-3.54718 1.135098-7.520022 4.966053-6.810586l15.040044 2.695857c1.560759 0.283774 3.121519-0.283774 4.256616-1.276985l10.641541-10.783428c2.695857-2.837744 7.520022-1.135098 8.087571 2.695857l2.128308 15.040044c0.141887 1.560759 1.135098 2.837744 2.55397 3.547181l13.621172 6.810586c3.121519 1.702647 3.121519 6.810586-0.425661 8.513232z" fill="#F7F4EB" p-id="1128"></path><path d="M292.855616 128.266039l-13.621172 6.668698c-1.418872 0.709436-2.412083 1.986421-2.55397 3.547181l-2.270195 15.040044c-0.567549 3.830955-5.391714 5.391714-8.087571 2.55397l-10.499654-10.925315c-1.135098-1.135098-2.695857-1.702647-4.114729-1.418873l-15.040044 2.412083c-3.830955 0.567549-6.810586-3.405293-4.966053-6.952473l7.236248-13.479285c0.709436-1.418872 0.709436-2.979631 0-4.398504L231.702228 107.83428c-1.844534-3.54718 1.135098-7.520022 4.966053-6.810586l15.040044 2.695857c1.560759 0.283774 3.121519-0.283774 4.256616-1.276985l10.641541-10.783428c2.695857-2.837744 7.520022-1.135098 8.087571 2.695857l2.128308 15.040044c0.141887 1.560759 1.135098 2.837744 2.55397 3.547181l13.621172 6.810586c3.405293 1.844534 3.405293 6.810586-0.141887 8.513233z" fill="#F2E5C0" p-id="1129"></path><path d="M579.609669 857.424415l-11.492864 5.533601c-1.135098 0.567549-1.986421 1.702647-2.128308 2.979631l-1.986421 12.627962c-0.567549 3.263406-4.540391 4.540391-6.810586 2.128308l-8.797007-9.222669c-0.851323-0.99321-2.270195-1.418872-3.54718-1.135097l-12.627962 2.128308c-3.263406 0.567549-5.675488-2.837744-4.114729-5.817376l6.10115-11.209089c0.567549-1.135098 0.567549-2.55397 0-3.689068l-5.817376-11.350977c-1.560759-2.979631 0.99321-6.243037 4.256616-5.675488l12.627962 2.270195c1.276985 0.283774 2.55397-0.141887 3.54718-1.135097l8.938895-9.080782c2.270195-2.270195 6.243037-0.99321 6.810586 2.270195l1.702646 12.627962c0.141887 1.276985 0.99321 2.412083 2.128309 2.979632l11.350976 5.675488c2.979631 1.418872 2.837744 5.675488-0.141887 7.094361zM698.653039 150.684218c2.979631 3.405293 6.384924 6.526812 9.790218 9.080781-10.641541-19.722322-8.65512-42.849938 6.384924-55.761674 14.898157-13.053623 38.025772-11.776638 56.187335 1.56076-2.128308-3.830955-4.540391-7.520022-7.661909-10.925315-18.587225-21.424969-48.099764-26.107247-65.977553-10.641541-17.877789 15.465706-17.31024 45.403907 1.276985 66.686989z" fill="#F7F4EB" p-id="1130"></path><path d="M658.357071 854.019122c-4.966052-4.398504-10.357766-7.945684-16.033255-10.641541 18.161563 27.100457 16.600804 63.849245-5.817375 89.53083-22.418179 25.681585-58.741305 31.924622-87.970071 17.594014 3.54718 5.249827 7.803797 10.073992 12.769849 14.472495 30.647638 26.816683 77.186643 23.695164 104.003325-6.952473s23.695164-77.186643-6.952473-104.003325z" fill="#F2E5C0" p-id="1131"></path></svg>