<?xml version="1.0" standalone="no"?><!DOCTYPE svg PUBLIC "-//W3C//DTD SVG 1.1//EN" "http://www.w3.org/Graphics/SVG/1.1/DTD/svg11.dtd"><svg t="1602475124542" class="icon" viewBox="0 0 1026 1024" version="1.1" xmlns="http://www.w3.org/2000/svg" p-id="9739" xmlns:xlink="http://www.w3.org/1999/xlink" width="200.390625" height="200"><defs><style type="text/css"></style></defs><path d="M514.768158 512.85215m-511.857975 0a511.857975 511.857975 0 1 0 1023.71595 0 511.857975 511.857975 0 1 0-1023.71595 0Z" fill="#EEF9EC" p-id="9740"></path><path d="M527.834455 662.688488c-130.947018-75.415257-63.48516-83.79473-53.969487-86.351179 25.564494-7.101248 102.9681-24.002219 119.869071 16.758946 21.019695 50.560888 32.097642 81.80638 25.138419 89.901803-17.185021 20.02552-52.833287 1.846325-91.038003-20.30957z" fill="#B4DBC1" p-id="9741"></path><path d="M600.693262 670.925936c-5.680999-6.675173-9.799723-13.776422-13.776422-20.735645-3.834674-7.101248-7.243273-14.202497-10.367822-21.44577s-5.965049-14.344521-8.805548-21.587794c-1.42025-3.550624-2.698474-7.243273-4.260749-10.935923-1.562275-3.692649-2.982524-7.243273-5.254924-11.077947 4.402774 0.85215 8.379473 3.266574 11.788073 5.965049 3.550624 2.698474 6.533148 5.965049 9.231622 9.231622 5.396949 6.675173 9.515673 14.060472 12.782247 21.587795 3.266574 7.669348 5.680999 15.480721 7.243273 23.718169 0.710125 4.118724 1.278225 8.237448 1.562275 12.356172 0.5681 4.260749 0.5681 8.521498-0.142025 12.924272z m-30.961442-8.379473c-5.680999-6.675173-9.941748-13.634397-13.918447-20.735645-3.976699-6.959223-7.385298-14.202497-10.509847-21.303744s-6.107074-14.344521-8.947573-21.587795c-1.42025-3.550624-2.840499-7.243273-4.402774-10.793898-1.562275-3.692649-3.124549-7.243273-5.396949-11.077947 4.402774 0.85215 8.379473 3.124549 11.930097 5.823024 3.550624 2.698474 6.533148 5.823024 9.231623 9.089597 5.538974 6.675173 9.657698 13.918447 13.066297 21.587795 3.408599 7.669348 5.823024 15.480721 7.527323 23.576144 0.85215 4.118724 1.42025 8.237448 1.7043 12.356172 0.28405 4.402774 0.28405 8.663523-0.28405 13.066297z m-22.723995 1.846325c-5.823024-6.533148-10.367822-13.350347-14.486546-20.30957-4.118724-6.959223-7.669348-13.918447-11.077948-21.019695-3.408599-7.101248-6.533148-14.202497-9.515672-21.303745-1.562275-3.550624-2.982524-7.101248-4.686824-10.651872-1.562275-3.550624-3.266574-7.101248-5.680999-10.935923 4.402774 0.710125 8.521498 2.982524 12.072122 5.538974 3.550624 2.556449 6.675173 5.680999 9.515673 8.947573 5.680999 6.533148 10.083773 13.776422 13.634397 21.16172 3.550624 7.527323 6.249098 15.338696 8.095423 23.434119 0.85215 4.118724 1.562275 8.095423 1.988349 12.356172 0.426075 4.118724 0.5681 8.379473 0.142025 12.782247z m-21.303745-1.7043c-6.533148-5.823024-11.788072-12.214147-16.616921-18.60527-4.828849-6.391123-9.231623-13.066297-13.350346-19.599445-4.118724-6.675173-7.953398-13.350347-11.788072-20.167546-1.846325-3.408599-3.834674-6.817198-5.823024-10.083772-1.98835-3.408599-4.118724-6.675173-6.817198-10.225798 4.544799 0.142025 8.805548 1.98835 12.640222 4.118724s7.243273 4.828849 10.367822 7.811374c6.391123 5.823024 11.504022 12.498197 15.906796 19.599445 4.402774 7.101248 7.953398 14.486546 10.651873 22.439944 1.278225 3.976699 2.414424 7.953398 3.408599 12.072122 0.710125 3.976699 1.42025 8.237448 1.420249 12.640222z" fill="#A3C1AA" p-id="9742"></path><path d="M118.802555 515.124549c14.628571-50.844938 94.162552 98.139251 295.553953 108.649099 186.052705 9.657698 277.942857 65.047434 308.620249 114.046047 1.7043 2.840499-27.268793-3.408599-20.451595 3.266574 2.982524 2.840499 21.019695 2.272399 29.541193 16.048821 5.254924 8.521498 3.692649 18.60527 2.130375 26.558669-14.770596 80.10208-159.067961 116.034397-285.328156 73.284882C270.201168 796.476006 104.173983 565.969487 118.802555 515.124549z" fill="#BDE5CC" p-id="9743"></path><path d="M118.66053 530.463245c50.134813 92.600277 155.091262 219.570596 272.119833 269.847435 89.617753 38.488766 210.338974 31.387517 267.14896-3.692649-45.163939 10.367822-115.608322 16.048821-166.453259 4.828848C314.654982 762.816089 132.010877 567.247712 125.477728 505.324827c-2.982524 1.42025-5.112899 4.544799-6.533148 9.657697-1.278225 4.118724-1.278225 9.373648-0.28405 15.480721z" fill="#B4DBC1" p-id="9744"></path><path d="M714.097255 829.29044a18.179196 22.581969 30.922 1 0 23.208425-38.744683 18.179196 22.581969 30.922 1 0-23.208425 38.744683Z" fill="#F5FFF8" p-id="9745"></path><path d="M723.966321 819.74884a10.083773 12.498197 30.922 1 0 12.844915-21.443598 10.083773 12.498197 30.922 1 0-12.844915 21.443598Z" fill="#838483" p-id="9746"></path><path d="M730.238865 815.051808a4.828849 6.107074 30.922 1 0 6.276492-10.478122 4.828849 6.107074 30.922 1 0-6.276492 10.478122Z" fill="#F5FFF8" p-id="9747"></path><path d="M721.228796 818.330941a0.994175 1.278225 30.922 1 0 1.313684-2.193095 0.994175 1.278225 30.922 1 0-1.313684 2.193095Z" fill="#F5FFF8" p-id="9748"></path><path d="M724.36232 814.225215a0.994175 1.278225 30.922 1 0 1.313684-2.193095 0.994175 1.278225 30.922 1 0-1.313684 2.193095Z" fill="#F5FFF8" p-id="9749"></path><path d="M732.834795 812.096033a2.982524 3.692649 30.922 1 0 3.795088-6.335608 2.982524 3.692649 30.922 1 0-3.795088 6.335608Z" fill="#DFE5E1" p-id="9750"></path><path d="" fill="#B4DBC1" p-id="9751"></path><path d="M461.934871 851.581692c-5.254924 3.692649-10.935922 6.817198-16.616921 9.941748-5.680999 2.982524-11.646047 5.680999-17.753121 7.953398-1.562275 0.5681-2.982524 1.278225-4.544798 1.846324-1.562275 0.710125-2.982524 1.42025-4.686824 1.846325-1.562275 0.5681-3.124549 0.994175-4.828849 1.420249-1.7043 0.28405-3.408599 0.426075-4.970874 0.426075-1.7043 0-3.408599-0.142025-5.112899-0.426075-1.7043-0.28405-3.408599-0.5681-5.112898-1.136199-1.7043-0.5681-3.408599-1.1362-4.970874-2.130375-1.7043-0.994175-3.266574-1.98835-4.686824-3.266574l0.142025-1.7043c1.7043-1.1362 3.266574-1.98835 4.686824-2.698474s2.982524-1.562275 4.402774-2.130374l2.130374-0.85215 2.130375-0.85215c1.42025-0.5681 2.840499-0.994175 4.260749-1.42025 1.42025-0.426075 2.840499-0.85215 4.260749-0.994174 1.42025-0.28405 2.982524-0.426075 4.402773-0.426075 1.562275 0 2.982524 0 4.544799-0.142025 1.562275 0 3.124549-0.142025 4.544799-0.28405 6.107074-0.85215 12.214147-1.846325 18.321221-2.840499 6.249098-0.994175 12.356172-2.272399 18.60527-3.4086l0.85215 1.278225z m-33.091817-10.509847c-5.254924 3.692649-10.935922 6.817198-16.616921 9.941747-5.680999 2.982524-11.646047 5.680999-17.753121 7.953398-1.562275 0.5681-2.982524 1.278225-4.544798 1.846325-1.562275 0.710125-2.982524 1.42025-4.686824 1.846324-1.562275 0.5681-3.124549 0.994175-4.828849 1.42025-1.7043 0.28405-3.408599 0.426075-4.970874 0.426075-1.7043 0-3.408599-0.142025-5.112899-0.426075-1.7043-0.28405-3.408599-0.5681-5.112898-1.1362-1.7043-0.5681-3.408599-1.1362-4.970874-2.130374-1.7043-0.994175-3.266574-1.98835-4.686824-3.266574l0.142025-1.7043c1.7043-1.1362 3.266574-1.98835 4.686824-2.698474s2.982524-1.562275 4.402774-2.130375l2.130374-0.85215 2.130375-0.852149c1.42025-0.5681 2.840499-0.994175 4.260749-1.42025 1.42025-0.426075 2.840499-0.85215 4.260749-0.994175 1.42025-0.28405 2.982524-0.426075 4.402774-0.426075 1.562275 0 2.982524 0 4.544798-0.142025 1.562275 0 3.124549-0.142025 4.544799-0.28405 6.107074-0.85215 12.214147-1.846325 18.321221-2.840499 6.249098-0.994175 12.356172-2.272399 18.60527-3.408599l0.85215 1.278225z m-25.990569-10.509848c-5.254924 3.692649-10.935922 6.817198-16.616921 9.941748-5.680999 2.982524-11.646047 5.680999-17.75312 7.953398-1.562275 0.5681-2.982524 1.278225-4.544799 1.846324-1.562275 0.710125-2.982524 1.42025-4.686824 1.846325-1.562275 0.5681-3.124549 0.994175-4.828849 1.42025-1.7043 0.28405-3.408599 0.426075-4.970874 0.426075-1.7043 0-3.408599-0.142025-5.112898-0.426075-1.7043-0.28405-3.408599-0.5681-5.112899-1.1362-1.7043-0.5681-3.408599-1.1362-4.970874-2.130375-1.7043-0.994175-3.266574-1.98835-4.686824-3.266574l0.142025-1.704299c1.7043-1.1362 3.266574-1.98835 4.686824-2.698475s2.982524-1.562275 4.402774-2.130374l2.130375-0.85215 2.130374-0.85215c1.42025-0.5681 2.840499-0.994175 4.260749-1.420249 1.42025-0.426075 2.840499-0.85215 4.260749-0.994175 1.42025-0.28405 2.982524-0.426075 4.402774-0.426075 1.562275 0 2.982524 0 4.544799-0.142025 1.562275 0 3.124549-0.142025 4.544799-0.28405 6.107074-0.85215 12.214147-1.846325 18.32122-2.840499 6.107074-0.994175 12.356172-2.272399 18.605271-3.408599l0.852149 1.278224z m-33.943966-11.077947c-5.254924 3.692649-10.935922 6.817198-16.616921 9.941748-5.680999 2.982524-11.646047 5.680999-17.753121 7.953398-1.562275 0.5681-2.982524 1.278225-4.544799 1.846324-1.562275 0.710125-2.982524 1.42025-4.686824 1.846325-1.562275 0.5681-3.124549 0.994175-4.828848 1.420249-1.7043 0.28405-3.408599 0.426075-4.970874 0.426075-1.7043 0-3.408599-0.142025-5.112899-0.426075-1.7043-0.28405-3.408599-0.5681-5.112899-1.136199-1.7043-0.5681-3.408599-1.1362-4.970874-2.130375-1.7043-0.994175-3.266574-1.98835-4.686823-3.266574l0.142025-1.7043c1.7043-1.1362 3.266574-1.98835 4.686823-2.698474s2.982524-1.562275 4.402774-2.130374l2.130375-0.85215 2.130374-0.85215c1.42025-0.5681 2.840499-0.994175 4.260749-1.42025 1.42025-0.426075 2.840499-0.85215 4.260749-0.994174 1.42025-0.28405 2.982524-0.426075 4.402774-0.426075 1.562275 0 2.982524 0 4.544799-0.142025 1.562275 0 3.124549-0.142025 4.544799-0.28405 6.107074-0.85215 12.214147-1.846325 18.32122-2.8405 6.107074-0.994175 12.356172-2.272399 18.605271-3.408599l0.85215 1.278225z" fill="#A3C1AA" p-id="9752"></path><path d="M300.59451 539.410818s-15.196671-147.705964 10.225798-192.017753C222.764829 426.074896 44.665523 443.117892 0.637784 414.002774c253.940638 153.528988 220.280721 112.483773 254.508737 158.641886-2.698474-48.714563 45.447989-33.233842 45.447989-33.233842z" fill="#BDE5CC" p-id="9753"></path><path d="M164.818644 529.753121c-7.527323-9.515673-13.776422-19.599445-18.889321-30.393343-5.112899-10.651872-9.373648-21.871845-12.356172-33.517892-2.982524-11.646047-4.686824-23.860194-4.118724-36.216366 0.28405-6.107074 1.1362-12.356172 2.982524-18.32122 1.846325-5.965049 4.686824-11.788072 8.947573-16.190846-0.994175 6.107074-0.994175 11.646047-0.710125 17.327045 0.28405 5.538974 1.1362 11.077947 1.98835 16.474896 1.98835 10.935922 4.544799 21.72982 7.243273 32.807767 2.698474 10.935922 5.680999 22.01387 8.379473 33.233842 1.278225 5.680999 2.556449 11.361997 3.692649 17.042996 1.42025 5.823024 2.556449 11.646047 2.8405 17.753121z m-16.758946 6.391123c-9.799723-7.101248-18.037171-15.622746-25.564494-24.570319-7.527323-9.089598-14.202497-18.88932-19.883495-29.399168-5.538974-10.509847-10.225798-21.72982-12.640222-33.801941-1.1362-6.107074-1.846325-12.356172-1.1362-18.605271 0.142025-1.562275 0.28405-3.124549 0.710125-4.686824l0.5681-2.272399c0.28405-0.710125 0.5681-1.562275 0.85215-2.2724 0.426075-1.562275 1.278225-2.840499 1.988349-4.260749 0.426075-0.710125 0.85215-1.278225 1.278225-1.846324 0.426075-0.5681 0.994175-1.1362 1.420249-1.7043-0.85215 5.965049 0 11.361997 1.42025 16.616921 1.42025 5.254924 3.408599 10.225798 5.680999 15.196671 4.402774 9.941748 9.657698 19.74147 14.912621 29.683218 5.254924 9.941748 10.651872 19.883495 15.906796 29.967268 2.556449 5.112899 5.112899 10.225798 7.669348 15.622746 2.414424 5.254924 4.828849 10.509847 6.817199 16.332871z m-13.918447 7.243273c-3.124549-1.1362-6.107074-2.414424-8.947573-3.976699-2.982524-1.42025-5.823024-2.982524-8.521498-4.686824-5.538974-3.266574-10.935922-6.817198-16.190846-10.651872-10.367822-7.669348-20.02552-16.332871-28.831068-25.848544C62.986743 488.565881 55.17537 477.914008 48.784247 466.409986c-3.124549-5.823024-5.823024-11.930097-7.811373-18.179195-1.98835-6.391123-3.266574-12.924272-3.266574-19.457421 6.959223 11.077947 14.344521 20.735645 22.155894 30.251318 7.811373 9.373648 16.048821 18.60527 24.286269 27.694868L109.428907 514.130374c8.379473 9.373648 16.758946 18.747295 24.712344 29.257143z m471.09681 149.268239c-1.42025 0.5681-2.698474 1.278225-3.976699 2.130374-1.278225 0.85215-2.556449 1.7043-3.692649 2.55645-2.414424 1.7043-4.828849 3.408599-7.101248 5.254923-4.686824 3.550624-9.089598 7.243273-13.350347 11.077948-8.521498 7.527323-16.332871 15.622746-22.723995 24.428294-6.533148 8.663523-11.361997 18.179196-14.486546 28.547018-1.42025 5.254924-2.272399 10.651872-2.840499 16.332871-0.5681 5.680999-0.28405 11.646047-0.28405 17.895145-0.85215-1.278225-1.7043-2.556449-2.55645-3.976699l-1.136199-1.988349c-0.28405-0.710125-0.710125-1.42025-0.994175-2.130375-0.710125-1.42025-1.278225-2.840499-1.846325-4.402773s-0.994175-2.982524-1.420249-4.544799c-1.7043-6.249098-2.414424-12.782247-1.98835-19.315396 0.85215-13.208322 6.107074-26.132594 13.918447-36.642441 7.811373-10.509847 17.753121-18.88932 28.831068-25.138419 5.538974-3.124549 11.219972-5.680999 17.185021-7.527323 2.982524-0.994175 6.107074-1.7043 9.089597-2.272399 1.562275-0.28405 3.124549-0.426075 4.686824-0.5681 0.85215 0 1.562275-0.142025 2.414425 0h1.136199l1.1362 0.28405z" fill="#A3C1AA" p-id="9754"></path><path d="M429.979254 733.416921c0.5681-11.219972 14.202497-2.130374 31.813592-1.278225s32.807767-6.817198 32.239667 4.402774c-0.5681 11.219972-15.764771 27.410818-33.375867 26.558669-17.753121-0.85215-31.245492-18.463245-30.677392-29.683218z m37.210541-52.549237c0.426075 11.219972-13.918447 3.408599-31.529543 4.118724-17.753121 0.710125-32.097642 9.799723-32.523717-1.42025-0.426075-11.219972 13.208322-28.831068 30.961443-29.541193 17.611096-0.710125 32.665742 15.622746 33.091817 26.842719z m-139.468516 13.776421c2.698474-8.805548 11.504022 1.1362 25.280444 5.396949s27.126768 1.1362 24.428294 9.941748-17.895146 18.463245-31.529543 14.202496c-13.776422-4.260749-20.87767-20.735645-18.179195-29.541193z m39.76699-33.801941c-1.846325 8.947573-11.646047-0.142025-25.706519-3.12455-14.060472-2.982524-27.126768 1.278225-25.280443-7.669348 1.846325-8.947573 16.048821-20.02552 30.109292-17.042996 14.202497 3.124549 22.723994 18.88932 20.87767 27.836894z m-108.223024-11.504023c1.562275-4.828849 6.391123 0.710125 14.060472 2.982525 7.669348 2.414424 15.054646 0.710125 13.634397 5.538973s-9.941748 10.225798-17.469071 7.953398c-7.811373-2.414424-11.788072-11.646047-10.225798-16.474896z m22.01387-18.747295c-0.994175 4.970874-6.391123 0-14.202496-1.7043s-15.054646 0.710125-14.060472-4.260748 8.947573-11.077947 16.758946-9.373648c7.811373 1.562275 12.498197 10.367822 11.504022 15.338696z m-75.415256-24.996394c1.278225-4.118724 5.538974 0.5681 12.072122 2.55645s12.924272 0.5681 11.646047 4.686823c-1.278225 4.118724-8.521498 8.805548-15.054647 6.817199-6.533148-1.98835-9.941748-9.941748-8.663522-14.060472zM224.895204 589.403606c-0.85215 4.260749-5.538974 0-12.214147-1.42025s-12.924272 0.5681-12.072122-3.692649 7.669348-9.515673 14.344521-8.095423 10.793897 8.947573 9.941748 13.208322z" fill="#B4DBC1" p-id="9755"></path><path d="M460.230571 349.949515c145.433564 41.329265 81.948405 65.899584 73.284883 70.728432-23.008044 13.066297-94.020527 48.288488-120.295146 12.782247-32.665742-43.885714-50.986963-71.438558-46.158114-81.096255 11.788072-23.576144 50.702913-14.486546 93.168377-2.414424z" fill="#CCC7A6" p-id="9756"></path><path d="M387.513789 359.749237c7.101248 5.112899 12.924272 10.935922 18.321221 16.758946 5.538974 5.823024 10.509847 12.072122 15.196671 18.179196 4.828849 6.249098 9.231623 12.498197 13.776422 18.88932 2.272399 3.124549 4.402774 6.391123 6.817198 9.515673 2.272399 3.124549 4.686824 6.249098 7.811373 9.515672-4.402774 0.28405-8.947573-1.1362-12.924272-2.840499-4.118724-1.846325-7.669348-4.118724-11.219972-6.675173-6.817198-5.112899-12.640222-11.361997-17.753121-17.895146-4.970874-6.533148-9.373648-13.634397-12.782247-21.16172-1.7043-3.834674-3.266574-7.669348-4.544798-11.646047-1.1362-4.118724-2.272399-8.237448-2.698475-12.640222z m32.239667 0.5681c7.243273 5.112899 12.924272 10.793897 18.463246 16.616921 5.538974 5.823024 10.509847 11.930097 15.338696 18.037171 4.828849 6.107074 9.373648 12.356172 13.918447 18.747295 2.272399 3.124549 4.544799 6.391123 6.817198 9.515673 2.414424 3.124549 4.828849 6.249098 7.811373 9.373647-4.402774 0.28405-8.947573-0.994175-12.924272-2.698474-4.118724-1.7043-7.811373-4.118724-11.219972-6.675173-6.959223-5.112899-12.782247-11.219972-17.895146-17.753121-5.112899-6.533148-9.515673-13.634397-13.066296-21.16172-1.7043-3.692649-3.266574-7.669348-4.686824-11.646047-0.994175-3.834674-2.130374-7.811373-2.55645-12.356172z m21.44577-7.385298c7.243273 4.970874 13.208322 10.509847 18.88932 16.190846s10.793897 11.646047 15.906797 17.753121c4.970874 6.107074 9.657698 12.214147 14.344521 18.32122 2.272399 3.124549 4.686824 6.249098 7.101248 9.231623 2.414424 3.124549 4.970874 6.107074 8.095423 9.231623-4.402774 0.426075-8.947573-0.85215-13.066296-2.414425-4.118724-1.7043-7.811373-3.834674-11.361998-6.249098-7.101248-4.970874-13.066297-10.935922-18.32122-17.327046-5.254924-6.391123-9.799723-13.350347-13.492372-20.735645-1.846325-3.692649-3.550624-7.527323-4.970874-11.504022-1.278225-3.976699-2.414424-8.095423-3.124549-12.498197z m21.16172-3.408599c7.811373 4.118724 14.344521 8.947573 20.59362 13.918446 6.249098 4.970874 12.072122 10.367822 17.753121 15.764771s10.935922 11.077947 16.332871 16.616921c2.698474 2.840499 5.254924 5.680999 8.095423 8.379473 2.840499 2.840499 5.538974 5.538974 9.089597 8.237448-4.402774 0.85215-8.947573 0.142025-13.208321-0.994174-4.260749-1.1362-8.237448-2.982524-12.072122-4.970874-7.527323-4.118724-14.202497-9.373648-20.167546-15.196672-5.965049-5.823024-11.219972-12.214147-15.764771-19.17337-2.272399-3.550624-4.402774-7.101248-6.107073-10.935922-1.846325-3.408599-3.408599-7.385298-4.544799-11.646047z" fill="#BCB48A" p-id="9757"></path><path d="M892.838616 393.835229c-1.846325 52.975312-115.182247-72.290707-313.165049-33.659917-182.928155 35.790291-285.47018 4.402774-327.083495-35.790291-2.414424-2.272399 27.268793-3.408599 19.031345-8.095423-3.550624-1.98835-20.87767 2.982524-32.523717-8.379473-7.101248-6.959223-8.095423-17.042996-8.521498-25.280444-5.112899-81.380305 126.118169-151.256588 258.911512-140.462691 188.183079 15.480721 405.197226 198.834951 403.350902 251.668239z" fill="#E0E2BC" p-id="9758"></path><path d="M489.629739 142.45104c-121.28932-9.799723-241.300416 47.578363-257.349237 119.727046-1.562275 6.817198 39.056865 8.805548 62.63301-6.107074 44.737864-28.262968 104.672399-47.578363 166.737309-49.424687 181.081831-5.538974 405.623301 139.894591 427.069071 198.266851 2.556449-1.98835 3.834674-5.538974 3.976699-11.077947 1.98835-52.833287-215.025798-236.187517-403.066852-251.384189z" fill="#E5E5CA" p-id="9759"></path><path d="M889.287992 378.922607c-71.154508-77.545631-203.805825-175.258807-329.49792-195.710402-96.292926-15.622746-211.617198 20.59362-258.343412 68.456034 41.329265-21.019695 108.223024-43.601664 160.346186-45.163939 181.081831-5.538974 405.623301 139.894591 427.069071 198.266851 2.556449-1.98835 3.834674-5.538974 3.976699-11.077947 0.142025-3.976699-1.1362-9.089598-3.550624-14.770597z" fill="#CCC7A6" p-id="9760"></path><path d="M226.413042 278.9519a21.72982 26.984743 16.869 1 0 15.661107-51.647219 21.72982 26.984743 16.869 1 0-15.661107 51.647219Z" fill="#D8D3BC" p-id="9761"></path><path d="M226.009419 276.860272a18.179196 22.581969 16.869 1 0 13.105874-43.220568 18.179196 22.581969 16.869 1 0-13.105874 43.220568Z" fill="#F5FFF8" p-id="9762"></path><path d="M224.656462 269.151266a10.083773 12.498197 16.869 1 0 7.253565-23.920817 10.083773 12.498197 16.869 1 0-7.253565 23.920817Z" fill="#838483" p-id="9763"></path><path d="M223.355392 263.032952a4.828849 6.107074 16.869 1 0 3.544356-11.688581 4.828849 6.107074 16.869 1 0-3.544356 11.688581Z" fill="#F5FFF8" p-id="9764"></path><path d="M234.069407 248.551119a0.994175 1.278225 16.869 1 0 0.741842-2.446448 0.994175 1.278225 16.869 1 0-0.741842 2.446448Z" fill="#F5FFF8" p-id="9765"></path><path d="M232.180003 253.128734a0.994175 1.278225 16.869 1 0 0.741842-2.446447 0.994175 1.278225 16.869 1 0-0.741842 2.446447Z" fill="#F5FFF8" p-id="9766"></path><path d="M222.947571 261.859104a2.982524 3.692649 16.869 1 0 2.143099-7.067514 2.982524 3.692649 16.869 1 0-2.143099 7.067514Z" fill="#DFE5E1" p-id="9767"></path><path d="M279.71684 271.267684m-30.251317 0a30.251318 30.251318 0 1 0 60.502635 0 30.251318 30.251318 0 1 0-60.502635 0Z" fill="#D8D3BC" p-id="9768"></path><path d="M278.722666 274.250208m-25.422469 0a25.422469 25.422469 0 1 0 50.844938 0 25.422469 25.422469 0 1 0-50.844938 0Z" fill="#F5FFF8" p-id="9769"></path><path d="M274.319892 278.510957m-14.060472 0a14.060472 14.060472 0 1 0 28.120943 0 14.060472 14.060472 0 1 0-28.120943 0Z" fill="#838483" p-id="9770"></path><path d="M270.343193 280.073232m-6.817199 0a6.817198 6.817198 0 1 0 13.634397 0 6.817198 6.817198 0 1 0-13.634397 0Z" fill="#F5FFF8" p-id="9771"></path><path d="M276.734316 265.302635m-1.420249 0a1.42025 1.42025 0 1 0 2.840499 0 1.42025 1.42025 0 1 0-2.840499 0Z" fill="#F5FFF8" p-id="9772"></path><path d="M276.876341 270.983634m-1.420249 0a1.42025 1.42025 0 1 0 2.840499 0 1.42025 1.42025 0 1 0-2.840499 0Z" fill="#F5FFF8" p-id="9773"></path><path d="M269.491043 281.777531m-4.118724 0a4.118724 4.118724 0 1 0 8.237448 0 4.118724 4.118724 0 1 0-8.237448 0Z" fill="#DFE5E1" p-id="9774"></path><path d="M639.750128 161.056311c-1.1362 1.562275-4.402774 4.828849-5.823024 6.107073-13.634397 11.930097-38.91484 7.953398-61.354785 4.828849-33.517892-4.828849-125.550069-17.327046-125.550069-17.327046-2.982524-0.5681-3.976699-4.260749-1.7043-6.249098 29.115118-25.706519 67.745908-45.732039 106.376699-45.163939l105.098474 7.527323c6.391123 0.142025 10.935922 6.391123 8.805548 12.498197l-25.848543 37.778641z" fill="#E0E2BC" p-id="9775"></path><path d="M512.921834 152.960888c4.260749-4.828849 8.805548-9.373648 13.634396-13.634397 4.828849-4.260749 9.799723-8.379473 15.196672-12.072122 1.278225-0.994175 2.698474-1.846325 3.976699-2.982524 1.278225-0.994175 2.556449-1.98835 3.976699-2.982525 1.42025-0.994175 2.840499-1.846325 4.260749-2.556449 1.562275-0.710125 3.124549-1.1362 4.828848-1.562275 1.562275-0.426075 3.408599-0.5681 5.112899-0.852149 1.7043-0.142025 3.408599-0.28405 5.254924-0.142025 1.846325 0.142025 3.550624 0.28405 5.396949 0.852149 1.846325 0.5681 3.550624 1.1362 5.396948 2.130375l0.28405 1.704299c-1.278225 1.562275-2.698474 2.698474-3.834674 3.834675-1.278225 1.1362-2.556449 2.272399-3.692649 3.124549l-1.846325 1.420249c-0.5681 0.5681-1.278225 0.994175-1.846324 1.42025-1.278225 0.85215-2.414424 1.562275-3.692649 2.414425-1.278225 0.85215-2.556449 1.42025-3.976699 1.988349-1.278225 0.5681-2.698474 1.1362-4.260749 1.42025-1.42025 0.28405-2.982524 0.85215-4.402774 1.136199-1.42025 0.426075-2.982524 0.85215-4.402774 1.42025-5.680999 2.272399-11.361997 4.686824-17.042996 7.243273-5.680999 2.414424-11.504022 5.112899-17.185021 7.811373l-1.136199-1.136199z m27.836893 3.976699c4.260749-4.828849 8.805548-9.373648 13.634396-13.634397 4.828849-4.260749 9.799723-8.379473 15.196672-12.072122 1.278225-0.994175 2.698474-1.846325 3.976699-2.982524 1.278225-0.994175 2.556449-1.98835 3.976699-2.982525 1.42025-0.994175 2.840499-1.846325 4.260749-2.556449 1.562275-0.710125 3.124549-1.1362 4.828849-1.562275 1.562275-0.426075 3.408599-0.5681 5.112898-0.852149 1.7043-0.142025 3.408599-0.28405 5.254924-0.142025 1.846325 0.142025 3.550624 0.28405 5.396949 0.852149 1.846325 0.5681 3.550624 1.1362 5.396948 2.130375l0.28405 1.7043c-1.278225 1.562275-2.698474 2.698474-3.834674 3.834674-1.278225 1.1362-2.556449 2.272399-3.692649 3.124549l-1.846324 1.420249c-0.5681 0.5681-1.278225 0.994175-1.846325 1.42025-1.278225 0.85215-2.414424 1.562275-3.692649 2.414425-1.278225 0.85215-2.556449 1.42025-3.976699 1.988349-1.278225 0.5681-2.698474 1.1362-4.260749 1.42025-1.42025 0.28405-2.982524 0.85215-4.402774 1.136199-1.42025 0.426075-2.982524 0.85215-4.402774 1.42025-5.680999 2.272399-11.361997 4.686824-17.042996 7.243273-5.680999 2.414424-11.504022 5.112899-17.185021 7.811373l-1.136199-1.136199z m35.648266 2.414424c4.260749-4.828849 8.805548-9.373648 13.634397-13.634397 4.828849-4.260749 9.799723-8.379473 15.196671-12.072122 1.278225-0.994175 2.698474-1.846325 3.976699-2.982524 1.278225-0.994175 2.556449-1.98835 3.976699-2.982524 1.42025-0.994175 2.840499-1.846325 4.260749-2.55645 1.562275-0.710125 3.124549-1.1362 4.828849-1.562274 1.562275-0.426075 3.408599-0.5681 5.112899-0.85215 1.7043-0.142025 3.408599-0.28405 5.254923-0.142025 1.846325 0.142025 3.550624 0.28405 5.396949 0.85215 1.846325 0.5681 3.550624 1.1362 5.396949 2.130374l0.28405 1.7043c-1.278225 1.562275-2.698474 2.698474-3.834674 3.834674-1.278225 1.1362-2.556449 2.272399-3.69265 3.124549l-1.846324 1.42025c-0.5681 0.5681-1.278225 0.994175-1.846325 1.42025-1.278225 0.85215-2.414424 1.562275-3.692649 2.414424-1.278225 0.85215-2.556449 1.42025-3.976699 1.988349-1.278225 0.5681-2.698474 1.1362-4.260749 1.42025-1.42025 0.28405-2.982524 0.85215-4.402774 1.1362-1.42025 0.426075-2.982524 0.85215-4.402774 1.420249-5.680999 2.272399-11.361997 4.686824-17.042995 7.243274-5.680999 2.414424-11.504022 5.112899-17.185021 7.811373l-1.1362-1.1362z" fill="#CCC7A6" p-id="9776"></path><path d="M702.809212 385.029681s50.560888 139.610541 36.784466 188.751179c66.325659-97.571151 234.909293-157.505687 284.760056-139.894591-283.623856-87.203329-241.016366-55.531761-285.328156-92.032177 14.202497 46.584189-36.216366 43.175589-36.216366 43.175589z" fill="#E0E2BC" p-id="9777"></path><path d="M377.856092 339.723717c1.278225-0.85215 2.272399-1.98835 3.408599-3.124549 0.994175-1.1362 1.98835-2.272399 2.982524-3.266574 1.98835-2.272399 3.834674-4.544799 5.538974-6.817199 3.550624-4.544799 7.101248-9.231623 10.225797-14.060471 6.391123-9.373648 12.072122-19.17337 16.190846-29.115118 4.260749-10.083773 6.675173-20.451595 7.101248-31.245493 0.142025-5.396949-0.28405-10.935922-1.278224-16.61692-0.85215-5.680999-2.556449-11.361997-4.118724-17.469071 1.1362 0.994175 2.272399 2.130374 3.408599 3.266574l1.7043 1.7043c0.5681 0.5681 0.994175 1.278225 1.420249 1.846324 0.994175 1.278225 1.98835 2.414424 2.840499 3.834674 0.85215 1.278225 1.7043 2.698474 2.55645 4.118724 3.124549 5.538974 5.538974 11.788072 6.675173 18.321221 2.414424 13.066297 0.426075 26.842718-4.686824 38.91484-4.970874 12.072122-12.640222 22.723994-21.729819 31.387518-4.544799 4.402774-9.515673 8.237448-14.912622 11.504022-2.698474 1.7043-5.396949 3.124549-8.379473 4.402774-1.42025 0.710125-2.982524 1.278225-4.402774 1.704299-0.85215 0.142025-1.562275 0.426075-2.272399 0.5681-0.426075 0.142025-0.710125 0.142025-1.1362 0.28405l-1.136199-0.142025z" fill="#CCC7A6" p-id="9778"></path><path d="M508.945135 245.277115l2.130374 8.095423c0.426075 1.7043 1.7043 3.124549 3.408599 3.834674l7.811373 2.8405c4.260749 1.562275 4.970874 7.385298 1.1362 9.799722l-6.959223 4.544799c-1.562275 0.994175-2.414424 2.698474-2.55645 4.402774l-0.28405 8.379473c-0.142025 4.544799-5.538974 6.959223-8.947572 4.118724l-6.391124-5.254924c-1.42025-1.1362-3.266574-1.562275-4.970874-0.994175l-7.953398 2.2724c-4.402774 1.278225-8.379473-2.982524-6.675173-7.243273l2.982524-7.811373c0.710125-1.7043 0.426075-3.550624-0.5681-5.112899l-4.686824-6.959224c-2.556449-3.834674 0.28405-8.805548 4.828849-8.663522l8.379473 0.426074c1.846325 0.142025 3.550624-0.710125 4.686824-2.130374l5.112899-6.533148c2.698474-3.692649 8.379473-2.414424 9.515673 1.988349z m57.80416 53.543412l2.130375 8.095423c0.426075 1.7043 1.7043 3.124549 3.408599 3.834674l7.811373 2.840499c4.260749 1.562275 4.970874 7.385298 1.1362 9.799723l-6.959223 4.544799c-1.562275 0.994175-2.414424 2.698474-2.55645 4.402774l-0.28405 8.379473c-0.142025 4.544799-5.538974 6.959223-8.947573 4.118724l-6.391123-5.254924c-1.42025-1.1362-3.266574-1.562275-4.970874-0.994175l-7.953398 2.2724c-4.402774 1.278225-8.379473-2.982524-6.675173-7.243273l2.982524-7.811374c0.710125-1.7043 0.426075-3.550624-0.5681-5.112898l-4.686824-6.959224c-2.556449-3.834674 0.28405-8.805548 4.828849-8.663522l8.379473 0.426074c1.846325 0.142025 3.550624-0.710125 4.686824-2.130374l5.112899-6.533148c2.698474-3.550624 8.379473-2.414424 9.515672 1.988349z m44.879889-40.193065l1.562275 5.823023c0.28405 1.278225 1.278225 2.272399 2.556449 2.698475l5.680999 2.130374c3.124549 1.1362 3.550624 5.396949 0.85215 7.101249l-5.112899 3.266574c-1.1362 0.710125-1.846325 1.98835-1.846324 3.266574l-0.142025 6.107073c-0.142025 3.266574-3.976699 5.112899-6.533149 2.982525l-4.686824-3.834674c-0.994175-0.85215-2.414424-1.1362-3.692649-0.710125l-5.823023 1.704299c-3.266574 0.994175-6.107074-2.272399-4.828849-5.396948l2.272399-5.680999c0.426075-1.278225 0.28405-2.556449-0.426075-3.692649l-3.408599-4.970874c-1.846325-2.698474 0.28405-6.533148 3.550624-6.249098l6.107074 0.426075c1.278225 0.142025 2.556449-0.5681 3.408599-1.562275l3.692649-4.828849c1.7043-2.556449 5.965049-1.7043 6.817198 1.42025z m42.181415 39.056865l1.562275 5.823024c0.28405 1.278225 1.278225 2.272399 2.556449 2.698474l5.680999 2.130375c3.124549 1.1362 3.550624 5.396949 0.85215 7.101248l-5.112899 3.266574c-1.1362 0.710125-1.846325 1.98835-1.846325 3.266574l-0.142025 6.107074c-0.142025 3.266574-3.976699 5.112899-6.533148 2.982524l-4.686824-3.834674c-0.994175-0.85215-2.414424-1.1362-3.692649-0.710125l-5.823024 1.7043c-3.266574 0.994175-6.107074-2.272399-4.828848-5.396949l2.272399-5.680998c0.426075-1.278225 0.28405-2.556449-0.426075-3.69265l-3.408599-4.970873c-1.846325-2.698474 0.28405-6.533148 3.550624-6.249099l6.107074 0.426075c1.278225 0.142025 2.556449-0.5681 3.408599-1.562275l3.692649-4.828848c1.7043-2.556449 5.965049-1.7043 6.817198 1.420249z m56.241886-4.686824l1.278225 4.828849c0.28405 0.994175 0.994175 1.846325 2.130375 2.2724l4.686823 1.704299c2.556449 0.994175 2.982524 4.402774 0.710125 5.965049l-4.260749 2.698474c-0.85215 0.5681-1.42025 1.562275-1.562274 2.698475l-0.142025 4.970873c-0.142025 2.698474-3.266574 4.118724-5.396949 2.414425l-3.834674-3.124549c-0.85215-0.710125-1.98835-0.85215-2.982524-0.5681l-4.828849 1.420249c-2.698474 0.710125-4.970874-1.846325-3.976699-4.402774l1.846324-4.686823c0.426075-0.994175 0.28405-2.130374-0.28405-3.12455l-2.840499-4.118724c-1.562275-2.272399 0.142025-5.254924 2.982524-5.112898l4.970874 0.284049c1.1362 0 2.130374-0.426075 2.8405-1.278224l3.124549-3.976699c1.42025-2.272399 4.828849-1.562275 5.538973 1.136199z m34.654092 32.097643l1.278225 4.828848c0.28405 0.994175 0.994175 1.846325 2.130374 2.2724l4.686824 1.704299c2.556449 0.994175 2.982524 4.402774 0.710125 5.965049l-4.260749 2.698474c-0.85215 0.5681-1.42025 1.562275-1.562275 2.698475l-0.142025 4.970873c-0.142025 2.698474-3.266574 4.118724-5.396948 2.414425l-3.834674-3.124549c-0.85215-0.710125-1.98835-0.85215-2.982525-0.5681l-4.828849 1.420249c-2.698474 0.710125-4.970874-1.846325-3.976699-4.402773l1.846325-4.686824c0.426075-0.994175 0.28405-2.130374-0.28405-3.12455l-2.840499-4.118724c-1.562275-2.272399 0.142025-5.254924 2.982524-5.112898l4.970874 0.28405c1.1362 0 2.130374-0.426075 2.840499-1.278225l3.124549-3.976699c1.42025-2.272399 4.828849-1.562275 5.538974 1.1362z m41.18724-0.710125l0.85215 3.266574c0.142025 0.710125 0.710125 1.278225 1.420249 1.562275l3.12455 1.136199c1.7043 0.5681 1.98835 2.982524 0.426074 3.834674l-2.840499 1.846325c-0.5681 0.426075-0.994175 0.994175-0.994175 1.7043l-0.142025 3.266574c0 1.846325-2.130374 2.698474-3.550624 1.562274l-2.556449-2.130374c-0.5681-0.426075-1.278225-0.5681-1.98835-0.426075l-3.124549 0.85215c-1.7043 0.5681-3.266574-1.278225-2.698474-2.8405l1.1362-3.124549c0.28405-0.710125 0.142025-1.42025-0.28405-1.988349l-1.846325-2.698475c-0.994175-1.562275 0.142025-3.550624 1.98835-3.408599l3.266574 0.142025c0.710125 0 1.42025-0.28405 1.846324-0.85215l1.98835-2.556449c1.278225-1.42025 3.550624-0.85215 3.976699 0.85215z m23.008044 21.303745l0.85215 3.266574c0.142025 0.710125 0.710125 1.278225 1.42025 1.562274l3.124549 1.1362c1.7043 0.5681 1.98835 2.982524 0.426075 3.834674l-2.840499 1.846325c-0.5681 0.426075-0.994175 0.994175-0.994175 1.704299l-0.142025 3.266575c0 1.846325-2.130374 2.698474-3.550624 1.562274l-2.55645-2.130374c-0.5681-0.426075-1.278225-0.5681-1.988349-0.426075l-3.124549 0.85215c-1.7043 0.5681-3.266574-1.278225-2.698475-2.8405l1.1362-3.124549c0.28405-0.710125 0.142025-1.42025-0.28405-1.988349l-1.846325-2.698475c-0.994175-1.562275 0.142025-3.550624 1.98835-3.408599l3.266574 0.142025c0.710125 0 1.42025-0.28405 1.846325-0.85215l1.988349-2.556449c1.278225-1.42025 3.550624-0.994175 3.976699 0.85215z" fill="#D1CF9F" p-id="9779"></path><path d="M786.177867 572.502635l-32.381692 3.550624c-3.692649 0.426075-6.959223 2.556449-8.663523 5.823024l-15.480721 28.689043c-4.402774 8.237448-16.332871 7.811373-20.167545-0.710125l-13.350347-29.683218c-1.562275-3.408599-4.544799-5.823024-8.237448-6.533148l-31.955617-5.823024c-9.231623-1.7043-12.498197-13.208322-5.538974-19.45742l24.144244-21.871845c2.698474-2.556449 4.118724-6.249098 3.550624-9.799722l-4.260749-32.239667c-1.278225-9.231623 8.663523-15.906796 16.758946-11.219973l28.262968 16.190847c3.266574 1.846325 7.101248 1.98835 10.509848 0.426074l29.399168-14.060471c8.379473-3.976699 17.895146 3.266574 15.906796 12.498197l-6.675174 31.813592c-0.710125 3.692649 0.28405 7.385298 2.8405 10.083773l22.439944 23.576144c6.249098 6.533148 2.130374 17.753121-7.101248 18.747295z" fill="#F9EFCF" p-id="9780"></path><path d="M144.082999 696.20638l-16.616921 1.846325c-1.846325 0.142025-3.550624 1.278225-4.544799 2.982524L114.967881 715.805825c-2.272399 4.260749-8.379473 3.976699-10.367823-0.426075L97.78286 700.183079c-0.85215-1.7043-2.414424-2.982524-4.260749-3.266574L77.18924 693.791956c-4.686824-0.85215-6.391123-6.817198-2.840499-9.941748l12.356172-11.219972c1.42025-1.278225 2.130374-3.124549 1.846324-5.112899l-2.272399-16.616921c-0.5681-4.828849 4.402774-8.237448 8.663523-5.823023l14.486546 8.379472c1.7043 0.994175 3.692649 0.994175 5.396949 0.142025l15.054646-7.243273c4.402774-2.130374 9.231623 1.7043 8.237448 6.391124l-3.408599 16.332871c-0.426075 1.846325 0.142025 3.834674 1.42025 5.254923l11.504022 12.072122c3.408599 3.550624 1.278225 9.231623-3.550624 9.799723z m56.667961 127.680444l-10.367823 1.1362c-1.1362 0.142025-2.272399 0.85215-2.840499 1.846324l-4.970874 9.089598c-1.42025 2.556449-5.254924 2.414424-6.391123-0.28405l-4.260749-9.515673c-0.426075-1.1362-1.42025-1.846325-2.698475-2.130374l-10.225797-1.846325c-2.982524-0.5681-3.976699-4.260749-1.7043-6.249098l7.669349-6.959224c0.85215-0.85215 1.278225-1.98835 1.136199-3.124549l-1.420249-10.225797c-0.426075-2.982524 2.698474-5.112899 5.396948-3.550624l8.947573 5.112898c0.994175 0.5681 2.272399 0.5681 3.408599 0.142025l9.373648-4.544799c2.698474-1.278225 5.680999 0.994175 5.112899 3.976699l-2.130375 10.225798c-0.28405 1.1362 0.142025 2.414424 0.85215 3.266574l7.101248 7.527323c2.272399 2.130374 0.994175 5.823024-1.988349 6.107074z m580.029958-653.882941l-14.628571 1.562275c-1.7043 0.142025-3.124549 1.1362-3.976699 2.698474l-6.959224 12.924272c-1.98835 3.692649-7.385298 3.550624-9.089597-0.28405l-5.965049-13.350346c-0.710125-1.562275-2.130374-2.556449-3.692649-2.982525l-14.486546-2.698474c-4.118724-0.710125-5.680999-5.965049-2.55645-8.805548l10.935922-9.799722c1.278225-1.1362 1.846325-2.840499 1.562275-4.402774l-1.988349-14.486547c-0.5681-4.118724 3.976699-7.243273 7.527323-5.112899l12.782247 7.243274c1.42025 0.85215 3.266574 0.85215 4.686823 0.142025l13.208322-6.391124c3.834674-1.846325 8.095423 1.562275 7.243273 5.680999l-2.982524 14.344521c-0.28405 1.7043 0.142025 3.408599 1.278225 4.544799l10.083772 10.651873c3.124549 2.982524 1.278225 8.095423-2.982524 8.521497z" fill="#C9E0F2" p-id="9781"></path><path d="M835.886605 784.971983l-10.651873 1.1362c-1.278225 0.142025-2.272399 0.85215-2.840499 1.98835l-5.112899 9.373647c-1.42025 2.698474-5.396949 2.556449-6.675173-0.28405l-4.402774-9.657697c-0.5681-1.1362-1.562275-1.846325-2.698474-2.130375l-10.509848-1.988349c-2.982524-0.5681-4.118724-4.260749-1.846324-6.391124l7.953398-7.101248c0.85215-0.85215 1.278225-1.98835 1.136199-3.266574l-1.420249-10.509848c-0.426075-2.982524 2.840499-5.254924 5.538973-3.692649l9.231623 5.254924c0.994175 0.5681 2.272399 0.710125 3.408599 0.142025l9.657698-4.544799c2.698474-1.278225 5.823024 1.1362 5.254924 4.118724l-2.130375 10.367823c-0.28405 1.1362 0.142025 2.414424 0.994175 3.266574l7.385298 7.669348c2.130374 2.272399 0.85215 5.965049-2.272399 6.249098z" fill="#F9EFCF" p-id="9782"></path><path d="M846.538477 383.893481c9.089598 8.095423 16.758946 17.185021 23.718169 26.842719 6.817198 9.657698 12.782247 20.02552 17.611096 31.103467 4.828849 10.935922 8.521498 22.723994 10.083773 34.938142 0.710125 6.107074 0.85215 12.356172 0 18.60527-0.85215 6.107074-2.698474 12.356172-6.249099 17.469071 0-6.107074-0.85215-11.646047-2.130374-17.185021-1.278225-5.396949-2.840499-10.793897-4.686824-15.906796-3.692649-10.509847-8.095423-20.735645-12.640222-31.103468-4.544799-10.367822-9.231623-20.735645-13.776422-31.387517-2.272399-5.396949-4.402774-10.793897-6.533148-16.190846-1.846325-5.680999-3.976699-11.219972-5.396949-17.185021z m15.622746-9.089598c10.793897 5.396949 20.30957 12.356172 29.257143 20.025521 8.947573 7.669348 17.042996 16.332871 24.428294 25.706518 7.243273 9.373648 13.634397 19.74147 18.037171 31.245493 2.130374 5.823024 3.834674 11.788072 4.260749 18.179195 0 1.562275 0.142025 3.124549 0 4.828849l-0.142025 2.414424c-0.142025 0.85215-0.28405 1.562275-0.426075 2.414425-0.28405 1.562275-0.85215 3.124549-1.278225 4.544799-0.28405 0.710125-0.5681 1.42025-0.994175 2.130374-0.426075 0.710125-0.710125 1.278225-1.136199 1.98835-0.142025-6.107074-1.846325-11.219972-4.118724-16.190846-2.272399-4.970874-5.112899-9.515673-8.095423-14.202497-5.965049-9.089598-12.782247-17.895146-19.599446-26.842718-6.817198-8.805548-13.776422-17.753121-20.735644-26.984744-3.408599-4.544799-6.817198-9.231623-10.083773-14.060471-3.266574-4.970874-6.533148-9.799723-9.373648-15.196672z m12.498197-9.373647c3.266574 0.5681 6.391123 1.42025 9.515673 2.414424s6.107074 1.98835 9.231623 3.124549c6.107074 2.272399 11.930097 4.970874 17.611095 7.953398 11.504022 5.965049 22.439945 12.782247 32.665742 20.87767 10.225798 7.953398 19.74147 17.185021 27.836894 27.552844 3.976699 5.254924 7.669348 10.793897 10.651872 16.758946 2.982524 5.965049 5.396949 12.214147 6.391123 18.747295-8.663523-9.799723-17.469071-18.179196-26.842718-26.274619-9.373648-7.953398-18.88932-15.622746-28.547018-23.292094L903.774538 390.14258c-9.799723-7.811373-19.599445-15.764771-29.115118-24.712344z" fill="#CCC7A6" p-id="9783"></path><path d="M514.768158 512.85215m-511.857975 0a511.857975 511.857975 0 1 0 1023.71595 0 511.857975 511.857975 0 1 0-1023.71595 0Z" fill="#EEF9EC" p-id="9784"></path><path d="M649.975925 662.688488c-130.947018-75.415257-63.48516-83.79473-53.969487-86.351179 25.564494-7.101248 102.9681-24.002219 119.869071 16.758946 21.019695 50.560888 32.097642 81.80638 25.138419 89.901803-17.185021 20.02552-52.833287 1.846325-91.038003-20.30957z" fill="#B4DBC1" p-id="9785"></path><path d="M722.834732 670.925936c-5.680999-6.675173-9.799723-13.776422-13.776421-20.735645-3.834674-7.101248-7.243273-14.202497-10.367823-21.44577s-5.965049-14.344521-8.805548-21.587794c-1.42025-3.550624-2.698474-7.243273-4.260749-10.935923-1.562275-3.692649-2.982524-7.243273-5.254923-11.077947 4.402774 0.85215 8.379473 3.266574 11.788072 5.965049 3.550624 2.698474 6.533148 5.965049 9.231623 9.231622 5.396949 6.675173 9.515673 14.060472 12.782246 21.587795 3.266574 7.669348 5.680999 15.480721 7.243274 23.718169 0.710125 4.118724 1.278225 8.237448 1.562274 12.356172 0.5681 4.260749 0.5681 8.521498-0.142025 12.924272z m-30.961442-8.379473c-5.680999-6.675173-9.941748-13.634397-13.918447-20.735645-3.976699-6.959223-7.385298-14.202497-10.509847-21.303744s-6.107074-14.344521-8.947573-21.587795c-1.42025-3.550624-2.840499-7.243273-4.402774-10.793898-1.562275-3.692649-3.124549-7.243273-5.396949-11.077947 4.402774 0.85215 8.379473 3.124549 11.930097 5.823024 3.550624 2.698474 6.533148 5.823024 9.231623 9.089597 5.538974 6.675173 9.657698 13.918447 13.066297 21.587795 3.408599 7.669348 5.823024 15.480721 7.527323 23.576144 0.85215 4.118724 1.42025 8.237448 1.7043 12.356172 0.28405 4.402774 0.28405 8.663523-0.28405 13.066297z m-22.723995 1.846325c-5.823024-6.533148-10.367822-13.350347-14.486546-20.30957-4.118724-6.959223-7.669348-13.918447-11.077947-21.019695-3.408599-7.101248-6.533148-14.202497-9.515673-21.303745-1.562275-3.550624-2.982524-7.101248-4.686824-10.651872-1.562275-3.550624-3.266574-7.101248-5.680998-10.935923 4.402774 0.710125 8.521498 2.982524 12.072122 5.538974 3.550624 2.556449 6.675173 5.680999 9.515672 8.947573 5.680999 6.533148 10.083773 13.776422 13.634397 21.16172 3.550624 7.527323 6.249098 15.338696 8.095423 23.434119 0.85215 4.118724 1.562275 8.095423 1.988349 12.356172 0.426075 4.118724 0.5681 8.379473 0.142025 12.782247z m-21.303744-1.7043c-6.533148-5.823024-11.788072-12.214147-16.616921-18.60527-4.828849-6.391123-9.231623-13.066297-13.350347-19.599445-4.118724-6.675173-7.953398-13.350347-11.788072-20.167546-1.846325-3.408599-3.834674-6.817198-5.823024-10.083772-1.98835-3.408599-4.118724-6.675173-6.817198-10.225798 4.544799 0.142025 8.805548 1.98835 12.640222 4.118724s7.243273 4.828849 10.367822 7.811374c6.391123 5.823024 11.504022 12.498197 15.906796 19.599445 4.402774 7.101248 7.953398 14.486546 10.651873 22.439944 1.278225 3.976699 2.414424 7.953398 3.408599 12.072122 0.710125 3.976699 1.42025 8.237448 1.42025 12.640222z" fill="#A3C1AA" p-id="9786"></path><path d="M240.944025 515.124549c14.628571-50.844938 94.162552 98.139251 295.553953 108.649099 186.052705 9.657698 277.942857 65.047434 308.620249 114.046047 1.7043 2.840499-27.268793-3.408599-20.451595 3.266574 2.982524 2.840499 21.019695 2.272399 29.541193 16.048821 5.254924 8.521498 3.692649 18.60527 2.130375 26.558669-14.770596 80.10208-159.067961 116.034397-285.328156 73.284882C392.342638 796.476006 226.315454 565.969487 240.944025 515.124549z" fill="#BDE5CC" p-id="9787"></path><path d="M118.66053 530.463245c50.134813 92.600277 155.091262 219.570596 272.119833 269.847435 89.617753 38.488766 210.338974 31.387517 267.14896-3.692649-45.163939 10.367822-115.608322 16.048821-166.453259 4.828848C314.654982 762.816089 132.010877 567.247712 125.477728 505.324827c-2.982524 1.42025-5.112899 4.544799-6.533148 9.657697-1.278225 4.118724-1.278225 9.373648-0.28405 15.480721z" fill="#B4DBC1" p-id="9788"></path><path d="M836.236654 829.286784a18.179196 22.581969 30.922 1 0 23.208424-38.744682 18.179196 22.581969 30.922 1 0-23.208424 38.744682Z" fill="#F5FFF8" p-id="9789"></path><path d="M846.10572 819.745185a10.083773 12.498197 30.922 1 0 12.844914-21.443598 10.083773 12.498197 30.922 1 0-12.844914 21.443598Z" fill="#838483" p-id="9790"></path><path d="M852.378264 815.048153a4.828849 6.107074 30.922 1 0 6.276492-10.478122 4.828849 6.107074 30.922 1 0-6.276492 10.478122Z" fill="#F5FFF8" p-id="9791"></path><path d="M843.368195 818.327286a0.994175 1.278225 30.922 1 0 1.313684-2.193095 0.994175 1.278225 30.922 1 0-1.313684 2.193095Z" fill="#F5FFF8" p-id="9792"></path><path d="M846.501719 814.22156a0.994175 1.278225 30.922 1 0 1.313684-2.193096 0.994175 1.278225 30.922 1 0-1.313684 2.193096Z" fill="#F5FFF8" p-id="9793"></path><path d="M854.974884 812.093596a2.982524 3.692649 30.922 1 0 3.795088-6.335608 2.982524 3.692649 30.922 1 0-3.795088 6.335608Z" fill="#DFE5E1" p-id="9794"></path><path d="M683.777867 782.983634m-30.251318 0a30.251318 30.251318 0 1 0 60.502635 0 30.251318 30.251318 0 1 0-60.502635 0Z" fill="#C6DBCC" p-id="9795"></path><path d="M807.623637 780.28516m-25.422469 0a25.422469 25.422469 0 1 0 50.844937 0 25.422469 25.422469 0 1 0-50.844937 0Z" fill="#F5FFF8" p-id="9796"></path><path d="M812.87856 777.302635m-14.060471 0a14.060472 14.060472 0 1 0 28.120943 0 14.060472 14.060472 0 1 0-28.120943 0Z" fill="#838483" p-id="9797"></path><path d="M817.139309 776.59251m-6.817198 0a6.817198 6.817198 0 1 0 13.634397 0 6.817198 6.817198 0 1 0-13.634397 0Z" fill="#F5FFF8" p-id="9798"></path><path d="M807.481612 789.516782m-1.42025 0a1.42025 1.42025 0 1 0 2.840499 0 1.42025 1.42025 0 1 0-2.840499 0Z" fill="#F5FFF8" p-id="9799"></path><path d="M808.759836 783.835784m-1.420249 0a1.42025 1.42025 0 1 0 2.840499 0 1.42025 1.42025 0 1 0-2.840499 0Z" fill="#F5FFF8" p-id="9800"></path><path d="M818.417534 775.172261m-4.118724 0a4.118724 4.118724 0 1 0 8.237448 0 4.118724 4.118724 0 1 0-8.237448 0Z" fill="#DFE5E1" p-id="9801"></path><path d="" fill="#B4DBC1" p-id="9802"></path><path d="M584.076341 851.581692c-5.254924 3.692649-10.935922 6.817198-16.616921 9.941748-5.680999 2.982524-11.646047 5.680999-17.75312 7.953398-1.562275 0.5681-2.982524 1.278225-4.544799 1.846324-1.562275 0.710125-2.982524 1.42025-4.686824 1.846325-1.562275 0.5681-3.124549 0.994175-4.828849 1.420249-1.7043 0.28405-3.408599 0.426075-4.970874 0.426075-1.7043 0-3.408599-0.142025-5.112899-0.426075-1.7043-0.28405-3.408599-0.5681-5.112898-1.136199-1.7043-0.5681-3.408599-1.1362-4.970874-2.130375-1.7043-0.994175-3.266574-1.98835-4.686824-3.266574l0.142025-1.7043c1.7043-1.1362 3.266574-1.98835 4.686824-2.698474s2.982524-1.562275 4.402774-2.130374l2.130374-0.85215 2.130375-0.85215c1.42025-0.5681 2.840499-0.994175 4.260749-1.42025 1.42025-0.426075 2.840499-0.85215 4.260749-0.994174 1.42025-0.28405 2.982524-0.426075 4.402774-0.426075 1.562275 0 2.982524 0 4.544799-0.142025 1.562275 0 3.124549-0.142025 4.544798-0.28405 6.107074-0.85215 12.214147-1.846325 18.321221-2.840499 6.249098-0.994175 12.356172-2.272399 18.60527-3.4086l0.85215 1.278225zM550.984524 841.071845c-5.254924 3.692649-10.935922 6.817198-16.616921 9.941747-5.680999 2.982524-11.646047 5.680999-17.75312 7.953398-1.562275 0.5681-2.982524 1.278225-4.544799 1.846325-1.562275 0.710125-2.982524 1.42025-4.686824 1.846324-1.562275 0.5681-3.124549 0.994175-4.828849 1.42025-1.7043 0.28405-3.408599 0.426075-4.970874 0.426075-1.7043 0-3.408599-0.142025-5.112898-0.426075-1.7043-0.28405-3.408599-0.5681-5.112899-1.1362-1.7043-0.5681-3.408599-1.1362-4.970874-2.130374-1.7043-0.994175-3.266574-1.98835-4.686824-3.266574l0.142025-1.7043c1.7043-1.1362 3.266574-1.98835 4.686824-2.698474s2.982524-1.562275 4.402774-2.130375l2.130374-0.85215 2.130375-0.852149c1.42025-0.5681 2.840499-0.994175 4.260749-1.42025 1.42025-0.426075 2.840499-0.85215 4.260749-0.994175 1.42025-0.28405 2.982524-0.426075 4.402774-0.426075 1.562275 0 2.982524 0 4.544799-0.142025 1.562275 0 3.124549-0.142025 4.544798-0.28405 6.107074-0.85215 12.214147-1.846325 18.321221-2.840499 6.249098-0.994175 12.356172-2.272399 18.60527-3.408599l0.85215 1.278225zM524.993956 830.561997c-5.254924 3.692649-10.935922 6.817198-16.616921 9.941748-5.680999 2.982524-11.646047 5.680999-17.753121 7.953398-1.562275 0.5681-2.982524 1.278225-4.544799 1.846324-1.562275 0.710125-2.982524 1.42025-4.686824 1.846325-1.562275 0.5681-3.124549 0.994175-4.828849 1.42025-1.7043 0.28405-3.408599 0.426075-4.970873 0.426075-1.7043 0-3.408599-0.142025-5.112899-0.426075-1.7043-0.28405-3.408599-0.5681-5.112899-1.1362-1.7043-0.5681-3.408599-1.1362-4.970874-2.130375-1.7043-0.994175-3.266574-1.98835-4.686823-3.266574l0.142024-1.704299c1.7043-1.1362 3.266574-1.98835 4.686824-2.698475s2.982524-1.562275 4.402774-2.130374l2.130375-0.85215 2.130374-0.85215c1.42025-0.5681 2.840499-0.994175 4.260749-1.420249 1.42025-0.426075 2.840499-0.85215 4.260749-0.994175 1.42025-0.28405 2.982524-0.426075 4.402774-0.426075 1.562275 0 2.982524 0 4.544799-0.142025 1.562275 0 3.124549-0.142025 4.544799-0.28405 6.107074-0.85215 12.214147-1.846325 18.32122-2.840499 6.107074-0.994175 12.356172-2.272399 18.605271-3.408599l0.85215 1.278224zM491.049989 819.48405c-5.254924 3.692649-10.935922 6.817198-16.616921 9.941748-5.680999 2.982524-11.646047 5.680999-17.753121 7.953398-1.562275 0.5681-2.982524 1.278225-4.544799 1.846324-1.562275 0.710125-2.982524 1.42025-4.686823 1.846325-1.562275 0.5681-3.124549 0.994175-4.828849 1.420249-1.7043 0.28405-3.408599 0.426075-4.970874 0.426075-1.7043 0-3.408599-0.142025-5.112899-0.426075-1.7043-0.28405-3.408599-0.5681-5.112899-1.136199-1.7043-0.5681-3.408599-1.1362-4.970873-2.130375-1.7043-0.994175-3.266574-1.98835-4.686824-3.266574l0.142025-1.7043c1.7043-1.1362 3.266574-1.98835 4.686824-2.698474s2.982524-1.562275 4.402774-2.130374l2.130374-0.85215 2.130374-0.85215c1.42025-0.5681 2.840499-0.994175 4.260749-1.42025 1.42025-0.426075 2.840499-0.85215 4.260749-0.994174 1.42025-0.28405 2.982524-0.426075 4.402774-0.426075 1.562275 0 2.982524 0 4.544799-0.142025 1.562275 0 3.124549-0.142025 4.544799-0.28405 6.107074-0.85215 12.214147-1.846325 18.321221-2.8405 6.107074-0.994175 12.356172-2.272399 18.60527-3.408599l0.85215 1.278225z" fill="#A3C1AA" p-id="9803"></path><path d="M302.01476 539.410818s-15.196671-147.705964 10.225798-192.017753C224.185079 426.074896 46.085773 443.117892 2.058033 414.002774c253.940638 153.528988 220.280721 112.483773 254.508738 158.641886-2.698474-48.714563 45.447989-33.233842 45.447989-33.233842z" fill="#BDE5CC" p-id="9804"></path><path d="M286.960114 529.753121c-7.527323-9.515673-13.776422-19.599445-18.889321-30.393343-5.112899-10.651872-9.373648-21.871845-12.356172-33.517892-2.982524-11.646047-4.686824-23.860194-4.118724-36.216366 0.28405-6.107074 1.1362-12.356172 2.982525-18.32122 1.846325-5.965049 4.686824-11.788072 8.947572-16.190846-0.994175 6.107074-0.994175 11.646047-0.710124 17.327045 0.28405 5.538974 1.1362 11.077947 1.988349 16.474896 1.98835 10.935922 4.544799 21.72982 7.243273 32.807767 2.698474 10.935922 5.680999 22.01387 8.379473 33.233842 1.278225 5.680999 2.556449 11.361997 3.692649 17.042996 1.42025 5.823024 2.556449 11.646047 2.8405 17.753121zM270.201168 536.144244c-9.799723-7.101248-18.037171-15.622746-25.564494-24.570319-7.527323-9.089598-14.202497-18.88932-19.883495-29.399168-5.538974-10.509847-10.225798-21.72982-12.640222-33.801941-1.1362-6.107074-1.846325-12.356172-1.1362-18.605271 0.142025-1.562275 0.28405-3.124549 0.710125-4.686824l0.5681-2.272399c0.28405-0.710125 0.5681-1.562275 0.85215-2.2724 0.426075-1.562275 1.278225-2.840499 1.988349-4.260749 0.426075-0.710125 0.85215-1.278225 1.278225-1.846324 0.426075-0.5681 0.994175-1.1362 1.42025-1.7043-0.85215 5.965049 0 11.361997 1.420249 16.616921 1.42025 5.254924 3.408599 10.225798 5.680999 15.196671 4.402774 9.941748 9.657698 19.74147 14.912621 29.683218 5.254924 9.941748 10.651872 19.883495 15.906796 29.967268 2.556449 5.112899 5.112899 10.225798 7.669348 15.622746 2.414424 5.254924 4.828849 10.509847 6.817199 16.332871zM256.282721 543.387517c-3.124549-1.1362-6.107074-2.414424-8.947573-3.976699-2.982524-1.42025-5.823024-2.982524-8.521498-4.686824-5.538974-3.266574-10.935922-6.817198-16.190846-10.651872-10.367822-7.669348-20.02552-16.332871-28.831068-25.848544-8.805548-9.515673-16.616921-20.167545-22.866019-31.671567-3.124549-5.823024-5.823024-11.930097-7.811373-18.179195-1.98835-6.391123-3.266574-12.924272-3.266574-19.457421 6.959223 11.077947 14.344521 20.735645 22.155894 30.251318 7.811373 9.373648 16.048821 18.60527 24.286269 27.694868l25.138419 27.552843c8.521498 9.089598 16.900971 18.463245 24.854369 28.973093zM605.238061 692.655756c-1.42025 0.5681-2.698474 1.278225-3.976699 2.130374-1.278225 0.85215-2.556449 1.7043-3.692649 2.55645-2.414424 1.7043-4.828849 3.408599-7.101248 5.254923-4.686824 3.550624-9.089598 7.243273-13.350347 11.077948-8.521498 7.527323-16.332871 15.622746-22.723995 24.428294-6.533148 8.663523-11.361997 18.179196-14.486546 28.547018-1.42025 5.254924-2.272399 10.651872-2.840499 16.332871-0.5681 5.680999-0.28405 11.646047-0.28405 17.895145-0.85215-1.278225-1.7043-2.556449-2.55645-3.976699l-1.136199-1.988349c-0.28405-0.710125-0.710125-1.42025-0.994175-2.130375-0.710125-1.42025-1.278225-2.840499-1.846325-4.402773s-0.994175-2.982524-1.420249-4.544799c-1.7043-6.249098-2.414424-12.782247-1.98835-19.315396 0.85215-13.208322 6.107074-26.132594 13.918447-36.642441 7.811373-10.509847 17.753121-18.88932 28.831068-25.138419 5.538974-3.124549 11.219972-5.680999 17.185021-7.527323 2.982524-0.994175 6.107074-1.7043 9.089597-2.272399 1.562275-0.28405 3.124549-0.426075 4.686824-0.5681 0.85215 0 1.562275-0.142025 2.414425 0h1.136199l1.1362 0.28405z" fill="#A3C1AA" p-id="9805"></path><path d="M429.979254 733.416921c0.5681-11.219972 14.202497-2.130374 31.813592-1.278225s32.807767-6.817198 32.239667 4.402774c-0.5681 11.219972-15.764771 27.410818-33.375867 26.558669-17.753121-0.85215-31.245492-18.463245-30.677392-29.683218z m37.210541-52.549237c0.426075 11.219972-13.918447 3.408599-31.529543 4.118724-17.753121 0.710125-32.097642 9.799723-32.523717-1.42025-0.426075-11.219972 13.208322-28.831068 30.961443-29.541193 17.611096-0.710125 32.665742 15.622746 33.091817 26.842719z m-139.468516 13.776421c2.698474-8.805548 11.504022 1.1362 25.280444 5.396949s27.126768 1.1362 24.428294 9.941748-17.895146 18.463245-31.529543 14.202496c-13.776422-4.260749-20.87767-20.735645-18.179195-29.541193z m39.76699-33.801941c-1.846325 8.947573-11.646047-0.142025-25.706519-3.12455-14.060472-2.982524-27.126768 1.278225-25.280443-7.669348 1.846325-8.947573 16.048821-20.02552 30.109292-17.042996 14.202497 3.124549 22.723994 18.88932 20.87767 27.836894z m-108.223024-11.504023c1.562275-4.828849 6.391123 0.710125 14.060472 2.982525 7.669348 2.414424 15.054646 0.710125 13.634397 5.538973s-9.941748 10.225798-17.469071 7.953398c-7.811373-2.414424-11.788072-11.646047-10.225798-16.474896z m22.01387-18.747295c-0.994175 4.970874-6.391123 0-14.202496-1.7043s-15.054646 0.710125-14.060472-4.260748 8.947573-11.077947 16.758946-9.373648c7.811373 1.562275 12.498197 10.367822 11.504022 15.338696z m-75.415256-24.996394c1.278225-4.118724 5.538974 0.5681 12.072122 2.55645s12.924272 0.5681 11.646047 4.686823c-1.278225 4.118724-8.521498 8.805548-15.054647 6.817199-6.533148-1.98835-9.941748-9.941748-8.663522-14.060472zM224.895204 589.403606c-0.85215 4.260749-5.538974 0-12.214147-1.42025s-12.924272 0.5681-12.072122-3.692649 7.669348-9.515673 14.344521-8.095423 10.793897 8.947573 9.941748 13.208322z" fill="#B4DBC1" p-id="9806"></path><path d="M335.248602 349.949515c145.433564 41.329265 81.948405 65.899584 73.284882 70.728432-23.008044 13.066297-94.020527 48.288488-120.295146 12.782247-32.665742-43.885714-50.986963-71.438558-46.158113-81.096255 11.788072-23.576144 50.702913-14.486546 93.168377-2.414424z" fill="#CCC7A6" p-id="9807"></path><path d="M262.53182 359.749237c7.101248 5.112899 12.924272 10.935922 18.32122 16.758946 5.538974 5.823024 10.509847 12.072122 15.196672 18.179196 4.828849 6.249098 9.231623 12.498197 13.776421 18.88932 2.272399 3.124549 4.402774 6.391123 6.817198 9.515673 2.272399 3.124549 4.686824 6.249098 7.811374 9.515672-4.402774 0.28405-8.947573-1.1362-12.924272-2.840499-4.118724-1.846325-7.669348-4.118724-11.219973-6.675173-6.817198-5.112899-12.640222-11.361997-17.75312-17.895146-4.970874-6.533148-9.373648-13.634397-12.782247-21.16172-1.7043-3.834674-3.266574-7.669348-4.544799-11.646047-1.1362-4.118724-2.272399-8.237448-2.698474-12.640222z m32.239667 0.5681c7.243273 5.112899 12.924272 10.793897 18.463245 16.616921 5.538974 5.823024 10.509847 11.930097 15.338697 18.037171 4.828849 6.107074 9.373648 12.356172 13.918446 18.747295 2.272399 3.124549 4.544799 6.391123 6.817199 9.515673 2.414424 3.124549 4.828849 6.249098 7.811373 9.373647-4.402774 0.28405-8.947573-0.994175-12.924272-2.698474-4.118724-1.7043-7.811373-4.118724-11.219973-6.675173-6.959223-5.112899-12.782247-11.219972-17.895145-17.753121-5.112899-6.533148-9.515673-13.634397-13.066297-21.16172-1.7043-3.692649-3.266574-7.669348-4.686824-11.646047-0.994175-3.834674-2.130374-7.811373-2.556449-12.356172z m21.44577-7.385298c7.243273 4.970874 13.208322 10.509847 18.88932 16.190846s10.793897 11.646047 15.906796 17.753121c4.970874 6.107074 9.657698 12.214147 14.344522 18.32122 2.272399 3.124549 4.686824 6.249098 7.101248 9.231623 2.414424 3.124549 4.970874 6.107074 8.095423 9.231623-4.402774 0.426075-8.947573-0.85215-13.066297-2.414425-4.118724-1.7043-7.811373-3.834674-11.361997-6.249098-7.101248-4.970874-13.066297-10.935922-18.321221-17.327046-5.254924-6.391123-9.799723-13.350347-13.492371-20.735645-1.846325-3.692649-3.550624-7.527323-4.970874-11.504022-1.278225-3.976699-2.414424-8.095423-3.124549-12.498197z m21.161719-3.408599c7.811373 4.118724 14.344521 8.947573 20.59362 13.918446 6.249098 4.970874 12.072122 10.367822 17.753121 15.764771s10.935922 11.077947 16.332871 16.616921c2.698474 2.840499 5.254924 5.680999 8.095423 8.379473 2.840499 2.840499 5.538974 5.538974 9.089598 8.237448-4.402774 0.85215-8.947573 0.142025-13.208322-0.994174-4.260749-1.1362-8.237448-2.982524-12.072122-4.970874-7.527323-4.118724-14.202497-9.373648-20.167545-15.196672-5.965049-5.823024-11.219972-12.214147-15.764771-19.17337-2.272399-3.550624-4.402774-7.101248-6.107074-10.935922-1.846325-3.408599-3.408599-7.385298-4.544799-11.646047z" fill="#BCB48A" p-id="9808"></path><path d="M767.856646 393.835229c-1.846325 52.975312-115.182247-72.290707-313.165048-33.659917-182.928155 35.790291-285.47018 4.402774-327.083495-35.790291-2.414424-2.272399 27.268793-3.408599 19.031345-8.095423-3.550624-1.98835-20.87767 2.982524-32.523717-8.379473-7.101248-6.959223-8.095423-17.042996-8.521498-25.280444-5.112899-81.380305 126.118169-151.256588 258.911512-140.462691 188.183079 15.480721 405.197226 198.834951 403.350901 251.668239z" fill="#E0E2BC" p-id="9809"></path><path d="M377.430017 142.45104c-121.28932-9.799723-241.442441 47.578363-257.349238 119.585021-1.562275 6.817198 39.056865 8.805548 62.63301-6.107073 44.737864-28.262968 104.672399-47.578363 166.737309-49.424688 181.081831-5.538974 405.623301 139.894591 427.069071 198.266851 2.556449-1.98835 3.834674-5.538974 3.976699-11.077947 1.98835-52.691262-215.025798-236.045492-403.066851-251.242164z" fill="#E5E5CA" p-id="9810"></path><path d="M764.306022 378.922607c-71.154508-77.545631-203.805825-175.258807-329.497919-195.710402-96.292926-15.622746-211.617198 20.59362-258.343412 68.456034 41.329265-21.019695 108.223024-43.601664 160.346186-45.163939 181.081831-5.538974 405.623301 139.894591 427.06907 198.266851 2.556449-1.98835 3.834674-5.538974 3.976699-11.077947 0.142025-3.976699-1.1362-9.089598-3.550624-14.770597z" fill="#CCC7A6" p-id="9811"></path><path d="M226.413042 278.9519a21.72982 26.984743 16.869 1 0 15.661107-51.647219 21.72982 26.984743 16.869 1 0-15.661107 51.647219Z" fill="#D8D3BC" p-id="9812"></path><path d="M101.02574 276.863647a18.179196 22.581969 16.869 1 0 13.105873-43.220567 18.179196 22.581969 16.869 1 0-13.105873 43.220567Z" fill="#F5FFF8" p-id="9813"></path><path d="M99.671774 269.153282a10.083773 12.498197 16.869 1 0 7.253566-23.920817 10.083773 12.498197 16.869 1 0-7.253566 23.920817Z" fill="#838483" p-id="9814"></path><path d="M98.371713 263.036328a4.828849 6.107074 16.869 1 0 3.544355-11.688582 4.828849 6.107074 16.869 1 0-3.544355 11.688582Z" fill="#F5FFF8" p-id="9815"></path><path d="M109.085727 248.554494a0.994175 1.278225 16.869 1 0 0.741842-2.446447 0.994175 1.278225 16.869 1 0-0.741842 2.446447Z" fill="#F5FFF8" p-id="9816"></path><path d="M107.196324 253.13211a0.994175 1.278225 16.869 1 0 0.741842-2.446448 0.994175 1.278225 16.869 1 0-0.741842 2.446448Z" fill="#F5FFF8" p-id="9817"></path><path d="M97.962883 261.86112a2.982524 3.692649 16.869 1 0 2.143099-7.067514 2.982524 3.692649 16.869 1 0-2.143099 7.067514Z" fill="#DFE5E1" p-id="9818"></path><path d="M234.268852 259.905687m-30.251318 0a30.251318 30.251318 0 1 0 60.502635 0 30.251318 30.251318 0 1 0-60.502635 0Z" fill="#D8D3BC" p-id="9819"></path><path d="M153.740696 274.250208m-25.422469 0a25.422469 25.422469 0 1 0 50.844938 0 25.422469 25.422469 0 1 0-50.844938 0Z" fill="#F5FFF8" p-id="9820"></path><path d="M149.337922 278.510957m-14.060471 0a14.060472 14.060472 0 1 0 28.120943 0 14.060472 14.060472 0 1 0-28.120943 0Z" fill="#838483" p-id="9821"></path><path d="M145.361223 280.073232m-6.817198 0a6.817198 6.817198 0 1 0 13.634397 0 6.817198 6.817198 0 1 0-13.634397 0Z" fill="#F5FFF8" p-id="9822"></path><path d="M151.752347 265.302635m-1.42025 0a1.42025 1.42025 0 1 0 2.840499 0 1.42025 1.42025 0 1 0-2.840499 0Z" fill="#F5FFF8" p-id="9823"></path><path d="M151.894372 270.983634m-1.42025 0a1.42025 1.42025 0 1 0 2.840499 0 1.42025 1.42025 0 1 0-2.840499 0Z" fill="#F5FFF8" p-id="9824"></path><path d="M144.509074 281.777531m-4.118724 0a4.118724 4.118724 0 1 0 8.237447 0 4.118724 4.118724 0 1 0-8.237447 0Z" fill="#DFE5E1" p-id="9825"></path><path d="M514.768158 161.056311c-1.1362 1.562275-4.402774 4.828849-5.823023 6.107073-13.634397 11.930097-38.91484 7.953398-61.354785 4.828849-33.517892-4.828849-125.550069-17.327046-125.55007-17.327046-2.982524-0.5681-3.976699-4.260749-1.704299-6.249098 29.115118-25.706519 67.745908-45.732039 106.376699-45.163939l105.098474 7.527323c6.391123 0.142025 10.935922 6.391123 8.805548 12.498197l-25.848544 37.778641z" fill="#E0E2BC" p-id="9826"></path><path d="M387.939864 152.960888c4.260749-4.828849 8.805548-9.373648 13.634397-13.634397 4.828849-4.260749 9.799723-8.379473 15.196671-12.072122 1.278225-0.994175 2.698474-1.846325 3.976699-2.982524 1.278225-0.994175 2.556449-1.98835 3.976699-2.982525 1.42025-0.994175 2.840499-1.846325 4.260749-2.556449 1.562275-0.710125 3.124549-1.1362 4.828849-1.562275 1.562275-0.426075 3.408599-0.5681 5.112899-0.852149 1.7043-0.142025 3.408599-0.28405 5.254923-0.142025 1.846325 0.142025 3.550624 0.28405 5.396949 0.852149 1.846325 0.5681 3.550624 1.1362 5.396949 2.130375l0.28405 1.704299c-1.278225 1.562275-2.698474 2.698474-3.834674 3.834675-1.278225 1.1362-2.556449 2.272399-3.69265 3.124549l-1.846324 1.420249c-0.5681 0.5681-1.278225 0.994175-1.846325 1.42025-1.278225 0.85215-2.414424 1.562275-3.692649 2.414425-1.278225 0.85215-2.556449 1.42025-3.976699 1.988349-1.278225 0.5681-2.698474 1.1362-4.260749 1.42025-1.42025 0.28405-2.982524 0.85215-4.402774 1.136199-1.42025 0.426075-2.982524 0.85215-4.402774 1.42025-5.680999 2.272399-11.361997 4.686824-17.042995 7.243273-5.680999 2.414424-11.504022 5.112899-17.185021 7.811373l-1.1362-1.136199z" fill="#CCC7A6" p-id="9827"></path><path d="M415.776757 156.937587c4.260749-4.828849 8.805548-9.373648 13.634397-13.634397 4.828849-4.260749 9.799723-8.379473 15.196671-12.072122 1.278225-0.994175 2.698474-1.846325 3.976699-2.982524 1.278225-0.994175 2.556449-1.98835 3.976699-2.982525 1.42025-0.994175 2.840499-1.846325 4.260749-2.556449 1.562275-0.710125 3.124549-1.1362 4.828849-1.562275 1.562275-0.426075 3.408599-0.5681 5.112899-0.852149 1.7043-0.142025 3.408599-0.28405 5.254924-0.142025 1.846325 0.142025 3.550624 0.28405 5.396948 0.852149 1.846325 0.5681 3.550624 1.1362 5.396949 2.130375l0.28405 1.7043c-1.278225 1.562275-2.698474 2.698474-3.834674 3.834674-1.278225 1.1362-2.556449 2.272399-3.692649 3.124549l-1.846325 1.420249c-0.5681 0.5681-1.278225 0.994175-1.846324 1.42025-1.278225 0.85215-2.414424 1.562275-3.69265 2.414425-1.278225 0.85215-2.556449 1.42025-3.976699 1.988349-1.278225 0.5681-2.698474 1.1362-4.260749 1.42025-1.42025 0.28405-2.982524 0.85215-4.402773 1.136199-1.42025 0.426075-2.982524 0.85215-4.402774 1.42025-5.680999 2.272399-11.361997 4.686824-17.042996 7.243273-5.680999 2.414424-11.504022 5.112899-17.185021 7.811373l-1.1362-1.136199z" fill="#CCC7A6" p-id="9828"></path><path d="M451.425024 159.352011c4.260749-4.828849 8.805548-9.373648 13.634396-13.634397 4.828849-4.260749 9.799723-8.379473 15.196672-12.072122 1.278225-0.994175 2.698474-1.846325 3.976699-2.982524 1.278225-0.994175 2.556449-1.98835 3.976699-2.982524 1.42025-0.994175 2.840499-1.846325 4.260749-2.55645 1.562275-0.710125 3.124549-1.1362 4.828848-1.562274 1.562275-0.426075 3.408599-0.5681 5.112899-0.85215 1.7043-0.142025 3.408599-0.28405 5.254924-0.142025 1.846325 0.142025 3.550624 0.28405 5.396949 0.85215 1.846325 0.5681 3.550624 1.1362 5.396948 2.130374l0.28405 1.7043c-1.278225 1.562275-2.698474 2.698474-3.834674 3.834674-1.278225 1.1362-2.556449 2.272399-3.692649 3.124549l-1.846325 1.42025c-0.5681 0.5681-1.278225 0.994175-1.846324 1.42025-1.278225 0.85215-2.414424 1.562275-3.692649 2.414424-1.278225 0.85215-2.556449 1.42025-3.976699 1.988349-1.278225 0.5681-2.698474 1.1362-4.260749 1.42025-1.42025 0.28405-2.982524 0.85215-4.402774 1.1362-1.42025 0.426075-2.982524 0.85215-4.402774 1.420249-5.680999 2.272399-11.361997 4.686824-17.042996 7.243274-5.680999 2.414424-11.504022 5.112899-17.185021 7.811373l-1.136199-1.1362z" fill="#CCC7A6" p-id="9829"></path><path d="M702.809212 385.029681s50.560888 139.610541 36.784466 188.751179c66.325659-97.571151 234.909293-157.505687 284.760056-139.894591-283.623856-87.203329-241.016366-55.531761-285.328156-92.032177 14.202497 46.584189-36.216366 43.175589-36.216366 43.175589z" fill="#E0E2BC" p-id="9830"></path><path d="M252.874122 339.723717c1.278225-0.85215 2.272399-1.98835 3.408599-3.124549 0.994175-1.1362 1.98835-2.272399 2.982524-3.266574 1.98835-2.272399 3.834674-4.544799 5.538974-6.817199 3.550624-4.544799 7.101248-9.231623 10.225798-14.060471 6.391123-9.373648 12.072122-19.17337 16.190846-29.115118 4.260749-10.083773 6.675173-20.451595 7.101248-31.245493 0.142025-5.396949-0.28405-10.935922-1.278225-16.61692-0.85215-5.680999-2.556449-11.361997-4.118724-17.469071 1.1362 0.994175 2.272399 2.130374 3.408599 3.266574l1.7043 1.7043c0.5681 0.5681 0.994175 1.278225 1.42025 1.846324 0.994175 1.278225 1.98835 2.414424 2.840499 3.834674 0.85215 1.278225 1.7043 2.698474 2.556449 4.118724 3.124549 5.538974 5.538974 11.788072 6.675174 18.321221 2.414424 13.066297 0.426075 26.842718-4.686824 38.91484-4.970874 12.072122-12.640222 22.723994-21.72982 31.387518-4.544799 4.402774-9.515673 8.237448-14.912621 11.504022-2.698474 1.7043-5.396949 3.124549-8.379473 4.402774-1.42025 0.710125-2.982524 1.278225-4.402774 1.704299-0.85215 0.142025-1.562275 0.426075-2.2724 0.5681-0.426075 0.142025-0.710125 0.142025-1.136199 0.28405l-1.1362-0.142025z" fill="#CCC7A6" p-id="9831"></path><path d="M383.963165 245.277115l2.130375 8.095423c0.426075 1.7043 1.7043 3.124549 3.408599 3.834674l7.811373 2.8405c4.260749 1.562275 4.970874 7.385298 1.1362 9.799722l-6.959224 4.544799c-1.562275 0.994175-2.414424 2.698474-2.556449 4.402774l-0.28405 8.379473c-0.142025 4.544799-5.538974 6.959223-8.947573 4.118724l-6.391123-5.254924c-1.42025-1.1362-3.266574-1.562275-4.970874-0.994175l-7.953398 2.2724c-4.402774 1.278225-8.379473-2.982524-6.675174-7.243273l2.982525-7.811373c0.710125-1.7043 0.426075-3.550624-0.5681-5.112899l-4.686824-6.959224c-2.556449-3.834674 0.28405-8.805548 4.828849-8.663522l8.379473 0.426074c1.846325 0.142025 3.550624-0.710125 4.686824-2.130374l5.112898-6.533148c2.698474-3.692649 8.379473-2.414424 9.515673 1.988349z m57.804161 53.543412l2.130374 8.095423c0.426075 1.7043 1.7043 3.124549 3.4086 3.834674l7.811373 2.840499c4.260749 1.562275 4.970874 7.385298 1.136199 9.799723l-6.959223 4.544799c-1.562275 0.994175-2.414424 2.698474-2.556449 4.402774l-0.28405 8.379473c-0.142025 4.544799-5.538974 6.959223-8.947573 4.118724l-6.391123-5.254924c-1.42025-1.1362-3.266574-1.562275-4.970874-0.994175l-7.953398 2.2724c-4.402774 1.278225-8.379473-2.982524-6.675174-7.243273l2.982525-7.811374c0.710125-1.7043 0.426075-3.550624-0.5681-5.112898l-4.686824-6.959224c-2.556449-3.834674 0.28405-8.805548 4.828849-8.663522l8.379473 0.426074c1.846325 0.142025 3.550624-0.710125 4.686824-2.130374l5.112898-6.533148c2.698474-3.550624 8.379473-2.414424 9.515673 1.988349z m44.879889-40.193065l1.562275 5.823023c0.28405 1.278225 1.278225 2.272399 2.556449 2.698475l5.680999 2.130374c3.124549 1.1362 3.550624 5.396949 0.852149 7.101249l-5.112898 3.266574c-1.1362 0.710125-1.846325 1.98835-1.846325 3.266574l-0.142025 6.107073c-0.142025 3.266574-3.976699 5.112899-6.533148 2.982525l-4.686824-3.834674c-0.994175-0.85215-2.414424-1.1362-3.692649-0.710125l-5.823024 1.704299c-3.266574 0.994175-6.107074-2.272399-4.828849-5.396948l2.2724-5.680999c0.426075-1.278225 0.28405-2.556449-0.426075-3.692649l-3.408599-4.970874c-1.846325-2.698474 0.28405-6.533148 3.550624-6.249098l6.107073 0.426075c1.278225 0.142025 2.556449-0.5681 3.4086-1.562275l3.692649-4.828849c1.7043-2.556449 5.965049-1.7043 6.817198 1.42025z m42.181415 39.056865l1.562274 5.823024c0.28405 1.278225 1.278225 2.272399 2.55645 2.698474l5.680998 2.130375c3.124549 1.1362 3.550624 5.396949 0.85215 7.101248l-5.112899 3.266574c-1.1362 0.710125-1.846325 1.98835-1.846324 3.266574l-0.142025 6.107074c-0.142025 3.266574-3.976699 5.112899-6.533149 2.982524l-4.686823-3.834674c-0.994175-0.85215-2.414424-1.1362-3.69265-0.710125l-5.823023 1.7043c-3.266574 0.994175-6.107074-2.272399-4.828849-5.396949l2.272399-5.680998c0.426075-1.278225 0.28405-2.556449-0.426074-3.69265l-3.4086-4.970873c-1.846325-2.698474 0.28405-6.533148 3.550625-6.249099l6.107073 0.426075c1.278225 0.142025 2.556449-0.5681 3.408599-1.562275l3.692649-4.828848c1.7043-2.556449 5.965049-1.7043 6.817199 1.420249z m56.241886-4.686824l1.278225 4.828849c0.28405 0.994175 0.994175 1.846325 2.130374 2.2724l4.686824 1.704299c2.556449 0.994175 2.982524 4.402774 0.710125 5.965049l-4.260749 2.698474c-0.85215 0.5681-1.42025 1.562275-1.562275 2.698475l-0.142025 4.970873c-0.142025 2.698474-3.266574 4.118724-5.396948 2.414425l-3.834674-3.124549c-0.85215-0.710125-1.98835-0.85215-2.982525-0.5681l-4.828849 1.420249c-2.698474 0.710125-4.970874-1.846325-3.976699-4.402774l1.846325-4.686823c0.426075-0.994175 0.28405-2.130374-0.28405-3.12455l-2.840499-4.118724c-1.562275-2.272399 0.142025-5.254924 2.982524-5.112898l4.970874 0.284049c1.1362 0 2.130374-0.426075 2.840499-1.278224l3.124549-3.976699c1.42025-2.272399 4.828849-1.562275 5.538974 1.136199z m34.654091 32.097643l1.278225 4.828848c0.28405 0.994175 0.994175 1.846325 2.130375 2.2724l4.686824 1.704299c2.556449 0.994175 2.982524 4.402774 0.710124 5.965049l-4.260749 2.698474c-0.85215 0.5681-1.42025 1.562275-1.562274 2.698475l-0.142025 4.970873c-0.142025 2.698474-3.266574 4.118724-5.396949 2.414425l-3.834674-3.124549c-0.85215-0.710125-1.98835-0.85215-2.982524-0.5681l-4.828849 1.420249c-2.698474 0.710125-4.970874-1.846325-3.976699-4.402773l1.846324-4.686824c0.426075-0.994175 0.28405-2.130374-0.284049-3.12455l-2.8405-4.118724c-1.562275-2.272399 0.142025-5.254924 2.982525-5.11289" fill="#D1CF9F" p-id="9832"></path></svg>