<?xml version="1.0" standalone="no"?><!DOCTYPE svg PUBLIC "-//W3C//DTD SVG 1.1//EN" "http://www.w3.org/Graphics/SVG/1.1/DTD/svg11.dtd"><svg t="1602475035362" class="icon" viewBox="0 0 1024 1024" version="1.1" xmlns="http://www.w3.org/2000/svg" p-id="6272" xmlns:xlink="http://www.w3.org/1999/xlink" width="200" height="200"><defs><style type="text/css"></style></defs><path d="M512.354816 512.496743m-511.503257 0a511.503257 511.503257 0 1 0 1023.006514 0 511.503257 511.503257 0 1 0-1023.006514 0Z" fill="#EDD4D1" p-id="6273"></path><path d="M722.689951 774.918919c0 4.11587-36.191268 41.86833-80.614275 41.86833s-80.614276-37.894387-80.614276-41.86833 36.191268 27.10797 80.614276 27.107969 80.614276-31.223839 80.614275-27.107969zM723.825364 838.360083c-0.283853 4.11587-38.604019 39.597505-83.027027 36.900901s-78.201525-42.719889-77.917672-46.835759 34.346223 29.236868 78.911158 32.075399c44.281081 2.838531 82.175468-26.114484 82.033541-22.140541zM723.96729 899.956202c-0.283853 4.11587-39.029799 39.171726-83.452806 36.049342s-77.775745-43.571448-77.491892-47.687318c0.283853-4.11587 34.06237 29.662647 78.485378 32.926958s82.743174-25.404851 82.45932-21.288982z" fill="#BC8A86" p-id="6274"></path><path d="M190.891199 477.015107a329.97921 288.11088 0 1 0 659.95842 0 329.97921 288.11088 0 1 0-659.95842 0Z" fill="#FFEAE6" p-id="6275"></path><path d="M364.609286 463.957866a28.527235 26.540263 90 1 0 53.080527 0 28.527235 26.540263 90 1 0-53.080527 0Z" fill="#635C5B" p-id="6276"></path><path d="M391.859182 476.163548a8.089813 7.522107 90 1 0 15.044214 0 8.089813 7.522107 90 1 0-15.044214 0Z" fill="#D6D1D0" p-id="6277"></path><path d="M405.110865 465.206171a2.838531 2.696604 62.252 1 0 4.77301-2.510989 2.838531 2.696604 62.252 1 0-4.77301 2.510989Z" fill="#D6D1D0" p-id="6278"></path><path d="M580.621483 468.073735a28.527235 26.540263 90 1 0 53.080527 0 28.527235 26.540263 90 1 0-53.080527 0Z" fill="#635C5B" p-id="6279"></path><path d="M603.755509 480.279418a8.089813 7.522107 90 1 0 15.044214 0 8.089813 7.522107 90 1 0-15.044214 0Z" fill="#D6D1D0" p-id="6280"></path><path d="M617.019818 469.293683a2.838531 2.696604 62.252 1 0 4.773011-2.51099 2.838531 2.696604 62.252 1 0-4.773011 2.51099Z" fill="#D6D1D0" p-id="6281"></path><path d="M518.883437 154.983784s22.850173 59.325295 6.954401 109.56729-50.809702 102.896743-152.571033 136.959113S227.650173 478.292446 226.940541 510.935551c-0.709633 32.643105 29.378794 47.119612 22.992099 66.137768-6.386694 19.018157-29.236868 5.535135-32.926957 32.785032-1.419265 10.360638 4.683576 13.199168 14.76036 26.114483 3.26431 4.11587 2.838531 7.38018-2.412751 7.80596-16.463479 1.419265-40.874844-19.018157-38.60402-35.623562 2.838531-20.721275 17.031185-39.171726 4.54165-50.809702-12.631462-11.637976-29.804574-86.575191-6.812474-130.146639s-3.69009-89.129868 27.391822-96.935828c31.081913-7.80596 10.076784-66.421622 63.725018-80.04657s96.651975-85.439778 146.042411-68.12474 50.667775-49.816216 93.245738-27.107969z" fill="#AD9C9A" p-id="6282"></path><path d="M543.010949 159.24158s-69.827859 44.564934-39.597505 92.536105c30.230353 47.971171 24.411365 106.870686 57.196397 116.947471 32.785031 10.076784 58.047956-5.109356 116.095911 40.449064s83.31088 90.832987 113.541233 78.201525c30.230353-12.631462 62.589605 30.656133 47.687319 53.222453-14.902287 22.56632-19.869716 55.351351-9.792932 78.059598 17.598891-5.109356 27.817602-35.339709 32.785031-68.12474s35.339709-73.234096 2.554678-138.804158-31.365766-30.088427-56.344837-88.278309-42.861816-41.158697-65.570062-76.498406c-22.708247-35.339709-108.006098-42.719889-117.79903-68.12474-9.934858-25.546778-80.756202-19.585863-80.756203-19.585863z" fill="#AD9C9A" p-id="6283"></path><path d="M500.007207 561.603326c-10.644491-3.26431-13.908801-16.747332-5.677061-24.411365 8.089813-7.664033 21.430908-3.548164 23.985585 7.238254 2.554678 10.786417-7.664033 20.295495-18.308524 17.173111z" fill="#F2D8D6" p-id="6284"></path><path d="M165.628274 639.804851c-9.651005 14.050728-20.579349 27.391823-20.579348 45.416493 0 17.740818 11.779903 35.623562 25.120998 46.693833 18.592377 15.328067 44.990714 22.850173 67.131254 9.225225 11.07027-6.812474 19.443936-18.166597 22.56632-30.79806 1.845045-7.522107 1.986972-15.61192 2.412751-23.417879 0.42578-8.089813 0.567706-15.895773-1.561191-23.843659-3.406237-12.347609-12.205683-23.559806-23.559806-29.662647-13.908801-7.522107-30.37228-7.664033-45.842273-9.225226-9.083299-0.851559-17.882744 0.567706-26.398337 4.11587-12.205683 5.109356-20.011642 14.618434-26.966043 25.546778-6.954401 11.07027-15.753846 22.9921-19.160083 35.765488-6.812474 25.262924 4.11587 50.383922 25.688704 64.43465 9.651005 6.386694 20.721275 8.657519 32.075398 9.651005 6.102841 0.567706 12.205683-0.567706 18.308524-0.141926-3.832017-0.567706-7.522107-0.993486-11.354123-1.561192 0.567706 0.141927 1.277339 0.283853 1.845045 0.425779l-10.218711-4.257796c-1.845045-1.561192-3.548164-3.122384-5.393209-4.683576-4.399723-6.102841-5.677062-7.664033-3.832016-4.541649 0.851559 1.845045 1.845045 3.548164 2.696604 5.393208l-4.257796-10.218711c1.845045 4.541649 3.122384 8.941372 3.832016 13.766875-0.567706-3.832017-0.993486-7.522107-1.561192-11.354123 0.283853 1.561192 0.283853 3.26431-0.141926 4.825502 1.986972-7.096327 3.832017-14.334581 5.818988-21.430908 13.199168-10.076784 16.605405-13.483021 10.076784-10.218711l10.218711-4.257796c-0.567706 0.141927-1.277339 0.283853-1.845045 0.567706 3.832017-0.567706 7.522107-0.993486 11.354124-1.561192-1.419265 0.283853-2.838531 0.283853-4.11587 0 3.832017 0.567706 7.522107 0.993486 11.354123 1.561192-2.270825-0.567706-4.257796-1.135412-6.528621-2.128898l10.218711 4.257796c-5.818988-2.696604-11.637976-5.535135-17.456964-8.515592-2.696604-1.419265-5.535135-2.838531-8.089813-4.399723-1.277339-0.709633-2.554678-1.419265-3.69009-2.270825 9.792931 12.347609 13.199168 15.328067 9.934858 8.941372l4.257796 10.218711c-0.141927-0.567706-0.283853-1.277339-0.42578-1.845045 0.567706 3.832017 0.993486 7.522107 1.561192 11.354124v-1.845045c-0.567706 3.832017-0.993486 7.522107-1.561192 11.354123 0.141927-0.567706 0.283853-1.277339 0.42578-1.845045l-4.257796 10.218711c1.845045-3.832017 0.709633-2.554678-3.548164 3.69009-6.244768 4.257796-7.522107 5.393209-3.69009 3.406237l-10.218711 4.257796c1.561192-0.567706 3.122384-0.993486 4.825502-1.135412-3.832017 0.567706-7.522107 0.993486-11.354123 1.561192 3.406237-0.141927 6.670547 0 10.076785 0.567706-3.832017-0.567706-7.522107-0.993486-11.354124-1.561192l2.554678 0.42578c11.637976 1.845045 22.140541 1.986972 32.785031-4.257797 8.799446-5.109356 17.315038-15.328067 19.585863-25.404851 2.412751-10.928344 1.986972-23.134026-4.257796-32.785031-5.677062-8.657519-14.76036-17.882744-25.404851-19.585863-18.592377-2.980457-35.623562-3.832017-52.796674 5.818989-19.727789 11.07027-31.507692 36.475121-25.546777 58.473735 4.683576 17.315038 16.889258 29.378794 32.501178 37.610534 10.928344 5.818988 22.56632 12.347609 34.346223 16.179625 19.30201 6.386694 40.165211 1.419265 55.067498-12.205682 15.895773-14.618434 17.315038-39.313652 10.786417-58.757589-5.251282-15.895773-13.624948-31.507692-28.385308-40.449064-8.515593-5.251282-19.30201-7.522107-29.094941-7.096327-4.825502 0.141927-9.509078 0.709633-14.334581 0.283853 3.832017 0.567706 7.522107 0.993486 11.354123 1.561192-2.554678-0.42578-4.683576-0.993486-7.096327-1.986972l10.218711 4.257797c-5.960915-2.980457 6.244768 6.244768 2.838531 2.696604-2.838531-2.980457 5.818988 9.367152 2.838531 2.980457l4.257796 10.218711c-0.42578-1.277339-0.709633-2.412751-0.851559-3.69009 0.567706 3.832017 0.993486 7.522107 1.561192 11.354124V703.955648c-0.567706 3.832017-0.993486 7.522107-1.561192 11.354123 0.141927-1.419265 0.42578-2.696604 0.993486-3.973943l-4.257796 10.218711c2.270825-5.109356 5.393209-9.792931 8.373666-14.618434 1.419265-2.270825 2.696604-4.541649 4.115869-6.670547 0.993486-1.561192 1.845045-2.980457 2.838531-4.399723 4.257796-6.386694 1.135412-3.548164-9.367152 8.231739l-10.218711 4.257797c0.567706-0.283853 1.135412-0.42578 1.703119-0.709633-3.832017 0.567706-7.522107 0.993486-11.354124 1.561192 8.657519-1.135412 18.734304 1.135412 27.391823 2.270825-3.832017-0.567706-7.522107-0.993486-11.354123-1.561192 1.845045 0.283853 3.406237 0.709633 5.109355 1.419265l-10.218711-4.257796c-3.832017-3.973943-7.80596-7.947886-11.637976-11.92183l-4.257797-10.218711c0.141927 0.709633 0.42578 1.277339 0.567707 1.986972-0.567706-3.832017-0.993486-7.522107-1.561192-11.354123 0.567706 7.38018 0 15.469993-0.993486 22.708246 0.567706-3.832017 0.993486-7.522107 1.561192-11.354123-0.141927 1.277339-0.567706 2.412751-0.993486 3.548163l4.257796-10.218711c3.69009-3.832017 7.522107-7.664033 11.212197-11.496049l10.218711-4.257797-2.128898 0.42578c3.832017-0.567706 7.522107-0.993486 11.354123-1.561192h-2.128898c3.832017 0.567706 7.522107 0.993486 11.354124 1.561192-1.419265-0.141927-2.696604-0.42578-3.973944-0.851559l10.218711 4.257796c-1.845045-0.709633-6.670547-4.11587-0.993485 0.283853 5.960915 4.683576 0.567706 0.141927-0.42578-0.993486-0.993486-0.993486-1.845045-2.270825-2.838531-3.26431 7.522107 8.089813 3.832017 5.251282 1.845045 1.703118l4.257797 10.218711c-0.141927-0.709633-0.283853-1.277339-0.42578-1.986971v22.708246c0.141927-0.709633 0.141927-1.419265 0.283853-2.270824l-4.257796 10.218711c3.548164-7.664033 9.651005-14.76036 14.476507-21.714761 12.773389-18.308524 3.973943-48.113098-15.328067-58.189882-21.005128-11.92183-43.997228-4.825502-57.622176 14.76036zM806.852391 625.47027c0 9.509078 1.703119 19.160083 5.109355 28.101456 2.412751 6.244768 5.109356 12.205683 6.386695 18.87623-0.567706-3.832017-0.993486-7.522107-1.561192-11.354124 1.277339 10.502564 0.709633 20.721275 2.412751 31.22384 1.561192 9.083299 5.109356 18.024671 10.360638 25.688704 12.347609 17.598891 30.79806 30.514207 51.945114 34.913929 19.443936 3.973943 41.86833 4.683576 61.312266 0.141926 25.262924-5.818988 39.313652-33.494664 45.416493-56.486763 6.528621-25.120998 1.703119-51.377408-16.321552-70.537492-13.199168-13.908801-31.791545-22.708247-50.383922-26.824116-6.528621-1.419265-13.199168-2.412751-19.869716-3.406237-11.212197-1.703119-23.417879-4.967429-34.630076-5.109356-20.011642-0.141927-36.617048 10.076784-44.423008 28.527235-6.954401 16.605405-2.838531 33.494664 7.522107 47.687319 10.786417 14.902287 22.56632 31.933472 36.900901 43.855301 14.76036 12.347609 32.359252 19.30201 51.803187 14.334581 18.024671-4.541649 31.791545-18.024671 37.042828-35.907415 6.386694-21.288981-7.664033-47.403465-29.804574-52.370894-22.850173-5.251282-45.55842 6.954401-52.370894 29.804573-0.141927 0.567706-0.283853 0.993486-0.42578 1.561192l4.257797-10.218711c13.624948-10.786417 17.173112-14.618434 10.786417-11.212196l10.218711-4.257797c-0.993486 0.42578-2.128898 0.709633-3.122384 0.709633 3.832017-0.567706 7.522107-0.993486 11.354123-1.561192h-1.703118c3.832017 0.567706 7.522107 0.993486 11.354123 1.561192-1.277339-0.141927-2.412751-0.42578-3.548163-0.851559l10.218711 4.257796c-6.528621-3.122384 6.954401 7.238254 1.845045 1.986972-1.561192-1.561192-3.122384-3.26431-4.683576-4.825503-3.122384-3.406237-6.244768-6.954401-9.225225-10.502564-1.419265-1.561192-2.696604-3.26431-3.973944-4.825502-0.851559-0.993486-1.561192-1.986972-2.412751-2.980458-1.986972-2.554678-0.993486-1.277339 2.838531 3.548164-1.986972-4.11587-5.818988-7.664033-8.373666-11.637977l4.257796 10.218711c-0.141927-0.567706-0.42578-0.993486-0.567706-1.561192 0.567706 3.832017 0.993486 7.522107 1.561192 11.354124 0-0.567706-0.141927-0.993486-0.141926-1.561192-1.986972 7.096327-3.832017 14.334581-5.818989 21.430908 0.141927-0.42578 0.42578-0.993486 0.567707-1.419266l-15.328067 15.328067c0.42578-0.283853 0.993486-0.567706 1.419265-0.851559-7.096327 1.986972-14.334581 3.832017-21.430907 5.818988 1.135412-0.283853 2.412751-0.283853 3.548163 0-3.832017-0.567706-7.522107-0.993486-11.354123-1.561192 19.30201 2.980457 40.165211 4.257796 58.473735 11.779903l-10.218711-4.257797c1.986972 0.851559 4.11587 1.845045 5.960915 2.980458 1.561192 0.851559 7.096327 4.967429 1.277339 0.42578-7.238254-5.535135 0.851559 0.709633 0.567706 0.993485-0.851559 0.567706-6.244768-10.360638-1.845045-1.277339l-4.257796-10.218711c0.851559 2.270825 1.419265 4.257796 1.845045 6.670548-0.567706-3.832017-0.993486-7.522107-1.561192-11.354123 0.283853 3.122384 0.283853 6.102841 0 9.225225 0.567706-3.832017 0.993486-7.522107 1.561192-11.354124-0.851559 5.677062-2.696604 10.928344-4.825503 16.321553l4.257796-10.218711c-1.135412 2.554678-2.412751 5.251282-3.69009 7.664033-0.42578 0.993486-0.993486 1.845045-1.561192 2.838531 2.554678-3.832017 5.677062-7.096327 9.509079-9.792932l10.218711-4.257796c-1.419265 0.567706-2.838531 0.851559-4.399723 0.993486 3.832017-0.567706 7.522107-0.993486 11.354123-1.561192-10.076784 0.709633-20.153569 1.135412-30.230353 0 3.832017 0.567706 7.522107 0.993486 11.354123 1.561192-5.393209-0.851559-10.502564-1.986972-15.611919-4.11587l10.218711 4.257796c-1.845045-0.851559-3.548164-1.845045-5.393209-2.83853-2.696604-1.703119-2.270825-1.419265 0.993486 0.993485 3.122384 2.554678 3.548164 2.838531 1.135412 0.85156l-1.419265-1.419266c-2.838531-3.26431-1.845045-1.845045 2.838531 3.973943-0.567706-1.703119-1.986972-3.548164-2.838531-5.251282l4.257796 10.218711c-1.135412-2.838531-1.703119-5.677062-2.128898-8.657519 0.567706 3.832017 0.993486 7.522107 1.561192 11.354124-0.993486-12.347609-0.141927-24.695218-3.832017-36.900901-2.554678-8.657519-6.954401-16.463479-8.373666-25.404851 0.567706 3.832017 0.993486 7.522107 1.561192 11.354123-0.141927-1.561192-0.283853-3.122384-0.141926-4.541649 0-22.282467-19.585863-43.571448-42.577963-42.577963-23.417879 0.851559-43.145669 18.592377-43.003742 42.436036z" fill="#AD9C9A" p-id="6285"></path><path d="M116.947471 684.227859c-15.469993 12.489536-26.398337 30.514207-26.256411 50.951628 0.141927 19.160083 10.502564 35.481635 24.837145 47.261539 20.579349 16.747332 44.139155 29.804574 70.253638 35.481635 21.005128 4.683576 45.274567 7.096327 61.312266-10.786417 12.205683-13.624948 16.889258-33.068884 16.463479-51.235482-0.283853-13.057242-2.838531-26.25641-7.805959-38.320166-3.122384-7.80596-6.386694-15.469993-10.786418-22.708247-2.838531-4.683576-6.102841-9.083299-8.373666-14.050727l4.257797 10.218711c-0.567706-1.419265-0.993486-2.980457-1.419266-4.54165 0.567706 3.832017 0.993486 7.522107 1.561192 11.354124-0.283853-1.561192-0.42578-3.122384-0.283853-4.683576-0.567706 3.832017-0.993486 7.522107-1.561192 11.354123 0.141927-1.561192 0.42578-3.122384 1.135412-4.541649 7.096327-21.147055-8.231739-47.403465-29.804573-52.370894-23.559806-5.393209-44.706861 7.096327-52.370894 29.804574-5.677062 16.889258-1.561192 35.623562 6.9544 50.667775 4.257796 7.522107 9.367152 14.334581 12.915316 22.424394l-4.257797-10.218711c2.696604 6.528621 4.683576 13.199168 5.677062 20.153569-0.567706-3.832017-0.993486-7.522107-1.561192-11.354124 0.567706 5.393209 0.709633 10.644491 0 16.0377 0.567706-3.832017 0.993486-7.522107 1.561192-11.354124-0.567706 3.548164-1.419265 7.096327-2.696604 10.502564l4.257796-10.218711 11.49605-11.921829c7.096327-1.986972 14.334581-3.832017 21.430908-5.818988-2.270825 0.141927-4.11587 0-6.528621-0.283854 3.832017 0.567706 7.522107 0.993486 11.354123 1.561192-10.928344-1.561192-21.430908-4.399723-31.649619-8.515592l10.218711 4.257796c-7.522107-3.26431-14.902287-7.096327-21.714761-11.637976-1.277339-0.851559-4.11587-2.128898-4.825502-3.406237 1.277339 1.986972 7.664033 6.244768 2.128898 1.561192-1.419265-1.135412-2.696604-2.412751-3.973943-3.69009-5.393209-4.683576 5.109356 8.515593 1.845045 1.703118l4.257796 10.218711c-0.141927-0.709633-0.42578-1.277339-0.567706-1.986972 0.567706 3.832017 0.993486 7.522107 1.561192 11.354124-0.283853-1.561192-0.42578-3.122384-0.141927-4.683576-0.567706 3.832017-0.993486 7.522107-1.561192 11.354123 0.141927-1.561192 0.567706-3.122384 1.277339-4.541649l-4.257796 10.218711c3.406237-6.954401-7.522107 6.954401-0.42578 0 1.986972-1.986972 4.11587-3.69009 6.244768-5.393209 7.947886-6.386694 12.489536-20.295495 12.489536-30.088426 0-10.502564-4.683576-22.850173-12.489536-30.088427-8.089813-7.38018-18.734304-12.915315-30.088427-12.489536-11.92183 0.567706-20.863202 4.967429-30.088426 12.489536z" fill="#AD9C9A" p-id="6286"></path><path d="M210.051282 689.337214c22.282467 0 43.571448-19.585863 42.577963-42.577962-0.993486-23.134026-18.734304-42.577963-42.577963-42.577963-22.282467 0-43.571448 19.585863-42.577963 42.577963 0.993486 22.9921 18.734304 42.577963 42.577963 42.577962z" fill="#AD9C9A" p-id="6287"></path><path d="M107.580319 422.231462m-25.404851 0a25.404851 25.404851 0 1 0 50.809702 0 25.404851 25.404851 0 1 0-50.809702 0Z" fill="#DDB1AB" p-id="6288"></path><path d="M937.140956 377.240748m-17.740817 0a17.740818 17.740818 0 1 0 35.481635 0 17.740818 17.740818 0 1 0-35.481635 0Z" fill="#DDB1AB" p-id="6289"></path><path d="M191.316979 666.345114m-12.063757 0a12.063756 12.063756 0 1 0 24.127513 0 12.063756 12.063756 0 1 0-24.127513 0Z" fill="#DDB1AB" p-id="6290"></path><path d="M832.966875 653.145946m-13.341095 0a13.341095 13.341095 0 1 0 26.68219 0 13.341095 13.341095 0 1 0-26.68219 0Z" fill="#DDB1AB" p-id="6291"></path><path d="M621.496327 288.962439l-11.921829 4.11587c-2.128898 0.709633-3.832017 2.554678-4.399723 4.683576l-3.406237 12.205683c-1.561192 5.535135-8.799446 6.954401-12.205683 2.270824l-7.522107-10.076784c-1.419265-1.845045-3.548164-2.838531-5.818988-2.696605l-12.631462 0.567707c-5.677062 0.283853-9.225225-6.244768-5.960915-10.928344l7.238254-10.360638c1.277339-1.845045 1.561192-4.257796 0.851559-6.386694l-4.399723-11.779903c-1.986972-5.393209 2.980457-10.786417 8.515593-9.083299l12.063756 3.69009c2.128898 0.709633 4.541649 0.283853 6.386694-1.135412l9.792932-7.80596c4.541649-3.548164 11.07027-0.42578 11.212196 5.251282l0.283854 12.631463c0 2.270825 1.135412 4.399723 3.122383 5.677061l10.502565 6.954401c4.683576 3.122384 3.69009 10.360638-1.703119 12.205682zM684.937491 331.682328l-5.818988 3.406237c-0.993486 0.567706-1.703119 1.703119-1.845045 2.980458l-0.567706 6.670547c-0.283853 3.122384-3.832017 4.541649-6.102841 2.412752l-4.967429-4.54165c-0.851559-0.851559-2.128898-1.135412-3.406237-0.851559l-6.528621 1.561192c-2.980457 0.709633-5.535135-2.270825-4.257797-5.109356l2.696605-6.102841c0.42578-1.135412 0.42578-2.412751-0.283853-3.406237l-3.548164-5.677062c-1.561192-2.554678 0.42578-5.960915 3.548164-5.677061l6.670547 0.709632c1.277339 0.141927 2.412751-0.283853 3.264311-1.277338l4.399722-5.109356c1.986972-2.270825 5.818988-1.419265 6.386695 1.561192l1.419265 6.528621c0.283853 1.135412 1.135412 2.128898 2.270825 2.696604l6.244768 2.554678c2.696604 1.277339 2.980457 5.109356 0.425779 6.670547zM789.537353 890.447124l-9.651005 5.535135c-1.703119 0.993486-2.838531 2.838531-2.980457 4.825503l-0.85156 11.07027c-0.42578 5.109356-6.386694 7.522107-10.218711 4.11587l-8.231739-7.380181c-1.561192-1.277339-3.548164-1.845045-5.535135-1.419265l-10.786418 2.554678c-4.967429 1.135412-9.083299-3.832017-6.9544-8.373666l4.541649-10.218711c0.851559-1.845045 0.709633-3.973943-0.425779-5.677062l-5.818989-9.509078c-2.696604-4.257796 0.851559-9.792931 5.818989-9.225225l11.07027 1.135412c1.986972 0.141927 3.973943-0.567706 5.251282-2.128898l7.238254-8.515593c3.26431-3.832017 9.509078-2.270825 10.64449 2.696605l2.270825 10.928343c0.42578 1.986972 1.845045 3.548164 3.69009 4.399723l10.218711 4.257796c4.683576 1.986972 5.109356 8.373666 0.709633 10.928344z" fill="#DDB1AB" p-id="6292"></path><path d="M122.624532 635.688981l-9.651005 5.535135c-1.703119 0.993486-2.838531 2.838531-2.980457 4.825503l-0.851559 11.07027c-0.42578 5.109356-6.386694 7.522107-10.218711 4.11587l-8.23174-7.38018c-1.561192-1.277339-3.548164-1.845045-5.535135-1.419266l-10.786417 2.554678c-4.967429 1.135412-9.083299-3.832017-6.954401-8.373666l4.54165-10.218711c0.851559-1.845045 0.709633-3.973943-0.42578-5.677062l-5.818988-9.509078c-2.696604-4.257796 0.851559-9.792931 5.818988-9.225225l11.07027 1.135412c1.986972 0.141927 3.973943-0.567706 5.251282-2.128898l7.238254-8.515593c3.26431-3.832017 9.509078-2.270825 10.644491 2.696605l2.270824 10.928344c0.42578 1.986972 1.845045 3.548164 3.69009 4.399722l10.218712 4.257797c4.683576 1.986972 5.109356 8.373666 0.709632 10.928343zM357.087179 139.229938l-10.360637 6.102841c-1.845045 1.135412-3.122384 2.980457-3.264311 5.251282l-0.993485 12.063756c-0.42578 5.535135-6.954401 8.089813-11.070271 4.399723l-8.941372-8.089813c-1.561192-1.419265-3.832017-1.986972-5.960915-1.561192l-11.779902 2.838531c-5.393209 1.277339-9.792931-4.11587-7.664034-9.083299l4.825503-11.07027c0.851559-1.986972 0.709633-4.257796-0.42578-6.102841l-6.244768-10.218711c-2.838531-4.683576 0.851559-10.644491 6.386695-10.076785l11.921829 1.277339c2.128898 0.283853 4.257796-0.567706 5.677062-2.270825l7.80596-9.225225c3.548164-4.11587 10.360638-2.412751 11.496049 2.980457l2.554678 11.779903c0.42578 2.128898 1.986972 3.973943 3.973943 4.683576l11.212197 4.54165c5.109356 1.986972 5.677062 8.941372 0.851559 11.779903z" fill="#F7F4EB" p-id="6293"></path><path d="M697.994733 281.298406l-6.670547 0.993486c-1.135412 0.141927-2.270825 0.993486-2.838531 1.986971l-2.980457 6.102842c-1.277339 2.696604-5.251282 2.838531-6.670548 0l-2.980457-5.960915c-0.567706-1.135412-1.561192-1.845045-2.838531-1.986972l-6.670548-0.851559c-2.980457-0.42578-4.257796-4.11587-2.128898-6.244768l4.825503-4.683576c0.851559-0.851559 1.277339-2.128898 0.993485-3.26431l-1.135412-6.670547c-0.567706-2.980457 2.554678-5.393209 5.393209-3.973944l5.960914 3.122384c1.135412 0.567706 2.412751 0.567706 3.406237 0l5.960915-3.122384c2.696604-1.419265 5.960915 0.851559 5.393209 3.832017l-1.135413 6.670547c-0.141927 1.135412 0.283853 2.412751 1.135413 3.264311l4.825502 4.683576c2.412751 1.986972 1.135412 5.677062-1.845045 6.102841z" fill="#EAE4CA" p-id="6294"></path><path d="M516.612613 732.340956c-101.903257 0-193.020097-29.520721-253.622731-75.788773-6.812474-5.251282-17.315038 1.135412-13.908801 8.515592 37.75246 83.168954 143.487734 156.403049 267.957311 156.40305 124.895357 0 230.914484-73.659875 268.383091-157.254609 3.26431-7.38018-7.096327-13.766875-13.908801-8.373666C710.910049 702.536383 619.225502 732.340956 516.612613 732.340956z" fill="#DDB1AB" p-id="6295"></path><path d="M288.252807 705.232987c0 38.462093 26.966043 70.395565 22.850173 70.395565-4.11587 0-37.75246-31.933472-37.75246-70.395565s33.63659-69.118226 37.75246-69.118226c4.11587 0-22.850173 30.514207-22.850173 69.118226zM334.09508 729.786279c0 38.462093 26.966043 70.395565 22.850173 70.395564-4.11587 0-37.75246-31.933472-37.75246-70.395564s33.63659-69.118226 37.75246-69.118226c4.11587 0.141927-22.850173 30.656133-22.850173 69.118226zM385.472488 750.223701c0 38.462093 26.966043 70.395565 22.850173 70.395564s-37.75246-31.933472-37.75246-70.395564 33.63659-69.118226 37.75246-69.118226-22.850173 30.656133-22.850173 69.118226zM441.107692 771.370755c0 38.462093 26.966043 70.395565 22.850174 70.395565-4.11587 0-37.75246-31.933472-37.752461-70.395565s33.63659-69.118226 37.752461-69.118226c4.11587 0.141927-22.850173 30.656133-22.850174 69.118226zM510.935551 778.467082c0 38.462093 26.966043 70.395565 22.850173 70.395565-4.11587 0-37.75246-31.933472-37.75246-70.395565s33.63659-69.118226 37.75246-69.118225c4.11587 0-22.850173 30.656133-22.850173 69.118225zM586.298545 772.790021c0 38.462093 26.966043 70.395565 22.850173 70.395565s-37.75246-31.933472-37.75246-70.395565 33.63659-69.118226 37.75246-69.118226-22.850173 30.656133-22.850173 69.118226zM659.53264 753.771864c0 38.462093 26.966043 70.395565 22.850174 70.395565s-37.75246-31.933472-37.752461-70.395565 33.63659-69.118226 37.752461-69.118226-22.850173 30.656133-22.850174 69.118226zM754.055717 697.427027c0 38.462093 26.966043 70.395565 22.850174 70.395565-4.11587 0-37.75246-31.933472-37.752461-70.395565s33.63659-69.118226 37.752461-69.118226c4.11587 0.141927-22.850173 30.656133-22.850174 69.118226z" fill="#C9958F" p-id="6296"></path><path d="M512.354816 512.496743m-511.503257 0a511.503257 511.503257 0 1 0 1023.006514 0 511.503257 511.503257 0 1 0-1023.006514 0Z" fill="#EDD4D1" p-id="6297"></path><path d="M665.209702 956.159113l-58.615662-15.753846c-8.089813-2.128898-13.624948-8.657519-13.624948-16.037699l0.709633-153.990298c0-4.257796 3.973943-7.664033 8.941372-7.664034h65.286209c4.967429 0 8.941372 3.406237 8.941372 7.664034v178.401663c0 5.109356-5.818988 8.941372-11.637976 7.38018z" fill="#D8A8A3" p-id="6298"></path><path d="M722.689951 774.918919c0 4.11587-36.191268 41.86833-80.614275 41.86833s-80.614276-37.894387-80.614276-41.86833 36.191268 27.10797 80.614276 27.107969 80.614276-31.223839 80.614275-27.107969zM723.825364 838.360083c-0.283853 4.11587-38.604019 39.597505-83.027027 36.900901s-78.201525-42.719889-77.917672-46.835759 34.346223 29.236868 78.911158 32.075399c44.281081 2.838531 82.175468-26.114484 82.033541-22.140541zM723.96729 899.956202c-0.283853 4.11587-39.029799 39.171726-83.452806 36.049342s-77.775745-43.571448-77.491892-47.687318c0.283853-4.11587 34.06237 29.662647 78.485378 32.926958s82.743174-25.404851 82.45932-21.288982z" fill="#BC8A86" p-id="6299"></path><path d="M190.891199 477.015107a329.97921 288.11088 0 1 0 659.95842 0 329.97921 288.11088 0 1 0-659.95842 0Z" fill="#FFEAE6" p-id="6300"></path><path d="M364.609286 463.957866a28.527235 26.540263 90 1 0 53.080527 0 28.527235 26.540263 90 1 0-53.080527 0Z" fill="#635C5B" p-id="6301"></path><path d="M391.859182 476.163548a8.089813 7.522107 90 1 0 15.044214 0 8.089813 7.522107 90 1 0-15.044214 0Z" fill="#D6D1D0" p-id="6302"></path><path d="M405.110865 465.206171a2.838531 2.696604 62.252 1 0 4.77301-2.510989 2.838531 2.696604 62.252 1 0-4.77301 2.510989Z" fill="#D6D1D0" p-id="6303"></path><path d="M580.621483 468.073735a28.527235 26.540263 90 1 0 53.080527 0 28.527235 26.540263 90 1 0-53.080527 0Z" fill="#635C5B" p-id="6304"></path><path d="M603.755509 480.279418a8.089813 7.522107 90 1 0 15.044214 0 8.089813 7.522107 90 1 0-15.044214 0Z" fill="#D6D1D0" p-id="6305"></path><path d="M617.019818 469.293683a2.838531 2.696604 62.252 1 0 4.773011-2.51099 2.838531 2.696604 62.252 1 0-4.773011 2.51099Z" fill="#D6D1D0" p-id="6306"></path><path d="M518.883437 154.983784s22.850173 59.325295 6.954401 109.56729-50.809702 102.896743-152.571033 136.959113S227.650173 478.292446 226.940541 510.935551c-0.709633 32.643105 29.378794 47.119612 22.992099 66.137768-6.386694 19.018157-29.236868 5.535135-32.926957 32.785032-1.419265 10.360638 4.683576 13.199168 14.76036 26.114483 3.26431 4.11587 2.838531 7.38018-2.412751 7.80596-16.463479 1.419265-40.874844-19.018157-38.60402-35.623562 2.838531-20.721275 17.031185-39.171726 4.54165-50.809702-12.631462-11.637976-29.804574-86.575191-6.812474-130.146639s-3.69009-89.129868 27.391822-96.935828c31.081913-7.80596 10.076784-66.421622 63.725018-80.04657s96.651975-85.439778 146.042411-68.12474 50.667775-49.816216 93.245738-27.107969z" fill="#AD9C9A" p-id="6307"></path><path d="M543.010949 159.24158s-69.827859 44.564934-39.597505 92.536105c30.230353 47.971171 24.411365 106.870686 57.196397 116.947471 32.785031 10.076784 58.047956-5.109356 116.095911 40.449064s83.31088 90.832987 113.541233 78.201525c30.230353-12.631462 62.589605 30.656133 47.687319 53.222453-14.902287 22.56632-19.869716 55.351351-9.792932 78.059598 17.598891-5.109356 27.817602-35.339709 32.785031-68.12474s35.339709-73.234096 2.554678-138.804158-31.365766-30.088427-56.344837-88.278309-42.861816-41.158697-65.570062-76.498406c-22.708247-35.339709-108.006098-42.719889-117.79903-68.12474-9.934858-25.546778-80.756202-19.585863-80.756203-19.585863z" fill="#AD9C9A" p-id="6308"></path><path d="M500.007207 561.603326c-10.644491-3.26431-13.908801-16.747332-5.677061-24.411365 8.089813-7.664033 21.430908-3.548164 23.985585 7.238254 2.554678 10.786417-7.664033 20.295495-18.308524 17.173111z" fill="#F2D8D6" p-id="6309"></path><path d="M165.628274 639.804851c-9.651005 14.050728-20.579349 27.391823-20.579348 45.416493 0 17.740818 11.779903 35.623562 25.120998 46.693833 18.592377 15.328067 44.990714 22.850173 67.131254 9.225225 11.07027-6.812474 19.443936-18.166597 22.56632-30.79806 1.845045-7.522107 1.986972-15.61192 2.412751-23.417879 0.42578-8.089813 0.567706-15.895773-1.561191-23.843659-3.406237-12.347609-12.205683-23.559806-23.559806-29.662647-13.908801-7.522107-30.37228-7.664033-45.842273-9.225226-9.083299-0.851559-17.882744 0.567706-26.398337 4.11587-12.205683 5.109356-20.011642 14.618434-26.966043 25.546778-6.954401 11.07027-15.753846 22.9921-19.160083 35.765488-6.812474 25.262924 4.11587 50.383922 25.688704 64.43465 9.651005 6.386694 20.721275 8.657519 32.075398 9.651005 6.102841 0.567706 12.205683-0.567706 18.308524-0.141926-3.832017-0.567706-7.522107-0.993486-11.354123-1.561192 0.567706 0.141927 1.277339 0.283853 1.845045 0.425779l-10.218711-4.257796c-1.845045-1.561192-3.548164-3.122384-5.393209-4.683576-4.399723-6.102841-5.677062-7.664033-3.832016-4.541649 0.851559 1.845045 1.845045 3.548164 2.696604 5.393208l-4.257796-10.218711c1.845045 4.541649 3.122384 8.941372 3.832016 13.766875-0.567706-3.832017-0.993486-7.522107-1.561192-11.354123 0.283853 1.561192 0.283853 3.26431-0.141926 4.825502 1.986972-7.096327 3.832017-14.334581 5.818988-21.430908 13.199168-10.076784 16.605405-13.483021 10.076784-10.218711l10.218711-4.257796c-0.567706 0.141927-1.277339 0.283853-1.845045 0.567706 3.832017-0.567706 7.522107-0.993486 11.354124-1.561192-1.419265 0.283853-2.838531 0.283853-4.11587 0 3.832017 0.567706 7.522107 0.993486 11.354123 1.561192-2.270825-0.567706-4.257796-1.135412-6.528621-2.128898l10.218711 4.257796c-5.818988-2.696604-11.637976-5.535135-17.456964-8.515592-2.696604-1.419265-5.535135-2.838531-8.089813-4.399723-1.277339-0.709633-2.554678-1.419265-3.69009-2.270825 9.792931 12.347609 13.199168 15.328067 9.934858 8.941372l4.257796 10.218711c-0.141927-0.567706-0.283853-1.277339-0.42578-1.845045 0.567706 3.832017 0.993486 7.522107 1.561192 11.354124v-1.845045c-0.567706 3.832017-0.993486 7.522107-1.561192 11.354123 0.141927-0.567706 0.283853-1.277339 0.42578-1.845045l-4.257796 10.218711c1.845045-3.832017 0.709633-2.554678-3.548164 3.69009-6.244768 4.257796-7.522107 5.393209-3.69009 3.406237l-10.218711 4.257796c1.561192-0.567706 3.122384-0.993486 4.825502-1.135412-3.832017 0.567706-7.522107 0.993486-11.354123 1.561192 3.406237-0.141927 6.670547 0 10.076785 0.567706-3.832017-0.567706-7.522107-0.993486-11.354124-1.561192l2.554678 0.42578c11.637976 1.845045 22.140541 1.986972 32.785031-4.257797 8.799446-5.109356 17.315038-15.328067 19.585863-25.404851 2.412751-10.928344 1.986972-23.134026-4.257796-32.785031-5.677062-8.657519-14.76036-17.882744-25.404851-19.585863-18.592377-2.980457-35.623562-3.832017-52.796674 5.818989-19.727789 11.07027-31.507692 36.475121-25.546777 58.473735 4.683576 17.315038 16.889258 29.378794 32.501178 37.610534 10.928344 5.818988 22.56632 12.347609 34.346223 16.179625 19.30201 6.386694 40.165211 1.419265 55.067498-12.205682 15.895773-14.618434 17.315038-39.313652 10.786417-58.757589-5.251282-15.895773-13.624948-31.507692-28.385308-40.449064-8.515593-5.251282-19.30201-7.522107-29.094941-7.096327-4.825502 0.141927-9.509078 0.709633-14.334581 0.283853 3.832017 0.567706 7.522107 0.993486 11.354123 1.561192-2.554678-0.42578-4.683576-0.993486-7.096327-1.986972l10.218711 4.257797c-5.960915-2.980457 6.244768 6.244768 2.838531 2.696604-2.838531-2.980457 5.818988 9.367152 2.838531 2.980457l4.257796 10.218711c-0.42578-1.277339-0.709633-2.412751-0.851559-3.69009 0.567706 3.832017 0.993486 7.522107 1.561192 11.354124V703.955648c-0.567706 3.832017-0.993486 7.522107-1.561192 11.354123 0.141927-1.419265 0.42578-2.696604 0.993486-3.973943l-4.257796 10.218711c2.270825-5.109356 5.393209-9.792931 8.373666-14.618434 1.419265-2.270825 2.696604-4.541649 4.115869-6.670547 0.993486-1.561192 1.845045-2.980457 2.838531-4.399723 4.257796-6.386694 1.135412-3.548164-9.367152 8.231739l-10.218711 4.257797c0.567706-0.283853 1.135412-0.42578 1.703119-0.709633-3.832017 0.567706-7.522107 0.993486-11.354124 1.561192 8.657519-1.135412 18.734304 1.135412 27.391823 2.270825-3.832017-0.567706-7.522107-0.993486-11.354123-1.561192 1.845045 0.283853 3.406237 0.709633 5.109355 1.419265l-10.218711-4.257796c-3.832017-3.973943-7.80596-7.947886-11.637976-11.92183l-4.257797-10.218711c0.141927 0.709633 0.42578 1.277339 0.567707 1.986972-0.567706-3.832017-0.993486-7.522107-1.561192-11.354123 0.567706 7.38018 0 15.469993-0.993486 22.708246 0.567706-3.832017 0.993486-7.522107 1.561192-11.354123-0.141927 1.277339-0.567706 2.412751-0.993486 3.548163l4.257796-10.218711c3.69009-3.832017 7.522107-7.664033 11.212197-11.496049l10.218711-4.257797-2.128898 0.42578c3.832017-0.567706 7.522107-0.993486 11.354123-1.561192h-2.128898c3.832017 0.567706 7.522107 0.993486 11.354124 1.561192-1.419265-0.141927-2.696604-0.42578-3.973944-0.851559l10.218711 4.257796c-1.845045-0.709633-6.670547-4.11587-0.993485 0.283853 5.960915 4.683576 0.567706 0.141927-0.42578-0.993486-0.993486-0.993486-1.845045-2.270825-2.838531-3.26431 7.522107 8.089813 3.832017 5.251282 1.845045 1.703118l4.257797 10.218711c-0.141927-0.709633-0.283853-1.277339-0.42578-1.986971v22.708246c0.141927-0.709633 0.141927-1.419265 0.283853-2.270824l-4.257796 10.218711c3.548164-7.664033 9.651005-14.76036 14.476507-21.714761 12.773389-18.308524 3.973943-48.113098-15.328067-58.189882-21.005128-11.92183-43.997228-4.825502-57.622176 14.76036zM806.852391 625.47027c0 9.509078 1.703119 19.160083 5.109355 28.101456 2.412751 6.244768 5.109356 12.205683 6.386695 18.87623-0.567706-3.832017-0.993486-7.522107-1.561192-11.354124 1.277339 10.502564 0.709633 20.721275 2.412751 31.22384 1.561192 9.083299 5.109356 18.024671 10.360638 25.688704 12.347609 17.598891 30.79806 30.514207 51.945114 34.913929 19.443936 3.973943 41.86833 4.683576 61.312266 0.141926 25.262924-5.818988 39.313652-33.494664 45.416493-56.486763 6.528621-25.120998 1.703119-51.377408-16.321552-70.537492-13.199168-13.908801-31.791545-22.708247-50.383922-26.824116-6.528621-1.419265-13.199168-2.412751-19.869716-3.406237-11.212197-1.703119-23.417879-4.967429-34.630076-5.109356-20.011642-0.141927-36.617048 10.076784-44.423008 28.527235-6.954401 16.605405-2.838531 33.494664 7.522107 47.687319 10.786417 14.902287 22.56632 31.933472 36.900901 43.855301 14.76036 12.347609 32.359252 19.30201 51.803187 14.334581 18.024671-4.541649 31.791545-18.024671 37.042828-35.907415 6.386694-21.288981-7.664033-47.403465-29.804574-52.370894-22.850173-5.251282-45.55842 6.954401-52.370894 29.804573-0.141927 0.567706-0.283853 0.993486-0.42578 1.561192l4.257797-10.218711c13.624948-10.786417 17.173112-14.618434 10.786417-11.212196l10.218711-4.257797c-0.993486 0.42578-2.128898 0.709633-3.122384 0.709633 3.832017-0.567706 7.522107-0.993486 11.354123-1.561192h-1.703118c3.832017 0.567706 7.522107 0.993486 11.354123 1.561192-1.277339-0.141927-2.412751-0.42578-3.548163-0.851559l10.218711 4.257796c-6.528621-3.122384 6.954401 7.238254 1.845045 1.986972-1.561192-1.561192-3.122384-3.26431-4.683576-4.825503-3.122384-3.406237-6.244768-6.954401-9.225225-10.502564-1.419265-1.561192-2.696604-3.26431-3.973944-4.825502-0.851559-0.993486-1.561192-1.986972-2.412751-2.980458-1.986972-2.554678-0.993486-1.277339 2.838531 3.548164-1.986972-4.11587-5.818988-7.664033-8.373666-11.637977l4.257796 10.218711c-0.141927-0.567706-0.42578-0.993486-0.567706-1.561192 0.567706 3.832017 0.993486 7.522107 1.561192 11.354124 0-0.567706-0.141927-0.993486-0.141926-1.561192-1.986972 7.096327-3.832017 14.334581-5.818989 21.430908 0.141927-0.42578 0.42578-0.993486 0.567707-1.419266l-15.328067 15.328067c0.42578-0.283853 0.993486-0.567706 1.419265-0.851559-7.096327 1.986972-14.334581 3.832017-21.430907 5.818988 1.135412-0.283853 2.412751-0.283853 3.548163 0-3.832017-0.567706-7.522107-0.993486-11.354123-1.561192 19.30201 2.980457 40.165211 4.257796 58.473735 11.779903l-10.218711-4.257797c1.986972 0.851559 4.11587 1.845045 5.960915 2.980458 1.561192 0.851559 7.096327 4.967429 1.277339 0.42578-7.238254-5.535135 0.851559 0.709633 0.567706 0.993485-0.851559 0.567706-6.244768-10.360638-1.845045-1.277339l-4.257796-10.218711c0.851559 2.270825 1.419265 4.257796 1.845045 6.670548-0.567706-3.832017-0.993486-7.522107-1.561192-11.354123 0.283853 3.122384 0.283853 6.102841 0 9.225225 0.567706-3.832017 0.993486-7.522107 1.561192-11.354124-0.851559 5.677062-2.696604 10.928344-4.825503 16.321553l4.257796-10.218711c-1.135412 2.554678-2.412751 5.251282-3.69009 7.664033-0.42578 0.993486-0.993486 1.845045-1.561192 2.838531 2.554678-3.832017 5.677062-7.096327 9.509079-9.792932l10.218711-4.257796c-1.419265 0.567706-2.838531 0.851559-4.399723 0.993486 3.832017-0.567706 7.522107-0.993486 11.354123-1.561192-10.076784 0.709633-20.153569 1.135412-30.230353 0 3.832017 0.567706 7.522107 0.993486 11.354123 1.561192-5.393209-0.851559-10.502564-1.986972-15.611919-4.11587l10.218711 4.257796c-1.845045-0.851559-3.548164-1.845045-5.393209-2.83853-2.696604-1.703119-2.270825-1.419265 0.993486 0.993485 3.122384 2.554678 3.548164 2.838531 1.135412 0.85156l-1.419265-1.419266c-2.838531-3.26431-1.845045-1.845045 2.838531 3.973943-0.567706-1.703119-1.986972-3.548164-2.838531-5.251282l4.257796 10.218711c-1.135412-2.838531-1.703119-5.677062-2.128898-8.657519 0.567706 3.832017 0.993486 7.522107 1.561192 11.354124-0.993486-12.347609-0.141927-24.695218-3.832017-36.900901-2.554678-8.657519-6.954401-16.463479-8.373666-25.404851 0.567706 3.832017 0.993486 7.522107 1.561192 11.354123-0.141927-1.561192-0.283853-3.122384-0.141926-4.541649 0-22.282467-19.585863-43.571448-42.577963-42.577963-23.417879 0.851559-43.145669 18.592377-43.003742 42.436036z" fill="#AD9C9A" p-id="6310"></path><path d="M116.947471 684.227859c-15.469993 12.489536-26.398337 30.514207-26.256411 50.951628 0.141927 19.160083 10.502564 35.481635 24.837145 47.261539 20.579349 16.747332 44.139155 29.804574 70.253638 35.481635 21.005128 4.683576 45.274567 7.096327 61.312266-10.786417 12.205683-13.624948 16.889258-33.068884 16.463479-51.235482-0.283853-13.057242-2.838531-26.25641-7.805959-38.320166-3.122384-7.80596-6.386694-15.469993-10.786418-22.708247-2.838531-4.683576-6.102841-9.083299-8.373666-14.050727l4.257797 10.218711c-0.567706-1.419265-0.993486-2.980457-1.419266-4.54165 0.567706 3.832017 0.993486 7.522107 1.561192 11.354124-0.283853-1.561192-0.42578-3.122384-0.283853-4.683576-0.567706 3.832017-0.993486 7.522107-1.561192 11.354123 0.141927-1.561192 0.42578-3.122384 1.135412-4.541649 7.096327-21.147055-8.231739-47.403465-29.804573-52.370894-23.559806-5.393209-44.706861 7.096327-52.370894 29.804574-5.677062 16.889258-1.561192 35.623562 6.9544 50.667775 4.257796 7.522107 9.367152 14.334581 12.915316 22.424394l-4.257797-10.218711c2.696604 6.528621 4.683576 13.199168 5.677062 20.153569-0.567706-3.832017-0.993486-7.522107-1.561192-11.354124 0.567706 5.393209 0.709633 10.644491 0 16.0377 0.567706-3.832017 0.993486-7.522107 1.561192-11.354124-0.567706 3.548164-1.419265 7.096327-2.696604 10.502564l4.257796-10.218711 11.49605-11.921829c7.096327-1.986972 14.334581-3.832017 21.430908-5.818988-2.270825 0.141927-4.11587 0-6.528621-0.283854 3.832017 0.567706 7.522107 0.993486 11.354123 1.561192-10.928344-1.561192-21.430908-4.399723-31.649619-8.515592l10.218711 4.257796c-7.522107-3.26431-14.902287-7.096327-21.714761-11.637976-1.277339-0.851559-4.11587-2.128898-4.825502-3.406237 1.277339 1.986972 7.664033 6.244768 2.128898 1.561192-1.419265-1.135412-2.696604-2.412751-3.973943-3.69009-5.393209-4.683576 5.109356 8.515593 1.845045 1.703118l4.257796 10.218711c-0.141927-0.709633-0.42578-1.277339-0.567706-1.986972 0.567706 3.832017 0.993486 7.522107 1.561192 11.354124-0.283853-1.561192-0.42578-3.122384-0.141927-4.683576-0.567706 3.832017-0.993486 7.522107-1.561192 11.354123 0.141927-1.561192 0.567706-3.122384 1.277339-4.541649l-4.257796 10.218711c3.406237-6.954401-7.522107 6.954401-0.42578 0 1.986972-1.986972 4.11587-3.69009 6.244768-5.393209 7.947886-6.386694 12.489536-20.295495 12.489536-30.088426 0-10.502564-4.683576-22.850173-12.489536-30.088427-8.089813-7.38018-18.734304-12.915315-30.088427-12.489536-11.92183 0.567706-20.863202 4.967429-30.088426 12.489536z" fill="#AD9C9A" p-id="6311"></path><path d="M210.051282 689.337214c22.282467 0 43.571448-19.585863 42.577963-42.577962-0.993486-23.134026-18.734304-42.577963-42.577963-42.577963-22.282467 0-43.571448 19.585863-42.577963 42.577963 0.993486 22.9921 18.734304 42.577963 42.577963 42.577962z" fill="#AD9C9A" p-id="6312"></path><path d="M107.580319 422.231462m-25.404851 0a25.404851 25.404851 0 1 0 50.809702 0 25.404851 25.404851 0 1 0-50.809702 0Z" fill="#DDB1AB" p-id="6313"></path><path d="M937.140956 377.240748m-17.740817 0a17.740818 17.740818 0 1 0 35.481635 0 17.740818 17.740818 0 1 0-35.481635 0Z" fill="#DDB1AB" p-id="6314"></path><path d="M191.316979 666.345114m-12.063757 0a12.063756 12.063756 0 1 0 24.127513 0 12.063756 12.063756 0 1 0-24.127513 0Z" fill="#DDB1AB" p-id="6315"></path><path d="M832.966875 653.145946m-13.341095 0a13.341095 13.341095 0 1 0 26.68219 0 13.341095 13.341095 0 1 0-26.68219 0Z" fill="#DDB1AB" p-id="6316"></path><path d="M621.496327 288.962439l-11.921829 4.11587c-2.128898 0.709633-3.832017 2.554678-4.399723 4.683576l-3.406237 12.205683c-1.561192 5.535135-8.799446 6.954401-12.205683 2.270824l-7.522107-10.076784c-1.419265-1.845045-3.548164-2.838531-5.818988-2.696605l-12.631462 0.567707c-5.677062 0.283853-9.225225-6.244768-5.960915-10.928344l7.238254-10.360638c1.277339-1.845045 1.561192-4.257796 0.851559-6.386694l-4.399723-11.779903c-1.986972-5.393209 2.980457-10.786417 8.515593-9.083299l12.063756 3.69009c2.128898 0.709633 4.541649 0.283853 6.386694-1.135412l9.792932-7.80596c4.541649-3.548164 11.07027-0.42578 11.212196 5.251282l0.283854 12.631463c0 2.270825 1.135412 4.399723 3.122383 5.677061l10.502565 6.954401c4.683576 3.122384 3.69009 10.360638-1.703119 12.205682zM684.937491 331.682328l-5.818988 3.406237c-0.993486 0.567706-1.703119 1.703119-1.845045 2.980458l-0.567706 6.670547c-0.283853 3.122384-3.832017 4.541649-6.102841 2.412752l-4.967429-4.54165c-0.851559-0.851559-2.128898-1.135412-3.406237-0.851559l-6.528621 1.561192c-2.980457 0.709633-5.535135-2.270825-4.257797-5.109356l2.696605-6.102841c0.42578-1.135412 0.42578-2.412751-0.283853-3.406237l-3.548164-5.677062c-1.561192-2.554678 0.42578-5.960915 3.548164-5.677061l6.670547 0.709632c1.277339 0.141927 2.412751-0.283853 3.264311-1.277338l4.399722-5.109356c1.986972-2.270825 5.818988-1.419265 6.386695 1.561192l1.419265 6.528621c0.283853 1.135412 1.135412 2.128898 2.270825 2.696604l6.244768 2.554678c2.696604 1.277339 2.980457 5.109356 0.425779 6.670547zM789.537353 890.447124l-9.651005 5.535135c-1.703119 0.993486-2.838531 2.838531-2.980457 4.825503l-0.85156 11.07027c-0.42578 5.109356-6.386694 7.522107-10.218711 4.11587l-8.231739-7.380181c-1.561192-1.277339-3.548164-1.845045-5.535135-1.419265l-10.786418 2.554678c-4.967429 1.135412-9.083299-3.832017-6.9544-8.373666l4.541649-10.218711c0.851559-1.845045 0.709633-3.973943-0.425779-5.677062l-5.818989-9.509078c-2.696604-4.257796 0.851559-9.792931 5.818989-9.225225l11.07027 1.135412c1.986972 0.141927 3.973943-0.567706 5.251282-2.128898l7.238254-8.515593c3.26431-3.832017 9.509078-2.270825 10.64449 2.696605l2.270825 10.928343c0.42578 1.986972 1.845045 3.548164 3.69009 4.399723l10.218711 4.257796c4.683576 1.986972 5.109356 8.373666 0.709633 10.928344z" fill="#DDB1AB" p-id="6317"></path><path d="M122.624532 635.688981l-9.651005 5.535135c-1.703119 0.993486-2.838531 2.838531-2.980457 4.825503l-0.851559 11.07027c-0.42578 5.109356-6.386694 7.522107-10.218711 4.11587l-8.23174-7.38018c-1.561192-1.277339-3.548164-1.845045-5.535135-1.419266l-10.786417 2.554678c-4.967429 1.135412-9.083299-3.832017-6.954401-8.373666l4.54165-10.218711c0.851559-1.845045 0.709633-3.973943-0.42578-5.677062l-5.818988-9.509078c-2.696604-4.257796 0.851559-9.792931 5.818988-9.225225l11.07027 1.135412c1.986972 0.141927 3.973943-0.567706 5.251282-2.128898l7.238254-8.515593c3.26431-3.832017 9.509078-2.270825 10.644491 2.696605l2.270824 10.928344c0.42578 1.986972 1.845045 3.548164 3.69009 4.399722l10.218712 4.257797c4.683576 1.986972 5.109356 8.373666 0.709632 10.928343zM357.087179 139.229938l-10.360637 6.102841c-1.845045 1.135412-3.122384 2.980457-3.264311 5.251282l-0.993485 12.063756c-0.42578 5.535135-6.954401 8.089813-11.070271 4.399723l-8.941372-8.089813c-1.561192-1.419265-3.832017-1.986972-5.960915-1.561192l-11.779902 2.838531c-5.393209 1.277339-9.792931-4.11587-7.664034-9.083299l4.825503-11.07027c0.851559-1.986972 0.709633-4.257796-0.42578-6.102841l-6.244768-10.218711c-2.838531-4.683576 0.851559-10.644491 6.386695-10.076785l11.921829 1.277339c2.128898 0.283853 4.257796-0.567706 5.677062-2.270825l7.80596-9.225225c3.548164-4.11587 10.360638-2.412751 11.496049 2.980457l2.554678 11.779903c0.42578 2.128898 1.986972 3.973943 3.973943 4.683576l11.212197 4.54165c5.109356 1.986972 5.677062 8.941372 0.851559 11.779903z" fill="#F7F4EB" p-id="6318"></path><path d="M697.994733 281.298406l-6.670547 0.993486c-1.135412 0.141927-2.270825 0.993486-2.838531 1.986971l-2.980457 6.102842c-1.277339 2.696604-5.251282 2.838531-6.670548 0l-2.980457-5.960915c-0.567706-1.135412-1.561192-1.845045-2.838531-1.986972l-6.670548-0.851559c-2.980457-0.42578-4.257796-4.11587-2.128898-6.244768l4.825503-4.683576c0.851559-0.851559 1.277339-2.128898 0.993485-3.26431l-1.135412-6.670547c-0.567706-2.980457 2.554678-5.393209 5.393209-3.973944l5.960914 3.122384c1.135412 0.567706 2.412751 0.567706 3.406237 0l5.960915-3.122384c2.696604-1.419265 5.960915 0.851559 5.393209 3.832017l-1.135413 6.670547c-0.141927 1.135412 0.283853 2.412751 1.135413 3.264311l4.825502 4.683576c2.412751 1.986972 1.135412 5.677062-1.845045 6.102841z" fill="#EAE4CA" p-id="6319"></path><path d="M516.612613 732.340956c-101.903257 0-193.020097-29.520721-253.622731-75.788773-6.812474-5.251282-17.315038 1.135412-13.908801 8.515592 37.75246 83.168954 143.487734 156.403049 267.957311 156.40305 124.895357 0 230.914484-73.659875 268.383091-157.254609 3.26431-7.38018-7.096327-13.766875-13.908801-8.373666C710.910049 702.536383 619.225502 732.340956 516.612613 732.340956z" fill="#DDB1AB" p-id="6320"></path><path d="M288.252807 705.232987c0 38.462093 26.966043 70.395565 22.850173 70.395565-4.11587 0-37.75246-31.933472-37.75246-70.395565s33.63659-69.118226 37.75246-69.118226c4.11587 0-22.850173 30.514207-22.850173 69.118226zM334.09508 729.786279c0 38.462093 26.966043 70.395565 22.850173 70.395564-4.11587 0-37.75246-31.933472-37.75246-70.395564s33.63659-69.118226 37.75246-69.118226c4.11587 0.141927-22.850173 30.656133-22.850173 69.118226zM385.472488 750.223701c0 38.462093 26.966043 70.395565 22.850173 70.395564s-37.75246-31.933472-37.75246-70.395564 33.63659-69.118226 37.75246-69.118226-22.850173 30.656133-22.850173 69.118226zM441.107692 771.370755c0 38.462093 26.966043 70.395565 22.850174 70.395565-4.11587 0-37.75246-31.933472-37.752461-70.395565s33.63659-69.118226 37.752461-69.118226c4.11587 0.141927-22.850173 30.656133-22.850174 69.118226zM510.935551 778.467082c0 38.462093 26.966043 70.395565 22.850173 70.395565-4.11587 0-37.75246-31.933472-37.75246-70.395565s33.63659-69.118226 37.75246-69.118225c4.11587 0-22.850173 30.656133-22.850173 69.118225zM586.298545 772.790021c0 38.462093 26.966043 70.395565 22.850173 70.395565s-37.75246-31.933472-37.75246-70.395565 33.63659-69.118226 37.75246-69.118226-22.850173 30.656133-22.850173 69.118226zM659.53264 753.771864c0 38.462093 26.966043 70.395565 22.850174 70.395565s-37.75246-31.933472-37.752461-70.395565 33.63659-69.118226 37.752461-69.118226-22.850173 30.656133-22.850174 69.118226zM754.055717 697.427027c0 38.462093 26.966043 70.395565 22.850174 70.395565-4.11587 0-37.75246-31.933472-37.752461-70.395565s33.63659-69.118226 37.752461-69.118226c4.11587 0.141927-22.850173 30.656133-22.850174 69.118226z" fill="#C9958F" p-id="6321"></path></svg>