<?xml version="1.0" standalone="no"?><!DOCTYPE svg PUBLIC "-//W3C//DTD SVG 1.1//EN" "http://www.w3.org/Graphics/SVG/1.1/DTD/svg11.dtd"><svg t="1602475052780" class="icon" viewBox="0 0 1024 1024" version="1.1" xmlns="http://www.w3.org/2000/svg" p-id="6822" xmlns:xlink="http://www.w3.org/1999/xlink" width="200" height="200"><defs><style type="text/css"></style></defs><path d="M511.858093 512.567627m-511.432372 0a511.432373 511.432373 0 1 0 1022.864745 0 511.432373 511.432373 0 1 0-1022.864745 0Z" fill="#F9F1E1" p-id="6823"></path><path d="M314.749446 869.463415a190.722838 42.713969 0 1 0 381.445676 0 190.722838 42.713969 0 1 0-381.445676 0Z" fill="#DBB986" p-id="6824"></path><path d="M696.195122 866.909091H315.317073c11.494457-40.301552 53.498891-47.538803 128.993348-74.217295 47.822616-16.886918 58.181818-50.944568 60.168515-73.649667 0-0.425721 1.277162-0.993348 1.277162-1.560976 0 0.425721 1.135255 0.993348 1.135255 1.419069 1.986696 22.7051 12.487805 56.762749 60.310421 73.649667 75.494457 26.678492 117.640798 34.05765 128.993348 74.359202z" fill="#DBB986" p-id="6825"></path><path d="M314.749446 869.463415a190.722838 42.713969 0 1 0 381.445676 0 190.722838 42.713969 0 1 0-381.445676 0Z" fill="#DBB986" p-id="6826"></path><path d="M696.195122 869.463415c0 23.556541-85.427938 42.713969-190.722838 42.713969s-190.722838-19.157428-190.722838-42.713969c0-1.702882 0.425721-3.263858 1.277162-4.966741 12.487805-38.172949 54.350333-45.694013 128.141906-71.804878 47.822616-16.886918 58.181818-50.944568 60.168515-73.649667 0-0.425721 1.277162-0.993348 1.277162-1.560976 0 0.425721 1.135255 0.993348 1.135255 1.419069 1.986696 22.7051 12.487805 56.762749 60.310421 73.649667 75.35255 26.678492 117.498891 33.915743 128.993348 74.217295h-0.283814c0.425721 0.993348 0.425721 1.844789 0.425721 2.696231z" fill="#E5C9A3" p-id="6827"></path><path d="M696.195122 866.909091c-0.709534-2.412417-1.560976-4.824834-2.412417-7.095344-14.616408 20.292683-93.374723 35.760532-188.310421 35.760532-94.226164 0-172.416851-15.325942-187.884701-35.334811-0.567627 1.419069-1.135255 2.696231-1.560975 4.257206-0.851441 1.560976-1.277162 3.263858-1.277162 4.966741 0 23.556541 85.427938 42.713969 190.722838 42.713969s190.722838-19.157428 190.722838-42.713969c0-0.851441-0.141907-1.702882-0.283814-2.554324h0.283814z" fill="#CCA066" p-id="6828"></path><path d="M339.866962 659.725055c0 14.04878-65.844789 81.880266-147.157428 81.880267S45.694013 673.773836 45.694013 659.725055c0-14.04878 65.844789-25.543237 147.157428-25.543237s147.015521 11.35255 147.015521 25.543237z" fill="#C4D6C9" p-id="6829"></path><path d="M498.093126 182.350333h16.461198v26.110864H498.093126z" fill="#DBB986" p-id="6830"></path><path d="M519.237251 190.439024h-25.827051c-2.838137 0-5.108647-2.27051-5.108648-5.108647s2.27051-5.108647 5.108648-5.108648h25.827051c2.838137 0 5.108647 2.27051 5.108647 5.108648s-2.27051 5.108647-5.108647 5.108647zM521.08204 165.747228c0 11.494457-6.527716 11.494457-14.616408 11.494457-8.088692 0-14.616408 0-14.616408-11.494457 0-8.372506 7.804878-17.880266 12.062084-22.421286 1.419069-1.560976 3.831486-1.560976 5.250555 0 3.973392 4.54102 11.920177 14.04878 11.920177 22.421286z" fill="#DBB986" p-id="6831"></path><path d="M822.208426 271.042129c-0.283814-0.567627-12.203991-28.097561-40.585366-48.106431-38.314856-26.962306-86.988914-20.576497-144.745011 3.973393-50.37694 21.427938-85.995565 46.687361-127.858093 46.687361h-6.527717c-43.56541 0.141907-76.203991-24.691796-128-46.687361-57.18847-24.266075-107.423503-30.509978-145.170731-3.689579-21.427938 15.184035-33.348115 34.625277-37.889135 43.281597-1.277162 2.554324-4.115299 3.547672-6.527717 2.27051-2.696231-1.419069-3.831486-5.108647-2.27051-8.088692 5.108647-9.791574 17.880266-30.509978 41.294901-47.113082 28.381375-20.150776 78.04878-37.321508 154.252771-4.966741 49.809313 21.144124 85.002217 24.97561 127.148559 24.97561h0.851441c42.146341 0 77.481153-3.831486 127.148559-24.97561 76.203991-32.354767 125.871397-15.184035 154.252772 4.966741 23.272727 16.603104 36.044346 37.321508 41.2949 47.113082 1.560976 2.838137 0.425721 6.669623-2.27051 8.088692l-4.399113 2.27051zM499.796009 541.800443v0.425721l-0.141907-0.141907z" fill="#C4D6C9" p-id="6832"></path><path d="M499.654102 542.084257l-0.283814 0.141907v-0.425721z" fill="#C4D6C9" p-id="6833"></path><path d="M45.552106 659.725055a147.157428 25.543237 0 1 0 294.314856 0 147.157428 25.543237 0 1 0-294.314856 0Z" fill="#AFBFB2" p-id="6834"></path><path d="M58.749446 670.226164a133.960089 14.900222 0 1 0 267.920177 0 133.960089 14.900222 0 1 0-267.920177 0Z" fill="#96AA99" p-id="6835"></path><path d="M188.168514 262.669623m-2.27051 0a2.27051 2.27051 0 1 0 4.54102 0 2.27051 2.27051 0 1 0-4.54102 0Z" fill="#98A89B" p-id="6836"></path><path d="M965.534368 659.725055c0 14.04878-65.844789 81.880266-147.157428 81.880267-81.312639 0-147.157428-67.831486-147.157428-81.880267 0-14.04878 65.844789-25.543237 147.157428-25.543237 81.312639 0 147.157428 11.35255 147.157428 25.543237z" fill="#EFCEC5" p-id="6837"></path><path d="M671.219512 659.725055a147.157428 25.543237 0 1 0 294.314856 0 147.157428 25.543237 0 1 0-294.314856 0Z" fill="#E0BFB8" p-id="6838"></path><path d="M684.416851 670.226164a133.960089 14.900222 0 1 0 267.920178 0 133.960089 14.900222 0 1 0-267.920178 0Z" fill="#CCA49E" p-id="6839"></path><path d="M506.323725 233.720621s-0.141907 0 0 0h-0.993348c-42.146341 0-77.481153-3.831486-127.148559-24.97561-76.203991-32.354767-125.871397-15.184035-154.252771 4.966741-23.272727 16.603104-36.044346 37.321508-41.294901 47.113082-1.560976 2.838137-0.425721 6.669623 2.27051 8.088691 2.412417 1.277162 5.250554 0.283814 6.527717-2.270509 4.54102-8.656319 16.461197-27.955654 37.889135-43.281597 37.747228-26.820399 87.982262-20.576497 145.170731 3.689579 51.796009 21.995565 84.43459 46.829268 128 46.687361h3.689579v-40.017738z" fill="#EFCEC5" p-id="6840"></path><path d="M506.323725 744.017738c-8.798226 0-15.89357-7.095344-15.89357-15.893569V214.847007c0-8.798226 7.095344-15.89357 15.89357-15.89357 8.798226 0 15.89357 7.095344 15.89357 15.89357v513.277162c0 8.798226-7.095344 15.89357-15.89357 15.893569z" fill="#E5C9A3" p-id="6841"></path><path d="M521.791574 775.521064c2.128603 2.27051 4.257206 4.54102 6.527716 6.669623 2.27051 2.128603 4.54102 4.115299 6.953437 5.960089 2.412417 1.844789 4.824834 3.547672 7.379158 5.108648 1.277162 0.709534 2.554324 1.560976 3.831485 2.128603 1.277162 0.709534 2.554324 1.277162 3.973393 1.986696 11.068736 5.534368 22.137472 11.068736 33.064301 17.170732 5.392461 3.121951 10.784922 6.385809 16.177384 10.075388 5.250554 3.689579 10.359202 7.804878 14.900222 12.629711 4.54102 4.824834 8.372506 10.217295 11.068736 16.177384l1.844789 4.54102c0.283814 0.709534 0.567627 1.560976 0.709534 2.27051l0.567628 2.27051c0.993348 3.121951 1.277162 6.243902 1.702882 9.365853-2.980044-5.534368-5.960089-10.926829-9.649667-15.609756-3.689579-4.682927-7.946785-8.798226-12.487805-12.487804-4.54102-3.689579-9.649667-6.953437-14.616408-10.075389-2.696231-1.560976-5.108647-3.121951-7.804878-4.682926l-3.973392-2.27051-3.973393-2.27051c-10.643016-6.101996-21.569845-12.345898-31.929046-19.441242-1.277162-0.851441-2.696231-1.844789-3.973393-2.838137-1.277162-0.993348-2.554324-1.986696-3.831485-3.121952-2.412417-2.128603-4.682927-4.54102-6.81153-7.095343-1.986696-2.554324-3.973392-5.108647-5.534368-7.946785-1.702882-2.696231-3.121951-5.534368-4.1153-8.514413z" fill="#D3B592" p-id="6842"></path><path d="M380.310421 874.288248c0.141907-1.560976 0.283814-3.121951 0.567628-4.824833l0.283814-2.412417 0.567627-2.412417c0.425721-1.560976 0.709534-3.121951 1.277162-4.682927l1.702882-4.54102c2.554324-5.960089 6.243902-11.778271 10.643016-16.745011 4.54102-4.824834 9.507761-9.223947 14.758315-13.055432 1.277162-0.993348 2.696231-1.844789 3.973392-2.696231 1.277162-0.851441 2.696231-1.844789 3.973393-2.696231 2.696231-1.702882 5.392461-3.405765 8.230598-4.96674 10.926829-6.243902 22.137472-11.778271 33.348116-17.312639 2.838137-1.419069 5.534368-2.696231 8.088691-4.115299 2.554324-1.419069 5.108647-3.121951 7.521065-4.966741 2.412417-1.844789 4.824834-3.689579 7.095343-5.818181 2.27051-2.128603 4.54102-4.257206 6.669623-6.669623-1.135255 2.980044-2.554324 5.818182-4.257206 8.656319s-3.547672 5.392461-5.676275 7.946785c-2.128603 2.412417-4.54102 4.824834-7.095343 6.953437-2.554324 2.128603-5.392461 4.115299-7.946785 5.818181-10.501109 7.095344-21.427938 13.339246-32.070954 19.441242-10.784922 6.101996-21.286031 12.203991-30.368071 19.725055-4.54102 3.831486-8.514412 8.230599-12.062084 13.055433-3.689579 5.108647-6.385809 10.643016-9.223947 16.31929z" fill="#D3B592" p-id="6843"></path><path d="M510.722838 776.656319c3.547672 8.230599 6.243902 16.461197 10.217295 23.698448 3.831486 7.662971 7.662971 15.467849 10.784922 23.840355l2.128604 6.385809c0.567627 2.128603 1.135255 4.399113 1.702882 6.527716 0.851441 4.399113 1.560976 8.940133 1.844789 13.339247 0.141907 2.27051 0.141907 4.399113 0.141907 6.669623s-0.141907 4.399113-0.283813 6.669623c-0.283814 4.399113-0.851441 8.798226-1.84479 13.197339-2.838137-8.514412-4.682927-17.028825-6.81153-25.259424-1.135255-4.115299-2.128603-8.088692-3.405765-12.062084-0.709534-1.986696-1.277162-3.973392-1.986696-5.960089-0.567627-1.986696-1.419069-3.973392-2.128603-5.960088-2.838137-7.946785-5.960089-16.035477-8.372506-24.549889l-0.42572-1.560976-0.425721-1.702882c-0.283814-1.135255-0.567627-2.27051-0.709534-3.405765-0.425721-2.27051-0.567627-4.54102-0.709535-6.81153-0.283814-4.115299-0.283814-8.656319 0.283814-13.055433z" fill="#D3B592" p-id="6844"></path><path d="M562.802661 735.077605c-1.560976 3.547672-29.94235 41.2949-29.942351 41.294901h-49.667405s-28.381375-37.747228-29.942351-41.294901 53.498891-183.059867 53.498892-183.059867l0.993348-1.135255 0.283814-0.283813 0.283813 0.283813 0.993348 1.135255c0 0.141907 55.059867 179.654102 53.498892 183.059867z" fill="#E5C9A3" p-id="6845"></path><path d="M490.430155 591.609756l31.645233-5.250554V215.272727c-1.844789 61.445676-9.791574 325.108647-30.651885 370.093127-0.567627 1.419069-0.993348 6.243902-0.993348 6.243902z" fill="#D3B592" p-id="6846"></path><path d="M198.243902 653.906874l-24.691796-1.84479c-2.838137-0.141907-5.676275 0.993348-7.521064 3.263858l-15.609756 19.441242c-4.54102 5.676275-13.764967 3.689579-15.467849-3.405765l-5.960089-24.124168c-0.709534-2.838137-2.696231-5.108647-5.392461-6.101996l-23.272727-8.798226c-6.81153-2.554324-7.804878-11.920177-1.560976-15.751663l21.144124-13.055433c2.412417-1.560976 3.973392-4.115299 4.1153-7.095343l1.135255-24.833703c0.283814-7.379157 8.940133-11.068736 14.474501-6.385809l19.015521 16.035476c2.27051 1.844789 5.250554 2.554324 8.088691 1.84479l23.982262-6.527717c7.095344-1.986696 13.339246 5.108647 10.501109 11.920178l-9.365854 22.988913c-1.135255 2.696231-0.851441 5.818182 0.851441 8.230599l13.62306 20.718404c3.973392 5.960089-0.709534 14.04878-8.088692 13.481153zM263.521064 672.21286l-9.365853-11.068736c-1.135255-1.277162-2.838137-1.986696-4.399113-1.844789l-14.474502 1.419069c-4.257206 0.425721-7.237251-4.257206-4.96674-7.804879l7.662971-12.345898c0.851441-1.419069 0.993348-3.263858 0.283814-4.824833l-5.818182-13.339246c-1.702882-3.973392 1.844789-8.088692 5.960089-7.095344l14.04878 3.405765c1.702882 0.425721 3.405765 0 4.682927-1.135255l10.784922-9.649667c3.121951-2.838137 8.230599-0.851441 8.65632 3.405765l1.135255 14.474501c0.141907 1.702882 1.135255 3.263858 2.554323 4.115299l12.487805 7.237251c3.689579 2.128603 3.263858 7.662971-0.567627 9.223946l-13.481153 5.534368c-1.560976 0.709534-2.696231 1.986696-3.121951 3.689579l-3.121952 14.190687c-0.851441 4.399113-6.101996 5.676275-8.940133 2.412417z" fill="#EFCEC5" p-id="6847"></path><path d="M849.312639 597.569845l-10.643016-0.709535c-1.277162-0.141907-2.412417 0.425721-3.263858 1.419069l-6.669623 8.230599c-1.986696 2.412417-5.818182 1.560976-6.669623-1.419069l-2.554324-10.359202c-0.283814-1.277162-1.135255-2.128603-2.27051-2.69623l-9.933481-3.831486c-2.980044-1.135255-3.263858-5.108647-0.709534-6.81153l9.08204-5.534368c0.993348-0.709534 1.702882-1.844789 1.844789-2.980044l0.567627-10.643016c0.141907-3.121951 3.831486-4.682927 6.243903-2.69623l8.088692 6.81153c0.993348 0.851441 2.27051 1.135255 3.405765 0.709534l10.217294-2.838138c2.980044-0.851441 5.676275 2.128603 4.54102 5.108648l-3.973392 9.791574c-0.425721 1.135255-0.283814 2.412417 0.283814 3.547672l5.818182 8.940133c1.844789 2.696231-0.141907 6.243902-3.405765 5.960089z" fill="#C4D6C9" p-id="6848"></path><path d="M408.266075 128.283814l-10.643015-0.709535c-1.277162-0.141907-2.412417 0.425721-3.263858 1.419069l-6.669623 8.230599c-1.986696 2.412417-5.818182 1.560976-6.669623-1.419069l-2.554324-10.359202c-0.283814-1.277162-1.135255-2.128603-2.27051-2.69623l-9.933481-3.831486c-2.980044-1.135255-3.263858-5.108647-0.709535-6.81153l9.08204-5.534368c0.993348-0.709534 1.702882-1.844789 1.84479-2.980044l0.567627-10.643016c0.141907-3.121951 3.831486-4.682927 6.243903-2.69623l8.088691 6.81153c0.993348 0.851441 2.27051 1.135255 3.405765 0.709534l10.217295-2.838138c2.980044-0.851441 5.676275 2.128603 4.54102 5.108648l-3.973392 9.791574c-0.425721 1.135255-0.283814 2.412417 0.283814 3.547672l5.818181 8.940133c1.844789 2.838137-0.283814 6.243902-3.405765 5.960089z" fill="#F2E5C0" p-id="6849"></path><path d="M795.67184 667.955654l-15.467849-4.257206c-1.844789-0.425721-3.689579 0-5.250554 1.135255l-12.203991 10.359202c-3.547672 3.121951-9.223947 0.709534-9.365854-4.1153l-0.851441-16.035476c-0.141907-1.844789-1.135255-3.547672-2.696231-4.54102l-13.62306-8.372506c-3.973392-2.554324-3.405765-8.514412 0.993348-10.217295l15.042129-5.676275c1.702882-0.709534 3.121951-2.128603 3.547672-3.973392l3.831485-15.609756c1.135255-4.54102 7.095344-5.960089 9.933482-2.27051l10.075388 12.487805c1.135255 1.419069 2.980044 2.27051 4.824833 2.128603l16.035477-1.277162c4.682927-0.425721 7.804878 4.824834 5.250554 8.798226l-8.798226 13.481153c-0.993348 1.560976-1.277162 3.547672-0.567627 5.250554l6.101995 14.900222c1.844789 4.399113-2.27051 8.940133-6.81153 7.804878zM865.348115 679.308204l-9.365853-11.068736c-1.135255-1.277162-2.838137-1.986696-4.399113-1.84479l-14.474502 1.419069c-4.257206 0.425721-7.237251-4.257206-4.96674-7.804878l7.662971-12.345898c0.851441-1.419069 0.993348-3.263858 0.283814-4.824834l-5.818182-13.339246c-1.702882-3.973392 1.844789-8.088692 5.960089-7.095343l14.04878 3.405765c1.702882 0.425721 3.405765 0 4.682927-1.135255l10.784922-9.649668c3.121951-2.838137 8.230599-0.851441 8.65632 3.405765l1.135255 14.474501c0.141907 1.702882 1.135255 3.263858 2.554323 4.1153l12.487805 7.23725c3.689579 2.128603 3.263858 7.662971-0.567627 9.223947l-13.481153 5.534368c-1.560976 0.709534-2.696231 1.986696-3.121951 3.689579l-3.121952 14.190687c-0.851441 4.257206-6.243902 5.676275-8.940133 2.412417z" fill="#C4D6C9" p-id="6850"></path><path d="M280.266075 839.662971l-14.616408 7.095344c-1.560976 0.709534-2.554324 2.128603-2.838137 3.831485l-2.412417 16.035477c-0.567627 4.115299-5.676275 5.676275-8.656319 2.696231l-11.210643-11.636364c-1.135255-1.135255-2.838137-1.702882-4.399113-1.419069l-16.035477 2.554324c-4.115299 0.709534-7.237251-3.689579-5.250554-7.379157l7.662971-14.332595c0.851441-1.419069 0.851441-3.263858 0-4.682926l-7.379158-14.474501c-1.844789-3.689579 1.277162-7.946785 5.392462-7.237251l15.893569 2.838137c1.702882 0.283814 3.263858-0.283814 4.54102-1.419068l11.35255-11.494457c2.980044-2.980044 7.946785-1.277162 8.514413 2.838137l2.27051 16.035477c0.283814 1.702882 1.277162 3.121951 2.69623 3.831486l14.474501 7.23725c3.831486 1.986696 3.831486 7.237251 0 9.08204zM650.501109 84.718404c-4.399113-1.277162-8.798226-2.128603-13.19734-2.412417 19.583149 10.926829 30.226164 31.503326 24.54989 50.518847-5.676275 19.015521-25.827051 30.368071-48.248337 28.807095 3.831486 2.128603 7.946785 3.831486 12.345898 5.250554 27.104213 8.088692 54.634146-3.689579 61.303769-26.394678 6.953437-22.7051-9.649667-47.68071-36.75388-55.769401z" fill="#F2E5C0" p-id="6851"></path></svg>