<?xml version="1.0" standalone="no"?><!DOCTYPE svg PUBLIC "-//W3C//DTD SVG 1.1//EN" "http://www.w3.org/Graphics/SVG/1.1/DTD/svg11.dtd"><svg t="1602475068311" class="icon" viewBox="0 0 1025 1024" version="1.1" xmlns="http://www.w3.org/2000/svg" p-id="7296" xmlns:xlink="http://www.w3.org/1999/xlink" width="200.1953125" height="200"><defs><style type="text/css"></style></defs><path d="M513.064744 512.354915m-511.645085 0a511.645085 511.645085 0 1 0 1023.29017 0 511.645085 511.645085 0 1 0-1023.29017 0Z" fill="#DFDAE0" p-id="7297"></path><path d="M362.864827 491.201996c-2.981284 5.394704-6.246499 1.561625 44.435326 29.670872 50.681824 28.109247 88.444753 52.669347 91.426036 47.274643 12.918896-22.856509-27.541384-42.021905-79.642867-67.575766s-53.237211-14.764453-56.218495-9.369749z" fill="#A892A7" p-id="7298"></path><path d="M378.33911 619.113268c6.104533-0.141966 4.542909 3.975045 2.981284-46.138916s0.283932-88.87065-5.820602-88.728684c-26.263691 0.567864-22.14668 39.182587-17.603771 89.012616 4.542909 50.113961 14.338555 46.138916 20.443089 45.854984z" fill="#A892A7" p-id="7299"></path><path d="M314.454457 608.32386c-0.709829 6.104533-2.555386 4.117011 22.572578 6.956329 25.127963 2.839318 44.293359 8.092056 45.003188 1.987522 3.12325-26.121725-16.61001-25.411895-42.163871-25.269929-25.411895 0.283932-24.702066 10.221544-25.411895 16.326078z" fill="#A892A7" p-id="7300"></path><path d="M365.136282 487.652849s0.709829 16.468044 13.060862 16.184112c-12.634965 0-18.881464-10.221544-13.060862-16.184112zM361.7291 593.133509s19.449328 8.375988 18.029669 20.585055c1.277693-12.492999-11.499237-25.695827-18.029669-20.585055z" fill="#937C93" p-id="7301"></path><path d="M486.801054 451.877444c-1.987523 4.542909-4.684875 1.703591 35.633439 19.875225s70.699016 34.497712 72.686538 29.954804c8.801885-19.165396-23.282407-31.090531-64.594482-46.990712-41.454041-15.90018-41.737973-7.382227-43.725495-2.839317z" fill="#A892A7" p-id="7302"></path><path d="M499.010121 553.525024c4.968806-0.141966 3.691113 3.12325 2.41342-36.911132-1.277693-40.034382 0.283932-71.124913-4.684875-71.124914-21.010952 0.425898-17.745737 31.374463-14.054623 71.408845 3.549147 40.034382 11.357272 36.769167 16.326078 36.627201z" fill="#A892A7" p-id="7303"></path><path d="M447.760433 544.865105c-0.567864 4.82684-1.987523 3.407181 18.171634 5.678635 20.159157 2.271454 35.491474 6.530431 36.059337 1.561625 2.41342-20.868987-13.344794-20.443089-33.787883-20.301123-20.443089 0.141966-19.875225 8.234022-20.443088 13.060863z" fill="#A892A7" p-id="7304"></path><path d="M488.362678 448.044364s0.567864 13.202828 10.363511 12.918897c-10.079579 0.141966-15.048385-8.092056-10.363511-12.918897zM485.665326 532.656038s15.616248 6.672397 14.480522 16.468044c0.993761-9.937613-9.227783-20.585055-14.480522-16.468044z" fill="#937C93" p-id="7305"></path><path d="M594.695134 412.268959c-1.845557 3.12325-3.691113 0.851795 25.269929 17.887703 28.961043 17.035907 50.539859 31.80036 52.243449 28.819076 7.808124-13.060862-15.332317-24.844032-45.145154-40.318314-29.812838-15.616248-30.522667-9.369749-32.368224-6.388465z" fill="#A892A7" p-id="7306"></path><path d="M603.213087 486.659088c3.549147-0.141966 2.697352 2.271454 1.703591-26.689588-0.993761-28.961043 0.141966-51.53362-3.407181-51.391654-15.190351 0.283932-12.918896 22.714543-10.221545 51.675585 2.697352 28.961043 8.375988 26.547622 11.925135 26.405657z" fill="#A892A7" p-id="7307"></path><path d="M566.159989 480.412588c-0.425898 3.549147-1.419659 2.41342 13.060862 4.117011 14.622487 1.703591 25.695827 4.684875 26.121725 1.135727 1.703591-15.048385-9.653681-14.764453-24.418134-14.622487-14.906419 0-14.480521 5.820602-14.764453 9.369749z" fill="#A892A7" p-id="7308"></path><path d="M595.404963 410.423402s0.425898 9.511715 7.524193 9.369749c-7.240261 0-10.931374-5.962568-7.524193-9.369749zM593.417441 471.610703s11.357272 4.82684 10.36351 11.925135c0.851795-7.240261-6.530431-14.906419-10.36351-11.925135z" fill="#937C93" p-id="7309"></path><path d="M841.147927 413.688618c-11.925135 45.429086-36.343269 74.532095-72.828504 46.706779-42.8737-32.794122-47.700541-50.255927-22.714543-86.599196 25.553861-37.33703 60.903369-64.168585 87.025094-52.101483 26.121725 12.209067 20.017191 48.126438 8.517953 91.9939z" fill="#C7BDC9" p-id="7310"></path><path d="M868.121447 324.959933c-6.246499 34.497712-26.263691 41.312075-54.656869 36.201304-28.393179-5.110772-42.8737-18.029669-36.769167-52.527381 6.246499-34.497712 37.478996-72.118675 65.730209-67.149869s31.942326 48.836268 25.695827 83.475946z" fill="#C1AABF" p-id="7311"></path><path d="M869.39914 212.239013c10.789408 30.522667 0.283932 44.009427-20.72702 51.53362-21.010952 7.382227-36.201303 2.981284-46.990711-27.541384s-6.246499-73.538334 14.764453-81.062526 42.163871 26.547622 52.953278 57.07029z" fill="#C7BDC9" p-id="7312"></path><path d="M813.890476 131.318453c20.017191 13.770692 19.307362 27.115486 9.369749 41.454041s-21.43685 18.739498-41.454042 4.968806-35.775406-42.447803-25.837793-56.928323c9.937613-14.338555 37.904894-3.265216 57.922086 10.505476z" fill="#C1AABF" p-id="7313"></path><path d="M732.969915 105.48066c25.695827-6.530431 35.775406 2.555386 40.176349 19.591293 4.258977 17.035907-0.709829 28.677111-26.263691 35.065576s-60.335505 0.141966-64.594482-16.893941 24.985998-31.232497 50.681824-37.762928z" fill="#C7BDC9" p-id="7314"></path><path d="M656.0244 134.8676c20.585055-16.042146 32.794122-12.776931 42.589769-0.283932s9.511715 24.276168-11.07334 40.46028c-20.585055 16.042146-53.521142 25.127963-63.316789 12.776931s11.215306-36.769167 31.80036-52.953279zM808.779703 521.014834c-21.720782 54.230972-54.940801 76.661583-115.276306 46.564814-71.976709-35.917371-61.89713-71.124913-27.825316-118.683488 16.61001-22.998475 68.285595-57.354222 110.307501-38.472758 41.879939 18.881464 44.577291 81.204492 32.794121 110.591432z" fill="#C1AABF" p-id="7315"></path><path d="M753.55497 619.539165c-28.677111 56.502426-81.772355 76.09372-137.848884 47.700541-56.076528-28.393179-71.550811-82.908083-42.8737-139.410509 28.677111-56.502426 102.783308-87.734923 158.859836-59.199778 56.218494 28.393179 50.539859 94.40732 21.862748 150.909746z" fill="#C7BDC9" p-id="7316"></path><path d="M675.473728 672.066547c-22.714543 54.372938-77.939276 73.254402-143.953417 45.854984-66.014141-27.541384-91.568002-80.068765-68.853459-134.441703 22.714543-54.372938 92.987661-95.968945 159.001802-68.427561 66.014141 27.541384 76.519617 102.499376 53.805074 157.01428z" fill="#C1AABF" p-id="7317"></path><path d="M567.86358 732.685984c-24.418134 58.489949-91.426036 75.525856-174.901983 40.744211s-118.541522-94.40732-94.123388-152.897268 115.418273-91.568002 198.894219-56.786358 94.549286 110.449466 70.131152 168.939415zM636.007209 173.482324c-1.419659-0.141966-19.875225-0.851795-24.702066 21.578816-4.684875 22.430611 15.758214 58.206017 44.009428 49.120199 1.135727-0.425898 1.419659-2.271454 0.425898-3.123249-7.666158-6.956329-9.653681-21.578816-1.277693-29.386941 9.511715-8.517954 4.258977-33.787883-18.455567-38.188825z" fill="#C7BDC9" p-id="7318"></path><path d="M431.008457 907.162068c26.831554 16.893941 30.380702 54.940801 6.814363 76.09372-5.820602 5.252738-13.48676 10.221544-23.424373 14.622487-51.249688 22.14668-146.224872-2.839318-137.848884-68.001663 0.283932-2.555386 4.684875-4.258977 7.240261-2.697352 20.159157 12.776931 55.792597 9.227783 70.415084-13.060863 11.925135-18.171635 49.546097-24.134202 76.803549-6.956329z" fill="#A892A7" p-id="7319"></path><path d="M280.382642 942.511576c22.714543 12.918896 60.051574 6.388465 73.254402-19.449327 10.789408-21.294884 50.113961-30.522667 80.778594-13.202829 0.709829 0.425898 1.419659 0.851795 1.987523 1.277694-1.703591-1.419659-3.407181-2.697352-5.394704-3.83308-27.257452-17.177873-64.878414-11.215306-76.945515 7.098295-14.622487 22.14668-50.255927 25.837793-70.415084 13.060862-2.555386-1.561625-6.814363 0-7.240261 2.697352-0.567864 4.258977-0.567864 8.517954-0.283931 12.351033 1.419659-0.709829 2.981284-0.709829 4.258976 0z" fill="#9E869E" p-id="7320"></path><path d="M682.713989 326.80549l-18.029669-7.098295c-1.277693-0.567864-2.697352-0.283932-3.833079 0.425898l-16.042146 10.789408c-2.839318 1.987523-6.814363-0.283932-6.530431-3.691113l1.135727-19.307362c0.141966-1.419659-0.567864-2.697352-1.561625-3.549147l-15.332317-11.925135c-2.697352-2.129488-1.845557-6.530431 1.561625-7.382227l18.739498-4.82684c1.277693-0.283932 2.41342-1.277693 2.839318-2.697352l6.672397-18.171635c1.135727-3.265216 5.678636-3.691113 7.524193-0.851795l10.36351 16.326078c0.709829 1.135727 1.987523 1.845557 3.407181 1.987522l19.449328 0.70983c3.549147 0.141966 5.252738 4.258977 3.12325 6.814363l-12.351033 14.906418c-0.851795 1.135727-1.135727 2.555386-0.851796 3.83308l5.252739 18.597532c0.993761 3.407181-2.271454 6.388465-5.53667 5.110772z" fill="#F4EDD0" p-id="7321"></path><path d="M128.053237 451.877444L111.443228 440.094274c-1.135727-0.851795-2.697352-0.993761-4.117011-0.567863l-19.02343 6.956328c-3.407181 1.277693-6.814363-1.987523-5.678636-5.394704l6.104533-19.449327c0.425898-1.419659 0.141966-2.839318-0.709829-3.975045l-12.492999-16.042146c-2.271454-2.839318-0.283932-7.098295 3.407182-7.098295l20.301123-0.141966c1.419659 0 2.839318-0.709829 3.549147-1.987522l11.357272-16.893942c1.987523-2.981284 6.672397-2.41342 7.808124 0.993761l6.530431 19.307362c0.425898 1.419659 1.561625 2.41342 2.981284 2.839318l19.591293 5.53667c3.549147 0.993761 4.400943 5.53667 1.419659 7.808124l-16.326078 12.067101c-1.135727 0.851795-1.845557 2.271454-1.845556 3.691113l0.709829 20.301123c0.141966 3.691113-3.975045 5.962568-6.956329 3.83308zM649.210037 947.622349l-16.610009-11.78317c-1.135727-0.851795-2.697352-0.993761-4.117011-0.567863l-19.02343 6.956329c-3.407181 1.277693-6.814363-1.987523-5.678636-5.394704l6.104534-19.449328c0.425898-1.419659 0.141966-2.839318-0.70983-3.975045l-12.492999-16.042146c-2.271454-2.839318-0.283932-7.098295 3.407182-7.098295l20.301123-0.141966c1.419659 0 2.839318-0.709829 3.549147-1.987522l11.357272-16.893942c1.987523-2.981284 6.672397-2.41342 7.808124 0.993761l6.530431 19.307362c0.425898 1.419659 1.561625 2.41342 2.981284 2.839318l19.591293 5.53667c3.549147 0.993761 4.400943 5.53667 1.419659 7.808124l-16.326078 12.067101c-1.135727 0.851795-1.845557 2.271454-1.845556 3.691113l0.709829 20.301123c0.141966 3.691113-3.975045 5.962568-6.956329 3.83308zM430.866491 285.351449l-20.159157-47.416609c-1.419659-3.407181-4.400943-5.820602-8.092056-6.530431l-50.539859-10.221545c-9.085817-1.845557-12.067101-13.344794-5.110772-19.449327l38.898655-33.929849c2.839318-2.41342 4.117011-6.104533 3.83308-9.653681l-5.820602-51.249688c-0.993761-9.227783 8.943851-15.616248 16.893941-10.789408l44.29336 26.547622c3.12325 1.845557 7.098295 2.129488 10.36351 0.567864l46.990711-21.43685c8.375988-3.833079 17.603771 3.691113 15.474283 12.634964l-11.499238 50.255927c-0.851795 3.549147 0.141966 7.382227 2.697352 10.079579l34.92361 38.046859c6.246499 6.814363 1.987523 17.887703-7.24026 18.739499l-51.391654 4.542908c-3.691113 0.283932-6.956329 2.41342-8.801886 5.678636l-25.411895 44.861223c-4.82684 7.808124-16.751976 7.240261-20.301123-1.277693z" fill="#D8CCDB" p-id="7322"></path><path d="M727.007348 254.118952l-11.499238 0.425898c-0.851795 0-1.561625 0.425898-1.987522 1.135727l-6.2465 9.795646c-1.135727 1.703591-3.691113 1.419659-4.400942-0.425897l-3.975045-10.789408c-0.283932-0.709829-0.993761-1.419659-1.703591-1.561625l-11.215306-2.839318c-1.987523-0.567864-2.555386-3.12325-0.993761-4.400943l9.085817-7.098294c0.709829-0.567864 0.993761-1.277693 0.993761-2.129489l-0.709829-11.499237c-0.141966-2.129488 2.129488-3.407181 3.833079-2.271455l9.653681 6.388466c0.709829 0.425898 1.561625 0.567864 2.271454 0.283931l10.789408-4.258976c1.987523-0.709829 3.833079 0.993761 3.407182 2.981283l-3.12325 11.07334c-0.283932 0.851795 0 1.703591 0.425898 2.271454l7.382226 8.943852c1.135727 1.419659 0 3.833079-1.987522 3.975045z" fill="#F4EDD0" p-id="7323"></path><path d="M686.972965 705.1446c2.271454 5.678636 5.962568 2.41342-47.984472 23.424373-54.089006 21.010952-94.691252 40.176348-96.962706 34.497712-9.795647-24.418134 32.936088-37.904894 88.018855-56.218494 55.224733-18.171635 54.798835-7.382227 56.928323-1.703591z" fill="#A892A7" p-id="7324"></path><path d="M654.462776 829.932622c-6.104533-0.993761-5.110772 3.265216 3.265215-45.99695 8.375988-49.404131 11.783169-88.018855 17.745737-87.025094 25.837793 4.117011 16.61001 41.737973 5.394704 90.574241-11.215306 48.836268-20.443089 43.441564-26.405656 42.447803z" fill="#A892A7" p-id="7325"></path><path d="M719.199224 827.803133c-0.141966 6.104533 1.987523 4.542909-23.282407 3.833079-25.269929-0.567864-44.861223 2.129488-44.861223-4.117011 0.425898-26.263691 20.017191-22.998475 45.145155-19.449327 25.269929 3.833079 23.140441 13.628726 22.998475 19.733259z" fill="#A892A7" p-id="7326"></path><path d="M685.411341 701.453487s-2.981284 16.184112-15.048385 14.196589c12.351033 1.703591 20.017191-7.524192 15.048385-14.196589zM674.479967 806.366283s-20.443089 5.678636-20.585055 17.887703c0.283932-12.492999 14.764453-23.85027 20.585055-17.887703z" fill="#937C93" p-id="7327"></path><path d="M479.702759 893.817274c-9.795647-0.851795-6.530431 3.549147-12.918897-48.41037s-9.369749-76.377651 0.425898-75.525856c41.879939 3.549147 35.349508 27.115486 36.911133 78.649106 1.561625 51.53362-14.622487 46.138916-24.418134 45.28712z" fill="#A892A7" p-id="7328"></path><path d="M423.058367 949.183973c-6.814363-2.41342-6.956329 0.709829 16.893941-29.812838s38.756689-55.366699 45.713018-52.953278c29.528906 10.079579 7.95009 32.51019-19.165395 61.89713-27.257452 29.38694-36.485235 23.140441-43.441564 20.868986z" fill="#A892A7" p-id="7329"></path><path d="M498.016359 884.305559s-13.344794 3.691113-26.689588-5.678635c14.196589 12.067101 29.38694 14.054624 26.689588 5.678635z" fill="#937C93" p-id="7330"></path><path d="M130.608623 579.220851c-4.117011-31.516429-37.053099-50.681824-66.298073-38.188825-7.240261 3.12325-14.906419 7.95009-22.998475 15.19035-41.596007 37.195064-58.77388 133.873839 3.83308 153.749064 2.555386 0.851795 5.820602-2.555386 5.394704-5.394704-3.12325-23.708304 15.048385-54.514904 41.312075-58.489948 21.578816-3.265216 42.8737-34.92361 38.756689-66.865937z" fill="#A892A7" p-id="7331"></path><path d="M23.85027 701.169555c-2.271454-25.979759 19.449328-57.212256 48.410371-58.347983 23.85027-0.851795 48.836268-32.652156 45.854984-67.717732 0-0.851795-0.141966-1.561625-0.283932-2.41342 0.567864 2.129488 0.993761 4.258977 1.277693 6.530431 4.117011 31.942326-17.035907 63.600721-38.614724 66.865937-26.263691 3.975045-44.577291 34.781644-41.312075 58.489948 0.425898 2.981284-2.839318 6.246499-5.394704 5.394704-4.117011-1.277693-7.95009-2.981284-11.357272-4.968806 0.993761-0.993761 1.561625-2.41342 1.419659-3.833079z" fill="#9E869E" p-id="7332"></path><path d="M151.761542 540.606128c-3.265216 9.227783-5.962568 4.400943 38.472757 32.084292 44.577291 27.541384 65.446278 40.602246 68.711493 31.374463 14.338555-39.466519-9.795647-43.58353-55.792596-66.582005-46.138916-23.140441-48.126438-6.104533-51.391654 3.12325z" fill="#A892A7" p-id="7333"></path><path d="M77.79731 568.857341c-0.709829 7.240261-3.549147 5.962568 34.071815-2.839318s66.440039-12.067101 67.291834-19.307362c3.265216-31.090531-26.121725-20.868987-64.168584-8.517953-38.04686 12.351033-36.485235 23.424373-37.195065 30.664633z" fill="#A892A7" p-id="7334"></path><path d="M168.08762 527.971163s-8.943851 10.647442-6.104534 26.689588c-4.968806-18.029669-0.425898-32.652156 6.104534-26.689588z" fill="#937C93" p-id="7335"></path><path d="M786.491058 640.692084c1.419659 4.684875 4.542909 2.41342-38.04686 14.906419-42.447803 12.492999-74.674061 24.5601-76.09372 19.875225-6.104533-20.159157 27.257452-27.541384 70.415084-37.762928 43.157632-10.36351 42.305837-1.703591 43.725496 2.981284z" fill="#A892A7" p-id="7336"></path><path d="M760.653265 739.784278c-4.82684-0.851795-4.117011 2.697352 2.697352-36.911132s9.369749-70.55705 14.196589-69.847221c20.727021 3.265216 13.344794 33.503951 4.400943 72.544573-9.227783 39.324553-16.468044 35.065576-21.294884 34.21378z" fill="#A892A7" p-id="7337"></path><path d="M812.470817 738.080688c-0.141966 4.968806 1.561625 3.549147-18.739499 3.123249-20.301123-0.425898-36.059337 1.703591-35.917371-3.265215 0.425898-21.010952 16.042146-18.455566 36.201303-15.474283 20.301123 2.839318 18.597532 10.789408 18.455567 15.616249z" fill="#A892A7" p-id="7338"></path><path d="M785.355331 636.717039s-2.41342 12.918896-12.067101 11.357271c9.937613 1.419659 16.042146-5.962568 12.067101-11.357271zM776.695411 720.902814s-16.468044 4.542909-16.468044 14.338556c0.141966-9.937613 11.783169-19.165396 16.468044-14.338556z" fill="#937C93" p-id="7339"></path><path d="M841.431859 550.54374c1.419659 3.265216 3.549147 1.277693-27.541383 14.338556-30.948565 12.918896-54.372938 24.702066-55.650631 21.43685-5.962568-13.912658 18.597532-22.430611 50.255927-33.929849 31.658395-11.357272 31.516429-5.110772 32.936087-1.845557z" fill="#A892A7" p-id="7340"></path><path d="M822.976293 623.230279c-3.549147-0.567864-2.981284 1.845557 1.845556-26.689589 4.82684-28.677111 6.814363-51.107722 10.363511-50.539858 15.048385 2.41342 9.653681 24.276168 3.123249 52.527381-6.530431 28.393179-11.925135 25.269929-15.332316 24.702066z" fill="#A892A7" p-id="7341"></path><path d="M860.455289 621.952586c-0.141966 3.549147 1.135727 2.555386-13.48676 2.271454s-26.121725 1.135727-25.979759-2.41342c0.283932-15.190351 11.641203-13.344794 26.263691-11.215306 14.480521 2.129488 13.344794 7.808124 13.202828 11.357272z" fill="#A892A7" p-id="7342"></path><path d="M840.863996 548.698184s-1.703591 9.369749-8.801886 8.234022c7.240261 0.993761 11.641203-4.400943 8.801886-8.234022zM834.47553 609.601553s-11.925135 3.265216-11.925135 10.36351c0.283932-7.240261 8.65992-13.912658 11.925135-10.36351z" fill="#937C93" p-id="7343"></path><path d="M467.067794 739.926244c-6.956329 68.001664-98.098433 104.202967-203.721059 93.413559-105.622626-10.647442-165.532233-61.89713-158.71787-129.898794 6.956329-68.001664 86.599196-134.8676 192.221821-124.220158 105.622626 10.789408 177.031471 92.703729 170.217108 160.705393z" fill="#C1AABF" p-id="7344"></path><path d="M194.635242 630.896437m-47.132677 0a47.132677 47.132677 0 1 0 94.265354 0 47.132677 47.132677 0 1 0-94.265354 0Z" fill="#F4F4F4" p-id="7345"></path><path d="M300.825731 673.202274m-47.132677 0a47.132677 47.132677 0 1 0 94.265354 0 47.132677 47.132677 0 1 0-94.265354 0Z" fill="#F4F4F4" p-id="7346"></path><path d="M288.900596 675.615694m-20.727021 0a20.727021 20.727021 0 1 0 41.454042 0 20.727021 20.727021 0 1 0-41.454042 0Z" fill="#686868" p-id="7347"></path><path d="M184.129766 646.086788m-20.727021 0a20.727021 20.727021 0 1 0 41.454041 0 20.727021 20.727021 0 1 0-41.454041 0Z" fill="#686868" p-id="7348"></path></svg>