<?xml version="1.0" standalone="no"?><!DOCTYPE svg PUBLIC "-//W3C//DTD SVG 1.1//EN" "http://www.w3.org/Graphics/SVG/1.1/DTD/svg11.dtd"><svg t="1602475078475" class="icon" viewBox="0 0 1024 1024" version="1.1" xmlns="http://www.w3.org/2000/svg" p-id="7717" xmlns:xlink="http://www.w3.org/1999/xlink" width="200" height="200"><defs><style type="text/css"></style></defs><path d="M512.639024 512.213008m-511.786992 0a511.786992 511.786992 0 1 0 1023.573984 0 511.786992 511.786992 0 1 0-1023.573984 0Z" fill="#F4E6E4" p-id="7718"></path><path d="M906.703647 323.203994c0.142005 0 0.142005 0 0.284011 0.142005-0.142005-0.142005-0.284011-0.142005-0.284011-0.142005zM147.969491 812.980169v-0.28401 0.28401zM905.70961 322.777978c0.142005 0 0.142005 0.142005 0.284011 0.142005-0.142005-0.142005-0.142005-0.142005-0.284011-0.142005zM909.401747 324.482041c0.142005 0 0.142005 0 0.284011 0.142006-0.142005-0.142005-0.142005-0.142005-0.284011-0.142006zM908.549716 324.056026c0.142005 0 0.142005 0.142005 0.28401 0.142005-0.142005 0-0.142005-0.142005-0.28401-0.142005zM904.857579 322.351962s0.142005 0 0.142005 0.142006c0-0.142005-0.142005-0.142005-0.142005-0.142006zM147.969491 811.986132v-0.28401 0.28401zM147.827486 808.720011v-0.28401 0.28401zM147.969491 810.85009v-0.28401 0.28401zM147.969491 809.856053v-0.28401 0.28401zM907.697684 323.63001s0.142005 0 0.142005 0.142005c0 0-0.142005 0-0.142005-0.142005zM916.360006 326.044099h0zM919.058106 325.476078s0.142005 0 0.142005-0.142005c0 0 0 0.142005-0.142005 0.142005zM918.490085 325.618083h0zM917.922064 325.902094zM910.537789 324.766052h0.142006c0 0.142005-0.142005 0.142005-0.142006 0zM915.649979 326.044099s0.142005 0 0 0c0.142005 0 0 0 0 0zM914.797948 325.902094h0zM911.389821 325.050062c0.142005 0 0.142005 0 0.284011 0.142006-0.142005 0-0.284011 0-0.284011-0.142006zM912.241853 325.334073h0.142005c0 0.142005-0.142005 0-0.142005 0zM913.945916 325.760089h0.284011-0.284011zM917.070032 326.044099h0.142005c0-0.142005 0-0.142005-0.142005 0zM141.295243 824.05658h0.284011-0.284011zM64.612398 888.242962l-0.426016-0.852031c0.142005 0.142005 0.284011 0.568021 0.426016 0.852031zM140.443212 824.05658h0.28401-0.28401zM143.425322 823.630564s0.142005 0 0.142006-0.142005c0 0.142005 0 0.142005-0.142006 0.142005zM142.857301 823.914575h0.142006c0-0.142005-0.142005 0-0.142006 0zM142.147275 824.05658zM66.884482 893.213147c-0.284011-0.426016-0.426016-0.852032-0.710026-1.278048 0.284011 0.426016 0.568021 0.852032 0.710026 1.278048zM65.322424 890.089031c-0.142005-0.426016-0.284011-0.710026-0.568021-1.136043 0.284011 0.284011 0.426016 0.710026 0.568021 1.136043zM67.736514 894.633199c-0.284011-0.426016-0.568021-0.852032-0.852032-1.420052 0.426016 0.568021 0.568021 0.994037 0.852032 1.420052zM66.174456 891.651089c-0.142005-0.426016-0.426016-0.852032-0.568021-1.278048 0.142005 0.426016 0.284011 0.852032 0.568021 1.278048zM145.129386 822.494522s0.142005-0.142005 0 0c0.142005-0.142005 0 0 0 0zM147.259465 818.518375v-0.284011 0.284011zM147.543475 816.672306v-0.28401 0.28401zM146.975454 819.228401v-0.142005 0.142005zM147.827486 814.968243v-0.142005 0.142005zM147.685481 815.820275v-0.284011 0.284011zM147.827486 813.832201v-0.284011 0.284011zM145.981417 821.35848s0-0.142005 0.142006-0.142005c0 0 0 0.142005-0.142006 0.142005zM145.555401 821.926501c0.142005 0 0.142005 0 0 0 0.142005 0 0.142005 0 0 0zM146.691444 820.080433c0-0.142005 0-0.142005 0 0 0-0.142005 0-0.142005 0 0zM146.407433 820.790459s0-0.142005 0.142005-0.142005c-0.142005 0-0.142005 0-0.142005 0.142005zM144.70337 822.920538zM147.40147 817.524338v0zM904.715573 322.209957c-3.976148-1.988074-7.526279-4.544169-11.076411-7.242269-1.562058-1.278047-3.266121-2.556095-4.828179-3.834142 3.124116 2.41409 5.964221 4.686174 8.804327 6.958258 2.272084 1.420053 4.686174 2.840105 7.100263 4.118153zM1015.621689 284.010539l0.852032 1.278048-0.852032-1.278048zM144.135349 823.346554zM922.040216 322.209957c0-0.142005 0-0.142005 0.142006-0.284011-0.142005 0.142005-0.142005 0.284011-0.142006 0.284011zM1011.219526 278.89835c0.284011 0.284011 0.426016 0.426016 0.568021 0.710026-0.142005-0.142005-0.284011-0.426016-0.568021-0.710026zM1012.497573 280.176397l0.852032 0.852032c-0.426016-0.284011-0.568021-0.568021-0.852032-0.852032zM144.419359 789.265289c0.568021 2.130079 0.994037 4.118153 1.420053 6.106227 0.994037 4.260158 1.704063 8.662321 1.988074 13.064485-0.142005-2.840105-0.426016-5.538206-0.710027-8.094301-0.994037-3.550132-1.846069-7.242269-2.6981-11.076411zM1013.49161 281.454445c0.284011 0.284011 0.568021 0.710026 0.852032 1.136042-0.142005-0.426016-0.426016-0.852032-0.852032-1.136042zM143.141312 784.153099c-0.426016-1.988074-0.994037-3.976148-1.420053-5.964221-32.661212-143.709333-14.910553-286.566634 49.985855-396.904729C126.810706 491.622244 109.060047 634.479545 141.721259 778.188878c0.426016 1.988074 0.852032 3.976148 1.420053 5.964221 0.142005 0.284011 0.142005 0.568021 0.142005 0.852032 0.284011 1.278047 0.568021 2.41409 0.852032 3.550132-0.284011-1.136042-0.568021-2.41409-0.852032-3.550132 0-0.284011-0.142005-0.568021-0.142005-0.852032zM1014.627652 282.732492c0.284011 0.426016 0.568021 0.852032 0.852032 1.136042-0.284011-0.284011-0.568021-0.710026-0.852032-1.136042zM921.614201 322.919983s0-0.142005 0.142005-0.142005c0 0 0 0.142005-0.142005 0.142005zM884.550825 307.867425c0.284011 0.142005 0.426016 0.426016 0.710026 0.568021 0.994037 0.710026 1.846069 1.562058 2.840106 2.272084-0.994037-0.710026-1.846069-1.420053-2.840106-2.272084-0.142005-0.284011-0.426016-0.426016-0.710026-0.568021-1.562058-1.278047-3.266121-2.556095-4.828179-3.692137-72.138677-55.098045-151.945639-92.729441-232.462627-110.338095 80.516988 17.608653 160.32395 55.24005 232.462627 110.338095 1.704063 1.136042 3.266121 2.41409 4.828179 3.692137zM1018.177784 287.986687c-0.568021-0.852032-0.994037-1.704063-1.704063-2.6981 0.568021 0.852032 1.136042 1.704063 1.704063 2.6981z" fill="#F2EADA" p-id="7719"></path><path d="M955.269449 275.916239c-25.276938 16.614617-25.560949 37.489391-29.679101 50.411871-2.982111 9.372348-15.478574 2.840105-23.856885-1.988074-3.692137-2.840105-7.668285-5.680211-11.786438-8.804327-0.284011-0.142005-0.426016-0.284011-0.710026-0.426015-1.562058-1.136042-3.124116-2.272084-4.544169-3.266122-165.294134-119.142421-377.876023-139.875191-542.46013-35.217307-0.284011 0.142005-0.710026 0.426016-0.994037 0.568022-0.284011 0.142005-0.710026 0.426016-0.994037 0.568021-163.732076 106.077936-233.172653 308.151435-193.553182 507.952849 0.426016 1.846069 0.710026 3.692137 1.136042 5.538206 0 0.284011 0.142005 0.568021 0.142005 0.852032 0.994037 4.970184 2.130079 9.798364 3.124116 14.342532 0.852032 9.656358 1.562058 23.856885-8.0943 22.578838-13.348495-1.704063-32.519207-10.082374-58.080156 5.964221-17.182638 10.7924-24.282901 36.069339-18.318679 54.956039 0.852032 2.6981 1.846069 5.11219 3.124115 7.242269l-1.704063-2.556095c7.384274 12.070448 19.596727 18.31868 31.809181 20.874775 14.910553 3.266121 37.631396 0.426016 49.843849-10.224379 12.212453-10.650395 29.395091-17.750659 35.075302-54.95604s-10.7924-262.567744 107.782-388.952434c15.336569-16.472611 24.708917-26.981001 29.253085-32.803217 2.6981-3.408126 5.538206-6.674248 8.804327-9.514353 20.732769-18.886701 43.311607-36.211344 67.594508-51.973929l1.278048-0.852031c24.424906-15.62058 49.701844-28.82707 75.404798-39.903481 3.976148-1.704063 8.0943-3.124116 12.354458-3.976148 7.242269-1.704063 20.590764-5.680211 42.03356-12.922479 164.300097-55.24005 362.397448 53.393981 398.608792 63.760366 36.211344 10.224379 49.84385-2.41409 64.612398-9.088337 14.768548-6.674248 26.838996-26.12897 30.105117-41.039523 2.41409-11.360422 2.272084-23.856885-4.118153-34.933297-1.562058-1.988074-3.266121-3.976148-5.3962-5.964221-14.910553-13.348495-40.897518-17.466648-57.796145-6.248232zM920.762169 324.198031s0.142005 0 0 0c0.142005 0 0 0 0 0z" fill="#F2EADA" p-id="7720"></path><path d="M1010.083484 277.762308c-7.384274-6.958258-17.040632-11.786437-27.123007-13.774512 10.082374 2.130079 19.738732 6.958258 27.123007 13.774512zM913.377895 325.618083c-0.142005 0-0.142005 0 0 0-0.142005 0-0.142005 0 0 0zM920.336153 324.624047zM71.712661 835.701012c-10.650395 12.92248-13.632506 33.655249-8.0943 49.985855 0 0.142005 0 0.142005 0.142005 0.284011 0-0.142005 0-0.142005-0.142005-0.284011-5.538206-16.472611-2.556095-37.063375 8.0943-49.985855zM919.910137 325.050062s-0.142005 0 0 0c-0.142005 0 0 0 0 0zM921.33019 323.488004z" fill="#F2EADA" p-id="7721"></path><path d="M320.93191 245.527111c0.284011-0.284011 0.710026-0.426016 0.994036-0.568021 96.421578-61.346277 211.587852-76.25683 325.476079-51.263902-113.888226-24.992927-228.912495-10.082374-325.476079 51.263902-0.426016 0.142005-0.710026 0.426016-0.994036 0.568021-0.284011 0.142005-0.710026 0.426016-0.994037 0.568021-53.677992 34.791291-96.563583 81.085009-128.230759 135.047012 31.667175-53.962002 74.552767-100.113715 128.230759-135.047012 0.284011-0.142005 0.710026-0.284011 0.994037-0.568021zM147.259465 818.234364c0-0.142005 0.142005-0.426016 0.142005-0.568021 0 0.142005-0.142005 0.426016-0.142005 0.568021zM146.691444 819.938427c0.142005-0.284011 0.142005-0.426016 0.28401-0.710026 0 0.284011-0.142005 0.426016-0.28401 0.710026zM145.271391 822.352517l0.426016-0.426016-0.426016 0.426016zM145.697407 821.926501c0.142005-0.142005 0.284011-0.284011 0.426016-0.568021-0.142005 0.142005-0.284011 0.426016-0.426016 0.568021zM146.407433 820.506448c0.142005-0.142005 0.142005-0.284011 0.284011-0.568021-0.142005 0.284011-0.142005 0.426016-0.284011 0.568021zM146.123423 821.216475c0.142005-0.142005 0.142005-0.284011 0.28401-0.426016-0.142005 0.142005-0.142005 0.284011-0.28401 0.426016zM913.23589 325.618083c-0.284011 0-0.568021-0.142005-0.852032-0.142005 0.284011 0 0.568021 0.142005 0.852032 0.142005zM147.117459 819.086396c0-0.142005 0.142005-0.284011 0.142006-0.568021-0.142005 0.142005-0.142005 0.284011-0.142006 0.568021zM904.857579 322.351962s0-0.142005 0 0c-0.142005-0.142005-0.142005-0.142005 0 0 0-0.142005 0 0 0 0zM147.827486 808.436001c0 0.142005 0 0 0 0zM65.464429 890.373041c0-0.142005-0.142005-0.284011-0.142005-0.426016 0.142005 0.142005 0.142005 0.284011 0.142005 0.426016zM64.186382 887.248925c-0.142005-0.426016-0.284011-0.994037-0.568021-1.420052 0.284011 0.568021 0.426016 0.994037 0.568021 1.420052zM64.896408 888.810983c-0.142005-0.284011-0.142005-0.426016-0.28401-0.710026 0 0.284011 0.142005 0.568021 0.28401 0.710026zM144.845375 822.778533c0.142005-0.142005 0.284011-0.142005 0.284011-0.284011l-0.284011 0.284011zM66.174456 891.935099s0-0.142005-0.142006-0.142005c0.142005 0 0.142005 0 0.142006 0.142005zM67.736514 894.633199zM1018.177784 287.986687zM67.026487 893.355152c0-0.142005 0-0.142005 0 0 0-0.142005 0-0.142005 0 0zM919.910137 325.050062c0.142005-0.142005 0.284011-0.284011 0.426016-0.28401-0.142005 0-0.284011 0.142005-0.426016 0.28401zM147.543475 816.672306c0 0.284011-0.142005 0.568021-0.142005 0.852032 0.142005-0.284011 0.142005-0.568021 0.142005-0.852032zM919.768132 325.050062c-0.142005 0.142005-0.284011 0.284011-0.568021 0.284011 0.284011 0 0.426016-0.142005 0.568021-0.284011zM142.999307 823.77257c0.142005 0 0.284011-0.142005 0.426015-0.142006-0.142005 0.142005-0.284011 0.142005-0.426015 0.142006zM143.567328 823.630564c0.142005-0.142005 0.284011-0.142005 0.568021-0.28401-0.142005 0-0.284011 0.142005-0.568021 0.28401zM141.437249 824.05658h0.710026-0.710026zM142.147275 824.05658c0.284011 0 0.426016-0.142005 0.710026-0.142005-0.284011 0-0.426016 0-0.710026 0.142005zM144.70337 822.920538c-0.142005 0.142005-0.284011 0.284011-0.568021 0.426016 0.142005-0.142005 0.426016-0.284011 0.568021-0.426016zM140.727222 824.05658h0.568021-0.568021zM139.59118 823.914575c0.284011 0 0.568021 0.142005 0.852032 0.142005-0.284011 0-0.568021 0-0.852032-0.142005-13.774511-2.272084-33.797254-12.070448-59.358203 4.118153-3.266121 1.988074-6.106227 4.686174-8.520316 7.668284 2.41409-2.982111 5.254195-5.538206 8.520316-7.668284 25.560949-16.046595 45.583692-6.390237 59.358203-4.118153zM921.756206 322.777978c0.142005-0.142005 0.142005-0.284011 0.28401-0.568021-0.142005 0.142005-0.142005 0.426016-0.28401 0.568021zM921.33019 323.488004c0.142005-0.142005 0.284011-0.426016 0.284011-0.568021 0 0.284011-0.142005 0.426016-0.284011 0.568021zM914.229927 325.902094c0.142005 0 0.426016 0 0.568021 0.142005-0.284011-0.142005-0.426016-0.142005-0.568021-0.142005zM911.531826 325.192068c0.142005 0 0.426016 0.142005 0.568021 0.142005-0.142005 0-0.284011-0.142005-0.568021-0.142005zM913.377895 325.618083c0.284011 0 0.426016 0.142005 0.568021 0.142006-0.142005 0-0.426016 0-0.568021-0.142006zM909.685758 324.482041c0.284011 0.142005 0.568021 0.142005 0.852031 0.284011-0.284011 0-0.568021-0.142005-0.852031-0.284011zM910.679795 324.908057c0.284011 0.142005 0.426016 0.142005 0.710026 0.284011-0.284011-0.142005-0.568021-0.284011-0.710026-0.284011zM908.833726 324.198031c0.142005 0.142005 0.426016 0.142005 0.568021 0.28401-0.142005-0.142005-0.426016-0.284011-0.568021-0.28401zM1010.083484 277.762308c0.426016 0.426016 0.852032 0.710026 1.136042 1.136042l-1.136042-1.136042zM1011.929552 279.608376l0.568021 0.568021c-0.284011-0.142005-0.426016-0.426016-0.568021-0.568021zM914.939953 325.902094h0.710026c-0.142005 0.142005-0.426016 0.142005-0.710026 0zM920.478158 324.624047l0.284011-0.284011c-0.142005 0-0.142005 0.142005-0.284011 0.284011zM917.922064 325.902094c0.142005 0 0.426016-0.142005 0.568021-0.142005-0.142005 0-0.284011 0-0.568021 0.142005zM918.63209 325.618083c0.142005 0 0.284011-0.142005 0.426016-0.142005-0.142005 0-0.284011 0.142005-0.426016 0.142005zM917.212037 325.902094c0.284011 0 0.426016 0 0.568021-0.142005-0.142005 0.142005-0.284011 0.142005-0.568021 0.142005zM915.791984 326.044099h0.568022-0.568022zM920.904174 324.056026c0.142005-0.142005 0.284011-0.284011 0.426016-0.568022-0.142005 0.284011-0.284011 0.426016-0.426016 0.568022zM916.644016 326.044099h0.568021-0.568021zM1015.479684 283.868534c0 0.142005 0 0.142005 0 0 0 0.142005 0 0.142005 0 0zM147.685481 816.530301c0-0.142005 0-0.426016 0.142005-0.568021-0.142005 0.142005-0.142005 0.284011-0.142005 0.568021zM147.969491 812.696159v-0.710027 0.710027zM1016.473721 285.288587zM147.969491 810.56608v-0.710027 0.710027zM147.969491 811.702122v-0.852032 0.852032zM147.685481 815.536264v-0.710026c0.142005 0.284011 0.142005 0.568021 0 0.710026zM950.725281 268.957981c9.088337-5.964221 20.874775-7.242269 32.235196-4.828179-11.360422-2.41409-23.146859-1.136042-32.235196 4.828179-25.276938 16.614617-24.708917 38.767439-28.401054 52.257939-0.142005 0.284011-0.142005 0.568021-0.284011 0.852032 0.142005-0.284011 0.142005-0.568021 0.284011-0.852032 3.550132-13.490501 3.124116-35.785328 28.401054-52.257939zM147.827486 813.54819v-0.710026c0.142005 0.284011 0.142005 0.568021 0 0.710026zM147.827486 814.684232v-0.852031 0.852031zM1013.2076 281.170434c0.142005 0.142005 0.142005 0.284011 0.28401 0.284011 0-0.142005-0.142005-0.284011-0.28401-0.284011zM907.839689 323.772015c0.284011 0.142005 0.426016 0.142005 0.710027 0.284011-0.284011-0.142005-0.426016-0.142005-0.710027-0.284011zM905.993621 322.919983c0.284011 0.142005 0.426016 0.284011 0.710026 0.284011-0.284011-0.142005-0.426016-0.284011-0.710026-0.284011zM906.845652 323.345999l0.852032 0.426016-0.852032-0.426016zM904.999584 322.351962c0.284011 0.142005 0.426016 0.284011 0.710026 0.284011-0.142005 0-0.426016-0.142005-0.710026-0.284011zM888.100957 310.565525c0.284011 0.142005 0.426016 0.426016 0.710026 0.568021-0.142005-0.142005-0.426016-0.284011-0.710026-0.568021zM144.419359 789.265289c0-0.284011-0.142005-0.426016-0.142005-0.710026 0 0.284011 0 0.426016 0.142005 0.710026zM147.969491 809.430037v-0.710026c-0.142005 0.284011-0.142005 0.568021 0 0.710026zM1014.485647 282.590487l0.142005 0.142005-0.142005-0.142005z" fill="#E2D0B5" p-id="7722"></path><path d="M1016.473721 285.288587l-0.852032-1.278048v-0.142005c-0.284011-0.426016-0.568021-0.852032-0.852032-1.136042l-0.142005-0.142005c-0.284011-0.426016-0.568021-0.710026-0.852031-1.136042-0.142005-0.142005-0.142005-0.284011-0.284011-0.284011l-0.852032-0.852032-0.568021-0.568021c-0.142005-0.284011-0.426016-0.426016-0.568021-0.710026l-1.136042-1.136042c-7.242269-6.816253-17.040632-11.644432-27.123006-13.774511-11.360422-2.272084-23.146859-0.994037-32.235197 4.828179-25.276938 16.614617-24.708917 38.767439-28.401054 52.257939-0.142005 0.284011-0.142005 0.568021-0.28401 0.852032 0 0.142005 0 0.142005-0.142005 0.28401 0 0.142005-0.142005 0.284011-0.284011 0.568021 0 0 0 0.142005-0.142005 0.142006-0.142005 0.142005-0.284011 0.426016-0.284011 0.568021-0.142005 0.142005-0.284011 0.426016-0.426016 0.568021l-0.142005 0.142005-0.28401 0.284011-0.142006 0.142005c-0.142005 0.142005-0.284011 0.284011-0.426015 0.28401-0.142005 0.142005-0.284011 0.284011-0.568022 0.284011 0 0-0.142005 0-0.142005 0.142005-0.142005 0-0.284011 0.142005-0.426016 0.142005h-0.142005c-0.142005 0-0.284011 0.142005-0.568021 0.142006h-0.142005c-0.142005 0-0.426016 0.142005-0.568021 0.142005h-0.710027-0.710026-0.852032-0.142005c-0.142005 0-0.426016 0-0.568021-0.142005h-0.28401c-0.142005 0-0.426016-0.142005-0.568022-0.142006h-0.142005c-0.284011 0-0.568021-0.142005-0.852031-0.142005h-0.142006c-0.142005 0-0.426016-0.142005-0.568021-0.142005-0.142005 0-0.142005 0-0.28401-0.142005-0.284011-0.142005-0.426016-0.142005-0.710027-0.284011h-0.142005c-0.284011-0.142005-0.568021-0.142005-0.852032-0.28401-0.142005 0-0.142005 0-0.28401-0.142006s-0.426016-0.142005-0.568021-0.28401c-0.142005 0-0.142005-0.142005-0.284011-0.142005-0.284011-0.142005-0.426016-0.142005-0.710026-0.284011 0 0-0.142005 0-0.142005-0.142005l-0.852032-0.426016c-0.142005 0-0.142005 0-0.284011-0.142005-0.284011-0.142005-0.426016-0.142005-0.710026-0.284011-0.142005 0-0.142005-0.142005-0.28401-0.142005-0.284011-0.142005-0.426016-0.284011-0.710027-0.284011 0 0-0.142005 0-0.142005-0.142005-2.41409-1.278047-4.828179-2.6981-7.100264-4.118153-2.840105-2.272084-5.822216-4.544169-8.804326-6.958258-0.284011-0.142005-0.426016-0.426016-0.710027-0.568021-0.994037-0.710026-1.846069-1.420053-2.840105-2.272084-0.284011-0.142005-0.426016-0.426016-0.710026-0.568022-1.562058-1.278047-3.266121-2.556095-4.82818-3.692137-72.138677-55.098045-151.945639-92.729441-232.462626-110.338094-113.888226-24.992927-228.912495-10.082374-325.476078 51.263902-0.284011 0.142005-0.710026 0.426016-0.994037 0.568021-0.284011 0.142005-0.710026 0.426016-0.994037 0.568021-53.677992 34.791291-96.563583 81.085009-128.230759 135.047012C126.810706 491.622244 109.060047 634.479545 141.721259 778.188878c0.426016 1.988074 0.852032 3.976148 1.420053 5.964221 0.142005 0.284011 0.142005 0.568021 0.142005 0.852032 0.284011 1.278047 0.568021 2.41409 0.852032 3.550132 0 0.284011 0.142005 0.426016 0.142005 0.710026 0.852032 3.834142 1.846069 7.526279 2.6981 11.076411 0.284011 2.556095 0.568021 5.3962 0.710027 8.094301v7.384274c0 0.142005 0 0.426016-0.142006 0.568021v0.28401c0 0.284011-0.142005 0.568021-0.142005 0.852032v0.142005c0 0.142005-0.142005 0.426016-0.142005 0.568021v0.284011c0 0.142005-0.142005 0.426016-0.142006 0.568021v0.142005c-0.142005 0.284011-0.142005 0.426016-0.28401 0.710026v0.142006c-0.142005 0.142005-0.142005 0.426016-0.284011 0.568021 0 0 0 0.142005-0.142005 0.142005-0.142005 0.142005-0.142005 0.284011-0.28401 0.426016 0 0 0 0.142005-0.142006 0.142005-0.142005 0.142005-0.284011 0.426016-0.426016 0.568021l-0.426015 0.426016-0.142006 0.142005c-0.142005 0.142005-0.284011 0.142005-0.28401 0.284011l-0.142005 0.142005c-0.142005 0.142005-0.284011 0.284011-0.568021 0.426016-0.142005 0.142005-0.284011 0.142005-0.568022 0.28401 0 0-0.142005 0-0.142005 0.142006-0.142005 0-0.284011 0.142005-0.426016 0.142005h-0.142005c-0.142005 0-0.426016 0.142005-0.710026 0.142005h-1.846069c-0.284011 0-0.568021 0-0.852031-0.142005-13.774511-2.272084-33.797254-12.070448-59.358203 4.118153-3.266121 1.988074-6.106227 4.686174-8.520316 7.668284-10.650395 12.92248-13.632506 33.655249-8.094301 49.985855 0 0.142005 0 0.142005 0.142006 0.284011 0.142005 0.426016 0.284011 0.994037 0.568021 1.420053l0.426015 0.852031c0.142005 0.284011 0.142005 0.426016 0.284011 0.710026 0.142005 0.426016 0.284011 0.710026 0.568021 1.136043 0 0.142005 0.142005 0.284011 0.142005 0.426015 0.142005 0.426016 0.426016 0.852032 0.568021 1.278048 0 0 0 0.142005 0.142006 0.142005 0.284011 0.426016 0.426016 0.852032 0.710026 1.278048v0.142005c0.284011 0.426016 0.568021 0.852032 0.852032 1.420053l1.704063 2.556094c-1.278047-2.272084-2.272084-4.686174-3.124116-7.242268-5.964221-18.744696 1.136042-44.021634 18.31868-54.95604 25.560949-16.046595 44.73166-7.668285 58.080155-5.964221 9.798364 1.278047 8.946332-12.92248 8.0943-22.578838-0.994037-4.544169-1.988074-9.230343-3.124115-14.342532 0-0.284011-0.142005-0.568021-0.142006-0.852032-0.426016-1.846069-0.710026-3.692137-1.136042-5.538205-39.61947-199.94342 29.963112-401.874913 193.553183-507.95285 0.284011-0.284011 0.710026-0.426016 0.994037-0.568021 0.284011-0.284011 0.710026-0.426016 0.994037-0.568021 164.584108-104.657884 377.165996-83.925114 542.46013 35.217307 1.562058 1.136042 3.124116 2.272084 4.544168 3.266121 0.284011 0.142005 0.426016 0.284011 0.710027 0.426016 4.118153 2.982111 7.952295 5.964221 11.786437 8.804326 8.520316 4.828179 21.01678 11.360422 23.856886 1.988074 3.976148-12.92248 4.402163-33.797254 29.679101-50.411871 17.040632-11.218416 42.885591-7.100263 57.512134 6.106227 2.130079 1.846069 3.834142 3.834142 5.3962 5.964221-0.284011-1.136042-0.852032-1.988074-1.420052-2.840105z" fill="#E2D0B5" p-id="7723"></path><path d="M1016.473721 285.288587l-0.852032-1.278048v-0.142005c-0.284011-0.426016-0.568021-0.852032-0.852032-1.136042l-0.142005-0.142005c-0.284011-0.426016-0.568021-0.710026-0.852031-1.136042-0.142005-0.142005-0.142005-0.284011-0.284011-0.284011l-0.852032-0.852032-0.568021-0.568021c-0.142005-0.284011-0.426016-0.426016-0.568021-0.710026l-1.136042-1.136042c-7.242269-6.816253-17.040632-11.644432-27.123006-13.774511-11.360422-2.272084-23.146859-0.994037-32.235197 4.828179-25.276938 16.614617-24.708917 38.767439-28.401054 52.257939-0.142005 0.284011-0.142005 0.568021-0.28401 0.852032 0 0.142005 0 0.142005-0.142005 0.28401 0 0.142005-0.142005 0.284011-0.284011 0.568021 0 0 0 0.142005-0.142005 0.142006-0.142005 0.142005-0.284011 0.426016-0.284011 0.568021-0.142005 0.142005-0.284011 0.426016-0.426016 0.568021l-0.142005 0.142005-0.28401 0.284011-0.142006 0.142005c-0.142005 0.142005-0.284011 0.284011-0.426015 0.28401-0.142005 0.142005-0.284011 0.284011-0.568022 0.284011 0 0-0.142005 0-0.142005 0.142005-0.142005 0-0.284011 0.142005-0.426016 0.142005h-0.142005c-0.142005 0-0.284011 0.142005-0.568021 0.142006h-0.142005c-0.142005 0-0.426016 0.142005-0.568021 0.142005h-0.710027-0.710026-0.852032-0.142005c-0.142005 0-0.426016 0-0.568021-0.142005h-0.28401c-0.142005 0-0.426016-0.142005-0.568022-0.142006h-0.142005c-0.284011 0-0.568021-0.142005-0.852031-0.142005h-0.142006c-0.142005 0-0.426016-0.142005-0.568021-0.142005-0.142005 0-0.142005 0-0.28401-0.142005-0.284011-0.142005-0.426016-0.142005-0.710027-0.284011h-0.142005c-0.284011-0.142005-0.568021-0.142005-0.852032-0.28401-0.142005 0-0.142005 0-0.28401-0.142006s-0.426016-0.142005-0.568021-0.28401c-0.142005 0-0.142005-0.142005-0.284011-0.142005-0.284011-0.142005-0.426016-0.142005-0.710026-0.284011 0 0-0.142005 0-0.142005-0.142005l-0.852032-0.426016c-0.142005 0-0.142005 0-0.284011-0.142005-0.284011-0.142005-0.426016-0.142005-0.710026-0.284011-0.142005 0-0.142005-0.142005-0.28401-0.142005-0.284011-0.142005-0.426016-0.284011-0.710027-0.284011 0 0-0.142005 0-0.142005-0.142005-2.41409-1.278047-4.828179-2.6981-7.100264-4.118153-2.840105-2.272084-5.822216-4.544169-8.804326-6.958258-0.284011-0.142005-0.426016-0.426016-0.710027-0.568021-0.994037-0.710026-1.846069-1.420053-2.840105-2.272084-0.284011-0.142005-0.426016-0.426016-0.710026-0.568022-1.562058-1.278047-3.266121-2.556095-4.82818-3.692137-72.138677-55.098045-151.945639-92.729441-232.462626-110.338094-113.888226-24.992927-228.912495-10.082374-325.476078 51.263902-0.284011 0.142005-0.710026 0.426016-0.994037 0.568021-0.284011 0.142005-0.710026 0.426016-0.994037 0.568021-53.677992 34.791291-96.563583 81.085009-128.230759 135.047012C126.810706 491.622244 109.060047 634.479545 141.721259 778.188878c0.426016 1.988074 0.852032 3.976148 1.420053 5.964221 0.142005 0.284011 0.142005 0.568021 0.142005 0.852032 0.284011 1.278047 0.568021 2.41409 0.852032 3.550132 0 0.284011 0.142005 0.426016 0.142005 0.710026 0.852032 3.834142 1.846069 7.526279 2.6981 11.076411 0.284011 2.556095 0.568021 5.3962 0.710027 8.094301v7.384274c0 0.142005 0 0.426016-0.142006 0.568021v0.28401c0 0.284011-0.142005 0.568021-0.142005 0.852032v0.142005c0 0.142005-0.142005 0.426016-0.142005 0.568021v0.284011c0 0.142005-0.142005 0.426016-0.142006 0.568021v0.142005c-0.142005 0.284011-0.142005 0.426016-0.28401 0.710026v0.142006c-0.142005 0.142005-0.142005 0.426016-0.284011 0.568021 0 0 0 0.142005-0.142005 0.142005-0.142005 0.142005-0.142005 0.284011-0.28401 0.426016 0 0 0 0.142005-0.142006 0.142005-0.142005 0.142005-0.284011 0.426016-0.426016 0.568021l-0.426015 0.426016-0.142006 0.142005c-0.142005 0.142005-0.284011 0.142005-0.28401 0.284011l-0.142005 0.142005c-0.142005 0.142005-0.284011 0.284011-0.568021 0.426016-0.142005 0.142005-0.284011 0.142005-0.568022 0.28401 0 0-0.142005 0-0.142005 0.142006-0.142005 0-0.284011 0.142005-0.426016 0.142005h-0.142005c-0.142005 0-0.426016 0.142005-0.710026 0.142005h-1.846069c-0.284011 0-0.568021 0-0.852031-0.142005-13.774511-2.272084-33.797254-12.070448-59.358203 4.118153-3.266121 1.988074-6.106227 4.686174-8.520316 7.668284-10.650395 12.92248-13.632506 33.655249-8.094301 49.985855 0 0.142005 0 0.142005 0.142006 0.284011 0.142005 0.426016 0.284011 0.994037 0.568021 1.420053l0.426015 0.852031c0.142005 0.284011 0.142005 0.426016 0.284011 0.710026 0.142005 0.426016 0.284011 0.710026 0.568021 1.136043 0 0.142005 0.142005 0.284011 0.142005 0.426015 0.142005 0.426016 0.426016 0.852032 0.568021 1.278048 0 0 0 0.142005 0.142006 0.142005 0.284011 0.426016 0.426016 0.852032 0.710026 1.278048v0.142005c0.284011 0.426016 0.568021 0.852032 0.852032 1.420053l1.704063 2.556094c-1.278047-2.272084-2.272084-4.686174-3.124116-7.242268-5.964221-18.744696 1.136042-44.021634 18.31868-54.95604 25.560949-16.046595 44.73166-7.668285 58.080155-5.964221 9.798364 1.278047 8.946332-12.92248 8.0943-22.578838-0.994037-4.544169-1.988074-9.230343-3.124115-14.342532 0-0.284011-0.142005-0.568021-0.142006-0.852032-0.426016-1.846069-0.710026-3.692137-1.136042-5.538205-39.61947-199.94342 29.963112-401.874913 193.553183-507.95285 0.284011-0.284011 0.710026-0.426016 0.994037-0.568021 0.284011-0.284011 0.710026-0.426016 0.994037-0.568021 164.584108-104.657884 377.165996-83.925114 542.46013 35.217307 1.562058 1.136042 3.124116 2.272084 4.544168 3.266121 0.284011 0.142005 0.426016 0.284011 0.710027 0.426016 4.118153 2.982111 7.952295 5.964221 11.786437 8.804326 8.520316 4.828179 21.01678 11.360422 23.856886 1.988074 3.976148-12.92248 4.402163-33.797254 29.679101-50.411871 17.040632-11.218416 42.885591-7.100263 57.512134 6.106227 2.130079 1.846069 3.834142 3.834142 5.3962 5.964221-0.284011-1.136042-0.852032-1.988074-1.420052-2.840105z" fill="#E2D0B5" p-id="7724"></path><path d="M108.776037 602.954375c-0.284011 0.142005-0.710026 0.426016-0.994037 0.568021 0.142005-0.142005 0.426016-0.284011 0.568021-0.426015l0.426016-0.142006zM107.924005 603.664402c-0.284011 0.142005-0.710026 0.426016-0.994037 0.568021l0.284011-0.284011c0.284011 0 0.426016-0.142005 0.710026-0.28401z" fill="#F2EADA" p-id="7725"></path><path d="M393.922618 359.415338c-2.840105 1.846069-6.816253 0.994037-8.662321-1.846069l-42.601581-66.316461c-1.846069-2.840105-0.994037-6.816253 1.846068-8.662321 2.840105-1.846069 6.816253-0.994037 8.662322 1.846068l42.601581 66.316461c1.846069 2.982111 0.994037 6.816253-1.846069 8.662322z" fill="#8CAFB5" p-id="7726"></path><path d="M113.604216 874.042435m-32.093191 0a32.093191 32.093191 0 1 0 64.186382 0 32.093191 32.093191 0 1 0-64.186382 0Z" fill="#D8CCB8" p-id="7727"></path><path d="M978.132298 318.801831m-32.093191 0a32.093191 32.093191 0 1 0 64.186382 0 32.093191 32.093191 0 1 0-64.186382 0Z" fill="#D8CCB8" p-id="7728"></path><path d="M237.006795 362.113438c-3.834142-8.520316-9.230343-23.43087-7.384274-37.489391 0.142005-1.420053 0.852032-2.840105 1.846069-3.834143 46.293718-48.281792 85.629178-75.688809 85.629177-75.688808s61.914298-41.039523 108.492026-47.429761c1.420053-0.142005 2.840105 0 4.118153 0.710027 15.762585 7.952295 26.696991 16.898627 33.087228 22.720843 3.408126 3.124116 2.840105 8.662321-1.136042 11.076411L247.089169 365.095548c-3.550132 2.272084-8.236306 0.852032-10.082374-2.98211z" fill="#80A2A8" p-id="7729"></path><path d="M457.966995 224.084316c-30.247122 8.0943-59.642213 19.596727-87.759257 34.50728-0.426016 0.142005-0.710026 0.426016-1.136042 0.568021l-57.370129 37.063376c-0.284011 0.284011-0.710026 0.426016-0.994037 0.710026-24.708917 19.170711-47.003744 40.897518-66.600471 64.470392-3.550132 4.402163-3.692137 10.082374-0.142006 13.490501l60.778256 57.512134c4.544169 4.402163 13.064485 2.982111 17.324643-2.840105v-0.142005c2.556095-3.550132 5.538206-6.674248 8.804326-9.656359 20.590764-18.886701 43.169602-36.353349 67.594509-52.115934l1.278047-0.852031c24.424906-15.62058 49.701844-28.82707 75.546804-39.761476 3.976148-1.704063 8.0943-2.982111 12.354458-3.976147 1.562058-0.284011 3.266121-0.710026 5.3962-1.278048 7.100263-1.846069 11.502427-9.230343 9.088338-15.052558l-32.235196-77.960893c-1.562058-4.118153-6.674248-6.106227-11.928443-4.686174z" fill="#9FC1C9" p-id="7730"></path><path d="M363.107475 378.728054c-2.556095 2.272084-6.532242 1.846069-8.804327-0.710026l-50.979892-60.068229c-2.272084-2.556095-1.846069-6.532242 0.710026-8.804327 2.556095-2.272084 6.532242-1.846069 8.804327 0.710027l50.979892 60.068229c2.272084 2.556095 1.988074 6.532242-0.710026 8.804326zM334.848426 405.56705c-2.41409 2.41409-6.390237 2.41409-8.804327-0.142005l-55.24005-56.234087c-2.41409-2.41409-2.41409-6.390237 0.142006-8.804326 2.41409-2.41409 6.390237-2.41409 8.804326 0.142005l55.24005 56.234087c2.272084 2.41409 2.272084 6.390237-0.142005 8.804326zM422.607683 340.528637c-3.124116 1.420053-6.816253 0-8.236306-3.124116l-32.803217-71.712661c-1.420053-3.124116 0-6.816253 3.124116-8.236306s6.816253 0 8.236305 3.124116l32.803218 71.712661c1.420053 2.982111 0 6.674248-3.124116 8.236306zM456.262932 326.61212c-3.266121 0.994037-6.816253-0.852032-7.81029-4.260158l-22.578838-75.546803c-0.994037-3.266121 0.852032-6.816253 4.260158-7.81029 3.266121-0.994037 6.816253 0.852032 7.81029 4.260158l22.578838 75.546804c0.852032 3.266121-0.994037 6.816253-4.260158 7.810289z" fill="#8CAFB5" p-id="7731"></path><path d="M270.804049 172.678408c-3.266121 2.130079-5.254195 5.3962-6.106226 8.946332 0.710026-0.710026 1.562058-1.420053 2.414089-1.988074 6.674248-4.260158 16.046595-1.988074 20.73277 5.3962l402.016918 625.959229c2.41409 3.692137 3.124116 8.0943 2.272085 12.070448 4.686174-4.828179 5.3962-12.780474 1.278047-19.028706l-401.874913-625.959229c-4.686174-7.242269-13.916516-9.656358-20.73277-5.3962z" fill="#CCB083" p-id="7732"></path><path d="M249.165629 177.959618a10.366385 21.01678 57.288 1 0 35.366937-22.715632 10.366385 21.01678 57.288 1 0-35.366937 22.715632Z" fill="#AF9371" p-id="7733"></path><path d="M689.8616 825.050617c-6.674248 4.260158-15.762585 2.41409-20.022743-4.402163l-403.294966-627.947303c-4.260158-6.674248-2.41409-15.762585 4.402164-20.022743 6.674248-4.260158 15.762585-2.41409 20.022743 4.402163l403.294966 627.947303c4.260158 6.674248 2.272084 15.762585-4.402164 20.022743z" fill="#E5CA9A" p-id="7734"></path><path d="M651.804188 792.105395l-11.786437 71.286645c-0.568021 3.266121-5.254195 4.828179-6.958259 2.130079l-54.104007-84.209125c-3.124116-4.970184-4.260158-10.934406-3.266122-17.182638l11.786438-71.286645c0.568021-3.266121 5.254195-4.828179 6.958258-2.130079l54.104008 84.209125c3.124116 4.828179 4.260158 10.934406 3.266121 17.182638z" fill="#9FC1C9" p-id="7735"></path><path d="M596.138122 787.845236l10.082374-60.63625c0-0.426016 0-0.852032-0.28401-1.278047l-9.940369-15.478575c-1.278047-1.846069-4.686174-0.852032-5.11219 1.562058l-8.520316 51.405908c-0.710026 4.544169 0.142005 8.804327 2.41409 12.496464l8.236305 12.780474c0.852032 1.136042 2.840105 0.710026 3.124116-0.852032zM616.302871 819.228401l10.082374-60.63625c0-0.426016 0-0.852032-0.284011-1.278048l-9.940369-15.478574c-1.278047-1.846069-4.686174-0.852032-5.112189 1.562058l-8.520317 51.405908c-0.710026 4.544169 0.142005 8.804327 2.41409 12.496463l8.236306 12.780475c0.852032 1.278047 2.840105 0.852032 3.124116-0.852032zM636.467619 850.753571l10.082374-60.63625c0-0.426016 0-0.852032-0.28401-1.278048l-9.940369-15.478574c-1.278047-1.846069-4.686174-0.852032-5.11219 1.562058l-8.520316 51.405908c-0.710026 4.544169 0.142005 8.804327 2.414089 12.496463l8.236306 12.780475c0.852032 1.136042 2.840105 0.710026 3.124116-0.852032z" fill="#77989E" p-id="7736"></path><path d="M678.785189 774.780752l69.724588 18.886701c3.266121 0.852032 6.532242-2.840105 4.828179-5.538206l-54.104008-84.209125c-3.124116-4.970184-8.236306-8.520316-14.342532-10.224379l-69.724588-18.886701c-3.266121-0.852032-6.532242 2.840105-4.828179 5.538205l54.104008 84.209125c3.266121 4.970184 8.236306 8.520316 14.342532 10.22438z" fill="#9FC1C9" p-id="7737"></path><path d="M698.097906 722.380807l-59.358203-16.046595c-0.426016-0.142005-0.710026-0.426016-0.994037-0.710027l-9.940369-15.478574c-1.278047-1.846069 1.136042-4.544169 3.550132-3.976148l50.269866 13.632506c4.402163 1.136042 8.0943 3.834142 10.366384 7.384274l8.236306 12.780475c0.710026 1.136042-0.568021 2.840105-2.130079 2.414089zM718.262654 753.763972L658.904452 737.717376c-0.426016-0.142005-0.710026-0.426016-0.994037-0.710026l-9.940369-15.478575c-1.278047-1.846069 1.136042-4.544169 3.550132-3.976147l50.269865 13.632506c4.402163 1.136042 8.0943 3.834142 10.366385 7.384274l8.236305 12.780474c0.710026 1.278047-0.568021 2.840105-2.130079 2.41409zM738.427403 785.289142l-59.358203-16.046596c-0.426016-0.142005-0.710026-0.426016-0.994037-0.710026l-9.940369-15.478575c-1.278047-1.846069 1.136042-4.544169 3.550132-3.976147l50.269865 13.632506c4.402163 1.136042 8.0943 3.834142 10.366385 7.384274l8.236306 12.780474c0.710026 1.136042-0.568021 2.840105-2.130079 2.41409z" fill="#77989E" p-id="7738"></path><path d="M296.791014 171.258355s0.142005 0.142005 0 0c0.142005 0.142005 0.142005 0.142005 0 0 3.124116 4.970184-2.6981 14.200527-13.20649 20.874775-10.082374 6.532242-20.732769 8.0943-24.140896 3.834142l-0.426016-0.426016-10.50839-16.330606c-0.994037-1.562058-0.426016-3.692137 1.136042-4.828179l31.667175-20.306753c1.704063-1.136042 3.834142-0.710026 4.828179 0.852031l10.650396 16.330606z" fill="#E5CA9A" p-id="7739"></path><path d="M299.773124 178.500624s-0.142005 0 0 0c-0.142005 0-0.142005-0.142005 0 0l-1.988073-3.124116c-0.568021 4.970184-5.964221 11.786437-14.058522 16.898627-8.236306 5.254195-16.756622 7.384274-21.584801 5.538206l2.130079 3.266121 0.426016 0.426016c3.408126 4.402163 13.490501 3.124116 23.004853-2.982111 9.656358-6.248232 15.052559-15.194564 12.070448-20.022743z" fill="#D1AF78" p-id="7740"></path><path d="M198.097351 57.796145l171.400361 109.912079-96.421578 6.674247-46.151713 84.919152-28.82707-201.505478z" fill="#CED9DC" p-id="7741"></path><path d="M198.807378 58.222161l74.268756 116.16031 96.421578-6.674247z" fill="#B3C2C6" p-id="7742"></path><path d="M211.445847 91.167383c2.272084 11.360422 4.402163 22.720843 6.532242 34.081265l3.124116 17.040632 2.982111 17.040633c0.994037 5.680211 2.130079 11.360422 3.266121 17.040632 1.136042 5.680211 1.846069 11.360422 2.414089 17.182638 0.568021 5.822216 0.994037 11.502427 1.136043 17.324643 0.284011 5.822216 0.284011 11.644432-0.142006 17.466648l-0.710026 0.28401c-1.988074-5.538206-3.550132-11.218416-4.970184-16.756622-1.420053-5.680211-2.6981-11.360422-3.692137-17.040632-0.994037-5.680211-1.846069-11.360422-2.41409-17.182638-0.568021-5.822216-0.994037-11.502427-1.562058-17.324642l-1.846069-17.182638-1.704063-17.324643c-0.994037-11.502427-2.272084-23.004854-3.124116-34.507281l0.710027-0.142005z" fill="#EDF7F9" p-id="7743"></path><path d="M479.267785 130.218832L457.256969 133.768964c-2.272084 0.426016-4.118153 1.846069-5.11219 3.834142l-9.514353 20.164749c-2.41409 5.254195-9.798364 5.3962-12.496464 0.28401l-10.224379-19.880738c-0.994037-1.988074-2.982111-3.408126-5.254195-3.692137l-22.152822-2.840105c-5.680211-0.710026-8.0943-7.668285-4.118153-11.786437l15.620579-15.904591c1.562058-1.562058 2.272084-3.976148 1.846069-6.106226L401.874913 76.114825c-1.136042-5.680211 4.828179-10.082374 9.940369-7.52628l19.880738 10.082374c1.988074 0.994037 4.402163 0.994037 6.390237-0.142005l19.596727-10.7924c4.970184-2.6981 11.076411 1.420053 10.22438 7.100263l-3.408127 22.010817c-0.284011 2.272084 0.426016 4.544169 2.130079 6.106227L482.817917 118.29039c4.260158 3.976148 2.130079 10.934406-3.550132 11.928442zM392.218555 659.756483l-19.312717 11.218416c-1.988074 1.136042-3.266121 3.124116-3.408126 5.396201L367.793649 698.665927c-0.426016 5.680211-7.242269 8.520316-11.502427 4.686174l-16.614617-14.910553c-1.704063-1.562058-3.976148-2.130079-6.248232-1.562058l-21.726806 5.254195c-5.538206 1.278047-10.224379-4.260158-7.952295-9.514353l9.088337-20.448759c0.994037-2.130079 0.710026-4.544169-0.426016-6.390237l-11.644432-19.028707c-2.982111-4.828179 0.852032-11.076411 6.674248-10.50839l22.152822 2.272085c2.272084 0.284011 4.544169-0.710026 5.964221-2.41409l14.484538-17.040632c3.692137-4.402163 10.7924-2.556095 12.070448 2.982111l4.686174 21.868811c0.426016 2.272084 1.988074 4.118153 4.118153 4.970185l20.590764 8.520316c5.254195 2.272084 5.680211 9.514353 0.710026 12.354458z" fill="#F7F4EB" p-id="7744"></path><path d="M122.834558 424.737762L108.492026 433.116073c-1.420053 0.852032-2.41409 2.41409-2.556095 4.118152l-1.278047 16.614617c-0.284011 4.260158-5.3962 6.248232-8.662322 3.408127l-12.354458-11.076412c-1.278047-1.136042-2.982111-1.562058-4.686174-1.136042l-16.188601 3.834143c-4.118153 0.994037-7.668285-3.266121-5.964221-7.100264l6.674248-15.194564c0.710026-1.562058 0.568021-3.408126-0.284011-4.828179l-8.662321-14.200527c-2.272084-3.692137 0.710026-8.236306 4.970184-7.81029l16.472611 1.704064c1.704063 0.142005 3.408126-0.426016 4.402164-1.846069l10.7924-12.638469c2.840105-3.266121 8.0943-1.988074 8.946332 2.272084l3.550132 16.188601c0.426016 1.704063 1.562058 2.982111 3.124116 3.692137l15.336569 6.390237c3.976148 1.704063 4.402163 7.100263 0.710026 9.230343zM738.569408 598.126196l-22.010817 3.550132c-2.272084 0.426016-4.118153 1.846069-5.11219 3.834142l-9.514353 20.164748c-2.41409 5.254195-9.798364 5.3962-12.496463 0.284011l-10.22438-19.880738c-0.994037-1.988074-2.982111-3.408126-5.254195-3.692137l-22.152822-2.840105c-5.680211-0.710026-8.0943-7.668285-4.118153-11.786438l15.62058-15.90459c1.562058-1.562058 2.272084-3.976148 1.846068-6.106226l-4.118152-21.868812c-1.136042-5.680211 4.828179-10.082374 9.940368-7.526279l19.880738 10.082374c1.988074 0.994037 4.402163 0.994037 6.390237-0.142005l19.596728-10.792401c4.970184-2.6981 11.076411 1.420053 10.224379 7.100264l-3.408126 22.010816c-0.284011 2.272084 0.426016 4.544169 2.130079 6.106227l16.1886 15.336569c4.402163 4.118153 2.272084 11.076411-3.408126 12.070448zM507.100818 956.263486l-13.20649-5.3962c-1.420053-0.568021-2.840105-0.426016-4.118153 0.426016l-11.928442 7.81029c-3.124116 1.988074-7.100263-0.426016-6.816253-4.118153l1.136042-14.200527c0.142005-1.420053-0.568021-2.840105-1.704063-3.834142l-11.076411-8.946332c-2.840105-2.272084-1.846069-6.958258 1.704063-7.81029l13.916516-3.408127c1.420053-0.284011 2.556095-1.420053 3.124116-2.6981l5.11219-13.348495c1.278047-3.408126 5.964221-3.834142 7.952295-0.710026l7.526279 12.212453c0.710026 1.278047 2.130079 1.988074 3.550132 2.130079l14.200527 0.710026c3.692137 0.142005 5.538206 4.544169 3.124116 7.384274l-9.230343 10.934406c-0.994037 1.136042-1.278047 2.556095-0.852031 3.976147l3.692137 13.774512c0.852032 3.408126-2.6981 6.532242-6.106227 5.112189z" fill="#EACDCA" p-id="7745"></path><path d="M576.39939 351.605048c-3.834142 2.556095-7.242269 5.3962-10.366385 8.520316 21.01678-7.952295 43.595618-2.840105 54.530024 13.774511 10.934406 16.614617 6.532242 39.33546-9.088338 55.382055 4.118153-1.562058 8.0943-3.550132 11.928443-6.106226 23.71488-15.478574 32.377201-44.163639 19.312717-63.902372-12.92248-19.738732-42.743586-23.288864-66.316461-7.668284z" fill="#F7F4EB" p-id="7746"></path></svg>