<?xml version="1.0" standalone="no"?><!DOCTYPE svg PUBLIC "-//W3C//DTD SVG 1.1//EN" "http://www.w3.org/Graphics/SVG/1.1/DTD/svg11.dtd"><svg t="1602474999443" class="icon" viewBox="0 0 1025 1024" version="1.1" xmlns="http://www.w3.org/2000/svg" p-id="1735" xmlns:xlink="http://www.w3.org/1999/xlink" width="200.1953125" height="200"><defs><style type="text/css"></style></defs><path d="M512.709338 512.709338m-511.290662 0a511.290662 511.290662 0 1 0 1022.581324 0 511.290662 511.290662 0 1 0-1022.581324 0Z" fill="#F2E2DA" p-id="1736"></path><path d="M805.665835 579.24522c8.512053 19.293987 18.442782-2.837351 63.698532-18.159047s72.352452-4.681629 63.840399-23.975616c-8.512053-19.293987-36.318094-31.778332-81.573843-16.456636-45.25575 15.463563-54.47714 39.297312-45.965088 58.591299z" fill="#C97D75" p-id="1737"></path><path d="M910.647825 540.657246c-14.47049 16.314769-21.280133 13.193682 4.681629 28.089775 40.715988 23.266279 57.172624 49.511776 61.144916 44.262677 13.193682-17.165974 7.377113-51.923525-30.785259-78.310889s-20.570795-10.214464-35.041286 5.958437z" fill="#C97D75" p-id="1738"></path><path d="M912.775838 542.359656c-12.20061 9.646994-15.463563 11.349404-14.044888 15.321696-3.121086-4.114159 2.837351-6.809643 12.058742-17.024106 10.498199-11.775007 4.256027-23.408146 14.328623-19.010252-5.674702-0.425603-0.993073 11.633139-12.342477 20.712662z" fill="#9E5C57" p-id="1739"></path><path d="M973.495151 573.428651c4.256027 10.923802 3.546689 20.428928 2.979219 20.570795-0.709338 0.141868-1.13494-8.937656-5.390967-19.861458s-14.186755-16.882239-10.214464-19.861457c1.986146-1.560543 8.370186 8.228318 12.626212 19.15212z" fill="#D69792" p-id="1740"></path><path d="M791.053477 627.622056c3.830424 20.428928 18.726517 0.56747 66.67775-6.242172 47.951233-6.809643 71.92685 8.512053 68.096426-11.916875-3.830424-20.428928-28.089776-37.594902-76.041009-30.785259-47.951233 6.809643-62.563591 28.515378-58.733167 48.944306z" fill="#C97D75" p-id="1741"></path><path d="M902.845109 608.753671c-18.017179 13.33555-23.975617 9.079523-1.986145 28.231643 34.473815 30.075921 44.404544 58.733167 49.511776 54.335273 16.882239-14.328623 19.435855-49.511776-11.775007-82.141313s-17.733444-13.619285-35.750624-0.425603z" fill="#C97D75" p-id="1742"></path><path d="M904.405653 610.739817c-14.186755 7.235245-17.733444 8.370186-17.307842 12.484345-2.128013-4.681629 4.397894-6.100305 15.747298-14.470491 13.051815-9.646994 9.646994-22.131338 18.442782-16.031033-5.390967-1.276808-3.546689 11.207537-16.882238 18.017179z" fill="#9E5C57" p-id="1743"></path><path d="M956.75478 652.165143c1.702411 11.491272-1.276808 20.570795-1.986146 20.712662s0.993073-8.937656-0.56747-20.428927c-1.702411-11.491272-9.930729-19.010252-5.390967-21.280133 2.269881-1.13494 6.242172 9.505126 7.944583 20.996398z" fill="#D69792" p-id="1744"></path><path d="M770.482682 692.171793c3.830424 20.428928 18.726517 0.56747 66.67775-6.242173 47.951233-6.809643 71.92685 8.512053 68.096426-11.916874s-28.089776-37.594902-76.041009-30.785259c-47.809365 6.809643-62.421723 28.515378-58.733167 48.944306z" fill="#C97D75" p-id="1745"></path><path d="M882.274314 673.303408c-18.017179 13.33555-23.975617 9.079523-1.986146 28.231643 34.473815 30.075921 44.404544 58.733167 49.511777 54.335273 16.882239-14.328623 19.435855-49.511776-11.775007-82.141313s-17.733444-13.761153-35.750624-0.425603z" fill="#C97D75" p-id="1746"></path><path d="M883.976725 675.289554c-14.186755 7.235245-17.733444 8.370186-17.307842 12.484345-2.128013-4.681629 4.397894-6.100305 15.747299-14.470491 13.051815-9.646994 9.646994-22.131338 18.442782-16.031033-5.532835-1.418676-3.546689 11.207537-16.882239 18.017179z" fill="#9E5C57" p-id="1747"></path><path d="M936.183984 716.714879c1.702411 11.491272-1.276808 20.570795-1.986145 20.712663-0.709338 0.141868 0.993073-8.937656-0.56747-20.428927s-9.930729-19.010252-5.390968-21.280133c2.411748-1.13494 6.242172 9.505126 7.944583 20.996397z" fill="#D69792" p-id="1748"></path><path d="M734.590191 713.735661c-5.249099 20.145193 17.024106 6.809643 64.407869 16.314768s62.989194 31.778332 68.238294 11.63314c5.249099-20.145193-9.788861-44.120809-57.172624-53.767803-47.383763-9.646994-70.224439 5.674702-75.473539 25.819895z" fill="#C97D75" p-id="1749"></path><path d="M846.098088 733.455251c-22.415073 6.38404-26.10363 0.425603-13.90302 25.536159 18.868385 39.297312 15.747298 69.089498 22.415073 66.819618 21.847603-7.660848 39.297312-39.43918 24.401219-80.0133-14.896093-40.715988-10.498199-18.726517-32.913272-12.342477z" fill="#C97D75" p-id="1750"></path><path d="M846.807426 735.725132c-16.314769 1.986146-20.003325 1.844278-21.422001 5.816569 0-4.965364 6.667775-4.256027 20.712663-8.08645 16.172901-4.539762 18.442782-17.307842 23.975617-8.653921-4.397894-3.121086-8.086451 9.079523-23.266279 10.923802z" fill="#9E5C57" p-id="1751"></path><path d="M877.30895 791.47908c-3.404821 11.207537-9.930729 18.726517-10.640067 18.442782-0.709338-0.141868 4.823497-7.944583 8.228318-19.15212s-0.993073-20.85453 4.114159-21.422c2.695484-0.283735 1.702411 10.923802-1.70241 22.131338z" fill="#D69792" p-id="1752"></path><path d="M845.956221 632.303685c0 118.317539-137.327792 157.047382-306.717651 157.047382S232.662787 750.621225 232.662787 632.303685s137.327792-263.164311 306.717651-263.164311 306.575783 144.846772 306.575783 263.164311z" fill="#C97D75" p-id="1753"></path><path d="M539.380438 369.139374c-79.729565 0-152.365752 32.062067-206.842893 78.452757 51.923525-38.020504 117.040732-63.272929 187.690773-63.272929 169.389859 0 306.71765 144.846772 306.71765 263.164311 0 37.736769-14.044888 67.387088-38.446107 90.227764 36.318094-24.401219 57.740094-58.733167 57.740095-105.407592-0.283735-118.317539-137.611527-263.164311-306.859518-263.164311z" fill="#BC726C" p-id="1754"></path><path d="M365.450817 288.700471m-92.923247 0a92.923247 92.923247 0 1 0 185.846495 0 92.923247 92.923247 0 1 0-185.846495 0Z" fill="#D18479" p-id="1755"></path><path d="M380.063175 316.932114c-11.349404-61.428651-1.560543-1.13494-11.349404 0.56747-9.788861 1.844278-22.273206-58.023829-10.923801 3.546689 4.256027 22.982544 6.809643 43.127736 8.228318 60.719313 9.788861 0 19.293987-1.702411 28.089775-4.539762-4.823497-17.165974-9.788861-37.027431-14.044888-60.29371z" fill="#D18479" p-id="1756"></path><path d="M395.668606 382.049321c-3.404821 4.397894-10.214464 7.51898-18.017179 7.51898-4.114159 0-7.944583-0.851205-11.207537-2.26988 6.95151 92.639512-15.321696 111.9335 34.048213 102.853976 50.646717-9.363259 22.273206-17.591577-4.823497-108.103076z" fill="#D6918A" p-id="1757"></path><path d="M395.668606 382.049321c-0.425603-1.560543-0.993073-3.262954-1.418675-4.965364-8.795788 2.837351-18.300914 4.397894-28.089776 4.539761l0.425603 5.532835c3.262954 1.418676 7.093378 2.269881 11.207537 2.269881 7.660848 0.141868 14.328623-2.837351 17.875311-7.377113z" fill="#BC736C" p-id="1758"></path><path d="M368.571904 291.963425m-59.300638 0a59.300637 59.300637 0 1 0 118.601275 0 59.300637 59.300637 0 1 0-118.601275 0Z" fill="#D18479" p-id="1759"></path><path d="M365.450817 294.091438m-75.047935 0a75.047936 75.047936 0 1 0 150.095871 0 75.047936 75.047936 0 1 0-150.095871 0Z" fill="#FFFFFF" p-id="1760"></path><path d="M367.295096 299.19867m-62.421724 0a62.421723 62.421723 0 1 0 124.843447 0 62.421723 62.421723 0 1 0-124.843447 0Z" fill="#635C5B" p-id="1761"></path><path d="M351.086589 324.847299a15.179828 14.044888 82.568 1 0 27.853796-3.633397 15.179828 14.044888 82.568 1 0-27.853796 3.633397Z" fill="#D6D1D0" p-id="1762"></path><path d="M373.012629 301.485744a5.249099 4.965364 54.825 1 0 8.117342-5.720851 5.249099 4.965364 54.825 1 0-8.117342 5.720851Z" fill="#D6D1D0" p-id="1763"></path><path d="M663.94015 288.700471m-92.923248 0a92.923247 92.923247 0 1 0 185.846495 0 92.923247 92.923247 0 1 0-185.846495 0Z" fill="#D18479" p-id="1764"></path><path d="M649.327792 316.932114c11.349404-61.428651 1.560543-1.13494 11.349404 0.56747 9.788861 1.844278 22.273206-58.023829 10.923802 3.546689-4.256027 22.982544-6.809643 43.127736-8.228319 60.719313-9.788861 0-19.293987-1.702411-28.089775-4.539762 4.965364-17.165974 9.788861-37.027431 14.044888-60.29371z" fill="#D18479" p-id="1765"></path><path d="M633.722361 382.049321c3.404821 4.397894 10.214464 7.51898 18.017179 7.51898 4.114159 0 7.944583-0.851205 11.207537-2.26988-6.95151 92.639512 15.321696 111.9335-34.048213 102.853976-50.646717-9.363259-22.273206-17.591577 4.823497-108.103076z" fill="#D6918A" p-id="1766"></path><path d="M633.722361 382.049321c0.425603-1.560543 0.993073-3.262954 1.418675-4.965364 8.795788 2.837351 18.300914 4.397894 28.089776 4.539761l-0.425603 5.532835c-3.262954 1.418676-7.093378 2.269881-11.207537 2.269881-7.660848 0.141868-14.328623-2.837351-17.875311-7.377113z" fill="#BC736C" p-id="1767"></path><path d="M660.819063 291.963425m-59.300637 0a59.300637 59.300637 0 1 0 118.601275 0 59.300637 59.300637 0 1 0-118.601275 0Z" fill="#D18479" p-id="1768"></path><path d="M663.94015 294.091438m-75.047936 0a75.047936 75.047936 0 1 0 150.095871 0 75.047936 75.047936 0 1 0-150.095871 0Z" fill="#FFFFFF" p-id="1769"></path><path d="M662.095871 299.19867m-62.421723 0a62.421723 62.421723 0 1 0 124.843447 0 62.421723 62.421723 0 1 0-124.843447 0Z" fill="#635C5B" p-id="1770"></path><path d="M662.372914 338.181036a14.044888 15.179828 7.429 1 0 3.925428-30.104813 14.044888 15.179828 7.429 1 0-3.925428 30.104813Z" fill="#D6D1D0" p-id="1771"></path><path d="M649.287623 302.959012a4.965364 5.249099 35.177 1 0 6.048057-8.580979 4.965364 5.249099 35.177 1 0-6.048057 8.580979Z" fill="#D6D1D0" p-id="1772"></path><path d="M753.600443 478.093655s-63.414796-156.905514 90.937102-257.915212c4.397894 71.075644 3.404821 67.387088 3.404821 67.387088l146.407315-18.58465s31.636464 130.376282-67.24522 198.188972C849.361042 520.653921 753.600443 478.093655 753.600443 478.093655z" fill="#D18479" p-id="1773"></path><path d="M994.349681 268.980881l-20.428927 2.553616c4.397894 29.934054 13.33555 136.476586-72.919923 197.905237-17.165974 12.20061-35.183153 19.861457-52.916597 24.259352 25.53616-1.702411 53.200333-8.795788 78.87836-26.529233 99.023552-67.81269 67.387088-198.188972 67.387087-198.188972z" fill="#B26E67" p-id="1774"></path><path d="M756.437794 532.145193c20.145193 9.505126 25.961762-16.172901 39.581048-44.830147s29.792186-49.511776 9.646993-59.016902-47.52563 5.958437-61.144915 34.615683c-13.33555 28.657246-8.086451 59.72624 11.916874 69.231366z" fill="#C97D75" p-id="1775"></path><path d="M272.385702 593.290108c-8.512053 19.293987-18.442782-2.837351-63.698531-18.159047s-72.352452-4.681629-63.840399-23.975616c8.512053-19.293987 36.318094-31.778332 81.573843-16.456636 45.25575 15.463563 54.47714 39.297312 45.965087 58.591299z" fill="#C97D75" p-id="1776"></path><path d="M167.403713 554.702134c14.47049 16.314769 21.280133 13.193682-4.681629 28.089775C122.006096 606.058188 105.54946 632.303685 101.577168 627.054586c-13.193682-17.165974-7.377113-51.923525 30.785259-78.31089s20.570795-10.214464 35.041286 5.958438z" fill="#C97D75" p-id="1777"></path><path d="M165.417567 556.404544c12.20061 9.646994 15.463563 11.349404 14.044888 15.321696 3.121086-4.114159-2.837351-6.809643-12.058742-17.024106-10.498199-11.775007-4.256027-23.408146-14.328623-19.010253 5.674702-0.283735 0.851205 11.633139 12.342477 20.712663z" fill="#9E5C57" p-id="1778"></path><path d="M104.556387 587.473538c-4.256027 10.923802-3.546689 20.428928-2.979219 20.570796 0.709338 0.141868 1.13494-8.937656 5.390967-19.861458s14.186755-16.882239 10.214464-19.861457c-1.986146-1.418676-8.228318 8.228318-12.626212 19.152119z" fill="#D69792" p-id="1779"></path><path d="M286.99806 641.666944c-3.830424 20.428928-18.726517 0.56747-66.67775-6.242173s-71.92685 8.512053-68.096425-11.916874c3.830424-20.428928 28.089776-37.594902 76.041008-30.785259s62.563591 28.515378 58.733167 48.944306z" fill="#C97D75" p-id="1780"></path><path d="M175.348296 622.940427c18.017179 13.33555 23.975617 9.079523 1.986146 28.231643-34.473815 30.075921-44.404544 58.733167-49.511776 54.335273-16.882239-14.328623-19.435855-49.511776 11.775006-82.141314s17.733444-13.761153 35.750624-0.425602z" fill="#C97D75" p-id="1781"></path><path d="M173.645885 624.784705c14.186755 7.235245 17.733444 8.370186 17.307842 12.484345 2.128013-4.681629-4.397894-6.100305-15.747299-14.470491-13.051815-9.646994-9.646994-22.131338-18.442782-16.031033 5.390967-1.276808 3.546689 11.349404 16.882239 18.017179z" fill="#9E5C57" p-id="1782"></path><path d="M121.438626 666.351898c-1.702411 11.491272 1.276808 20.570795 1.986145 20.712663 0.709338 0.141868-0.993073-8.937656 0.567471-20.428928 1.702411-11.491272 9.930729-19.010252 5.390967-21.280133-2.411748-1.276808-6.242172 9.505126-7.944583 20.996398z" fill="#D69792" p-id="1783"></path><path d="M307.568856 706.216681c-3.830424 20.428928-18.726517 0.56747-66.67775-6.242173s-71.92685 8.512053-68.096426-11.916874 28.089776-37.594902 76.041009-30.785259c47.951233 6.809643 62.563591 28.515378 58.733167 48.944306z" fill="#C97D75" p-id="1784"></path><path d="M195.777224 687.348296c18.017179 13.33555 23.975617 9.079523 1.986145 28.231643-34.473815 30.075921-44.404544 58.733167-49.511776 54.335273-16.882239-14.328623-19.435855-49.511776 11.775007-82.141313s17.733444-13.619285 35.750624-0.425603z" fill="#C97D75" p-id="1785"></path><path d="M194.216681 689.334442c14.186755 7.235245 17.733444 8.370186 17.307841 12.484344 2.128013-4.681629-4.397894-6.100305-15.747298-14.47049-13.051815-9.646994-9.646994-22.131338-18.442782-16.031034 5.390967-1.276808 3.546689 11.207537 16.882239 18.01718z" fill="#9E5C57" p-id="1786"></path><path d="M142.009421 730.759767c-1.702411 11.491272 1.276808 20.570795 1.986146 20.712663 0.709338 0.141868-0.993073-8.937656 0.56747-20.428928 1.702411-11.491272 9.930729-19.010252 5.390967-21.280133-2.411748-1.13494-6.38404 9.505126-7.944583 20.996398z" fill="#D69792" p-id="1787"></path><path d="M343.603214 727.780549c5.249099 20.145193-17.024106 6.809643-64.407869 16.314768s-62.989194 31.778332-68.238293 11.63314c-5.249099-20.145193 9.788861-44.120809 57.172624-53.767803 47.383763-9.505126 70.224439 5.674702 75.473538 25.819895z" fill="#C97D75" p-id="1788"></path><path d="M231.95345 747.500139c22.415073 6.38404 26.10363 0.425603 13.90302 25.536159-18.868385 39.297312-15.747298 69.089498-22.415073 66.819618-21.847603-7.660848-39.297312-39.43918-24.40122-80.0133 14.896093-40.715988 10.498199-18.726517 32.913273-12.342477z" fill="#C97D75" p-id="1789"></path><path d="M231.385979 749.911887c16.314769 1.986146 20.003325 1.844278 21.422001 5.81657 0-4.965364-6.667775-4.256027-20.712663-8.086451-16.172901-4.539762-18.442782-17.307842-23.975616-8.653921 4.256027-3.262954 7.944583 9.079523 23.266278 10.923802z" fill="#9E5C57" p-id="1790"></path><path d="M200.742588 805.523968c3.404821 11.207537 9.930729 18.726517 10.640066 18.442782s-4.823497-7.944583-8.228318-19.15212 0.993073-20.85453-4.114159-21.422c-2.553616-0.141868-1.702411 10.923802 1.702411 22.131338z" fill="#D69792" p-id="1791"></path><path d="M294.091438 467.169853s12.20061-168.680521-165.701302-217.624827c17.591577 68.947631 17.449709 65.259075 17.449709 65.259075L0.709338 342.042671s9.930729 133.781103 124.843447 167.971183c90.369631 27.096703 168.538653-42.844001 168.538653-42.844001z" fill="#D18479" p-id="1792"></path><path d="M294.091438 452.84123c-1.702411-41.709061-19.435855-163.147686-165.701302-203.296204 2.269881 9.079523 4.256027 16.882239 6.100305 23.691882C256.780272 307.852591 286.99806 400.492103 294.091438 452.84123z" fill="#B26E67" p-id="1793"></path><path d="M307.852591 519.51898c-16.172901 15.321696-29.650319-7.377113-51.497922-30.501524-21.705736-23.124411-43.553339-38.020504-27.380438-53.200332 16.172901-15.321696 46.95816-8.937656 68.805763 14.186755s26.387365 54.335273 10.072597 69.515101z" fill="#C97D75" p-id="1794"></path><path d="M208.119701 493.840953c-0.709338 1.844278-39.722915 10.781934-77.459684-4.114159S70.650042 441.633694 71.359379 439.789415c0.709338-1.844278 24.117484 28.515378 61.854254 43.411472 37.878637 14.896093 75.615406 8.795788 74.906068 10.640066zM949.235799 328.565254c1.702411 0.993073 4.397894 40.857855-16.314768 75.757273-20.712663 34.899418-57.030756 51.639789-58.733167 50.646717-1.702411-0.993073 31.9202-19.293987 52.632862-54.335273 20.712663-34.899418 20.712663-73.06179 22.415073-72.068717z" fill="#D69792" p-id="1795"></path><path d="M504.197285 475.681906m-6.809643 0a6.809643 6.809643 0 1 0 13.619285 0 6.809643 6.809643 0 1 0-13.619285 0Z" fill="#F2E2DA" p-id="1796"></path><path d="M524.058742 475.681906m-6.809643 0a6.809643 6.809643 0 1 0 13.619286 0 6.809643 6.809643 0 1 0-13.619286 0Z" fill="#F2E2DA" p-id="1797"></path><path d="M342.893876 879.153228l-10.923801-1.986146c-1.986146-0.425603-3.972291 0.283735-5.390967 1.702411l-7.944583 7.802715c-3.546689 3.546689-9.788861 1.418676-10.356332-3.546688l-1.418675-11.06567c-0.283735-1.986146-1.418676-3.688556-3.262954-4.681629l-9.930729-5.107232c-4.539762-2.269881-4.397894-8.795788 0.141868-10.923801l10.072596-4.823497c1.844278-0.851205 3.121086-2.553616 3.404822-4.539762l1.70241-10.923802c0.851205-4.965364 6.95151-6.95151 10.498199-3.262953l7.660848 8.08645c1.418676 1.418676 3.404821 2.128013 5.390967 1.844278l10.923802-1.70241c4.965364-0.851205 8.795788 4.539762 6.242172 8.937656l-5.390967 9.788861c-0.993073 1.702411-0.993073 3.830424-0.141868 5.674702l4.965365 9.930729c2.553616 4.539762-1.276808 9.646994-6.242173 8.795788zM789.634802 875.322804l-9.646994-7.660848c-1.702411-1.418676-4.114159-1.844278-6.100305-1.13494l-11.775006 3.546689c-5.390967 1.702411-10.214464-3.546689-8.228319-8.795789l4.256027-11.491272c0.709338-2.128013 0.425603-4.397894-0.851205-6.242172l-7.093378-10.072596c-3.262954-4.539762 0.283735-10.781934 5.81657-10.640067l12.200609 0.567471c2.269881 0.141868 4.397894-0.851205 5.674702-2.695484l7.377113-9.788861c3.404821-4.397894 10.356331-3.121086 11.916875 2.269881l3.262953 11.775007c0.56747 2.128013 2.269881 3.830424 4.256027 4.539761l11.633139 3.972292c5.249099 1.844278 6.242172 8.937656 1.560544 12.058742l-10.214464 6.809642c-1.844278 1.276808-2.979219 3.262954-2.979219 5.532835l-0.141868 12.20061c-0.141868 5.674702-6.525907 8.653921-10.923801 5.249099z" fill="#DDB1AB" p-id="1798"></path><path d="M367.578831 128.673871l-10.356332 6.100305c-1.844278 1.13494-3.121086 2.979219-3.262953 5.249099l-0.993073 12.058742c-0.425603 5.532835-6.95151 8.086451-11.065669 4.397894l-8.937656-8.08645c-1.560543-1.418676-3.830424-1.986146-5.958438-1.560543l-11.775006 2.837351c-5.390967 1.276808-9.788861-4.114159-7.660848-9.079524l4.823496-11.065669c0.851205-1.986146 0.709338-4.256027-0.425602-6.100305l-6.242173-10.214463c-2.837351-4.681629 0.851205-10.640067 6.38404-10.072597l11.916875 1.276808c2.128013 0.283735 4.256027-0.56747 5.674702-2.269881l7.802715-9.221391c3.546689-4.114159 10.356331-2.411748 11.491272 2.979219l2.553616 11.775007c0.425603 2.128013 1.986146 3.972291 3.972292 4.681629l11.207536 4.539762c5.107232 1.986146 5.532835 9.079523 0.851206 11.775007zM705.791078 92.21391l-10.356332 6.100304c-1.844278 1.13494-3.121086 2.979219-3.262953 5.2491l-0.993073 12.058742c-0.425603 5.532835-6.95151 8.086451-11.065669 4.397894l-8.937656-8.08645c-1.560543-1.418676-3.830424-1.986146-5.958437-1.560544l-11.775007 2.837352c-5.390967 1.276808-9.788861-4.114159-7.660848-9.079524l4.823497-11.065669c0.851205-1.986146 0.709338-4.256027-0.425603-6.100305L644.078692 76.608479c-2.837351-4.681629 0.851205-10.640067 6.38404-10.072596l11.916875 1.276807c2.128013 0.283735 4.256027-0.56747 5.674702-2.26988l7.802715-9.221391c3.546689-4.114159 10.356331-2.411748 11.491272 2.979218l2.553616 11.775007c0.425603 2.128013 1.986146 3.972291 3.972291 4.681629l11.207537 4.539762c5.107232 2.269881 5.532835 9.221391 0.709338 11.916875z" fill="#F7F4EB" p-id="1799"></path><path d="M688.341369 833.046273c-3.972291-3.404821-8.228318-6.242172-12.626212-8.512053 14.328623 21.422001 13.193682 50.504849-4.539762 70.791909-17.733444 20.28706-46.39069 25.252424-69.515101 13.90302 2.837351 4.114159 6.100305 7.944583 10.072596 11.491272 24.259352 21.138265 61.003048 18.726517 82.141313-5.390967 21.138265-24.259352 18.584649-61.003048-5.532834-82.283181z" fill="#FCF0DE" p-id="1800"></path></svg>