<?xml version="1.0" standalone="no"?><!DOCTYPE svg PUBLIC "-//W3C//DTD SVG 1.1//EN" "http://www.w3.org/Graphics/SVG/1.1/DTD/svg11.dtd"><svg t="1602475115130" class="icon" viewBox="0 0 1024 1024" version="1.1" xmlns="http://www.w3.org/2000/svg" p-id="9254" xmlns:xlink="http://www.w3.org/1999/xlink" width="200" height="200"><defs><style type="text/css"></style></defs><path d="M511.432697 512.780163m-511.219837 0a511.219837 511.219837 0 1 0 1022.439673 0 511.219837 511.219837 0 1 0-1022.439673 0Z" fill="#C9E0F2" p-id="9255"></path><path d="M840.803524 727.537886c-19.007619 134.755506-181.13977 217.452833-304.83114 217.452833h-51.774484c-123.833218 0-285.823521-82.697326-304.83114-217.452833-19.007619-134.755506 194.473473-208.800111 235.609364-316.037124 39.150021-101.846793-70.640255-187.664774-81.704391-195.891952 10.922288 2.127719 108.939188-2.836958 160.713672-5.673916 5.957612-0.283696 11.347832-0.567392 16.028813-0.851087 4.539133 0.283696 9.929353 0.567392 16.028813 0.851087 51.916332 2.836958 149.791384 7.801635 160.713672 5.673916-11.064136 8.227178-120.854412 94.045159-81.704391 195.891952 41.277739 107.237013 254.758831 181.281618 235.751212 316.037124z" fill="#D0EFF7" p-id="9256"></path><path d="M525.901183 207.949023v2.127719c-5.957612-0.425544-11.347832-0.70924-16.028813-0.992935 10.071201-0.70924 16.028813-1.134783 16.028813-1.134784zM493.985405 207.949023s6.09946 0.425544 16.028813 0.992936c-4.539133 0.283696-9.929353 0.70924-16.028813 0.992935v-1.985871z" fill="#F2E2DA" p-id="9257"></path><path d="M324.477163 198.161518a185.537055 61.845685 0 1 0 371.07411 0 185.537055 61.845685 0 1 0-371.07411 0Z" fill="#ACD8E2" p-id="9258"></path><path d="M508.879435 260.007203c66.384818 0 124.542457-11.631528 157.309322-29.07882-16.028813-33.617953-80.42776-58.725031-157.309322-58.725031s-141.28051 25.107079-157.309323 58.725031c32.766865 17.447292 90.924505 29.07882 157.309323 29.07882z" fill="#91BEC6" p-id="9259"></path><path d="M510.014218 148.372905c96.314725 0 175.465854 24.539687 184.685967 55.746225 0.567392-1.985871 0.851087-3.971741 0.851088-6.09946 0-34.185344-83.12287-61.845685-185.537055-61.845685s-185.537055 27.660341-185.537055 61.845685c0 1.985871 0.283696 4.113589 0.851087 6.09946 9.078266-31.206538 88.371243-55.746225 184.685968-55.746225z" fill="#BDE8EF" p-id="9260"></path><path d="M532.85173 258.730572c-6.383156-0.567392-11.631528-1.844023-11.48968-2.836958l70.782103-175.891398c0.141848-0.851087 5.39022-1.134783 11.773376-0.567391 6.383156 0.567392 11.631528 1.844023 11.48968 2.836958l-70.782103 175.891397c0 0.851087-5.39022 1.134783-11.773376 0.567392z" fill="#63A5A5" p-id="9261"></path><path d="M695.409425 196.459343c0.992935 4.255437 0.567392 9.078266-1.134783 13.333703-1.702175 4.397285-4.255437 8.369026-7.234243 11.773376-6.09946 6.950547-13.617399 12.482615-21.277185 17.163596-15.603269 9.220114-32.625017 15.461421-49.646766 20.426098-8.652722 2.411414-17.305444 4.397285-25.958166 6.09946-8.652722 1.844023-17.447292 2.978806-26.241862 4.113589-2.269566 0.283696-4.397285 0.567392-6.666851 0.851087l-6.666851 0.567392c-4.397285 0.425544-8.79457 0.70924-13.191855 0.992935-8.79457 0.567392-17.730988 0.70924-26.525558 0.851087-8.79457 0-17.730988-0.283696-26.525557-0.709239-8.79457-0.567392-17.730988-1.276631-26.525558-2.411414-8.79457-1.134783-17.58914-2.269566-26.241862-4.11359-4.397285-0.851087-8.652722-1.702175-13.050006-2.69511l-6.525004-1.560327-6.525003-1.702174c-17.163596-4.822829-34.043496-10.922288-49.788614-20.000554-3.971741-2.269566-7.659787-4.822829-11.347832-7.517939-0.851087-0.70924-1.844023-1.418479-2.69511-2.127719-0.851087-0.70924-1.844023-1.418479-2.553262-2.269566l-2.553262-2.269567-2.411415-2.553262c-3.120654-3.40435-5.815764-7.234243-7.801634-11.48968-1.844023-4.255437-2.836958-8.936418-1.985871-13.333703 0.70924 4.397285 2.69511 8.227178 5.39022 11.347833 2.553262 3.120654 5.815764 5.815764 9.220114 8.08533 6.808699 4.539133 14.468486 7.943482 22.27012 10.638593 15.745117 5.532068 32.199474 9.078266 48.795678 11.773375 33.192409 5.248372 67.094057 7.234243 100.853858 7.234243 8.510874 0 16.8799-0.141848 25.390775-0.425543 8.510874-0.283696 16.8799-0.70924 25.248926-1.276632s16.8799-1.418479 25.248927-2.269566c8.369026-0.992935 16.738052-2.127719 24.96523-3.546197 16.596204-2.836958 33.050561-6.383156 48.65383-12.19892 1.985871-0.70924 3.829893-1.560327 5.815764-2.269566 1.844023-0.851087 3.829893-1.702175 5.673916-2.553263 3.688045-1.702175 7.234243-3.971741 10.638593-6.241307 3.262502-2.411414 6.383156-5.106524 8.652722-8.369026l0.851087-1.276632 0.70924-1.276631 0.709239-1.418479 0.567392-1.418479c0.141848-0.425544 0.425544-0.992935 0.567392-1.418479l0.283695-1.560327c0.141848-0.567392 0.283696-0.992935 0.425544-1.560327l0.141848-1.418479z" fill="#E3FCFF" p-id="9262"></path><path d="M366.180446 195.182712m-8.79457 0a8.79457 8.79457 0 1 0 17.58914 0 8.79457 8.79457 0 1 0-17.58914 0Z" fill="#647F84" p-id="9263"></path><path d="M332.13695 551.362793s64.540795-37.447846 154.897908 23.830447c78.867433 53.476659 135.89029-40.710348 204.402826-20.709794 7.659787 73.619061-35.603823 87.378307-35.603823 87.378308l-287.809392-25.390775-35.887519-65.108186z" fill="#7AB9C4" p-id="9264"></path><path d="M691.437684 554.483446c-32.057626 56.029921-76.456019-25.67447-152.628342 22.695665-101.988641 64.824491-155.323452 10.496745-206.672392-25.816318-60.001662 50.356005-122.98213 101.988641-113.052778 172.770744 16.738052 118.442998 159.153345 191.210971 268.092534 191.210971h45.391328c108.939188 0 251.354481-72.626126 268.092534-191.210971 9.929353-69.221776-50.214157-120.28702-109.222884-169.650091z" fill="#A0D4E0" p-id="9265"></path><path d="M703.21106 545.688877c-15.603269 28.936972-34.327192 23.121208-58.15764 15.603269 53.618507 54.895138 103.40712 112.910929 94.328854 189.366948-7.092395 60.994598-37.305998 111.917994-77.874497 150.216928 74.470148-32.341322 139.862031-93.761463 150.926167-176.033246 9.787505-73.193517-50.356005-127.09572-109.222884-179.153899z" fill="#D0EDEF" opacity=".4" p-id="9266"></path><path d="M681.792026 221.424574c-11.064136 8.227178-115.889735 88.229395-76.739714 190.218036C646.330051 518.879623 859.811143 592.924228 840.661676 727.679734c-19.007619 134.755506-181.13977 217.452833-304.83114 217.452833h-51.774484c-123.833218 0-285.823521-82.697326-304.83114-217.452833-19.007619-134.755506 194.473473-208.800111 235.609364-316.037124 39.150021-101.846793-70.640255-187.664774-81.704391-195.891952 5.957612 5.815764 30.639147 40.710348 172.912592 42.270675 119.435933 1.134783 175.74955-36.596759 175.749549-36.596759z" fill="#EEFCFF" opacity=".19" p-id="9267"></path><path d="M304.902153 611.222607c-31.915778 38.298933-56.739161 72.909821-45.816873 80.002216 3.971741 2.553262 26.809253-30.922842 58.725032-69.221775s29.220668-35.745671 25.67447-38.724478-6.666851-10.354897-38.582629 27.944037zM238.375487 716.899294c-2.69511 10.780441 1.276631 13.191855 4.680981 14.042942 3.40435 0.851087 4.964677-0.283696 7.659786-10.922289 2.69511-10.780441 2.978806-14.752182-0.425543-15.603269-3.40435-0.851087-9.361961 1.844023-11.915224 12.482616z" fill="#F0FCFB" p-id="9268"></path><path d="M564.341964 698.317218c-3.829893 2.411414-7.376091 5.248372-10.496745 8.227179 21.135337-7.517939 43.547306-1.844023 54.044051 14.894029 10.496745 16.738052 5.673916 39.433717-10.213049 55.178834 4.113589-1.418479 8.08533-3.40435 12.057072-5.815764 23.972295-15.035878 33.192409-43.405458 20.709793-63.54786-12.482615-19.858706-42.128827-23.972295-66.101122-8.936418z" fill="#F7F4EB" p-id="9269"></path><path d="M820.09373 312.349079c-4.964677-4.397285-10.354897-7.943482-16.028813-10.638593 18.156531 27.092949 16.596204 63.831556-5.815764 89.506026-22.411968 25.67447-58.725031 31.915778-87.945698 17.58914 3.546198 5.248372 7.801635 10.071201 12.766311 14.468486 30.639147 26.809253 77.165258 23.6886 103.974511-6.950547s23.6886-77.165258-6.950547-103.974512z" fill="#F2E5C0" p-id="9270"></path><path d="M427.884283 661.01122l-13.617399 6.666852c-1.418479 0.70924-2.411414 1.985871-2.553262 3.546197l-2.269566 15.035878c-0.567392 3.829893-5.39022 5.39022-8.085331 2.553262l-10.496744-10.922288c-1.134783-1.134783-2.69511-1.702175-4.113589-1.418479l-15.035878 2.411414c-3.829893 0.567392-6.808699-3.40435-4.964676-6.950547l7.234242-13.475551c0.70924-1.418479 0.70924-2.978806 0-4.397285l-6.950547-13.47555c-1.844023-3.546198 1.134783-7.517939 4.964677-6.8087l15.035877 2.69511c1.560327 0.283696 3.120654-0.283696 4.255437-1.276631l10.638593-10.78044c2.69511-2.836958 7.517939-1.134783 8.08533 2.69511l2.127719 15.035878c0.141848 1.560327 1.134783 2.836958 2.553262 3.546197l13.617399 6.808699c3.120654 1.844023 3.120654 6.808699-0.425544 8.510874zM480.084311 827.9662l-5.957612 2.836958c-0.567392 0.283696-0.992935 0.851087-1.134783 1.560327l-0.992936 6.525004c-0.283696 1.702175-2.269566 2.411414-3.546197 1.134783l-4.539133-4.822829c-0.425544-0.425544-1.134783-0.70924-1.844023-0.567391l-6.525003 1.134783c-1.702175 0.283696-2.978806-1.560327-2.127719-2.978806l3.120654-5.815764c0.283696-0.567392 0.283696-1.276631 0-1.985871l-2.978806-5.957611c-0.851087-1.560327 0.567392-3.262502 2.127719-2.978806l6.525003 1.134783c0.70924 0.141848 1.418479-0.141848 1.844023-0.567392l4.680981-4.680981c1.134783-1.276631 3.262502-0.567392 3.546197 1.134784l0.851088 6.525003c0.141848 0.70924 0.567392 1.276631 1.134783 1.560327l5.957612 2.978806c1.418479 0.851087 1.418479 3.120654-0.141848 3.829893zM551.291957 860.591218l-10.496744 5.106524c-1.134783 0.567392-1.844023 1.560327-1.985871 2.69511l-1.702175 11.48968c-0.425544 2.978806-4.113589 4.113589-6.241308 1.985871l-8.08533-8.369026c-0.851087-0.851087-1.985871-1.276631-3.120654-0.992936l-11.48968 1.844023c-2.978806 0.425544-5.106524-2.69511-3.829893-5.248372l5.532068-10.213049c0.567392-0.992935 0.567392-2.269566 0-3.40435l-5.39022-10.354897c-1.418479-2.69511 0.851087-5.673916 3.829893-5.248372l11.48968 1.985871c1.134783 0.141848 2.411414-0.141848 3.262502-0.992936l8.227178-8.227178c2.127719-2.127719 5.673916-0.851087 6.09946 1.985871l1.560327 11.48968c0.141848 1.134783 0.851087 2.269566 1.98587 2.69511l10.354897 5.248372c2.69511 1.418479 2.69511 5.248372 0 6.525004z" fill="#F7F4EB" p-id="9271"></path></svg>