<?xml version="1.0" standalone="no"?><!DOCTYPE svg PUBLIC "-//W3C//DTD SVG 1.1//EN" "http://www.w3.org/Graphics/SVG/1.1/DTD/svg11.dtd"><svg t="1602475026236" class="icon" viewBox="0 0 1024 1024" version="1.1" xmlns="http://www.w3.org/2000/svg" p-id="5696" xmlns:xlink="http://www.w3.org/1999/xlink" width="200" height="200"><defs><style type="text/css"></style></defs><path d="M512.141907 512.567627m-511.432373 0a511.432373 511.432373 0 1 0 1022.864745 0 511.432373 511.432373 0 1 0-1022.864745 0Z" fill="#FFF2E6" p-id="5697"></path><path d="M464.31929 105.862528c13.62306 14.190687 43.13969 50.093126 34.909091 87.982261-0.993348 4.257206 3.405765 7.662971 7.237251 5.676275 91.955654-47.68071 160.354767-55.201774 205.339246-46.26164 4.824834 0.993348 5.676275 7.379157 1.277162 9.50776-22.421286 11.068736-37.179601 18.731707-46.971175 24.266075-4.824834 2.696231-2.554324 10.075388 2.980044 9.507761 40.585366-3.831486 128.993348-0.283814 181.356985 91.104213 1.560976 2.838137 0.283814 6.385809-2.838138 7.379157-25.117517 8.088692-38.740576 13.197339-46.119734 16.461198-3.973392 1.702882-4.115299 7.237251-0.283814 9.223946 29.800443 15.184035 128.851441 79.042129 105.152994 244.931264-1.702882 12.203991-16.31929 17.596452-25.685144 9.507761l-0.425721-0.425721c-5.676275-4.824834-14.190687 0-13.055432 7.379158 7.237251 45.83592 8.940133 166.031042-145.028825 254.013303-13.339246 7.662971-29.51663-4.115299-26.394679-19.157428 9.365854-45.126386-0.283814-39.733925-3.121951-37.321507-0.425721 0.425721-0.851441 0.851441-1.135255 1.419068-4.257206 7.521064-45.977827 78.04878-116.079822 85.995566-65.419069 7.379157-91.529933 32.070953-90.678493 55.769401 0.141907 3.689579-3.689579 6.243902-7.095343 4.824834-106.146341-44.558758-170.572062-105.011086-188.168515-142.900222-1.844789-3.973392-7.521064-3.973392-9.365853 0.141907-11.068736 25.827051-22.137472 33.631929-25.543238 32.496674-0.993348-0.283814-1.702882-0.851441-2.412417-1.702882-3.689579-4.54102-40.86918-81.028825-44.416851-109.268293-0.567627-4.54102-6.243902-6.101996-9.08204-2.554324-17.028825 21.569845-15.325942 52.505543-17.596452 49.525499-0.141907-0.283814-0.283814-0.425721-0.425721-0.709534-3.547672-7.095344-57.614191-115.796009-32.780488-172.416852-23.556541 50.802661-26.110865 47.68071-25.968958 43.281597 0.141907-2.412417-1.135255-10.926829-1.702882-13.19734C113.95122 583.804878 85.144124 448.851441 174.829268 376.053215c4.115299-3.405765 1.135255-9.933481-4.115299-8.940133l-27.104213 5.108647c-3.973392 0.709534-7.095344-3.121951-5.676275-6.953436 12.345898-30.368071 59.175166-131.547672 135.379158-136.372506 4.54102-0.283814 6.527716-5.960089 2.980044-8.940133l-27.813747-24.266075c-2.554324-2.27051-2.27051-6.243902 0.567627-8.088692 14.758315-9.365854 74.359202-13.197339 134.81153 1.419069 60.878049 14.616408 65.844789-59.033259 71.804878-80.886918 1.277162-3.831486 5.960089-5.108647 8.656319-2.27051z" fill="#FCD1B4" p-id="5698"></path><path d="MNaN NaNaNaN NaN NaN 1 0 NaN NaN NaN NaN NaN 1 0 NaN NaNZ" fill="#FFE6D4" p-id="5699"></path><path d="M414.999489 502.762932a23.840355 25.685144 1.39 1 0 1.246125-51.355172 23.840355 25.685144 1.39 1 0-1.246125 51.355172Z" fill="#635C5B" p-id="5700"></path><path d="M422.396154 495.626065a6.81153 7.379157 1.39 1 0 0.358002-14.753972 6.81153 7.379157 1.39 1 0-0.358002 14.753972Z" fill="#D6D1D0" p-id="5701"></path><path d="M428.092924 478.398348a2.554324 2.412417 63.64 1 0 4.323157-2.142273 2.554324 2.412417 63.64 1 0-4.323157 2.142273Z" fill="#D6D1D0" p-id="5702"></path><path d="M575.162621 512.094218a23.840355 25.685144 1.39 1 0 1.246125-51.355172 23.840355 25.685144 1.39 1 0-1.246125 51.355172Z" fill="#635C5B" p-id="5703"></path><path d="M578.978501 504.887176a6.81153 7.379157 1.39 1 0 0.358003-14.753972 6.81153 7.379157 1.39 1 0-0.358003 14.753972Z" fill="#D6D1D0" p-id="5704"></path><path d="M584.618192 487.778359a2.554324 2.412417 63.64 1 0 4.323156-2.142273 2.554324 2.412417 63.64 1 0-4.323156 2.142273Z" fill="#D6D1D0" p-id="5705"></path><path d="M604.665188 670.651885c-2.838137 55.911308-63.006652 83.441242-130.554323 80.745011-67.689579-2.696231-117.356984-34.767184-114.37694-90.678492s60.026608-98.909091 127.716186-96.212861 120.053215 50.37694 117.215077 106.146342z" fill="#FFFDFD" p-id="5706"></path><path d="M514.412417 576.851441c-0.425721 8.656319-15.325942 15.042129-33.206209 14.332594-17.880266-0.709534-32.070953-8.230599-31.645232-16.886917 0.425721-8.656319 15.609756-20.150776 33.490022-19.299335s31.78714 13.197339 31.361419 21.853658z" fill="#5B3E2C" p-id="5707"></path><path d="M501.073171 571.317073c-1.419069 2.554324-5.250554 0.283814-10.217295-1.844789s-9.223947-3.547672-7.804878-6.101996c1.419069-2.554324 6.669623-2.838137 11.636363-0.709534 4.824834 2.27051 7.804878 6.101996 6.38581 8.656319z" fill="#7A5C54" p-id="5708"></path><path d="M263.804878 356.470067c21.002217-31.503326 53.924612-54.350333 92.239468-62.439025-4.966741-28.807095-29.94235-50.660754-60.168515-50.660754-33.773836 0-61.019956 27.388027-61.019955 61.019956-0.141907 22.137472 11.494457 41.2949 28.949002 52.079823z" fill="#F7D7B5" p-id="5709"></path><path d="M270.900222 333.197339c12.771619-19.157428 32.780488-33.064302 56.053215-38.031042-2.980044-17.454545-18.305987-30.793792-36.611974-30.793791-20.43459 0-37.179601 16.603104-37.1796 37.1796 0.141907 13.481153 7.095344 25.117517 17.738359 31.645233z" fill="#C69B85" p-id="5710"></path><path d="M748.558758 356.470067c-21.002217-31.503326-53.924612-54.350333-92.239468-62.439025 4.966741-28.807095 29.94235-50.660754 60.168515-50.660754 33.773836 0 61.019956 27.388027 61.019956 61.019956 0.141907 22.137472-11.494457 41.2949-28.949003 52.079823z" fill="#F7D7B5" p-id="5711"></path><path d="M741.463415 333.197339c-12.771619-19.157428-32.780488-33.064302-56.053215-38.031042 2.980044-17.454545 18.305987-30.793792 36.611973-30.793791 20.43459 0 37.179601 16.603104 37.179601 37.1796 0 13.481153-7.095344 25.117517-17.738359 31.645233z" fill="#C69B85" p-id="5712"></path><path d="M972.203991 394.784922l-9.649667 5.534368c-1.702882 0.993348-2.838137 2.838137-2.980045 4.824834l-0.851441 11.068736c-0.425721 5.108647-6.385809 7.521064-10.217295 4.1153l-8.230598-7.379158c-1.560976-1.277162-3.547672-1.844789-5.534369-1.419069l-10.784922 2.554324c-4.966741 1.135255-9.08204-3.831486-6.953437-8.372505l4.54102-10.217295c0.851441-1.844789 0.709534-3.973392-0.42572-5.676275L915.299335 380.310421c-2.696231-4.257206 0.851441-9.791574 5.818182-9.223946l11.068736 1.135254c1.986696 0.141907 3.973392-0.567627 5.250554-2.128603l7.237251-8.514412c3.263858-3.831486 9.507761-2.27051 10.643015 2.696231l2.27051 10.926829c0.425721 1.986696 1.844789 3.547672 3.689579 4.399113l10.217295 4.257206c4.682927 1.986696 5.108647 8.372506 0.709534 10.926829zM71.662971 517.392461l-9.649667 5.534368c-1.702882 0.993348-2.838137 2.838137-2.980045 4.824834l-0.851441 11.068736c-0.425721 5.108647-6.385809 7.521064-10.217295 4.115299l-8.230598-7.379157c-1.560976-1.277162-3.547672-1.844789-5.534368-1.419069l-10.784923 2.554324c-4.966741 1.135255-9.08204-3.831486-6.953437-8.372506l4.54102-10.217294c0.851441-1.844789 0.709534-3.973392-0.42572-5.676275l-5.818182-9.507761c-2.696231-4.257206 0.851441-9.791574 5.818182-9.223947l11.068736 1.135255c1.986696 0.141907 3.973392-0.567627 5.250554-2.128603l7.237251-8.514412c3.263858-3.831486 9.507761-2.27051 10.643015 2.69623l2.27051 10.92683c0.425721 1.986696 1.844789 3.547672 3.689579 4.399113l10.217295 4.257206c4.682927 1.986696 5.108647 8.372506 0.709534 10.926829zM849.596452 851.441242l-9.649667 5.534368c-1.702882 0.993348-2.838137 2.838137-2.980044 4.824833l-0.851442 11.068737c-0.425721 5.108647-6.385809 7.521064-10.217295 4.115299l-8.230598-7.379157c-1.560976-1.277162-3.547672-1.844789-5.534368-1.419069l-10.784923 2.554323c-4.966741 1.135255-9.08204-3.831486-6.953437-8.372505l4.54102-10.217295c0.851441-1.844789 0.709534-3.973392-0.42572-5.676275l-5.818182-9.50776c-2.696231-4.257206 0.851441-9.791574 5.818182-9.223947l11.068736 1.135255c1.986696 0.141907 3.973392-0.567627 5.250554-2.128603l7.237251-8.514413c3.263858-3.831486 9.507761-2.27051 10.643015 2.696231l2.27051 10.926829c0.425721 1.986696 1.844789 3.547672 3.689579 4.399113l10.217295 4.257206c4.682927 1.844789 5.108647 8.372506 0.709534 10.92683z" fill="#FCD1B4" p-id="5713"></path><path d="M958.013304 632.620843c-3.121951-2.696231-6.527716-5.108647-9.933481-6.953437 11.920177 16.603104 12.345898 38.314856-0.283814 52.64745-12.487805 14.332594-34.05765 16.745011-52.079823 7.095344 2.27051 3.263858 4.966741 6.243902 8.230599 8.940133 19.299335 16.886918 47.113082 16.886918 62.155211-0.283814 14.900222-16.886918 11.35255-44.558758-8.088692-61.445676zM359.308204 157.232816c3.973392 1.277162 7.946785 1.986696 11.920177 2.27051-17.596452-10.359202-26.678492-30.084257-21.002217-48.248337S374.634146 82.16408 395.068736 83.725055c-3.405765-1.986696-7.095344-3.689579-11.068736-4.96674-24.549889-7.662971-49.95122 3.689579-56.762749 25.259423-6.81153 21.711752 7.521064 45.552106 32.070953 53.215078z" fill="#FFF1CF" p-id="5714"></path></svg>