<?xml version="1.0" standalone="no"?><!DOCTYPE svg PUBLIC "-//W3C//DTD SVG 1.1//EN" "http://www.w3.org/Graphics/SVG/1.1/DTD/svg11.dtd"><svg t="1602474957907" class="icon" viewBox="0 0 1024 1024" version="1.1" xmlns="http://www.w3.org/2000/svg" p-id="2980" xmlns:xlink="http://www.w3.org/1999/xlink" width="200" height="200"><defs><style type="text/css"></style></defs><path d="M511.858054 512.425839m-511.574162 0a511.574161 511.574161 0 1 0 1023.148323 0 511.574161 511.574161 0 1 0-1023.148323 0Z" fill="#EDDBC1" p-id="2981"></path><path d="M110.29221 657.778764a399.436651 311.855836 0 1 0 798.873302 0 399.436651 311.855836 0 1 0-798.873302 0Z" fill="#FFFFFF" p-id="2982"></path><path d="M61.320765 485.172165a184.813973 167.638481 0 1 0 369.627946 0 184.813973 167.638481 0 1 0-369.627946 0Z" fill="#FFFFFF" p-id="2983"></path><path d="M233.643471 317.959523a127.89354 116.112004 0 1 0 255.787081 0 127.89354 116.112004 0 1 0-255.787081 0Z" fill="#FFFFFF" p-id="2984"></path><path d="M423.283615 302.913224a127.89354 116.112004 0 1 0 255.787081 0 127.89354 116.112004 0 1 0-255.787081 0Z" fill="#FFFFFF" p-id="2985"></path><path d="M614.201275 384.958137a127.89354 116.112004 0 1 0 255.787081 0 127.89354 116.112004 0 1 0-255.787081 0Z" fill="#FFFFFF" p-id="2986"></path><path d="M730.029387 554.725811a127.89354 116.112004 0 1 0 255.787081 0 127.89354 116.112004 0 1 0-255.787081 0Z" fill="#FFFFFF" p-id="2987"></path><path d="M195.176047 618.601608a327.186027 285.595786 0 1 0 654.372054 0 327.186027 285.595786 0 1 0-654.372054 0Z" fill="#FFF2F0" p-id="2988"></path><path d="M357.704464 493.405046a28.247297 26.26005 90 1 0 52.520099 0 28.247297 26.26005 90 1 0-52.520099 0Z" fill="#635C5B" p-id="2989"></path><path d="M384.532298 505.470474a8.090934 7.523149 90 1 0 15.046299 0 8.090934 7.523149 90 1 0-15.046299 0Z" fill="#D6D1D0" p-id="2990"></path><path d="M397.925662 494.579717a2.838924 2.555032 62.252 1 0 4.522426-2.379162 2.838924 2.555032 62.252 1 0-4.522426 2.379162Z" fill="#D6D1D0" p-id="2991"></path><path d="M571.901303 497.37954a28.247297 26.26005 90 1 0 52.5201 0 28.247297 26.26005 90 1 0-52.5201 0Z" fill="#635C5B" p-id="2992"></path><path d="M594.612698 509.444968a8.090934 7.523149 90 1 0 15.046298 0 8.090934 7.523149 90 1 0-15.046298 0Z" fill="#D6D1D0" p-id="2993"></path><path d="M607.969123 498.538091a2.838924 2.555032 62.252 1 0 4.522426-2.379162 2.838924 2.555032 62.252 1 0-4.522426 2.379162Z" fill="#D6D1D0" p-id="2994"></path><path d="M811.506515 400.572221c-13.059052 20.440255-51.526476-20.298309-64.86942-30.37649-13.342944-9.936235-54.649293-16.8916-42.158027-37.89964 47.551982-79.773773 183.820349-82.044913 213.345163-63.308012 29.666759 18.878847-56.352648 53.229831-106.317716 131.584142z" fill="#F7D57C" p-id="2995"></path><path d="M300.0743 338.967563c7.948988 22.995287 54.791239-7.807042 70.121431-14.336568 15.330191-6.529526 57.062379-3.690602 49.823121-26.969781-27.537566-88.716385-159.547546-122.925423-192.621014-111.427779-33.073468 11.497643 42.441918 65.011367 72.676462 152.734128z" fill="#C48871" p-id="2996"></path><path d="M523.63959 661.753258c0 10.220128-14.052675 7.948988-31.228168 7.948988-17.317438 0-31.228167 2.271139-31.228167-7.948988 0-10.220128 14.052675-24.840588 31.228167-24.840588s31.228167 14.62046 31.228168 24.840588z" fill="#F4DEDC" p-id="2997"></path><path d="M542.234544 108.872747l-21.859717-4.400332c-2.271139-0.425839-4.542279 0.283892-6.245634 1.845301l-16.039922 15.472137c-4.11644 3.974494-11.071805 1.561408-11.63959-4.11644l-2.555032-22.14361c-0.283892-2.271139-1.561408-4.258386-3.690601-5.25201l-19.730524-10.362074c-5.110064-2.696978-4.826171-10.078181 0.283892-12.34932l20.298309-9.368451c2.129193-0.993624 3.548655-2.838924 3.974494-5.110063l3.832548-22.001664c0.993624-5.677849 8.090934-7.665096 11.923482-3.548655l15.046299 16.323815c1.561408 1.703355 3.832548 2.555032 6.103687 2.129193l22.001664-3.122817c5.677849-0.851677 9.794289 5.25201 6.955364 10.220128l-10.929859 19.446631c-1.13557 1.987247-1.13557 4.400333-0.141946 6.38758l9.794289 20.014416c2.696978 5.25201-1.845301 11.071805-7.381203 9.936235z" fill="#F7F4EB" p-id="2998"></path><path d="M726.054893 745.075686l-21.859717-4.400333c-2.271139-0.425839-4.542279 0.283892-6.245633 1.845301L681.90962 757.992792c-4.11644 3.974494-11.071805 1.561408-11.63959-4.11644l-2.555031-22.14361c-0.283892-2.271139-1.561408-4.258386-3.690602-5.25201l-19.730524-10.362074c-5.110064-2.696978-4.826171-10.078181 0.283892-12.349321l20.298309-9.36845c2.129193-0.993624 3.548655-2.838924 3.974494-5.110064l3.832548-22.001663c0.993624-5.677849 8.090934-7.665096 11.923482-3.548655l15.046299 16.323814c1.561408 1.703355 3.832548 2.555032 6.103687 2.129194l22.001664-3.122817c5.677849-0.851677 9.794289 5.25201 6.955364 10.220127l-10.929858 19.446632c-1.13557 1.987247-1.13557 4.400333-0.141946 6.38758l9.794288 20.014416c2.696978 5.25201-1.703355 11.071805-7.381203 9.936235z" fill="#F4E5C1" p-id="2999"></path><path d="M297.803161 743.940116l-17.743277-13.48489c-1.845301-1.419462-4.258386-1.845301-6.38758-0.993624l-21.149986 6.955365c-5.393956 1.845301-10.645966-3.406709-8.658719-8.800665l7.381203-21.00804c0.709731-2.129193 0.425839-4.542279-0.993624-6.38758l-13.200998-18.027169c-3.406709-4.684225 0-11.213751 5.677849-11.071805l22.285556 0.425838c2.271139 0 4.400333-0.993624 5.819795-2.838924l13.059051-18.027169c3.406709-4.684225 10.645966-3.406709 12.207375 1.987247l6.38758 21.291932c0.709731 2.129193 2.413086 3.832548 4.542279 4.542279l21.291932 6.813418c5.535902 1.703355 6.529526 8.942612 1.845301 12.349321l-18.311062 12.77516c-1.845301 1.277516-2.980871 3.406709-2.980871 5.677848l0.141947 22.285556c0 5.677849-6.671472 9.084558-11.213751 5.535902z" fill="#F7DDDA" p-id="3000"></path><path d="M153.159967 287.866925l-14.194622-2.838924c-1.419462-0.283892-2.980871 0.141946-3.974494 1.13557l-10.362074 10.078181c-2.696978 2.555032-7.239257 0.993624-7.665095-2.696978l-1.703355-14.336568c-0.141946-1.419462-0.993624-2.696978-2.413086-3.406709l-12.775159-6.813418c-3.264763-1.703355-3.122817-6.529526 0.283892-8.090935l13.200999-6.103687c1.277516-0.567785 2.271139-1.845301 2.555031-3.264763l2.413086-14.336568c0.709731-3.690602 5.25201-4.968118 7.807042-2.271139l9.794289 10.645966c0.993624 1.13557 2.413086 1.561408 3.974494 1.419462l14.336568-1.987247c3.690602-0.567785 6.38758 3.406709 4.542279 6.671472l-7.097311 12.633214c-0.709731 1.277516-0.709731 2.838924-0.141946 4.258386l6.387579 13.059052c1.561408 3.122817-1.277516 6.955365-4.968117 6.245633z" fill="#F7F4EB" p-id="3001"></path></svg>