<?xml version="1.0" standalone="no"?><!DOCTYPE svg PUBLIC "-//W3C//DTD SVG 1.1//EN" "http://www.w3.org/Graphics/SVG/1.1/DTD/svg11.dtd"><svg t="1602474968665" class="icon" viewBox="0 0 1024 1024" version="1.1" xmlns="http://www.w3.org/2000/svg" p-id="3395" xmlns:xlink="http://www.w3.org/1999/xlink" width="200" height="200"><defs><style type="text/css"></style></defs><path d="M512.56747 512.709338m-511.290662 0a511.290662 511.290662 0 1 0 1022.581324 0 511.290662 511.290662 0 1 0-1022.581324 0Z" fill="#DCDFD9" p-id="3396"></path><path d="M168.822388 386.73095c-8.228318 41.992796 47.100028-6.100305 103.137712 4.823497s103.988917-4.823497 116.047658-45.82322c12.909947-43.978942-20.003325-103.847049-98.030479-91.078969-56.463286 9.221391-112.926572 90.085896-121.154891 132.078692z" fill="#CCA98F" p-id="3397"></path><path d="M213.794403 358.92491c-6.38404 22.273206 34.899418-1.844278 64.691604 6.667775s59.300637-2.553616 67.812691-24.259352c8.937656-23.124411-6.100305-56.888889-48.802439-53.625935-30.927127 2.553616-77.459684 48.944306-83.701856 71.217512z" fill="#DDC2AC" p-id="3398"></path><path d="M837.727902 244.437794c31.494597 36.459961-49.511776 20.145193-98.314214 62.279856-48.802438 41.992796-104.414519 53.200333-139.17207 19.71959-37.169299-35.892491-38.304239-112.784705 45.25575-143.711831 60.435578-22.556941 160.877805 25.110557 192.230534 61.712385z" fill="#CCA98F" p-id="3399"></path><path d="M789.918537 237.486284c17.024106 19.71959-36.459961 14.612358-62.989194 37.453034s-61.854253 25.394292-80.722638 7.377113c-20.145193-19.435855-20.712663-61.003048 24.543087-77.885287 32.629537-12.20061 102.144638 13.193682 119.168745 33.05514z" fill="#DDC2AC" p-id="3400"></path><path d="M828.506511 495.401496c36.885564 179.74619-83.418121 260.752563-264.866722 273.09504C347.149903 783.250762 242.593516 718.41729 246.849543 534.982544c4.397894-187.26517 155.203103-305.866445 266.427265-312.392353 125.127182-7.235245 275.364921 78.87836 315.229703 272.811305z" fill="#DDC2AC" p-id="3401"></path><path d="M908.377944 680.254918c9.788861 143.428096-140.023275 238.195622-332.111942 251.247437S222.590191 870.783042 212.80133 727.496814c-9.788861-143.428096 141.725686-215.922416 333.814353-228.974232 192.088667-13.051815 351.9734 38.304239 361.762261 181.732336z" fill="#FFF2EF" p-id="3402"></path><path d="M767.787199 649.753394c-6.525907 13.619285-24.401219 1.986146-47.951233-9.363258-23.550014-11.349404-43.695206-18.159047-37.169299-31.778332s30.927127-15.321696 54.47714-3.972292c23.408146 11.491272 37.169299 31.636464 30.643392 45.113882zM360.05985 677.559435c8.370186 12.484345 24.543087-1.276808 46.248823-15.747299s40.857855-23.975617 32.487669-36.459961c-8.370186-12.484345-32.629537-11.065669-54.47714 3.404821-21.705736 14.328623-32.629537 36.176226-24.259352 48.802439z" fill="#7A5C54" p-id="3403"></path><path d="M397.036183 422.982123a30.075921 27.947908 82.568 1 0 55.426239-7.230092 30.075921 27.947908 82.568 1 0-55.426239 7.230092Z" fill="#635C5B" p-id="3404"></path><path d="M427.07849 432.026853a8.653921 7.944583 82.568 1 0 15.755682-2.055255 8.653921 7.944583 82.568 1 0-15.755682 2.055255Z" fill="#D6D1D0" p-id="3405"></path><path d="M439.581905 418.707813a2.979219 2.837351 54.825 1 0 4.63848-3.269058 2.979219 2.837351 54.825 1 0-4.63848 3.269058Z" fill="#D6D1D0" p-id="3406"></path><path d="M623.735893 397.732027a30.075921 27.947908 82.568 1 0 55.42624-7.230092 30.075921 27.947908 82.568 1 0-55.42624 7.230092Z" fill="#635C5B" p-id="3407"></path><path d="M649.523546 407.342663a8.653921 7.944583 82.568 1 0 15.755683-2.055254 8.653921 7.944583 82.568 1 0-15.755683 2.055254Z" fill="#D6D1D0" p-id="3408"></path><path d="M662.022395 394.020845a2.979219 2.837351 54.825 1 0 4.638481-3.269058 2.979219 2.837351 54.825 1 0-4.638481 3.269058Z" fill="#D6D1D0" p-id="3409"></path><path d="M588.182876 680.396786c5.674702 57.172624-7.235245 133.071765-9.505126 133.213632-2.269881 0.283735 6.100305-75.189803 0.425603-132.362427s-23.266279-102.286506-20.996398-102.570241c2.269881-0.141868 24.543087 44.546412 30.075921 101.719036z" fill="#7A5C54" p-id="3410"></path><path d="M570.165697 254.935993c-10.072596-7.944583-10.498199-22.698809-1.134941-31.352729 14.47049-13.477418 30.075921-49.795511 23.550014-92.355777-10.498199-67.528955 69.373234 25.53616 63.414797 84.694929-8.653921 84.269327-41.14159 72.352452-59.868108 55.186478-9.363259-8.653921-19.71959-11.349404-25.961762-16.172901z" fill="#F2CFA2" p-id="3411"></path><path d="M600.809088 107.819341c17.875312 16.456636 41.709061 73.771128 31.636465 111.224161-8.937656 33.480743-19.293987 50.504849-29.366584 57.456359 19.010252 13.051815 45.397617 13.90302 52.916598-60.719312 4.397894-42.844001-36.459961-103.563314-55.186479-107.961208z" fill="#E5BD93" p-id="3412"></path><path d="M408.862289 281.890828c6.525907-10.781934 1.844278-24.826822-10.072597-29.792186-18.300914-7.660848-45.82322-36.459961-54.619008-78.594624-14.044888-66.961485-56.179551 47.52563-29.508451 101.009698 37.736769 76.041009 64.124134 53.767803 75.615406 31.352729 5.81657-11.207537 14.612358-17.307842 18.58465-23.975617z" fill="#F2CFA2" p-id="3413"></path><path d="M398.93156 252.098642c-18.300914-7.660848-45.82322-36.459961-54.619008-78.594624-3.121086-15.179828-7.802715-20.996398-12.626212-20.428928 3.972291 3.121086 6.525907 10.781934 6.809642 24.401219 0.993073 48.944306 27.380438 88.241618 47.525631 102.002771 6.100305 4.256027 9.930729 10.214464 11.207536 16.314769 4.539762-5.532835 9.363259-9.646994 11.916875-14.044888 6.38404-10.640067 1.560543-24.684954-10.214464-29.650319z" fill="#E5BD93" p-id="3414"></path><path d="M529.165974 222.873926s-19.293987-50.079246-105.691327-10.781934c0.851205 5.249099 29.508451-0.56747 34.615683 6.95151-27.80604 3.830424-48.802438 84.978664-106.542533 80.864506-14.47049 3.404821 31.210862 39.43918 72.210585 15.03796-20.428928 25.394292-62.847326 13.619285-61.712386 20.003325 0.993073 5.532835 29.792186 29.934054 84.836797 17.024107 16.172901-3.830424 30.785259-12.484345 41.992796-24.826822 45.113882-49.937379 43.553339-58.165697 43.553339-58.165697s51.923525 17.165974 76.466611-24.826822c0.709338-1.276808-0.425603-2.837351-1.844278-2.553616-35.466888 6.809643-34.331948-24.826822-56.463286-28.231643-8.370186-1.276808-21.422001 9.505126-21.422001 9.505126z" fill="#F2E2DA" p-id="3415"></path><path d="M522.923802 246.849543s8.086451 22.982544 36.034358 41.70906c-3.404821 7.235245-22.556941 4.256027-33.62261-3.830423 7.093378 17.449709-4.681629 51.639789-48.376836 61.99612-1.276808 0.283735-2.553616-0.283735-3.121086-1.418675-5.107232-11.065669 28.089776-13.90302 18.868385-55.328346-7.093378-31.636464 30.217789-43.127736 30.217789-43.127736z" fill="#F2E2DA" p-id="3416"></path><path d="M529.165974 222.873926s-19.293987-50.079246-105.691327-10.781934c0.851205 5.249099 29.508451-0.56747 34.615683 6.95151-27.80604 3.830424-48.802438 84.978664-106.542533 80.864506-14.47049 3.404821 43.127736 25.961762 84.269327 1.418675-14.612358 41.283458-45.397617 30.927127-44.120809 37.311167 0.993073 5.532835 28.231643 10.072596 56.321418 1.70241 15.889166-4.823497 34.331948-16.740371 45.539485-29.082848 45.113882-49.937379 15.037961-54.902743 15.037961-54.902743s75.757273 29.792186 100.442227-12.20061c0.709338-1.276808-0.425603-2.837351-1.844278-2.553616-35.466888 6.809643-34.331948-24.826822-56.463286-28.231643-8.512053-1.276808-21.563868 9.505126-21.563868 9.505126z" fill="#CCA98F" p-id="3417"></path><path d="M519.944583 248.410086s6.525907 18.442782 28.799113 33.338875c-2.695484 5.81657-18.442782 0.283735-27.23857-6.100305 5.674702 14.044888-2.128013 51.639789-37.027431 60.009975-0.993073 0.283735-1.986146-0.283735-2.411749-1.13494-4.114159-8.937656 22.131338-2.553616 13.90302-51.63979-4.397894-25.53616 23.975617-34.473815 23.975617-34.473815z" fill="#CCA98F" p-id="3418"></path><path d="M504.906622 138.746467l-21.847603-4.397894c-2.269881-0.425603-4.539762 0.283735-6.242172 1.844278l-16.031034 15.605431c-4.114159 3.972291-11.065669 1.560543-11.633139-4.114159l-2.553616-22.131338c-0.283735-2.269881-1.560543-4.256027-3.688556-5.2491l-19.71959-10.356331c-5.107232-2.695484-4.823497-10.072596 0.283735-12.342477l20.28706-9.363259c2.128013-0.993073 3.546689-2.837351 3.972291-5.107232l3.830424-21.989471c0.993073-5.674702 8.086451-7.660848 11.916875-3.546688l15.03796 16.314768c1.560543 1.702411 3.830424 2.553616 6.100305 2.128014l21.989471-3.121087c5.674702-0.851205 9.788861 5.249099 6.95151 10.214464l-10.923802 19.435855c-1.13494 1.986146-1.13494 4.397894-0.141867 6.38404l9.788861 20.003325c2.695484 5.107232-1.844278 10.923802-7.377113 9.788861zM154.777501 741.967304l-14.612358 3.121086c-1.560543 0.283735-2.695484 1.418676-3.262954 2.695484l-5.674702 13.761152c-1.418676 3.546689-6.38404 3.830424-8.228318 0.567471l-7.518981-12.909948c-0.709338-1.276808-2.128013-2.128013-3.688556-2.269881l-14.896093-1.13494c-3.830424-0.283735-5.674702-4.823497-3.121086-7.660848l9.930728-11.065669c0.993073-1.13494 1.418676-2.695484 0.993073-4.114159l-3.546688-14.470491c-0.851205-3.688556 2.837351-6.95151 6.384039-5.390967l13.619286 6.100305c1.418676 0.56747 2.979219 0.56747 4.256026-0.283735l12.76808-7.802715c3.262954-1.986146 7.377113 0.56747 7.093378 4.397894l-1.560543 14.896093c-0.141868 1.560543 0.425603 2.979219 1.560543 3.972291l11.349404 9.646994c3.121086 2.269881 1.986146 7.093378-1.844278 7.944583z" fill="#F7F4EB" p-id="3419"></path><path d="M986.972569 564.20726l-21.847604-4.397895c-2.269881-0.425603-4.539762 0.283735-6.242172 1.844279l-16.031034 15.463563c-4.114159 3.972291-11.065669 1.560543-11.633139-4.114159l-2.553616-22.131338c-0.283735-2.269881-1.560543-4.256027-3.688556-5.2491l-19.71959-10.356331c-5.107232-2.695484-4.823497-10.072596 0.283735-12.342477l20.28706-9.363259c2.128013-0.993073 3.546689-2.837351 3.972292-5.107232l3.830424-21.989471c0.993073-5.674702 8.086451-7.660848 11.916874-3.546688l15.037961 16.314768c1.560543 1.702411 3.830424 2.553616 6.100304 2.128013l21.989471-3.121086c5.674702-0.851205 9.788861 5.249099 6.95151 10.214464l-10.923801 19.435855c-1.13494 1.986146-1.13494 4.397894-0.141868 6.38404l9.788861 20.003325c2.695484 5.249099-1.844278 11.065669-7.377112 9.930729z" fill="#F4E5C1" p-id="3420"></path><path d="M900.007758 422.339706l-10.640066 5.81657c-1.13494 0.56747-1.844278 1.702411-1.986146 2.837351l-1.276808 11.916875c-0.283735 3.121086-4.114159 4.397894-6.242172 2.26988L871.066778 436.952064c-0.851205-0.851205-2.128013-1.13494-3.404822-0.993073l-11.775007 2.553616c-2.979219 0.709338-5.532835-2.411748-4.114159-5.249099l5.107232-10.923802c0.56747-1.13494 0.425603-2.411748-0.141867-3.546689l-5.958438-10.498198c-1.560543-2.695484 0.709338-5.958437 3.688557-5.532835l11.916874 1.560543c1.276808 0.141868 2.411748-0.283735 3.262954-1.276808l8.086451-8.937656c2.128013-2.269881 5.958437-1.276808 6.525907 1.844278l2.269881 11.775007c0.283735 1.276808 0.993073 2.269881 2.128013 2.695484l11.065669 4.823497c2.837351 1.702411 2.979219 5.674702 0.283735 7.093377z" fill="#F7F4EB" p-id="3421"></path></svg>