<?xml version="1.0" standalone="no"?><!DOCTYPE svg PUBLIC "-//W3C//DTD SVG 1.1//EN" "http://www.w3.org/Graphics/SVG/1.1/DTD/svg11.dtd"><svg t="1602475088410" class="icon" viewBox="0 0 1024 1024" version="1.1" xmlns="http://www.w3.org/2000/svg" p-id="8263" xmlns:xlink="http://www.w3.org/1999/xlink" width="200" height="200"><defs><style type="text/css"></style></defs><path d="M512.425917 511.999961m-511.715989 0a511.715989 511.715989 0 1 0 1023.431979 0 511.715989 511.715989 0 1 0-1023.431979 0Z" fill="#D8E3EA" p-id="8264"></path><path d="M340.339408 237.1159s-73.974481 11.642817-118.415964-18.032168-26.409316 69.8569 22.149749 98.396 96.266216-80.363832 96.266215-80.363832z" fill="#FFFCEE" p-id="8265"></path><path d="M325.430923 257.845793s-54.948415 8.66112-87.889067-13.346644-19.594008 51.824733 16.470326 72.980583c36.064334 21.15585 71.418741-59.633939 71.418741-59.633939z" fill="#D3D1C9" p-id="8266"></path><path d="M668.184086 237.1159s73.974481 11.642817 118.415964-18.032168c44.441483-29.674984 26.409316 69.8569-22.149748 98.396-48.70105 28.539099-96.266216-80.363832-96.266216-80.363832z" fill="#FFFCEE" p-id="8267"></path><path d="M683.234556 257.845793s54.948415 8.66112 87.889067-13.346644c32.940652-22.007763 19.594008 51.824733-16.470326 72.980583-36.064334 21.15585-71.418741-59.633939-71.418741-59.633939z" fill="#D3D1C9" p-id="8268"></path><path d="M193.810301 759.05485l-21.865777-4.401553c-2.271769-0.425957-4.543538 0.283971-6.247365 1.845813l-16.04437 15.476427c-4.117581 3.975596-11.074874 1.561841-11.642816-4.117582l-2.55574-22.149748c-0.283971-2.271769-1.561841-4.259567-3.691625-5.253466L112.168599 729.947809c-5.11148-2.697726-4.827509-10.080975 0.283971-12.352745l20.303937-9.371048c2.129784-0.993899 3.549639-2.839711 3.975596-5.11148l3.83361-22.007763c0.993899-5.679423 8.093177-7.667221 11.926788-3.549639l15.05047 16.32834c1.561841 1.703827 3.83361 2.55574 6.105379 2.129784l22.007764-3.123683c5.679423-0.851913 9.797004 5.253466 6.957292 10.222961L191.680518 722.706545c-1.135885 1.987798-1.135885 4.401553-0.141986 6.38935l9.797004 20.019965c2.55574 5.253466-1.845812 11.074874-7.525235 9.93899z m744.430337-435.75371l-21.865778-4.401553c-2.271769-0.425957-4.543538 0.283971-6.247365 1.845813l-16.044369 15.476427c-4.117581 3.975596-11.074874 1.561841-11.642817-4.117582l-2.55574-22.149749c-0.283971-2.271769-1.561841-4.259567-3.691625-5.253466l-19.735994-10.364946c-5.11148-2.697726-4.827509-10.080975 0.283971-12.352745l20.303937-9.371047c2.129784-0.993899 3.549639-2.839711 3.975596-5.111481l3.83361-22.007763c0.993899-5.679423 8.093177-7.667221 11.926788-3.549639l15.05047 16.32834c1.561841 1.703827 3.83361 2.55574 6.105379 2.129784l22.007764-3.123683c5.679423-0.851913 9.797004 5.253466 6.957292 10.222961l-10.932888 19.452023c-1.135885 1.987798-1.135885 4.401553-0.141986 6.389351l9.797004 20.019965c2.839711 5.253466-1.703827 11.074874-7.383249 9.93899zM520.945051 84.90737l-14.908484-2.981697c-1.561841-0.283971-3.123683 0.141986-4.259567 1.27787l-10.932889 10.506932c-2.839711 2.697726-7.525235 0.993899-7.951192-2.839711L481.331078 75.820294c-0.141986-1.561841-1.135885-2.839711-2.413755-3.691625l-13.346643-7.099279c-3.407654-1.845812-3.265668-6.815307 0.283971-8.519134l13.7726-6.38935c1.419856-0.709928 2.413755-1.987798 2.697726-3.407654l2.55574-14.908485c0.709928-3.83361 5.395452-5.253466 8.093177-2.413754l10.222961 11.21686c0.993899 1.135885 2.55574 1.703827 4.117582 1.419855l15.05047-2.129783c3.83361-0.567942 6.673322 3.549639 4.827509 6.957293l-7.383249 13.204658c-0.709928 1.419856-0.851913 2.981697-0.141986 4.401552l6.673322 13.630615c1.561841 3.549639-1.561841 7.525235-5.395452 6.815307zM334.092043 875.341031l-10.932889-2.129784c-1.135885-0.283971-2.271769 0.141986-3.123682 0.851914l-7.951192 7.809206c-2.129784 1.987798-5.537437 0.709928-5.821408-2.129784l-1.277871-11.074874c-0.141986-1.135885-0.851913-2.129784-1.845812-2.697726l-9.797004-5.253466c-2.55574-1.27787-2.413755-4.969495 0.141985-6.247365l10.080976-4.685524c0.993899-0.425957 1.703827-1.419856 1.987798-2.55574l1.845812-10.932889c0.425957-2.839711 3.975596-3.83361 5.963394-1.703826l7.525235 8.235163c0.709928 0.851913 1.845812 1.27787 2.981697 1.135884l11.074874-1.561841c2.839711-0.425957 4.969495 2.55574 3.54964 5.11148l-5.395452 9.655019c-0.567942 0.993899-0.567942 2.129784-0.141985 3.265668l4.969494 9.93899c1.27787 2.55574-0.993899 5.537437-3.83361 4.969495z" fill="#F7F4EB" p-id="8269"></path><path d="M73.264553 553.743718l-14.908484-2.981697c-1.561841-0.283971-3.123683 0.141986-4.259567 1.27787l-10.932889 10.648918c-2.839711 2.697726-7.525235 0.993899-7.951192-2.839712l-1.703827-15.05047c-0.141986-1.561841-1.135885-2.839711-2.55574-3.691625l-13.488629-7.099278c-3.407654-1.845812-3.265668-6.815307 0.283971-8.519134l13.7726-6.389351c1.419856-0.709928 2.413755-1.987798 2.697726-3.549639l2.55574-15.05047c0.709928-3.83361 5.537437-5.253466 8.093178-2.413755l10.364946 11.21686c0.993899 1.135885 2.55574 1.703827 4.117582 1.419855l15.05047-2.129783c3.83361-0.567942 6.673322 3.549639 4.827509 6.957293l-7.525235 13.204658c-0.709928 1.419856-0.851913 2.981697-0.141985 4.401552l6.673321 13.630615c1.987798 3.83361-1.135885 7.809206-4.969495 6.957293z" fill="#F2E5C0" p-id="8270"></path><path d="M799.378752 856.172979c3.975596 2.271769 8.093177 4.117581 12.210758 5.395452-16.612312-15.05047-22.291734-37.626176-12.49473-54.80643s32.088739-23.71159 53.52856-17.180254c-3.265668-2.981697-6.815307-5.537437-10.790903-7.809206-24.563503-14.056571-54.096502-8.803105-65.739319 11.784802-11.642817 20.587907-1.27787 48.70105 23.285634 62.615636z" fill="#F7F4EB" p-id="8271"></path><path d="M196.650013 541.674944a315.775905 262.247345 0 1 0 631.551809 0 315.775905 262.247345 0 1 0-631.551809 0Z" fill="#F7F4EB" p-id="8272"></path><path d="M853.617239 473.521871c0 169.530769-152.776472 32.940652-341.191322 32.940652s-341.191322 136.590117-341.191321-32.940652 152.776472-306.972799 341.191321-306.972799 341.191322 137.44203 341.191322 306.972799z" fill="#FFFCEE" p-id="8273"></path><path d="M189.976691 487.720428c0-174.926221 148.516905-316.769804 331.820274-316.769803 180.605643 0 327.560707 137.867987 331.678288 309.528539 0-2.271769 0.141986-4.401553 0.141986-6.815307 0-169.530769-152.776472-306.972799-341.191322-306.972799s-341.191322 137.44203-341.191321 306.972799c0 46.429281 11.500831 69.998885 32.088738 79.511919-8.66112-13.7726-13.346643-34.786464-13.346643-65.455348z" fill="#F7F3E4" p-id="8274"></path><path d="M371.576233 211.700483s45.861339-23.569604 54.948415-21.15585c-20.445922-2.839711-56.794227 13.346643-56.794227 13.346644l1.845812 7.809206z m-15.476427-37.342205s40.465887-17.606211 52.108704-14.482528c-18.742095-7.38325-55.658343 9.513033-55.658343 9.513033l3.549639 4.969495z m65.881304-35.638377s-41.885743-9.513033-60.627838 0.993899c12.636716-13.062672 51.114805-10.932889 51.114805-10.932889l9.513033 9.93899z" fill="#DBB3A9" p-id="8275"></path><path d="M365.419061 590.02638a30.100941 27.971157 82.568 1 0 55.472347-7.236106 30.100941 27.971157 82.568 1 0-55.472347 7.236106Z" fill="#635C5B" p-id="8276"></path><path d="M395.486555 599.078805a8.66112 7.951192 82.568 1 0 15.768789-2.056964 8.66112 7.951192 82.568 1 0-15.768789 2.056964Z" fill="#D6D1D0" p-id="8277"></path><path d="M408.004975 585.760268a2.981697 2.839711 54.825 1 0 4.642339-3.271778 2.981697 2.839711 54.825 1 0-4.642339 3.271778Z" fill="#D6D1D0" p-id="8278"></path><path d="M583.362797 587.881556a30.100941 27.971157 82.568 1 0 55.472347-7.236107 30.100941 27.971157 82.568 1 0-55.472347 7.236107Z" fill="#635C5B" p-id="8279"></path><path d="M613.289486 596.952163a8.66112 7.951192 82.568 1 0 15.768789-2.056964 8.66112 7.951192 82.568 1 0-15.768789 2.056964Z" fill="#D6D1D0" p-id="8280"></path><path d="M625.808522 583.64022a2.981697 2.839711 54.825 1 0 4.64234-3.271778 2.981697 2.839711 54.825 1 0-4.64234 3.271778Z" fill="#D6D1D0" p-id="8281"></path><path d="M639.077045 911.689336c2.413755-3.975596 4.827509-7.809206 6.957292-11.642816 2.271769-3.83361 4.259567-7.667221 6.10538-11.500831 1.845812-3.975596 3.407654-7.951192 4.401553-12.068774 0.567942-2.129784 0.993899-4.259567 1.27787-6.38935 0.283971-2.129784 0.425957-4.401553 0.567942-6.815308 1.135885 2.129784 1.845812 4.401553 2.271769 6.673322 0.425957 2.271769 0.567942 4.685524 0.283971 7.099279-0.283971 4.827509-1.703827 9.513033-3.691625 13.7726-1.987798 4.259567-4.685524 8.235163-7.66722 11.784802-2.981697 3.549639-6.389351 6.673322-10.506932 9.087076z m-3.691625 14.624514c3.83361 2.697726 7.525235 5.253466 11.21686 7.667221 3.691625 2.413755 7.38325 4.685524 11.21686 6.815307 3.83361 1.987798 7.667221 3.83361 11.784802 5.11148 1.987798 0.709928 4.117581 1.135885 6.247365 1.703827 2.129784 0.425957 4.401553 0.709928 6.673322 0.993899-2.129784 0.993899-4.401553 1.561841-6.815308 1.845813-2.413755 0.283971-4.827509 0.283971-7.099278 0-4.685524-0.567942-9.371048-2.271769-13.488629-4.543539-4.117581-2.271769-7.951192-5.11148-11.21686-8.377148-3.407654-3.265668-6.389351-6.957293-8.519134-11.21686z" fill="#7E9BA8" p-id="8282"></path><path d="M508.024365 664.350476c0 10.222961-5.11148 7.951192-11.500831 7.951192s-11.500831 2.271769-11.500831-7.951192c0-10.222961 5.11148-24.847475 11.500831-24.847475s11.500831 14.624514 11.500831 24.847475z" fill="#F4DEDC" p-id="8283"></path><path d="M544.230685 455.063748l-24.98946-4.969495c-2.55574-0.567942-5.253466 0.283971-7.099279 2.129783L493.825808 469.972232c-4.685524 4.543538-12.636716 1.703827-13.346644-4.827509l-2.981697-25.273431c-0.283971-2.55574-1.845812-4.827509-4.117581-6.10538l-22.575705-11.926787c-5.821408-3.123683-5.537437-11.500831 0.425956-14.198557l23.143648-10.648918c2.413755-1.135885 4.117581-3.265668 4.543538-5.821408l4.401553-25.131446c1.135885-6.531336 9.229062-8.803105 13.630614-3.975596l17.32224 18.742095c1.703827 1.987798 4.401553 2.839711 6.957293 2.413755l25.273431-3.549639c6.531336-0.993899 11.21686 5.963394 8.093177 11.784802l-12.49473 22.291734c-1.27787 2.271769-1.419856 4.969495-0.141985 7.38325l11.21686 22.859676c2.697726 5.679423-2.55574 12.352744-8.945091 11.074875z" fill="#F2E5C0" p-id="8284"></path><path d="M399.405405 806.762001s-33.082637 37.768161-9.655019 72.270655c16.470326-31.378811 16.470326-18.884081 16.470326-18.884081l-6.815307-53.386574z m217.947848 5.111481s36.916248 34.076536 17.180253 70.850798c-19.594008-29.391013-18.458124-17.038268-18.458124-17.038268l1.277871-53.81253z" fill="#92ACB7" p-id="8285"></path><path d="M621.328848 917.368759c4.401553-0.283971 5.963394 5.679423 1.987798 7.525235-47.281194 23.285633-104.78535 20.161951-114.866325 19.452023h-0.141985c-63.609535-1.987798-114.582354-54.238487-114.582354-118.415964 0-65.455347 52.960617-42.311699 118.415964-42.3117s118.415964-23.143648 118.415964 42.3117c0 31.804767-12.49473 60.769823-32.940651 82.067659-1.987798 2.129784-1.135885 5.679423 1.561841 6.531336 6.105379 2.129784 13.630615 3.407654 22.149748 2.839711z" fill="#ABC2CE" p-id="8286"></path><path d="M523.358806 807.471929l12.778701 68.295059-17.322239 25.841373-20.303936-24.847474 7.099278-70.708814-13.630615-10.222961 22.575706-11.642816 22.575705 13.062672z" fill="#7E9BA8" p-id="8287"></path><path d="M537.131406 797.248968l-22.575705-13.062672-2.413755 1.27787 20.445922 11.784802-13.7726 10.222961 12.778701 68.295059-15.334441 22.717691 2.55574 3.123682 17.322239-25.841373-12.778701-68.295059z" fill="#6D8993" p-id="8288"></path><path d="M512.425917 511.999961m-511.715989 0a511.715989 511.715989 0 1 0 1023.431979 0 511.715989 511.715989 0 1 0-1023.431979 0Z" fill="#D8E3EA" p-id="8289"></path><path d="M340.339408 237.1159s-73.974481 11.642817-118.415964-18.032168-26.409316 69.8569 22.149749 98.396 96.266216-80.363832 96.266215-80.363832z" fill="#FFFCEE" p-id="8290"></path><path d="M325.430923 257.845793s-54.948415 8.66112-87.889067-13.346644-19.594008 51.824733 16.470326 72.980583c36.064334 21.15585 71.418741-59.633939 71.418741-59.633939z" fill="#D3D1C9" p-id="8291"></path><path d="M668.184086 237.1159s73.974481 11.642817 118.415964-18.032168c44.441483-29.674984 26.409316 69.8569-22.149748 98.396-48.70105 28.539099-96.266216-80.363832-96.266216-80.363832z" fill="#FFFCEE" p-id="8292"></path><path d="M683.234556 257.845793s54.948415 8.66112 87.889067-13.346644c32.940652-22.007763 19.594008 51.824733-16.470326 72.980583-36.064334 21.15585-71.418741-59.633939-71.418741-59.633939z" fill="#D3D1C9" p-id="8293"></path><path d="M193.810301 759.05485l-21.865777-4.401553c-2.271769-0.425957-4.543538 0.283971-6.247365 1.845813l-16.04437 15.476427c-4.117581 3.975596-11.074874 1.561841-11.642816-4.117582l-2.55574-22.149748c-0.283971-2.271769-1.561841-4.259567-3.691625-5.253466L112.168599 729.947809c-5.11148-2.697726-4.827509-10.080975 0.283971-12.352745l20.303937-9.371048c2.129784-0.993899 3.549639-2.839711 3.975596-5.11148l3.83361-22.007763c0.993899-5.679423 8.093177-7.667221 11.926788-3.549639l15.05047 16.32834c1.561841 1.703827 3.83361 2.55574 6.105379 2.129784l22.007764-3.123683c5.679423-0.851913 9.797004 5.253466 6.957292 10.222961L191.680518 722.706545c-1.135885 1.987798-1.135885 4.401553-0.141986 6.38935l9.797004 20.019965c2.55574 5.253466-1.845812 11.074874-7.525235 9.93899z m744.430337-435.75371l-21.865778-4.401553c-2.271769-0.425957-4.543538 0.283971-6.247365 1.845813l-16.044369 15.476427c-4.117581 3.975596-11.074874 1.561841-11.642817-4.117582l-2.55574-22.149749c-0.283971-2.271769-1.561841-4.259567-3.691625-5.253466l-19.735994-10.364946c-5.11148-2.697726-4.827509-10.080975 0.283971-12.352745l20.303937-9.371047c2.129784-0.993899 3.549639-2.839711 3.975596-5.111481l3.83361-22.007763c0.993899-5.679423 8.093177-7.667221 11.926788-3.549639l15.05047 16.32834c1.561841 1.703827 3.83361 2.55574 6.105379 2.129784l22.007764-3.123683c5.679423-0.851913 9.797004 5.253466 6.957292 10.222961l-10.932888 19.452023c-1.135885 1.987798-1.135885 4.401553-0.141986 6.389351l9.797004 20.019965c2.839711 5.253466-1.703827 11.074874-7.383249 9.93899zM520.945051 84.90737l-14.908484-2.981697c-1.561841-0.283971-3.123683 0.141986-4.259567 1.27787l-10.932889 10.506932c-2.839711 2.697726-7.525235 0.993899-7.951192-2.839711L481.331078 75.820294c-0.141986-1.561841-1.135885-2.839711-2.413755-3.691625l-13.346643-7.099279c-3.407654-1.845812-3.265668-6.815307 0.283971-8.519134l13.7726-6.38935c1.419856-0.709928 2.413755-1.987798 2.697726-3.407654l2.55574-14.908485c0.709928-3.83361 5.395452-5.253466 8.093177-2.413754l10.222961 11.21686c0.993899 1.135885 2.55574 1.703827 4.117582 1.419855l15.05047-2.129783c3.83361-0.567942 6.673322 3.549639 4.827509 6.957293l-7.383249 13.204658c-0.709928 1.419856-0.851913 2.981697-0.141986 4.401552l6.673322 13.630615c1.561841 3.549639-1.561841 7.525235-5.395452 6.815307zM334.092043 875.341031l-10.932889-2.129784c-1.135885-0.283971-2.271769 0.141986-3.123682 0.851914l-7.951192 7.809206c-2.129784 1.987798-5.537437 0.709928-5.821408-2.129784l-1.277871-11.074874c-0.141986-1.135885-0.851913-2.129784-1.845812-2.697726l-9.797004-5.253466c-2.55574-1.27787-2.413755-4.969495 0.141985-6.247365l10.080976-4.685524c0.993899-0.425957 1.703827-1.419856 1.987798-2.55574l1.845812-10.932889c0.425957-2.839711 3.975596-3.83361 5.963394-1.703826l7.525235 8.235163c0.709928 0.851913 1.845812 1.27787 2.981697 1.135884l11.074874-1.561841c2.839711-0.425957 4.969495 2.55574 3.54964 5.11148l-5.395452 9.655019c-0.567942 0.993899-0.567942 2.129784-0.141985 3.265668l4.969494 9.93899c1.27787 2.55574-0.993899 5.537437-3.83361 4.969495z" fill="#F7F4EB" p-id="8294"></path><path d="M73.264553 553.743718l-14.908484-2.981697c-1.561841-0.283971-3.123683 0.141986-4.259567 1.27787l-10.932889 10.648918c-2.839711 2.697726-7.525235 0.993899-7.951192-2.839712l-1.703827-15.05047c-0.141986-1.561841-1.135885-2.839711-2.55574-3.691625l-13.488629-7.099278c-3.407654-1.845812-3.265668-6.815307 0.283971-8.519134l13.7726-6.389351c1.419856-0.709928 2.413755-1.987798 2.697726-3.549639l2.55574-15.05047c0.709928-3.83361 5.537437-5.253466 8.093178-2.413755l10.364946 11.21686c0.993899 1.135885 2.55574 1.703827 4.117582 1.419855l15.05047-2.129783c3.83361-0.567942 6.673322 3.549639 4.827509 6.957293l-7.525235 13.204658c-0.709928 1.419856-0.851913 2.981697-0.141985 4.401552l6.673321 13.630615c1.987798 3.83361-1.135885 7.809206-4.969495 6.957293z" fill="#F2E5C0" p-id="8295"></path><path d="M799.378752 856.172979c3.975596 2.271769 8.093177 4.117581 12.210758 5.395452-16.612312-15.05047-22.291734-37.626176-12.49473-54.80643s32.088739-23.71159 53.52856-17.180254c-3.265668-2.981697-6.815307-5.537437-10.790903-7.809206-24.563503-14.056571-54.096502-8.803105-65.739319 11.784802-11.642817 20.587907-1.27787 48.70105 23.285634 62.615636z" fill="#F7F4EB" p-id="8296"></path><path d="M196.650013 541.674944a315.775905 262.247345 0 1 0 631.551809 0 315.775905 262.247345 0 1 0-631.551809 0Z" fill="#F7F4EB" p-id="8297"></path><path d="M853.617239 473.521871c0 169.530769-152.776472 32.940652-341.191322 32.940652s-341.191322 136.590117-341.191321-32.940652 152.776472-306.972799 341.191321-306.972799 341.191322 137.44203 341.191322 306.972799z" fill="#FFFCEE" p-id="8298"></path><path d="M189.976691 487.720428c0-174.926221 148.516905-316.769804 331.820274-316.769803 180.605643 0 327.560707 137.867987 331.678288 309.528539 0-2.271769 0.141986-4.401553 0.141986-6.815307 0-169.530769-152.776472-306.972799-341.191322-306.972799s-341.191322 137.44203-341.191321 306.972799c0 46.429281 11.500831 69.998885 32.088738 79.511919-8.66112-13.7726-13.346643-34.786464-13.346643-65.455348z" fill="#F7F3E4" p-id="8299"></path><path d="M371.576233 211.700483s45.861339-23.569604 54.948415-21.15585c-20.445922-2.839711-56.794227 13.346643-56.794227 13.346644l1.845812 7.809206z m-15.476427-37.342205s40.465887-17.606211 52.108704-14.482528c-18.742095-7.38325-55.658343 9.513033-55.658343 9.513033l3.549639 4.969495z m65.881304-35.638377s-41.885743-9.513033-60.627838 0.993899c12.636716-13.062672 51.114805-10.932889 51.114805-10.932889l9.513033 9.93899z" fill="#DBB3A9" p-id="8300"></path><path d="M643.336612 219.651675c-5.963394 17.322239-29.958955-1.987798-38.052133-5.679423-8.093177-3.691625-31.520796 1.135885-25.983359-16.32834 21.297835-66.591232 97.118129-100.667768 114.866325-94.562389s-28.113143 50.404877-50.830833 116.570152z" fill="#BFA39B" p-id="8301"></path><path d="M654.2695 211.700483s-45.861339-23.569604-54.948415-21.15585c20.445922-2.839711 56.794227 13.346643 56.794228 13.346644l-1.845813 7.809206z m15.618413-37.342205s-40.465887-17.606211-52.108704-14.482528c18.742095-7.38325 55.658343 9.513033 55.658343 9.513033l-3.549639 4.969495z m-66.023289-35.638377s41.885743-9.513033 60.627837 0.993899c-12.636716-13.062672-51.114805-10.932889-51.114804-10.932889l-9.513033 9.93899z" fill="#DBB3A9" p-id="8302"></path><path d="M365.419061 590.02638a30.100941 27.971157 82.568 1 0 55.472347-7.236106 30.100941 27.971157 82.568 1 0-55.472347 7.236106Z" fill="#635C5B" p-id="8303"></path><path d="M395.486555 599.078805a8.66112 7.951192 82.568 1 0 15.768789-2.056964 8.66112 7.951192 82.568 1 0-15.768789 2.056964Z" fill="#D6D1D0" p-id="8304"></path><path d="M408.004975 585.760268a2.981697 2.839711 54.825 1 0 4.642339-3.271778 2.981697 2.839711 54.825 1 0-4.642339 3.271778Z" fill="#D6D1D0" p-id="8305"></path><path d="M583.362797 587.881556a30.100941 27.971157 82.568 1 0 55.472347-7.236107 30.100941 27.971157 82.568 1 0-55.472347 7.236107Z" fill="#635C5B" p-id="8306"></path><path d="M613.289486 596.952163a8.66112 7.951192 82.568 1 0 15.768789-2.056964 8.66112 7.951192 82.568 1 0-15.768789 2.056964Z" fill="#D6D1D0" p-id="8307"></path><path d="M625.808522 583.64022a2.981697 2.839711 54.825 1 0 4.64234-3.271778 2.981697 2.839711 54.825 1 0-4.64234 3.271778Z" fill="#D6D1D0" p-id="8308"></path><path d="M639.077045 911.689336c2.413755-3.975596 4.827509-7.809206 6.957292-11.642816 2.271769-3.83361 4.259567-7.667221 6.10538-11.500831 1.845812-3.975596 3.407654-7.951192 4.401553-12.068774 0.567942-2.129784 0.993899-4.259567 1.27787-6.38935 0.283971-2.129784 0.425957-4.401553 0.567942-6.815308 1.135885 2.129784 1.845812 4.401553 2.271769 6.673322 0.425957 2.271769 0.567942 4.685524 0.283971 7.099279-0.283971 4.827509-1.703827 9.513033-3.691625 13.7726-1.987798 4.259567-4.685524 8.235163-7.66722 11.784802-2.981697 3.549639-6.389351 6.673322-10.506932 9.087076z m-3.691625 14.624514c3.83361 2.697726 7.525235 5.253466 11.21686 7.667221 3.691625 2.413755 7.38325 4.685524 11.21686 6.815307 3.83361 1.987798 7.667221 3.83361 11.784802 5.11148 1.987798 0.709928 4.117581 1.135885 6.247365 1.703827 2.129784 0.425957 4.401553 0.709928 6.673322 0.993899-2.129784 0.993899-4.401553 1.561841-6.815308 1.845813-2.413755 0.283971-4.827509 0.283971-7.099278 0-4.685524-0.567942-9.371048-2.271769-13.488629-4.543539-4.117581-2.271769-7.951192-5.11148-11.21686-8.377148-3.407654-3.265668-6.389351-6.957293-8.519134-11.21686z" fill="#7E9BA8" p-id="8309"></path><path d="M508.024365 664.350476c0 10.222961-5.11148 7.951192-11.500831 7.951192s-11.500831 2.271769-11.500831-7.951192c0-10.222961 5.11148-24.847475 11.500831-24.847475s11.500831 14.624514 11.500831 24.847475z" fill="#F4DEDC" p-id="8310"></path><path d="M544.230685 455.063748l-24.98946-4.969495c-2.55574-0.567942-5.253466 0.283971-7.099279 2.129783L493.825808 469.972232c-4.685524 4.543538-12.636716 1.703827-13.346644-4.827509l-2.981697-25.273431c-0.283971-2.55574-1.845812-4.827509-4.117581-6.10538l-22.575705-11.926787c-5.821408-3.123683-5.537437-11.500831 0.425956-14.198557l23.143648-10.648918c2.413755-1.135885 4.117581-3.265668 4.543538-5.821408l4.401553-25.131446c1.135885-6.531336 9.229062-8.803105 13.630614-3.975596l17.32224 18.742095c1.703827 1.987798 4.401553 2.839711 6.957293 2.413755l25.273431-3.549639c6.531336-0.993899 11.21686 5.963394 8.093177 11.784802l-12.49473 22.291734c-1.27787 2.271769-1.419856 4.969495-0.141985 7.38325l11.21686 22.859676c2.697726 5.679423-2.55574 12.352744-8.945091 11.074875z" fill="#F2E5C0" p-id="8311"></path><path d="M399.405405 806.762001s-33.082637 37.768161-9.655019 72.270655c16.470326-31.378811 16.470326-18.884081 16.470326-18.884081l-6.815307-53.386574z m217.947848 5.111481s36.916248 34.076536 17.180253 70.850798c-19.594008-29.391013-18.458124-17.038268-18.458124-17.038268l1.277871-53.81253z" fill="#92ACB7" p-id="8312"></path><path d="M621.328848 917.368759c4.401553-0.283971 5.963394 5.679423 1.987798 7.525235-47.281194 23.285633-104.78535 20.161951-114.866325 19.452023h-0.141985c-63.609535-1.987798-114.582354-54.238487-114.582354-118.415964 0-65.455347 52.960617-42.311699 118.415964-42.3117s118.415964-23.143648 118.415964 42.3117c0 31.804767-12.49473 60.769823-32.940651 82.067659-1.987798 2.129784-1.135885 5.679423 1.561841 6.531336 6.105379 2.129784 13.630615 3.407654 22.149748 2.839711z" fill="#ABC2CE" p-id="8313"></path><path d="M523.358806 807.471929l12.778701 68.295059-17.322239 25.841373-20.303936-24.847474 7.099278-70.708814-13.630615-10.222961 22.575706-11.642816 22.575705 13.062672z" fill="#7E9BA8" p-id="8314"></path><path d="M537.131406 797.248968l-22.575705-13.062672-2.413755 1.27787 20.445922 11.784802-13.7726 10.222961 12.778701 68.295059-15.334441 22.717691 2.55574 3.123682 17.322239-25.841373-12.778701-68.295059z" fill="#6D8993" p-id="8315"></path><path d="M512.425917 511.999961m-511.715989 0a511.715989 511.715989 0 1 0 1023.431979 0 511.715989 511.715989 0 1 0-1023.431979 0Z" fill="#D8E3EA" p-id="8316"></path><path d="M340.339408 237.1159s-73.974481 11.642817-118.415964-18.032168-26.409316 69.8569 22.149749 98.396 96.266216-80.363832 96.266215-80.363832z" fill="#FFFCEE" p-id="8317"></path><path d="M325.430923 257.845793s-54.948415 8.66112-87.889067-13.346644-19.594008 51.824733 16.470326 72.980583c36.064334 21.15585 71.418741-59.633939 71.418741-59.633939z" fill="#D3D1C9" p-id="8318"></path><path d="M668.184086 237.1159s73.974481 11.642817 118.415964-18.032168c44.441483-29.674984 26.409316 69.8569-22.149748 98.396-48.70105 28.539099-96.266216-80.363832-96.266216-80.363832z" fill="#FFFCEE" p-id="8319"></path><path d="M683.234556 257.845793s54.948415 8.66112 87.889067-13.346644c32.940652-22.007763 19.594008 51.824733-16.470326 72.980583-36.064334 21.15585-71.418741-59.633939-71.418741-59.633939z" fill="#D3D1C9" p-id="8320"></path><path d="M193.810301 759.05485l-21.865777-4.401553c-2.271769-0.425957-4.543538 0.283971-6.247365 1.845813l-16.04437 15.476427c-4.117581 3.975596-11.074874 1.561841-11.642816-4.117582l-2.55574-22.149748c-0.283971-2.271769-1.561841-4.259567-3.691625-5.253466L112.168599 729.947809c-5.11148-2.697726-4.827509-10.080975 0.283971-12.352745l20.303937-9.371048c2.129784-0.993899 3.549639-2.839711 3.975596-5.11148l3.83361-22.007763c0.993899-5.679423 8.093177-7.667221 11.926788-3.549639l15.05047 16.32834c1.561841 1.703827 3.83361 2.55574 6.105379 2.129784l22.007764-3.123683c5.679423-0.851913 9.797004 5.253466 6.957292 10.222961L191.680518 722.706545c-1.135885 1.987798-1.135885 4.401553-0.141986 6.38935l9.797004 20.019965c2.55574 5.253466-1.845812 11.074874-7.525235 9.93899z m744.430337-435.75371l-21.865778-4.401553c-2.271769-0.425957-4.543538 0.283971-6.247365 1.845813l-16.044369 15.476427c-4.117581 3.975596-11.074874 1.561841-11.642817-4.117582l-2.55574-22.149749c-0.283971-2.271769-1.561841-4.259567-3.691625-5.253466l-19.735994-10.364946c-5.11148-2.697726-4.827509-10.080975 0.283971-12.352745l20.303937-9.371047c2.129784-0.993899 3.549639-2.839711 3.975596-5.111481l3.83361-22.007763c0.993899-5.679423 8.093177-7.667221 11.926788-3.549639l15.05047 16.32834c1.561841 1.703827 3.83361 2.55574 6.105379 2.129784l22.007764-3.123683c5.679423-0.851913 9.797004 5.253466 6.957292 10.222961l-10.932888 19.452023c-1.135885 1.987798-1.135885 4.401553-0.141986 6.389351l9.797004 20.019965c2.839711 5.253466-1.703827 11.074874-7.383249 9.93899zM520.945051 84.90737l-14.908484-2.981697c-1.561841-0.283971-3.123683 0.141986-4.259567 1.27787l-10.932889 10.506932c-2.839711 2.697726-7.525235 0.993899-7.951192-2.839711L481.331078 75.820294c-0.141986-1.561841-1.135885-2.839711-2.413755-3.691625l-13.346643-7.099279c-3.407654-1.845812-3.265668-6.815307 0.283971-8.519134l13.7726-6.38935c1.419856-0.709928 2.413755-1.987798 2.697726-3.407654l2.55574-14.908485c0.709928-3.83361 5.395452-5.253466 8.093177-2.413754l10.222961 11.21686c0.993899 1.135885 2.55574 1.703827 4.117582 1.419855l15.05047-2.129783c3.83361-0.567942 6.673322 3.549639 4.827509 6.957293l-7.383249 13.204658c-0.709928 1.419856-0.851913 2.981697-0.141986 4.401552l6.673322 13.630615c1.561841 3.549639-1.561841 7.525235-5.395452 6.815307zM334.092043 875.341031l-10.932889-2.129784c-1.135885-0.283971-2.271769 0.141986-3.123682 0.851914l-7.951192 7.809206c-2.129784 1.987798-5.537437 0.709928-5.821408-2.129784l-1.277871-11.074874c-0.141986-1.135885-0.851913-2.129784-1.845812-2.697726l-9.797004-5.253466c-2.55574-1.27787-2.413755-4.969495 0.141985-6.247365l10.080976-4.685524c0.993899-0.425957 1.703827-1.419856 1.987798-2.55574l1.845812-10.932889c0.425957-2.839711 3.975596-3.83361 5.963394-1.703826l7.525235 8.235163c0.709928 0.851913 1.845812 1.27787 2.981697 1.135884l11.074874-1.561841c2.839711-0.425957 4.969495 2.55574 3.54964 5.11148l-5.395452 9.655019c-0.567942 0.993899-0.567942 2.129784-0.141985 3.265668l4.969494 9.93899c1.27787 2.55574-0.993899 5.537437-3.83361 4.969495z" fill="#F7F4EB" p-id="8321"></path><path d="M73.264553 553.743718l-14.908484-2.981697c-1.561841-0.283971-3.123683 0.141986-4.259567 1.27787l-10.932889 10.648918c-2.839711 2.697726-7.525235 0.993899-7.951192-2.839712l-1.703827-15.05047c-0.141986-1.561841-1.135885-2.839711-2.55574-3.691625l-13.488629-7.099278c-3.407654-1.845812-3.265668-6.815307 0.283971-8.519134l13.7726-6.389351c1.419856-0.709928 2.413755-1.987798 2.697726-3.549639l2.55574-15.05047c0.709928-3.83361 5.537437-5.253466 8.093178-2.413755l10.364946 11.21686c0.993899 1.135885 2.55574 1.703827 4.117582 1.419855l15.05047-2.129783c3.83361-0.567942 6.673322 3.549639 4.827509 6.957293l-7.525235 13.204658c-0.709928 1.419856-0.851913 2.981697-0.141985 4.401552l6.673321 13.630615c1.987798 3.83361-1.135885 7.809206-4.969495 6.957293z" fill="#F2E5C0" p-id="8322"></path><path d="M799.378752 856.172979c3.975596 2.271769 8.093177 4.117581 12.210758 5.395452-16.612312-15.05047-22.291734-37.626176-12.49473-54.80643s32.088739-23.71159 53.52856-17.180254c-3.265668-2.981697-6.815307-5.537437-10.790903-7.809206-24.563503-14.056571-54.096502-8.803105-65.739319 11.784802-11.642817 20.587907-1.27787 48.70105 23.285634 62.615636z" fill="#F7F4EB" p-id="8323"></path><path d="M196.650013 541.674944a315.775905 262.247345 0 1 0 631.551809 0 315.775905 262.247345 0 1 0-631.551809 0Z" fill="#F7F4EB" p-id="8324"></path><path d="M853.617239 473.521871c0 169.530769-152.776472 32.940652-341.191322 32.940652s-341.191322 136.590117-341.191321-32.940652 152.776472-306.972799 341.191321-306.972799 341.191322 137.44203 341.191322 306.972799z" fill="#FFFCEE" p-id="8325"></path><path d="M189.976691 487.720428c0-174.926221 148.516905-316.769804 331.820274-316.769803 180.605643 0 327.560707 137.867987 331.678288 309.528539 0-2.271769 0.141986-4.401553 0.141986-6.815307 0-169.530769-152.776472-306.972799-341.191322-306.972799s-341.191322 137.44203-341.191321 306.972799c0 46.429281 11.500831 69.998885 32.088738 79.511919-8.66112-13.7726-13.346643-34.786464-13.346643-65.455348z" fill="#F7F3E4" p-id="8326"></path><path d="M643.336612 219.651675c-5.963394 17.322239-29.958955-1.987798-38.052133-5.679423-8.093177-3.691625-31.520796 1.135885-25.983359-16.32834 21.297835-66.591232 97.118129-100.667768 114.866325-94.562389s-28.113143 50.404877-50.830833 116.570152z" fill="#BFA39B" p-id="8327"></path><path d="M654.2695 211.700483s-45.861339-23.569604-54.948415-21.15585c20.445922-2.839711 56.794227 13.346643 56.794228 13.346644l-1.845813 7.809206z m15.618413-37.342205s-40.465887-17.606211-52.108704-14.482528c18.742095-7.38325 55.658343 9.513033 55.658343 9.513033l-3.549639 4.969495z m-66.023289-35.638377s41.885743-9.513033 60.627837 0.993899c-12.636716-13.062672-51.114805-10.932889-51.114804-10.932889l-9.513033 9.93899z" fill="#DBB3A9" p-id="8328"></path><path d="M365.419061 590.02638a30.100941 27.971157 82.568 1 0 55.472347-7.236106 30.100941 27.971157 82.568 1 0-55.472347 7.236106Z" fill="#635C5B" p-id="8329"></path><path d="M395.486555 599.078805a8.66112 7.951192 82.568 1 0 15.768789-2.056964 8.66112 7.951192 82.568 1 0-15.768789 2.056964Z" fill="#D6D1D0" p-id="8330"></path><path d="M408.004975 585.760268a2.981697 2.839711 54.825 1 0 4.642339-3.271778 2.981697 2.839711 54.825 1 0-4.642339 3.271778Z" fill="#D6D1D0" p-id="8331"></path><path d="M583.362797 587.881556a30.100941 27.971157 82.568 1 0 55.472347-7.236107 30.100941 27.971157 82.568 1 0-55.472347 7.236107Z" fill="#635C5B" p-id="8332"></path><path d="M613.289486 596.952163a8.66112 7.951192 82.568 1 0 15.768789-2.056964 8.66112 7.951192 82.568 1 0-15.768789 2.056964Z" fill="#D6D1D0" p-id="8333"></path><path d="M625.808522 583.64022a2.981697 2.839711 54.825 1 0 4.64234-3.271778 2.981697 2.839711 54.825 1 0-4.64234 3.271778Z" fill="#D6D1D0" p-id="8334"></path><path d="M639.077045 911.689336c2.413755-3.975596 4.827509-7.809206 6.957292-11.642816 2.271769-3.83361 4.259567-7.667221 6.10538-11.500831 1.845812-3.975596 3.407654-7.951192 4.401553-12.068774 0.567942-2.129784 0.993899-4.259567 1.27787-6.38935 0.283971-2.129784 0.425957-4.401553 0.567942-6.815308 1.135885 2.129784 1.845812 4.401553 2.271769 6.673322 0.425957 2.271769 0.567942 4.685524 0.283971 7.099279-0.283971 4.827509-1.703827 9.513033-3.691625 13.7726-1.987798 4.259567-4.685524 8.235163-7.66722 11.784802-2.981697 3.549639-6.389351 6.673322-10.506932 9.087076z m-3.691625 14.624514c3.83361 2.697726 7.525235 5.253466 11.21686 7.667221 3.691625 2.413755 7.38325 4.685524 11.21686 6.815307 3.83361 1.987798 7.667221 3.83361 11.784802 5.11148 1.987798 0.709928 4.117581 1.135885 6.247365 1.703827 2.129784 0.425957 4.401553 0.709928 6.673322 0.993899-2.129784 0.993899-4.401553 1.561841-6.815308 1.845813-2.413755 0.283971-4.827509 0.283971-7.099278 0-4.685524-0.567942-9.371048-2.271769-13.488629-4.543539-4.117581-2.271769-7.951192-5.11148-11.21686-8.377148-3.407654-3.265668-6.389351-6.957293-8.519134-11.21686z" fill="#7E9BA8" p-id="8335"></path><path d="M508.024365 664.350476c0 10.222961-5.11148 7.951192-11.500831 7.951192s-11.500831 2.271769-11.500831-7.951192c0-10.222961 5.11148-24.847475 11.500831-24.847475s11.500831 14.624514 11.500831 24.847475z" fill="#F4DEDC" p-id="8336"></path><path d="M544.230685 455.063748l-24.98946-4.969495c-2.55574-0.567942-5.253466 0.283971-7.099279 2.129783L493.825808 469.972232c-4.685524 4.543538-12.636716 1.703827-13.346644-4.827509l-2.981697-25.273431c-0.283971-2.55574-1.845812-4.827509-4.117581-6.10538l-22.575705-11.926787c-5.821408-3.123683-5.537437-11.500831 0.425956-14.198557l23.143648-10.648918c2.413755-1.135885 4.117581-3.265668 4.543538-5.821408l4.401553-25.131446c1.135885-6.531336 9.229062-8.803105 13.630614-3.975596l17.32224 18.742095c1.703827 1.987798 4.401553 2.839711 6.957293 2.413755l25.273431-3.549639c6.531336-0.993899 11.21686 5.963394 8.093177 11.784802l-12.49473 22.291734c-1.27787 2.271769-1.419856 4.969495-0.141985 7.38325l11.21686 22.859676c2.697726 5.679423-2.55574 12.352744-8.945091 11.074875z" fill="#F2E5C0" p-id="8337"></path><path d="M399.405405 806.762001s-33.082637 37.768161-9.655019 72.270655c16.470326-31.378811 16.470326-18.884081 16.470326-18.884081l-6.815307-53.386574z m217.947848 5.111481s36.916248 34.076536 17.180253 70.850798c-19.594008-29.391013-18.458124-17.038268-18.458124-17.038268l1.277871-53.81253z" fill="#92ACB7" p-id="8338"></path><path d="M621.328848 917.368759c4.401553-0.283971 5.963394 5.679423 1.987798 7.525235-47.281194 23.285633-104.78535 20.161951-114.866325 19.452023h-0.141985c-63.609535-1.987798-114.582354-54.238487-114.582354-118.415964 0-65.455347 52.960617-42.311699 118.415964-42.3117s118.415964-23.143648 118.415964 42.3117c0 31.804767-12.49473 60.769823-32.940651 82.067659-1.987798 2.129784-1.135885 5.679423 1.561841 6.531336 6.105379 2.129784 13.630615 3.407654 22.149748 2.839711z" fill="#ABC2CE" p-id="8339"></path><path d="M523.358806 807.471929l12.778701 68.295059-17.322239 25.841373-20.303936-24.847474 7.099278-70.708814-13.630615-10.222961 22.575706-11.642816 22.575705 13.062672z" fill="#7E9BA8" p-id="8340"></path><path d="M537.131406 797.248968l-22.575705-13.062672-2.413755 1.27787 20.445922 11.784802-13.7726 10.222961 12.778701 68.295059-15.334441 22.717691 2.55574 3.123682 17.322239-25.841373-12.778701-68.295059z" fill="#6D8993" p-id="8341"></path><path d="M512.425917 511.999961m-511.715989 0a511.715989 511.715989 0 1 0 1023.431979 0 511.715989 511.715989 0 1 0-1023.431979 0Z" fill="#D8E3EA" p-id="8342"></path><path d="M340.339408 237.1159s-73.974481 11.642817-118.415964-18.032168-26.409316 69.8569 22.149749 98.396 96.266216-80.363832 96.266215-80.363832z" fill="#FFFCEE" p-id="8343"></path><path d="M325.430923 257.845793s-54.948415 8.66112-87.889067-13.346644-19.594008 51.824733 16.470326 72.980583c36.064334 21.15585 71.418741-59.633939 71.418741-59.633939z" fill="#D3D1C9" p-id="8344"></path><path d="M668.184086 237.1159s73.974481 11.642817 118.415964-18.032168c44.441483-29.674984 26.409316 69.8569-22.149748 98.396-48.70105 28.539099-96.266216-80.363832-96.266216-80.363832z" fill="#FFFCEE" p-id="8345"></path><path d="M683.234556 257.845793s54.948415 8.66112 87.889067-13.346644c32.940652-22.007763 19.594008 51.824733-16.470326 72.980583-36.064334 21.15585-71.418741-59.633939-71.418741-59.633939z" fill="#D3D1C9" p-id="8346"></path><path d="M193.810301 759.05485l-21.865777-4.401553c-2.271769-0.425957-4.543538 0.283971-6.247365 1.845813l-16.04437 15.476427c-4.117581 3.975596-11.074874 1.561841-11.642816-4.117582l-2.55574-22.149748c-0.283971-2.271769-1.561841-4.259567-3.691625-5.253466L112.168599 729.947809c-5.11148-2.697726-4.827509-10.080975 0.283971-12.352745l20.303937-9.371048c2.129784-0.993899 3.549639-2.839711 3.975596-5.11148l3.83361-22.007763c0.993899-5.679423 8.093177-7.667221 11.926788-3.549639l15.05047 16.32834c1.561841 1.703827 3.83361 2.55574 6.105379 2.129784l22.007764-3.123683c5.679423-0.851913 9.797004 5.253466 6.957292 10.222961L191.680518 722.706545c-1.135885 1.987798-1.135885 4.401553-0.141986 6.38935l9.797004 20.019965c2.55574 5.253466-1.845812 11.074874-7.525235 9.93899z m744.430337-435.75371l-21.865778-4.401553c-2.271769-0.425957-4.543538 0.283971-6.247365 1.845813l-16.044369 15.476427c-4.117581 3.975596-11.074874 1.561841-11.642817-4.117582l-2.55574-22.149749c-0.283971-2.271769-1.561841-4.259567-3.691625-5.253466l-19.735994-10.364946c-5.11148-2.697726-4.827509-10.080975 0.283971-12.352745l20.303937-9.371047c2.129784-0.993899 3.549639-2.839711 3.975596-5.111481l3.83361-22.007763c0.993899-5.679423 8.093177-7.667221 11.926788-3.549639l15.05047 16.32834c1.561841 1.703827 3.83361 2.55574 6.105379 2.129784l22.007764-3.123683c5.679423-0.851913 9.797004 5.253466 6.957292 10.222961l-10.932888 19.452023c-1.135885 1.987798-1.135885 4.401553-0.141986 6.389351l9.797004 20.019965c2.839711 5.253466-1.703827 11.074874-7.383249 9.93899zM520.945051 84.90737l-14.908484-2.981697c-1.561841-0.283971-3.123683 0.141986-4.259567 1.27787l-10.932889 10.506932c-2.839711 2.697726-7.525235 0.993899-7.951192-2.839711L481.331078 75.820294c-0.141986-1.561841-1.135885-2.839711-2.413755-3.691625l-13.346643-7.099279c-3.407654-1.845812-3.265668-6.815307 0.283971-8.519134l13.7726-6.38935c1.419856-0.709928 2.413755-1.987798 2.697726-3.407654l2.55574-14.908485c0.709928-3.83361 5.395452-5.253466 8.093177-2.413754l10.222961 11.21686c0.993899 1.135885 2.55574 1.703827 4.117582 1.419855l15.05047-2.129783c3.83361-0.567942 6.673322 3.549639 4.827509 6.957293l-7.383249 13.204658c-0.709928 1.419856-0.851913 2.981697-0.141986 4.401552l6.673322 13.630615c1.561841 3.549639-1.561841 7.525235-5.395452 6.815307zM334.092043 875.341031l-10.932889-2.129784c-1.135885-0.283971-2.271769 0.141986-3.123682 0.851914l-7.951192 7.809206c-2.129784 1.987798-5.537437 0.709928-5.821408-2.129784l-1.277871-11.074874c-0.141986-1.135885-0.851913-2.129784-1.845812-2.697726l-9.797004-5.253466c-2.55574-1.27787-2.413755-4.969495 0.141985-6.247365l10.080976-4.685524c0.993899-0.425957 1.703827-1.419856 1.987798-2.55574l1.845812-10.932889c0.425957-2.839711 3.975596-3.83361 5.963394-1.703826l7.525235 8.235163c0.709928 0.851913 1.845812 1.27787 2.981697 1.135884l11.074874-1.561841c2.839711-0.425957 4.969495 2.55574 3.54964 5.11148l-5.395452 9.655019c-0.567942 0.993899-0.567942 2.129784-0.141985 3.265668l4.969494 9.93899c1.27787 2.55574-0.993899 5.537437-3.83361 4.969495z" fill="#F7F4EB" p-id="8347"></path><path d="M73.264553 553.743718l-14.908484-2.981697c-1.561841-0.283971-3.123683 0.141986-4.259567 1.27787l-10.932889 10.648918c-2.839711 2.697726-7.525235 0.993899-7.951192-2.839712l-1.703827-15.05047c-0.141986-1.561841-1.135885-2.839711-2.55574-3.691625l-13.488629-7.099278c-3.407654-1.845812-3.265668-6.815307 0.283971-8.519134l13.7726-6.389351c1.419856-0.709928 2.413755-1.987798 2.697726-3.549639l2.55574-15.05047c0.709928-3.83361 5.537437-5.253466 8.093178-2.413755l10.364946 11.21686c0.993899 1.135885 2.55574 1.703827 4.117582 1.419855l15.05047-2.129783c3.83361-0.567942 6.673322 3.549639 4.827509 6.957293l-7.525235 13.204658c-0.709928 1.419856-0.851913 2.981697-0.141985 4.401552l6.673321 13.630615c1.987798 3.83361-1.135885 7.809206-4.969495 6.957293z" fill="#F2E5C0" p-id="8348"></path><path d="M799.378752 856.172979c3.975596 2.271769 8.093177 4.117581 12.210758 5.395452-16.612312-15.05047-22.291734-37.626176-12.49473-54.80643s32.088739-23.71159 53.52856-17.180254c-3.265668-2.981697-6.815307-5.537437-10.790903-7.809206-24.563503-14.056571-54.096502-8.803105-65.739319 11.784802-11.642817 20.587907-1.27787 48.70105 23.285634 62.615636z" fill="#F7F4EB" p-id="8349"></path><path d="M196.650013 541.674944a315.775905 262.247345 0 1 0 631.551809 0 315.775905 262.247345 0 1 0-631.551809 0Z" fill="#F7F4EB" p-id="8350"></path><path d="M853.617239 473.521871c0 169.530769-152.776472 32.940652-341.191322 32.940652s-341.191322 136.590117-341.191321-32.940652 152.776472-306.972799 341.191321-306.972799 341.191322 137.44203 341.191322 306.972799z" fill="#FFFCEE" p-id="8351"></path><path d="M189.976691 487.720428c0-174.926221 148.516905-316.769804 331.820274-316.769803 180.605643 0 327.560707 137.867987 331.678288 309.528539 0-2.271769 0.141986-4.401553 0.141986-6.815307 0-169.530769-152.776472-306.972799-341.191322-306.972799s-341.191322 137.44203-341.191321 306.972799c0 46.429281 11.500831 69.998885 32.088738 79.511919-8.66112-13.7726-13.346643-34.786464-13.346643-65.455348z" fill="#F7F3E4" p-id="8352"></path><path d="M382.651108 219.651675c5.963394 17.322239 29.958955-1.987798 38.052132-5.679423 8.093177-3.691625 31.520796 1.135885 25.983359-16.32834-21.297835-66.591232-97.118129-100.667768-114.866325-94.562389-17.748196 6.105379 27.971157 50.404877 50.830834 116.570152z m260.685504 0c-5.963394 17.322239-29.958955-1.987798-38.052133-5.679423-8.093177-3.691625-31.520796 1.135885-25.983359-16.32834 21.297835-66.591232 97.118129-100.667768 114.866325-94.562389s-28.113143 50.404877-50.830833 116.570152z" fill="#BFA39B" p-id="8353"></path><path d="M654.2695 211.700483s-45.861339-23.569604-54.948415-21.15585c20.445922-2.839711 56.794227 13.346643 56.794228 13.346644l-1.845813 7.809206z m15.618413-37.342205s-40.465887-17.606211-52.108704-14.482528c18.742095-7.38325 55.658343 9.513033 55.658343 9.513033l-3.549639 4.969495z m-66.023289-35.638377s41.885743-9.513033 60.627837 0.993899c-12.636716-13.062672-51.114805-10.932889-51.114804-10.932889l-9.513033 9.93899z" fill="#DBB3A9" p-id="8354"></path><path d="M365.419061 590.02638a30.100941 27.971157 82.568 1 0 55.472347-7.236106 30.100941 27.971157 82.568 1 0-55.472347 7.236106Z" fill="#635C5B" p-id="8355"></path><path d="M395.486555 599.078805a8.66112 7.951192 82.568 1 0 15.768789-2.056964 8.66112 7.951192 82.568 1 0-15.768789 2.056964Z" fill="#D6D1D0" p-id="8356"></path><path d="M408.004975 585.760268a2.981697 2.839711 54.825 1 0 4.642339-3.271778 2.981697 2.839711 54.825 1 0-4.642339 3.271778Z" fill="#D6D1D0" p-id="8357"></path><path d="M583.362797 587.881556a30.100941 27.971157 82.568 1 0 55.472347-7.236107 30.100941 27.971157 82.568 1 0-55.472347 7.236107Z" fill="#635C5B" p-id="8358"></path><path d="M613.289486 596.952163a8.66112 7.951192 82.568 1 0 15.768789-2.056964 8.66112 7.951192 82.568 1 0-15.768789 2.056964Z" fill="#D6D1D0" p-id="8359"></path><path d="M625.808522 583.64022a2.981697 2.839711 54.825 1 0 4.64234-3.271778 2.981697 2.839711 54.825 1 0-4.64234 3.271778Z" fill="#D6D1D0" p-id="8360"></path><path d="M639.077045 911.689336c2.413755-3.975596 4.827509-7.809206 6.957292-11.642816 2.271769-3.83361 4.259567-7.667221 6.10538-11.500831 1.845812-3.975596 3.407654-7.951192 4.401553-12.068774 0.567942-2.129784 0.993899-4.259567 1.27787-6.38935 0.283971-2.129784 0.425957-4.401553 0.567942-6.815308 1.135885 2.129784 1.845812 4.401553 2.271769 6.673322 0.425957 2.271769 0.567942 4.685524 0.283971 7.099279-0.283971 4.827509-1.703827 9.513033-3.691625 13.7726-1.987798 4.259567-4.685524 8.235163-7.66722 11.784802-2.981697 3.549639-6.389351 6.673322-10.506932 9.087076z m-3.691625 14.624514c3.83361 2.697726 7.525235 5.253466 11.21686 7.667221 3.691625 2.413755 7.38325 4.685524 11.21686 6.815307 3.83361 1.987798 7.667221 3.83361 11.784802 5.11148 1.987798 0.709928 4.117581 1.135885 6.247365 1.703827 2.129784 0.425957 4.401553 0.709928 6.673322 0.993899-2.129784 0.993899-4.401553 1.561841-6.815308 1.845813-2.413755 0.283971-4.827509 0.283971-7.099278 0-4.685524-0.567942-9.371048-2.271769-13.488629-4.543539-4.117581-2.271769-7.951192-5.11148-11.21686-8.377148-3.407654-3.265668-6.389351-6.957293-8.519134-11.21686z" fill="#7E9BA8" p-id="8361"></path><path d="M508.024365 664.350476c0 10.222961-5.11148 7.951192-11.500831 7.951192s-11.500831 2.271769-11.500831-7.951192c0-10.222961 5.11148-24.847475 11.500831-24.847475s11.500831 14.624514 11.500831 24.847475z" fill="#F4DEDC" p-id="8362"></path><path d="M544.230685 455.063748l-24.98946-4.969495c-2.55574-0.567942-5.253466 0.283971-7.099279 2.129783L493.825808 469.972232c-4.685524 4.543538-12.636716 1.703827-13.346644-4.827509l-2.981697-25.273431c-0.283971-2.55574-1.845812-4.827509-4.117581-6.10538l-22.575705-11.926787c-5.821408-3.123683-5.537437-11.500831 0.425956-14.198557l23.143648-10.648918c2.413755-1.135885 4.117581-3.265668 4.543538-5.821408l4.401553-25.131446c1.135885-6.531336 9.229062-8.803105 13.630614-3.975596l17.32224 18.742095c1.703827 1.987798 4.401553 2.839711 6.957293 2.413755l25.273431-3.549639c6.531336-0.993899 11.21686 5.963394 8.093177 11.784802l-12.49473 22.291734c-1.27787 2.271769-1.419856 4.969495-0.141985 7.38325l11.21686 22.859676c2.697726 5.679423-2.55574 12.352744-8.945091 11.074875z" fill="#F2E5C0" p-id="8363"></path><path d="M399.405405 806.762001s-33.082637 37.768161-9.655019 72.270655c16.470326-31.378811 16.470326-18.884081 16.470326-18.884081l-6.815307-53.386574z m217.947848 5.111481s36.916248 34.076536 17.180253 70.850798c-19.594008-29.391013-18.458124-17.038268-18.458124-17.038268l1.277871-53.81253z" fill="#92ACB7" p-id="8364"></path><path d="M621.328848 917.368759c4.401553-0.283971 5.963394 5.679423 1.987798 7.525235-47.281194 23.285633-104.78535 20.161951-114.866325 19.452023h-0.141985c-63.609535-1.987798-114.582354-54.238487-114.582354-118.415964 0-65.455347 52.960617-42.311699 118.415964-42.3117s118.415964-23.143648 118.415964 42.3117c0 31.804767-12.49473 60.769823-32.940651 82.067659-1.987798 2.129784-1.135885 5.679423 1.561841 6.531336 6.105379 2.129784 13.630615 3.407654 22.149748 2.839711z" fill="#ABC2CE" p-id="8365"></path><path d="M523.358806 807.471929l12.778701 68.295059-17.322239 25.841373-20.303936-24.847474 7.099278-70.708814-13.630615-10.222961 22.575706-11.642816 22.575705 13.062672z" fill="#7E9BA8" p-id="8366"></path><path d="M537.131406 797.248968l-22.575705-13.062672-2.413755 1.27787 20.445922 11.784802-13.7726 10.222961 12.778701 68.295059-15.334441 22.717691 2.55574 3.123682 17.322239-25.841373-12.778701-68.295059z" fill="#6D8993" p-id="8367"></path><path d="M512.425917 511.999961m-511.715989 0a511.715989 511.715989 0 1 0 1023.431979 0 511.715989 511.715989 0 1 0-1023.431979 0Z" fill="#D8E3EA" p-id="8368"></path><path d="M340.339408 237.1159s-73.974481 11.642817-118.415964-18.032168-26.409316 69.8569 22.149749 98.396 96.266216-80.363832 96.266215-80.363832z" fill="#FFFCEE" p-id="8369"></path><path d="M325.430923 257.845793s-54.948415 8.66112-87.889067-13.346644-19.594008 51.824733 16.470326 72.980583c36.064334 21.15585 71.418741-59.633939 71.418741-59.633939z" fill="#D3D1C9" p-id="8370"></path><path d="M668.184086 237.1159s73.974481 11.642817 118.415964-18.032168c44.441483-29.674984 26.409316 69.8569-22.149748 98.396-48.70105 28.539099-96.266216-80.363832-96.266216-80.363832z" fill="#FFFCEE" p-id="8371"></path><path d="M683.234556 257.845793s54.948415 8.66112 87.889067-13.346644c32.940652-22.007763 19.594008 51.824733-16.470326 72.980583-36.064334 21.15585-71.418741-59.633939-71.418741-59.633939z" fill="#D3D1C9" p-id="8372"></path><path d="M193.810301 759.05485l-21.865777-4.401553c-2.271769-0.425957-4.543538 0.283971-6.247365 1.845813l-16.04437 15.476427c-4.117581 3.975596-11.074874 1.561841-11.642816-4.117582l-2.55574-22.149748c-0.283971-2.271769-1.561841-4.259567-3.691625-5.253466L112.168599 729.947809c-5.11148-2.697726-4.827509-10.080975 0.283971-12.352745l20.303937-9.371048c2.129784-0.993899 3.549639-2.839711 3.975596-5.11148l3.83361-22.007763c0.993899-5.679423 8.093177-7.667221 11.926788-3.549639l15.05047 16.32834c1.561841 1.703827 3.83361 2.55574 6.105379 2.129784l22.007764-3.123683c5.679423-0.851913 9.797004 5.253466 6.957292 10.222961L191.680518 722.706545c-1.135885 1.987798-1.135885 4.401553-0.141986 6.38935l9.797004 20.019965c2.55574 5.253466-1.845812 11.074874-7.525235 9.93899z m744.430337-435.75371l-21.865778-4.401553c-2.271769-0.425957-4.543538 0.283971-6.247365 1.845813l-16.044369 15.476427c-4.117581 3.975596-11.074874 1.561841-11.642817-4.117582l-2.55574-22.149749c-0.283971-2.271769-1.561841-4.259567-3.691625-5.253466l-19.735994-10.364946c-5.11148-2.697726-4.827509-10.080975 0.283971-12.352745l20.303937-9.371047c2.129784-0.993899 3.549639-2.839711 3.975596-5.111481l3.83361-22.007763c0.993899-5.679423 8.093177-7.667221 11.926788-3.549639l15.05047 16.32834c1.561841 1.703827 3.83361 2.55574 6.105379 2.129784l22.007764-3.123683c5.679423-0.851913 9.797004 5.253466 6.957292 10.222961l-10.932888 19.452023c-1.135885 1.987798-1.135885 4.401553-0.141986 6.389351l9.797004 20.019965c2.839711 5.253466-1.703827 11.074874-7.383249 9.93899zM520.945051 84.90737l-14.908484-2.981697c-1.561841-0.283971-3.123683 0.141986-4.259567 1.27787l-10.932889 10.506932c-2.839711 2.697726-7.525235 0.993899-7.951192-2.839711L481.331078 75.820294c-0.141986-1.561841-1.135885-2.839711-2.413755-3.691625l-13.346643-7.099279c-3.407654-1.845812-3.265668-6.815307 0.283971-8.519134l13.7726-6.38935c1.419856-0.709928 2.413755-1.987798 2.697726-3.407654l2.55574-14.908485c0.709928-3.83361 5.395452-5.253466 8.093177-2.413754l10.222961 11.21686c0.993899 1.135885 2.55574 1.703827 4.117582 1.419855l15.05047-2.129783c3.83361-0.567942 6.673322 3.549639 4.827509 6.957293l-7.383249 13.204658c-0.709928 1.419856-0.851913 2.981697-0.141986 4.401552l6.673322 13.630615c1.561841 3.549639-1.561841 7.525235-5.395452 6.815307zM334.092043 875.341031l-10.932889-2.129784c-1.135885-0.283971-2.271769 0.141986-3.123682 0.851914l-7.951192 7.809206c-2.129784 1.987798-5.537437 0.709928-5.821408-2.129784l-1.277871-11.074874c-0.141986-1.135885-0.851913-2.129784-1.845812-2.697726l-9.797004-5.253466c-2.55574-1.27787-2.413755-4.969495 0.141985-6.247365l10.080976-4.685524c0.993899-0.425957 1.703827-1.419856 1.987798-2.55574l1.845812-10.932889c0.425957-2.839711 3.975596-3.83361 5.963394-1.703826l7.525235 8.235163c0.709928 0.851913 1.845812 1.27787 2.981697 1.135884l11.074874-1.561841c2.839711-0.425957 4.969495 2.55574 3.54964 5.11148l-5.395452 9.655019c-0.567942 0.993899-0.567942 2.129784-0.141985 3.265668l4.969494 9.93899c1.27787 2.55574-0.993899 5.537437-3.83361 4.969495z" fill="#F7F4EB" p-id="8373"></path><path d="M73.264553 553.743718l-14.908484-2.981697c-1.561841-0.283971-3.123683 0.141986-4.259567 1.27787l-10.932889 10.648918c-2.839711 2.697726-7.525235 0.993899-7.951192-2.839712l-1.703827-15.05047c-0.141986-1.561841-1.135885-2.839711-2.55574-3.691625l-13.488629-7.099278c-3.407654-1.845812-3.265668-6.815307 0.283971-8.519134l13.7726-6.389351c1.419856-0.709928 2.413755-1.987798 2.697726-3.549639l2.55574-15.05047c0.709928-3.83361 5.537437-5.253466 8.093178-2.413755l10.364946 11.21686c0.993899 1.135885 2.55574 1.703827 4.117582 1.419855l15.05047-2.129783c3.83361-0.567942 6.673322 3.549639 4.827509 6.957293l-7.525235 13.204658c-0.709928 1.419856-0.851913 2.981697-0.141985 4.401552l6.673321 13.630615c1.987798 3.83361-1.135885 7.809206-4.969495 6.957293z" fill="#F2E5C0" p-id="8374"></path><path d="M799.378752 856.172979c3.975596 2.271769 8.093177 4.117581 12.210758 5.395452-16.612312-15.05047-22.291734-37.626176-12.49473-54.80643s32.088739-23.71159 53.52856-17.180254c-3.265668-2.981697-6.815307-5.537437-10.790903-7.809206-24.563503-14.056571-54.096502-8.803105-65.739319 11.784802-11.642817 20.587907-1.27787 48.70105 23.285634 62.615636z" fill="#F7F4EB" p-id="8375"></path><path d="M196.650013 541.674944a315.775905 262.247345 0 1 0 631.551809 0 315.775905 262.247345 0 1 0-631.551809 0Z" fill="#F7F4EB" p-id="8376"></path><path d="M853.617239 473.521871c0 169.530769-152.776472 32.940652-341.191322 32.940652s-341.191322 136.590117-341.191321-32.940652 152.776472-306.972799 341.191321-306.972799 341.191322 137.44203 341.191322 306.972799z" fill="#FFFCEE" p-id="8377"></path><path d="M189.976691 487.720428c0-174.926221 148.516905-316.769804 331.820274-316.769803 180.605643 0 327.560707 137.867987 331.678288 309.528539 0-2.271769 0.141986-4.401553 0.141986-6.815307 0-169.530769-152.776472-306.972799-341.191322-306.972799s-341.191322 137.44203-341.191321 306.972799c0 46.429281 11.500831 69.998885 32.088738 79.511919-8.66112-13.7726-13.346643-34.786464-13.346643-65.455348z" fill="#F7F3E4" p-id="8378"></path><path d="M382.651108 219.651675c5.963394 17.322239 29.958955-1.987798 38.052132-5.679423 8.093177-3.691625 31.520796 1.135885 25.983359-16.32834-21.297835-66.591232-97.118129-100.667768-114.866325-94.562389-17.748196 6.105379 27.971157 50.404877 50.830834 116.570152z" fill="#BFA39B" p-id="8379"></path><path d="M371.576233 211.700483s45.861339-23.569604 54.948415-21.15585c-20.445922-2.839711-56.794227 13.346643-56.794227 13.346644l1.845812 7.809206z m-15.476427-37.342205s40.465887-17.606211 52.108704-14.482528c-18.742095-7.38325-55.658343 9.513033-55.658343 9.513033l3.549639 4.969495z m65.881304-35.638377s-41.885743-9.513033-60.627838 0.993899c12.636716-13.062672 51.114805-10.932889 51.114805-10.932889l9.513033 9.93899z" fill="#DBB3A9" p-id="8380"></path><path d="M643.336612 219.651675c-5.963394 17.322239-29.958955-1.987798-38.052133-5.679423-8.093177-3.691625-31.520796 1.135885-25.983359-16.32834 21.297835-66.591232 97.118129-100.667768 114.866325-94.562389s-28.113143 50.404877-50.830833 116.570152z" fill="#BFA39B" p-id="8381"></path><path d="M654.2695 211.700483s-45.861339-23.569604-54.948415-21.15585c20.445922-2.839711 56.794227 13.346643 56.794228 13.346644l-1.845813 7.809206z m15.618413-37.342205s-40.465887-17.606211-52.108704-14.482528c18.742095-7.38325 55.658343 9.513033 55.658343 9.513033l-3.549639 4.969495z m-66.023289-35.638377s41.885743-9.513033 60.627837 0.993899c-12.636716-13.062672-51.114805-10.932889-51.114804-10.932889l-9.513033 9.93899z" fill="#DBB3A9" p-id="8382"></path><path d="M365.419061 590.02638a30.100941 27.971157 82.568 1 0 55.472347-7.236106 30.100941 27.971157 82.568 1 0-55.472347 7.236106Z" fill="#635C5B" p-id="8383"></path><path d="M395.486555 599.078805a8.66112 7.951192 82.568 1 0 15.768789-2.056964 8.66112 7.951192 82.568 1 0-15.768789 2.056964Z" fill="#D6D1D0" p-id="8384"></path><path d="M408.004975 585.760268a2.981697 2.839711 54.825 1 0 4.642339-3.271778 2.981697 2.839711 54.825 1 0-4.642339 3.271778Z" fill="#D6D1D0" p-id="8385"></path><path d="M583.362797 587.881556a30.100941 27.971157 82.568 1 0 55.472347-7.236107 30.100941 27.971157 82.568 1 0-55.472347 7.236107Z" fill="#635C5B" p-id="8386"></path><path d="M613.289486 596.952163a8.66112 7.951192 82.568 1 0 15.768789-2.056964 8.66112 7.951192 82.568 1 0-15.768789 2.056964Z" fill="#D6D1D0" p-id="8387"></path><path d="M625.808522 583.64022a2.981697 2.839711 54.825 1 0 4.64234-3.271778 2.981697 2.839711 54.825 1 0-4.64234 3.271778Z" fill="#D6D1D0" p-id="8388"></path><path d="M639.077045 911.689336c2.413755-3.975596 4.827509-7.809206 6.957292-11.642816 2.271769-3.83361 4.259567-7.667221 6.10538-11.500831 1.845812-3.975596 3.407654-7.951192 4.401553-12.068774 0.567942-2.129784 0.993899-4.259567 1.27787-6.38935 0.283971-2.129784 0.425957-4.401553 0.567942-6.815308 1.135885 2.129784 1.845812 4.401553 2.271769 6.673322 0.425957 2.271769 0.567942 4.685524 0.283971 7.099279-0.283971 4.827509-1.703827 9.513033-3.691625 13.7726-1.987798 4.259567-4.685524 8.235163-7.66722 11.784802-2.981697 3.549639-6.389351 6.673322-10.506932 9.087076zM635.38542 926.31385c3.83361 2.697726 7.525235 5.253466 11.21686 7.667221 3.691625 2.413755 7.38325 4.685524 11.21686 6.815307 3.83361 1.987798 7.667221 3.83361 11.784802 5.11148 1.987798 0.709928 4.117581 1.135885 6.247365 1.703827 2.129784 0.425957 4.401553 0.709928 6.673322 0.993899-2.129784 0.993899-4.401553 1.561841-6.815308 1.845813-2.413755 0.283971-4.827509 0.283971-7.099278 0-4.685524-0.567942-9.371048-2.271769-13.488629-4.543539-4.117581-2.271769-7.951192-5.11148-11.21686-8.377148-3.407654-3.265668-6.389351-6.957293-8.519134-11.21686z" fill="#7E9BA8" p-id="8389"></path><path d="M508.024365 664.350476c0 10.222961-5.11148 7.951192-11.500831 7.951192s-11.500831 2.271769-11.500831-7.951192c0-10.222961 5.11148-24.847475 11.500831-24.847475s11.500831 14.624514 11.500831 24.847475z" fill="#F4DEDC" p-id="8390"></path><path d="M544.230685 455.063748l-24.98946-4.969495c-2.55574-0.567942-5.253466 0.283971-7.099279 2.129783L493.825808 469.972232c-4.685524 4.543538-12.636716 1.703827-13.346644-4.827509l-2.981697-25.273431c-0.283971-2.55574-1.845812-4.827509-4.117581-6.10538l-22.575705-11.926787c-5.821408-3.123683-5.537437-11.500831 0.425956-14.198557l23.143648-10.648918c2.413755-1.135885 4.117581-3.265668 4.543538-5.821408l4.401553-25.131446c1.135885-6.531336 9.229062-8.803105 13.630614-3.975596l17.32224 18.742095c1.703827 1.987798 4.401553 2.839711 6.957293 2.413755l25.273431-3.549639c6.531336-0.993899 11.21686 5.963394 8.093177 11.784802l-12.49473 22.291734c-1.27787 2.271769-1.419856 4.969495-0.141985 7.38325l11.21686 22.859676c2.697726 5.679423-2.55574 12.352744-8.945091 11.074875z" fill="#F2E5C0" p-id="8391"></path><path d="M399.405405 806.762001s-33.082637 37.768161-9.655019 72.270655c16.470326-31.378811 16.470326-18.884081 16.470326-18.884081l-6.815307-53.386574z m217.947848 5.111481s36.916248 34.076536 17.180253 70.850798c-19.594008-29.391013-18.458124-17.038268-18.458124-17.038268l1.277871-53.81253z" fill="#92ACB7" p-id="8392"></path><path d="M621.328848 917.368759c4.401553-0.283971 5.963394 5.679423 1.987798 7.525235-47.281194 23.285633-104.78535 20.161951-114.866325 19.452023h-0.141985c-63.609535-1.987798-114.582354-54.238487-114.582354-118.415964 0-65.455347 52.960617-42.311699 118.415964-42.3117s118.415964-23.143648 118.415964 42.3117c0 31.804767-12.49473 60.769823-32.940651 82.067659-1.987798 2.129784-1.135885 5.679423 1.561841 6.531336 6.105379 2.129784 13.630615 3.407654 22.149748 2.839711z" fill="#ABC2CE" p-id="8393"></path><path d="M523.358806 807.471929l12.778701 68.295059-17.322239 25.841373-20.303936-24.847474 7.099278-70.708814-13.630615-10.222961 22.575706-11.642816 22.575705 13.062672z" fill="#7E9BA8" p-id="8394"></path><path d="M537.131406 797.248968l-22.575705-13.062672-2.413755 1.27787 20.445922 11.784802-13.7726 10.222961 12.778701 68.295059-15.334441 22.717691 2.55574 3.123682 17.322239-25.841373-12.778701-68.295059z" fill="#6D8993" p-id="8395"></path><path d="M512.425917 511.999961m-511.715989 0a511.715989 511.715989 0 1 0 1023.431979 0 511.715989 511.715989 0 1 0-1023.431979 0Z" fill="#D8E3EA" p-id="8396"></path><path d="M340.339408 237.1159s-73.974481 11.642817-118.415964-18.032168-26.409316 69.8569 22.149749 98.396 96.266216-80.363832 96.266215-80.363832z" fill="#FFFCEE" p-id="8397"></path><path d="M325.430923 257.845793s-54.948415 8.66112-87.889067-13.346644-19.594008 51.824733 16.470326 72.980583c36.064334 21.15585 71.418741-59.633939 71.418741-59.633939z" fill="#D3D1C9" p-id="8398"></path><path d="M668.184086 237.1159s73.974481 11.642817 118.415964-18.032168c44.441483-29.674984 26.409316 69.8569-22.149748 98.396-48.70105 28.539099-96.266216-80.363832-96.266216-80.363832z" fill="#FFFCEE" p-id="8399"></path><path d="M683.234556 257.845793s54.948415 8.66112 87.889067-13.346644c32.940652-22.007763 19.594008 51.824733-16.470326 72.980583-36.064334 21.15585-71.418741-59.633939-71.418741-59.633939z" fill="#D3D1C9" p-id="8400"></path><path d="M193.810301 759.05485l-21.865777-4.401553c-2.271769-0.425957-4.543538 0.283971-6.247365 1.845813l-16.04437 15.476427c-4.117581 3.975596-11.074874 1.561841-11.642816-4.117582l-2.55574-22.149748c-0.283971-2.271769-1.561841-4.259567-3.691625-5.253466L112.168599 729.947809c-5.11148-2.697726-4.827509-10.080975 0.283971-12.352745l20.303937-9.371048c2.129784-0.993899 3.549639-2.839711 3.975596-5.11148l3.83361-22.007763c0.993899-5.679423 8.093177-7.667221 11.926788-3.549639l15.05047 16.32834c1.561841 1.703827 3.83361 2.55574 6.105379 2.129784l22.007764-3.123683c5.679423-0.851913 9.797004 5.253466 6.957292 10.222961L191.680518 722.706545c-1.135885 1.987798-1.135885 4.401553-0.141986 6.38935l9.797004 20.019965c2.55574 5.253466-1.845812 11.074874-7.525235 9.93899z m744.430337-435.75371l-21.865778-4.401553c-2.271769-0.425957-4.543538 0.283971-6.247365 1.845813l-16.044369 15.476427c-4.117581 3.975596-11.074874 1.561841-11.642817-4.117582l-2.55574-22.149749c-0.283971-2.271769-1.561841-4.259567-3.691625-5.253466l-19.735994-10.364946c-5.11148-2.697726-4.827509-10.080975 0.283971-12.352745l20.303937-9.371047c2.129784-0.993899 3.549639-2.839711 3.975596-5.111481l3.83361-22.007763c0.993899-5.679423 8.093177-7.667221 11.926788-3.549639l15.05047 16.32834c1.561841 1.703827 3.83361 2.55574 6.105379 2.129784l22.007764-3.123683c5.679423-0.851913 9.797004 5.253466 6.957292 10.222961l-10.932888 19.452023c-1.135885 1.987798-1.135885 4.401553-0.141986 6.389351l9.797004 20.019965c2.839711 5.253466-1.703827 11.074874-7.383249 9.93899zM520.945051 84.90737l-14.908484-2.981697c-1.561841-0.283971-3.123683 0.141986-4.259567 1.27787l-10.932889 10.506932c-2.839711 2.697726-7.525235 0.993899-7.951192-2.839711L481.331078 75.820294c-0.141986-1.561841-1.135885-2.839711-2.413755-3.691625l-13.346643-7.099279c-3.407654-1.845812-3.265668-6.815307 0.283971-8.519134l13.7726-6.38935c1.419856-0.709928 2.413755-1.987798 2.697726-3.407654l2.55574-14.908485c0.709928-3.83361 5.395452-5.253466 8.093177-2.413754l10.222961 11.21686c0.993899 1.135885 2.55574 1.703827 4.117582 1.419855l15.05047-2.129783c3.83361-0.567942 6.673322 3.549639 4.827509 6.957293l-7.383249 13.204658c-0.709928 1.419856-0.851913 2.981697-0.141986 4.401552l6.673322 13.630615c1.561841 3.549639-1.561841 7.525235-5.395452 6.815307zM334.092043 875.341031l-10.932889-2.129784c-1.135885-0.283971-2.271769 0.141986-3.123682 0.851914l-7.951192 7.809206c-2.129784 1.987798-5.537437 0.709928-5.821408-2.129784l-1.277871-11.074874c-0.141986-1.135885-0.851913-2.129784-1.845812-2.697726l-9.797004-5.253466c-2.55574-1.27787-2.413755-4.969495 0.141985-6.247365l10.080976-4.685524c0.993899-0.425957 1.703827-1.419856 1.987798-2.55574l1.845812-10.932889c0.425957-2.839711 3.975596-3.83361 5.963394-1.703826l7.525235 8.235163c0.709928 0.851913 1.845812 1.27787 2.981697 1.135884l11.074874-1.561841c2.839711-0.425957 4.969495 2.55574 3.54964 5.11148l-5.395452 9.655019c-0.567942 0.993899-0.567942 2.129784-0.141985 3.265668l4.969494 9.93899c1.27787 2.55574-0.993899 5.537437-3.83361 4.969495z" fill="#F7F4EB" p-id="8401"></path><path d="M73.264553 553.743718l-14.908484-2.981697c-1.561841-0.283971-3.123683 0.141986-4.259567 1.27787l-10.932889 10.648918c-2.839711 2.697726-7.525235 0.993899-7.951192-2.839712l-1.703827-15.05047c-0.141986-1.561841-1.135885-2.839711-2.55574-3.691625l-13.488629-7.099278c-3.407654-1.845812-3.265668-6.815307 0.283971-8.519134l13.7726-6.389351c1.419856-0.709928 2.413755-1.987798 2.697726-3.549639l2.55574-15.05047c0.709928-3.83361 5.537437-5.253466 8.093178-2.413755l10.364946 11.21686c0.993899 1.135885 2.55574 1.703827 4.117582 1.419855l15.05047-2.129783c3.83361-0.567942 6.673322 3.549639 4.827509 6.957293l-7.525235 13.204658c-0.709928 1.419856-0.851913 2.981697-0.141985 4.401552l6.673321 13.630615c1.987798 3.83361-1.135885 7.809206-4.969495 6.957293z" fill="#F2E5C0" p-id="8402"></path><path d="M799.378752 856.172979c3.975596 2.271769 8.093177 4.117581 12.210758 5.395452-16.612312-15.05047-22.291734-37.626176-12.49473-54.80643s32.088739-23.71159 53.52856-17.180254c-3.265668-2.981697-6.815307-5.537437-10.790903-7.809206-24.563503-14.056571-54.096502-8.803105-65.739319 11.784802-11.642817 20.587907-1.27787 48.70105 23.285634 62.615636z" fill="#F7F4EB" p-id="8403"></path><path d="M196.650013 541.674944a315.775905 262.247345 0 1 0 631.551809 0 315.775905 262.247345 0 1 0-631.551809 0Z" fill="#F7F4EB" p-id="8404"></path><path d="M853.617239 473.521871c0 169.530769-152.776472 32.940652-341.191322 32.940652s-341.191322 136.590117-341.191321-32.940652 152.776472-306.972799 341.191321-306.972799 341.191322 137.44203 341.191322 306.972799z" fill="#FFFCEE" p-id="8405"></path><path d="M189.976691 487.720428c0-174.926221 148.516905-316.769804 331.820274-316.769803 180.605643 0 327.560707 137.867987 331.678288 309.528539 0-2.271769 0.141986-4.401553 0.141986-6.815307 0-169.530769-152.776472-306.972799-341.191322-306.972799s-341.191322 137.44203-341.191321 306.972799c0 46.429281 11.500831 69.998885 32.088738 79.511919-8.66112-13.7726-13.346643-34.786464-13.346643-65.455348z" fill="#F7F3E4" p-id="8406"></path><path d="M382.651108 219.651675c5.963394 17.322239 29.958955-1.987798 38.052132-5.679423 8.093177-3.691625 31.520796 1.135885 25.983359-16.32834-21.297835-66.591232-97.118129-100.667768-114.866325-94.562389-17.748196 6.105379 27.971157 50.404877 50.830834 116.570152z" fill="#BFA39B" p-id="8407"></path><path d="M371.576233 211.700483s45.861339-23.569604 54.948415-21.15585c-20.445922-2.839711-56.794227 13.346643-56.794227 13.346644l1.845812 7.809206z m-15.476427-37.342205s40.465887-17.606211 52.108704-14.482528c-18.742095-7.38325-55.658343 9.513033-55.658343 9.513033l3.549639 4.969495z m65.881304-35.638377s-41.885743-9.513033-60.627838 0.993899c12.636716-13.062672 51.114805-10.932889 51.114805-10.932889l9.513033 9.93899z" fill="#DBB3A9" p-id="8408"></path><path d="M643.336612 219.651675c-5.963394 17.322239-29.958955-1.987798-38.052133-5.679423-8.093177-3.691625-31.520796 1.135885-25.983359-16.32834 21.297835-66.591232 97.118129-100.667768 114.866325-94.562389s-28.113143 50.404877-50.830833 116.570152z" fill="#BFA39B" p-id="8409"></path><path d="M654.2695 211.700483s-45.861339-23.569604-54.948415-21.15585c20.445922-2.839711 56.794227 13.346643 56.794228 13.346644l-1.845813 7.809206z m15.618413-37.342205s-40.465887-17.606211-52.108704-14.482528c18.742095-7.38325 55.658343 9.513033 55.658343 9.513033l-3.549639 4.969495z m-66.023289-35.638377s41.885743-9.513033 60.627837 0.993899c-12.636716-13.062672-51.114805-10.932889-51.114804-10.932889l-9.513033 9.93899z" fill="#DBB3A9" p-id="8410"></path><path d="M692.889575 954.568978c-3.407654-11.21686-13.346643-32.656681-41.175815-38.052132-2.839711-0.567942-3.83361-3.975596-1.987798-6.10538 22.717691-24.705489 14.482528-38.904046 11.21686-47.991122-0.709928-1.845812-2.697726-2.839711-4.543538-2.271769-24.421518 8.377149-22.149749 21.723792-26.125345 41.033829-2.129784 10.080975-4.827509 13.7726-7.099278 15.050471-1.845812 0.993899-2.55574 3.123683-1.561841 4.969494 4.685524 9.229062 16.470326 28.539099 32.798666 31.520797 18.458124 3.549639 23.001662 2.697726 33.792565 6.38935 2.839711 0.851913 5.537437-1.703827 4.685524-4.543538z" fill="#ABC2CE" p-id="8411"></path><path d="M365.419061 590.02638a30.100941 27.971157 82.568 1 0 55.472347-7.236106 30.100941 27.971157 82.568 1 0-55.472347 7.236106Z" fill="#635C5B" p-id="8412"></path><path d="M395.486555 599.078805a8.66112 7.951192 82.568 1 0 15.768789-2.056964 8.66112 7.951192 82.568 1 0-15.768789 2.056964Z" fill="#D6D1D0" p-id="8413"></path><path d="M408.004975 585.760268a2.981697 2.839711 54.825 1 0 4.642339-3.271778 2.981697 2.839711 54.825 1 0-4.642339 3.271778Z" fill="#D6D1D0" p-id="8414"></path><path d="M583.362797 587.881556a30.100941 27.971157 82.568 1 0 55.472347-7.236107 30.100941 27.971157 82.568 1 0-55.472347 7.236107Z" fill="#635C5B" p-id="8415"></path><path d="M613.289486 596.952163a8.66112 7.951192 82.568 1 0 15.768789-2.056964 8.66112 7.951192 82.568 1 0-15.768789 2.056964Z" fill="#D6D1D0" p-id="8416"></path><path d="M625.808522 583.64022a2.981697 2.839711 54.825 1 0 4.64234-3.271778 2.981697 2.839711 54.825 1 0-4.64234 3.271778Z" fill="#D6D1D0" p-id="8417"></path><path d="M634.817477 907.571755c-0.283971-4.543538 0.283971-8.945091 1.135885-13.346644 0.851913-4.401553 2.129784-8.66112 3.83361-12.920686 1.703827-4.117581 3.83361-8.235163 6.673322-11.926788 1.419856-1.845812 3.123683-3.549639 4.969495-4.969495 1.845812-1.419856 3.975596-2.55574 6.247365-2.839711-3.549639 2.839711-5.537437 6.531336-7.525235 10.222961-1.987798 3.691625-3.549639 7.667221-5.253466 11.642816l-4.827509 11.926788c-1.561841 3.975596-3.123683 8.093177-5.253467 12.210759z" fill="#7E9BA8" p-id="8418"></path><path d="M639.077045 911.689336c2.413755-3.975596 4.827509-7.809206 6.957292-11.642816 2.271769-3.83361 4.259567-7.667221 6.10538-11.500831 1.845812-3.975596 3.407654-7.951192 4.401553-12.068774 0.567942-2.129784 0.993899-4.259567 1.27787-6.38935 0.283971-2.129784 0.425957-4.401553 0.567942-6.815308 1.135885 2.129784 1.845812 4.401553 2.271769 6.673322 0.425957 2.271769 0.567942 4.685524 0.283971 7.099279-0.283971 4.827509-1.703827 9.513033-3.691625 13.7726-1.987798 4.259567-4.685524 8.235163-7.66722 11.784802-2.981697 3.549639-6.389351 6.673322-10.506932 9.087076z" fill="#7E9BA8" p-id="8419"></path><path d="M635.38542 926.31385c3.83361 2.697726 7.525235 5.253466 11.21686 7.667221 3.691625 2.413755 7.38325 4.685524 11.21686 6.815307 3.83361 1.987798 7.667221 3.83361 11.784802 5.11148 1.987798 0.709928 4.117581 1.135885 6.247365 1.703827 2.129784 0.425957 4.401553 0.709928 6.673322 0.993899-2.129784 0.993899-4.401553 1.561841-6.815308 1.845813-2.413755 0.283971-4.827509 0.283971-7.099278 0-4.685524-0.567942-9.371048-2.271769-13.488629-4.543539-4.117581-2.271769-7.951192-5.11148-11.21686-8.377148-3.407654-3.265668-6.389351-6.957293-8.519134-11.21686z" fill="#7E9BA8" p-id="8420"></path><path d="M508.024365 664.350476c0 10.222961-5.11148 7.951192-11.500831 7.951192s-11.500831 2.271769-11.500831-7.951192c0-10.222961 5.11148-24.847475 11.500831-24.847475s11.500831 14.624514 11.500831 24.847475z" fill="#F4DEDC" p-id="8421"></path><path d="M544.230685 455.063748l-24.98946-4.969495c-2.55574-0.567942-5.253466 0.283971-7.099279 2.129783L493.825808 469.972232c-4.685524 4.543538-12.636716 1.703827-13.346644-4.827509l-2.981697-25.273431c-0.283971-2.55574-1.845812-4.827509-4.117581-6.10538l-22.575705-11.926787c-5.821408-3.123683-5.537437-11.500831 0.425956-14.198557l23.143648-10.648918c2.413755-1.135885 4.117581-3.265668 4.543538-5.821408l4.401553-25.131446c1.135885-6.531336 9.229062-8.803105 13.630614-3.975596l17.32224 18.742095c1.703827 1.987798 4.401553 2.839711 6.957293 2.413755l25.273431-3.549639c6.531336-0.993899 11.21686 5.963394 8.093177 11.784802l-12.49473 22.291734c-1.27787 2.271769-1.419856 4.969495-0.141985 7.38325l11.21686 22.859676c2.697726 5.679423-2.55574 12.352744-8.945091 11.074875z" fill="#F2E5C0" p-id="8422"></path><path d="M399.405405 806.762001s-33.082637 37.768161-9.655019 72.270655c16.470326-31.378811 16.470326-18.884081 16.470326-18.884081l-6.815307-53.386574z m217.947848 5.111481s36.916248 34.076536 17.180253 70.850798c-19.594008-29.391013-18.458124-17.038268-18.458124-17.038268l1.277871-53.81253z" fill="#92ACB7" p-id="8423"></path><path d="M621.328848 917.368759c4.401553-0.283971 5.963394 5.679423 1.987798 7.525235-47.281194 23.285633-104.78535 20.161951-114.866325 19.452023h-0.141985c-63.609535-1.987798-114.582354-54.238487-114.582354-118.415964 0-65.455347 52.960617-42.311699 118.415964-42.3117s118.415964-23.143648 118.415964 42.3117c0 31.804767-12.49473 60.769823-32.940651 82.067659-1.987798 2.129784-1.135885 5.679423 1.561841 6.531336 6.105379 2.129784 13.630615 3.407654 22.149748 2.839711z" fill="#ABC2CE" p-id="8424"></path><path d="M523.358806 807.471929l12.778701 68.295059-17.322239 25.841373-20.303936-24.847474 7.099278-70.708814-13.630615-10.222961 22.575706-11.642816 22.575705 13.062672z" fill="#7E9BA8" p-id="8425"></path><path d="M537.131406 797.248968l-22.575705-13.062672-2.413755 1.27787 20.445922 11.784802-13.7726 10.222961 12.778701 68.295059-15.334441 22.717691 2.55574 3.123682 17.322239-25.841373-12.778701-68.295059z" fill="#6D8993" p-id="8426"></path></svg>