<?xml version="1.0" standalone="no"?><!DOCTYPE svg PUBLIC "-//W3C//DTD SVG 1.1//EN" "http://www.w3.org/Graphics/SVG/1.1/DTD/svg11.dtd"><svg t="1602483477704" class="icon" viewBox="0 0 1024 1024" version="1.1" xmlns="http://www.w3.org/2000/svg" p-id="5653" xmlns:xlink="http://www.w3.org/1999/xlink" width="200" height="200"><defs><style type="text/css"></style></defs><path d="M839.44657845 164.00356431H161.92972549c-71.72025863 0-129.86629966 58.14604101-129.86629962 129.86629966v121.52381175h937.26516313v-121.52381175c-0.01571091-71.72025863-58.16175191-129.86629966-129.88201055-129.86629966z" fill="#e8a9a5" p-id="5654"></path><path d="M969.3128781 438.96002575H32.04771495c-13.00862523 0-23.56635005-10.55772482-23.56635005-23.56635003v-121.52381175c0-84.60319665 68.82945305-153.43264971 153.4326497-153.43264972h677.51685295c84.60319665 0 153.43264971 68.82945305 153.43264971 153.43264972v121.52381175c0.01571091 13.00862523-10.52630302 23.56635005-23.55063916 23.56635003z m-913.69881311-47.13270009h890.13246307v-97.95746169c0-58.61736801-47.68258158-106.29994962-106.29994961-106.29994961H161.92972549c-58.61736801 0-106.29994962 47.68258158-106.2999496 106.29994961v97.95746169z" fill="#3e3a48" p-id="5655"></path><path d="M969.3128781 415.39367572H32.04771495v405.30979898c0 71.72025863 58.14604101 129.86629966 129.86629965 129.86629967h607.8390113l199.54414131-199.54414129V415.39367572z" fill="#fcecca" p-id="5656"></path><path d="M769.7687368 974.13612442H161.92972549c-84.60319665 0-153.43264971-68.82945305-153.43264968-153.43264972V415.39367572c0-13.00862523 10.55772482-23.56635005 23.56635006-23.56635006h937.26516313c13.00862523 0 23.56635005 10.55772482 23.56635004 23.56635006v335.64766826c0 6.2529382-2.48232221 12.23879114-6.89708512 16.66926493l-199.57556308 199.5284304a23.54435479 23.54435479 0 0 1-16.65355404 6.89708511zM55.61406499 438.96002575v381.74344895c0 58.61736801 47.68258158 106.29994962 106.29994961 106.29994962h598.08254238l185.74997108-185.73426017V438.96002575H55.61406499z" fill="#3e3a48" p-id="5657"></path><path d="M802.24316718 751.04134398h167.06971092l-199.52843039 199.52843039V783.50006343c0-17.92613695 14.53258254-32.45871946 32.45871947-32.45871945z" fill="#d6f2fe" p-id="5658"></path><path d="M769.7687368 974.13612442a23.55063915 23.55063915 0 0 1-23.56635004-23.56635005V783.50006343c0-30.90334037 25.13744005-56.04078042 56.04078042-56.04078041h167.06971092c9.53651632 0 18.13037862 5.73447851 21.77530744 14.54829344a23.57577659 23.57577659 0 0 1-5.1060425 25.68732155L786.43800174 967.23903931c-4.5090283 4.5090283-10.52630302 6.89708512-16.66926494 6.89708511z m32.47443038-199.5284304c-4.90180081 0-8.90808032 3.9905686-8.90808031 8.90808032v110.18054192l119.07291132-119.07291134h-110.16483101z" fill="#3e3a48" p-id="5659"></path><path d="M239.30590816 66.89449121h-30.82478586c-17.92613695 0-32.47443037 14.53258254-32.47443035 32.47443038v129.86629964c0 17.92613695 14.53258254 32.47443037 32.47443035 32.47443038h30.82478586c17.92613695 0 32.47443037-14.53258254 32.47443036-32.47443038v-129.86629964c-0.01571091-17.94184784-14.54829343-32.47443037-32.47443036-32.47443038z" fill="#fcecca" p-id="5660"></path><path d="M239.30590816 285.26029075h-30.82478586c-30.90334037 0-56.04078042-25.13744005-56.0407804-56.0407804v-129.86629966c0-30.90334037 25.13744005-56.04078042 56.0407804-56.04078042h30.82478586c30.90334037 0 56.04078042 25.13744005 56.04078042 56.04078042v129.86629966c-0.01571091 30.90334037-25.15315095 56.04078042-56.04078042 56.0407804z m-30.82478586-194.79944948c-4.90180081 0-8.90808032 3.9905686-8.90808032 8.90808032v129.86629964c0 4.90180081 3.9905686 8.90808032 8.90808032 8.90808033h30.82478586c4.90180081 0 8.90808032-3.9905686 8.90808031-8.90808033v-129.86629964c0-4.90180081-3.9905686-8.90808032-8.90808031-8.90808032h-30.82478586z" fill="#3e3a48" p-id="5661"></path><path d="M792.89518165 66.89449121h-30.82478586c-17.92613695 0-32.47443037 14.53258254-32.47443037 32.47443038v129.86629964c0 17.92613695 14.53258254 32.47443037 32.47443037 32.47443038h30.82478586c17.92613695 0 32.47443037-14.53258254 32.47443036-32.47443038v-129.86629964c-0.01571091-17.94184784-14.54829343-32.47443037-32.47443036-32.47443038z" fill="#fcecca" p-id="5662"></path><path d="M792.89518165 285.26029075h-30.82478586c-30.90334037 0-56.04078042-25.13744005-56.04078042-56.0407804v-129.86629966c0-30.90334037 25.13744005-56.04078042 56.04078042-56.04078042h30.82478586c30.90334037 0 56.04078042 25.13744005 56.04078042 56.04078042v129.86629966c-0.01571091 30.90334037-25.15315095 56.04078042-56.04078042 56.0407804z m-30.82478586-194.79944948c-4.90180081 0-8.90808032 3.9905686-8.90808031 8.90808032v129.86629964c0 4.90180081 3.9905686 8.90808032 8.90808031 8.90808033h30.82478586c4.90180081 0 8.90808032-3.9905686 8.90808032-8.90808033v-129.86629964c0-4.90180081-3.9905686-8.90808032-8.90808032-8.90808032h-30.82478586z" fill="#3e3a48" p-id="5663"></path><path d="M637.07447516 565.2128184c-33.96696587-28.05966746-84.57177487-23.01646855-115.72648963 8.13824621L501.00236998 593.69668017c-0.17281989 0.17281989-0.45561611 0.17281989-0.64414691 0l-20.36132643-20.36132644c-31.15471475-31.15471475-81.74381285-36.19791367-115.72648964-8.13824623-38.96303209 32.19163415-41.02115998 89.99203537-6.14296189 124.87023345l23.23642114 23.23642116 96.33923898 96.33923897c12.67869632 12.67869632 33.22855357 12.67869632 45.92296079 0l96.339239-96.33923897 23.23642113-23.23642116c34.89390898-34.86248718 32.85149196-92.67859929-6.12725099-124.85452255z" fill="#fcecca" p-id="5664"></path><path d="M500.68815199 842.71444565c-14.34405172 0-28.70381435-5.46739321-39.62288989-16.38646872l-119.57566013-119.57566014c-21.46108945-21.46108945-32.93004646-51.13897962-31.48464367-81.46101667 1.44540279-30.29061525 15.75803273-58.82160972 39.27725007-78.24028217 42.30945378-34.94104167 107.03836192-30.69909867 147.3839532 9.64649264l4.0062795 4.0062795 4.00627951-4.0062795c40.34559129-40.34559129 105.0902103-44.58753429 147.38395319-9.64649264 23.51921733 19.43438334 37.84755818 47.94966689 39.27725008 78.24028217 1.44540279 30.32203706-10.03926511 60.01563811-31.48464365 81.46101667L540.27962006 826.32797693c-10.88765372 10.91907551-25.24741635 16.38646873-39.59146807 16.38646872z m-84.22613508-272.33274114c-13.41710862 0-26.58284285 4.27336481-37.15627856 13.00862523-13.49566313 11.15473903-21.39824583 26.83421727-22.21521265 44.1476291a60.90330398 60.90330398 0 0 0 17.73760612 45.89153898l119.57566015 119.57566012a8.90336704 8.90336704 0 0 0 12.58443091 0l119.57566014-119.57566012a60.92687031 60.92687031 0 0 0 17.73760614-45.89153898c-0.81696681-17.31341183-8.71954951-32.99289006-22.21521265-44.1476291-23.77059174-19.63862503-60.69120682-16.71639762-84.05331514 6.62999981l-20.36132645 20.36132645c-4.43047379 4.46189562-10.63627932 7.03848323-16.98348293 7.03848321-6.34720361 0-12.53729823-2.57658759-17.01490474-7.069905l-20.31419375-20.31419375c-12.97720343-12.99291431-30.13350626-19.65433595-46.89703659-19.65433595z m67.91822084 6.62999983l-0.06284362 0.06284357 0.06284362-0.06284357z m32.58440666-0.04713271l0.0628436 0.06284359c-0.01571091-0.01571091-0.0471327-0.03142179-0.0628436-0.06284359z" fill="#3e3a48" p-id="5665"></path></svg>